<?xml version="1.0" encoding="UTF-8"?>
<svg width="777px" height="209px" viewBox="0 0 777 209" version="1.1" xmlns="http://www.w3.org/2000/svg" xmlns:xlink="http://www.w3.org/1999/xlink">
    <!-- Generator: Sketch 59.1 (86144) - https://sketch.com -->
    <title>animation-mockup-rev1</title>
    <desc>Created with Sketch.</desc>
    <defs>
        <polygon id="path-1" points="0 0.0069047619 124.285714 0.0069047619 124.285714 86.9792857 0 86.9792857"></polygon>
    </defs>
    <g id="animation-mockup-rev1" stroke="none" stroke-width="1" fill="none" fill-rule="evenodd">
        <rect fill="#FFFFFF" x="0" y="0" width="777" height="209"></rect>
        <path d="M223,23 L749,23 C750.656854,23 752,24.3431458 752,26 L752,185 C752,186.656854 750.656854,188 749,188 L223,188 C221.343146,188 220,186.656854 220,185 L220,26 C220,24.3431458 221.343146,23 223,23 Z" id="Rectangle" stroke="#DBCDE5" stroke-width="3" stroke-dasharray="5"></path>
        <g id="Group-5" transform="translate(279.918900, 54.500000)">
            <path d="M40.5120354,1.02044982e-06 C41.7381783,0.00339630107 42.9617639,0.243927716 43.8991622,0.719590089 L43.8991622,0.721469828 L60.1982512,8.99378329 C62.0934214,9.95788052 63.6111106,12.4045696 63.6111106,14.4727002 L63.6111106,33.529285 C63.6111106,35.6160041 62.0838226,38.0514148 60.1982512,39.007993 L43.8991622,47.2804109 C42.0040999,48.2426284 38.9611719,48.2370936 37.0776497,47.2804109 L20.7977582,39.0062177 C18.9046373,38.0420161 17.3888894,35.5955358 17.3888894,33.5274052 L17.3888894,14.4708205 C17.3888894,12.3841014 18.9142361,9.94858625 20.7977582,8.99190355 L37.0776497,0.719590089 C38.0239743,0.238601236 39.2576344,-0.000570114117 40.4903961,1.02044982e-06 L40.5120354,1.02044982e-06 L40.5120354,1.02044982e-06 Z M20.1123486,16.0920517 C20.0750208,16.1663476 20.0555809,16.2483419 20.0555809,16.3314878 L20.0555809,25.2922554 L25.3401195,22.1598331 C26.1046491,21.7678186 27.3335675,21.7700735 28.0949611,22.1598331 L34.6772855,25.5308007 C35.4426427,25.9235811 36.0555557,26.9203804 36.0555557,27.7629521 L36.0555557,35.5267459 C36.0555557,36.3768907 35.4387663,37.369095 34.6772855,37.7588121 L29.1911191,40.5678079 L38.3971143,45.1555556 C38.7253513,45.3243316 39.1498939,45.4409793 39.6111111,45.5053363 L39.6111111,24.6963653 C38.6695621,24.6076829 37.7689315,24.3752433 37.040041,24.0000005 L20.8283503,15.8549222 C20.5651504,15.7226853 20.2445855,15.8288518 20.1123486,16.0920517 Z M60.4110858,15.7976194 C60.3280396,15.7976194 60.2461408,15.8170128 60.1719133,15.8542548 L43.936516,24.0000005 C43.2113879,24.3731795 42.3200229,24.6043047 41.3888889,24.6942986 L41.3888889,45.5022882 C41.8407921,45.4373956 42.2564738,45.3218693 42.5794428,45.1555556 L51.7981484,40.566324 L46.3211029,37.7580888 C45.5565733,37.3652659 44.9444443,36.3685518 44.9444443,35.52598 L44.9444443,27.7621863 C44.9444443,26.9120414 45.5604497,25.9197945 46.3211029,25.5300349 L52.8956745,22.1598331 C53.6602041,21.7678186 54.8891224,21.7700735 55.6505161,22.1598331 L60.9444191,25.2942457 L60.9444191,16.3309528 C60.9444191,16.0364009 60.7056377,15.7976194 60.4110858,15.7976194 Z M46.641414,29.1991852 L46.641414,34.8202464 C46.641414,35.5096232 47.1422468,36.3251166 47.767771,36.6465172 L53.1469659,39.2268037 C53.2551447,39.2822347 53.3748983,39.3138479 53.5022228,39.3265641 L53.5022228,32.5251321 C52.9207191,32.4501682 52.3689972,32.2889551 51.9148812,32.0420151 L46.641414,29.1991852 Z M34.358586,29.1967352 L29.0694458,32.0420151 C28.618159,32.2873332 28.0725969,32.4475574 27.4981152,32.5231912 L27.4981152,39.3260818 C27.6222844,39.312706 27.739273,39.2811507 27.8453723,39.2268037 L33.2309104,36.647109 C33.8539401,36.3282495 34.358586,35.516446 34.358586,34.8208729 L34.358586,29.1967352 Z M19.9747471,29.6783685 L19.9747471,32.9725439 C19.9747471,34.5694954 20.8315123,36.0436834 22.2190667,36.8342193 L25.591411,38.7555558 C25.6995898,38.8109867 25.8193434,38.8710767 25.9466678,38.9308466 L25.9466678,32.5251321 C25.3651641,32.4501682 24.8134422,32.2889551 24.3593262,32.0420151 L19.9747471,29.6783685 Z M61.0252529,29.6749104 L56.6250008,32.0420151 C56.173714,32.2873332 55.6281519,32.4475574 55.0536701,32.5231912 L55.0536701,38.9268432 C55.1778393,38.8685179 55.294828,38.8099027 55.4009272,38.7555558 L58.7786694,36.8337654 C60.1674965,36.0435824 61.0252529,34.568684 61.0252529,32.9708011 L61.0252529,29.6749104 Z M53.1469659,23.884308 L47.767771,26.6417458 C47.5134398,26.7720655 47.2788731,26.9847087 47.0903913,27.2380982 L52.8393774,30.4395065 C53.5641693,30.8243451 54.9751783,30.8257822 55.7013133,30.4395065 L60.8012219,27.6056192 C60.5961524,27.1970302 60.2687784,26.8328727 59.8975765,26.6423724 L55.4009272,23.884308 C54.7779688,23.5654138 53.7724902,23.5635688 53.1469659,23.884308 Z M25.591411,23.884308 L21.1011044,26.6417458 C20.7306351,26.8315748 20.4021022,27.1960781 20.1968541,27.6067526 L25.2838224,30.4395065 C26.0086144,30.8243451 27.4196233,30.8257822 28.1457583,30.4395065 L33.9075861,27.2378079 C33.7195348,26.9854256 33.4855336,26.7730447 33.2309104,26.6423724 L27.8453723,23.884308 C27.2224138,23.5654138 26.2169352,23.5635688 25.591411,23.884308 Z M29.8333336,7.22100689 C26.6558934,8.78830175 23.9892268,10.114633 21.8333337,11.2000008 C20.9814621,11.628869 20.63855,12.6671138 21.0674182,13.5189855 C21.2367985,13.8554298 21.5115385,14.1272665 21.8497631,14.2930631 L38.3879716,22.4000005 C39.451761,22.8851359 41.5227229,22.8869475 42.5884835,22.4000005 L59.1502246,14.2913452 C60.0061287,13.8722971 60.3602704,12.8387441 59.9412222,11.98284 C59.7754728,11.6442973 59.5034267,11.369342 59.1666663,11.2000008 C56.9968624,10.1089072 54.3301958,8.78423511 51.1666664,7.22598442 L51.1666664,14.1568098 C51.1666664,15.037869 50.4617643,16.0661535 49.5915006,16.4700421 L42.0688441,19.9628408 C41.1941999,20.3691104 39.7897716,20.3667735 38.9204537,19.9628408 L31.4066577,16.4692925 C30.5329095,16.0621852 29.8333336,15.0292268 29.8333336,14.1560161 L29.8333336,7.22100689 Z M31.6111113,7.9673963 L31.6111113,13.1493199 C31.6111113,13.8285146 32.1940913,14.6319641 32.9222147,14.9486176 L39.1837114,17.8970138 C39.3142723,17.9536377 39.4593174,18.0001157 39.6136518,18.0364156 L39.6136518,11.369577 C38.9490761,11.2946131 38.3185368,11.1333999 37.7995471,10.88646 L31.6111113,7.9673963 Z M49.3888887,7.96510675 L43.1825409,10.88646 C42.6667846,11.1317781 42.043285,11.2920022 41.3867345,11.3676361 L41.3867345,18.0342636 C41.537381,17.9983215 41.6792013,17.9525814 41.8073701,17.8970138 L48.0762505,14.9492007 C48.8014702,14.6350508 49.3888887,13.8352379 49.3888887,13.1499385 L49.3888887,7.96510675 Z M39.1837114,2.66666763 L32.9222147,5.68888979 C32.6462377,5.80858034 32.3902534,5.9113111 32.1790812,6.03052199 L38.8561142,9.28395144 C39.6844478,9.66878996 41.2970295,9.67022705 42.1268981,9.28395144 L48.8174133,6.03092348 C48.6069641,5.91198333 48.3519959,5.80866602 48.0762505,5.68888979 L41.8073701,2.66666763 C41.0822333,2.35248347 39.9118349,2.35066579 39.1837114,2.66666763 Z" id="Combined-Shape" fill="#78589E"></path>
            <text id="HEROKU" font-family="BentonSans-Medium, BentonSans" font-size="16.1926" font-weight="400" letter-spacing="0.01" fill="#704797">
                <tspan x="6" y="77.2023252">HEROKU</tspan>
            </text>
            <text id="CONNECT" font-family="BentonSans-Medium, BentonSans" font-size="16.1926" font-weight="400" letter-spacing="0.01" fill="#704797">
                <tspan x="0" y="96.6340252">CONNECT</tspan>
            </text>
        </g>
        <g id="Group-2" transform="translate(617.930650, 54.500000)">
            <path d="M30.9325151,0.936558881 C33.1419469,-0.312186294 35.8608218,-0.312186294 38.0702537,0.936558881 L53.0877456,9.43888473 C55.2944087,10.6903446 56.6538462,12.9978085 56.6538462,15.4980135 L56.6538462,32.5026652 C56.6538462,35.0001555 55.2944087,37.3103341 53.0877456,38.5617939 L38.0702537,47.0614051 C35.8608218,48.312865 33.1419469,48.312865 30.9325151,47.0614051 L15.9150231,38.5617939 C13.7055913,37.3103341 12.3461538,35.0001555 12.3461538,32.5026652 L12.3461538,15.4980135 C12.3461538,12.9978085 13.7055913,10.6903446 15.9150231,9.43888473 L30.9325151,0.936558881 Z" id="Hexagon" fill="#78589E"></path>
            <text id="HEROKU" font-family="BentonSans-Medium, BentonSans" font-size="16.1926" font-weight="400" letter-spacing="0.01" fill="#704797">
                <tspan x="0" y="77.2023252">HEROKU</tspan>
            </text>
            <text id="APP" font-family="BentonSans-Medium, BentonSans" font-size="16.1926" font-weight="400" letter-spacing="0.01" fill="#704797">
                <tspan x="18" y="96.6340252">APP</tspan>
            </text>
        </g>
        <g id="Group-4" transform="translate(444.924775, 54.500000)">
            <text id="HEROKU" font-family="BentonSans-Medium, BentonSans" font-size="16.1926" font-weight="400" letter-spacing="0.01" fill="#704797">
                <tspan x="10.0235" y="77.2023252">HEROKU</tspan>
            </text>
            <text id="POSTGRES" font-family="BentonSans-Medium, BentonSans" font-size="16.1926" font-weight="400" letter-spacing="0.01" fill="#704797">
                <tspan x="0" y="96.6340252">POSTGRES</tspan>
            </text>
            <g id="Group" transform="translate(20.624200, 0.000000)">
                <path d="M5.6112,9.99999999e-05 C2.5162,9.99999999e-05 0.0002,2.5181 0.0002,5.6111 L0.0002,42.0771 C0.0002,45.1711 2.5162,47.6881 5.6112,47.6881 L42.0772,47.6881 C45.1712,47.6881 47.6872,45.1711 47.6872,42.0771 L47.6872,5.6111 C47.6872,2.5181 45.1712,9.99999999e-05 42.0772,9.99999999e-05 L5.6112,9.99999999e-05 Z" id="Fill-2" fill="#FFFFFF"></path>
                <path d="M27.701,24.381 L27.701,11.217 C34.57,11.359 38.622,12.558 38.622,14.487 C38.622,17.675 34.092,23.603 27.701,24.381 L27.701,24.381 Z M26.299,8.397 C25.524,8.397 24.895,9.025 24.895,9.8 L24.895,35.435 C24.895,36.289 24.245,36.625 24.044,36.707 C23.845,36.79 23.145,37.014 22.541,36.408 C21.994,35.861 21.105,35.861 20.558,36.408 C20.01,36.957 20.01,37.845 20.558,38.393 C21.369,39.203 22.413,39.628 23.49,39.628 C24.033,39.628 24.584,39.52 25.117,39.301 C26.712,38.64 27.701,37.157 27.701,35.435 L27.701,27.203 C35.625,26.429 41.427,19.24 41.427,14.487 C41.427,9.028 32.793,8.397 26.299,8.397 L26.299,8.397 Z M22.792,9.8 C22.792,9.025 22.163,8.397 21.389,8.397 C14.894,8.397 6.262,9.028 6.262,14.487 C6.262,19.516 12.758,27.272 21.389,27.272 C22.163,27.272 22.792,26.644 22.792,25.869 L22.792,9.8 Z M44.883,42.077 C44.883,43.625 43.624,44.883 42.077,44.883 L5.611,44.883 C4.063,44.883 2.805,43.625 2.805,42.077 L2.805,5.611 C2.805,4.064 4.063,2.806 5.611,2.806 L42.077,2.806 C43.624,2.806 44.883,4.064 44.883,5.611 L44.883,42.077 Z M5.611,-6.39488462e-14 C2.516,-6.39488462e-14 -5.32907052e-14,2.518 -5.32907052e-14,5.611 L-5.32907052e-14,42.077 C-5.32907052e-14,45.171 2.516,47.688 5.611,47.688 L42.077,47.688 C45.171,47.688 47.687,45.171 47.687,42.077 L47.687,5.611 C47.687,2.518 45.171,-6.39488462e-14 42.077,-6.39488462e-14 L5.611,-6.39488462e-14 Z" id="Fill-3" fill="#704797"></path>
            </g>
        </g>
        <g id="salesforce" transform="translate(19.000000, 39.000000)">
            <g id="Group-3">
                <mask id="mask-2" fill="white">
                    <use xlink:href="#path-1"></use>
                </mask>
                <g id="Clip-2"></g>
                <path d="M51.720119,9.49508333 C55.7283333,5.31942857 61.3087619,2.72807143 67.4812738,2.72807143 C75.6848214,2.72807143 82.8433333,7.30282143 86.6540714,14.0946905 C89.9680119,12.6143095 93.6344405,11.7905714 97.4917857,11.7905714 C112.289381,11.7905714 124.285714,23.8918571 124.285714,38.8199524 C124.285714,53.7480476 112.289381,65.8493333 97.4917857,65.8493333 C95.6851548,65.8493333 93.9202976,65.6680833 92.2134405,65.3235357 C88.857381,71.3099643 82.4597738,75.3554643 75.1182857,75.3554643 C72.0453214,75.3554643 69.1380714,74.646 66.5494762,73.383119 C63.1468095,81.3878095 55.2177262,87.0003452 45.9791548,87.0003452 C36.3563333,87.0003452 28.1545119,80.9120714 25.0080119,72.3729524 C23.6318929,72.6639881 22.2057143,72.8172738 20.7439762,72.8172738 C9.28725,72.8172738 0,63.4330119 0,51.8571786 C0,44.0982976 4.17220238,37.3250714 10.3730238,33.7011071 C9.09633333,30.7627857 8.38721429,27.5216905 8.38721429,24.1141905 C8.38721429,10.8000833 19.1945476,0.0069047619 32.5266071,0.0069047619 C40.3538452,0.0069047619 47.3097024,3.72822619 51.720119,9.49508333" id="Fill-1" fill="#0095C8" mask="url(#mask-2)"></path>
            </g>
            <path d="M18.0014048,45.1195119 C17.9230357,45.3235476 18.029369,45.3660119 18.0545714,45.4019167 C18.2876071,45.5710833 18.525131,45.6929524 18.764381,45.8303571 C20.0314048,46.5015 21.2290357,46.6982857 22.4801786,46.6982857 C25.0297619,46.6982857 26.6137143,45.342881 26.6137143,43.1602857 L26.6137143,43.117131 C26.6137143,41.098869 24.8260714,40.3655833 23.150631,39.8363333 L22.9314048,39.7652143 C21.6681786,39.3550714 20.576881,39.0008571 20.576881,38.1681429 L20.576881,38.1249881 C20.576881,37.4127619 21.2152262,36.8886905 22.2026071,36.8886905 C23.3011548,36.8886905 24.6027024,37.2539524 25.4419762,37.7172619 C25.4419762,37.7172619 25.6891667,37.8771071 25.7792738,37.6378571 C25.8279524,37.5094286 26.2529405,36.3666905 26.2974762,36.24275 C26.3458095,36.1084524 26.260881,36.0083333 26.173881,35.9555119 C25.2151548,35.3724048 23.8915119,34.9746905 22.5212619,34.9746905 L22.2668214,34.9757262 C19.9333571,34.9757262 18.3038333,36.386369 18.3038333,38.4060119 L18.3038333,38.4491667 C18.3038333,40.5775595 20.1007976,41.2694167 21.7852143,41.7506786 L22.0555357,41.833881 C23.2818214,42.2101905 24.3403214,42.5350595 24.3403214,43.3981548 L24.3403214,43.4413095 C24.3403214,44.2312143 23.6522619,44.8177738 22.5440476,44.8177738 C22.113881,44.8177738 20.7425952,44.8105238 19.2604881,43.8728571 C19.080619,43.7685952 18.9777381,43.6933333 18.8396429,43.60875 C18.7667976,43.563869 18.5841667,43.4844643 18.5047619,43.7237143 L18.0014048,45.1195119" id="Fill-4" fill="#FFFFFE"></path>
            <path d="M55.3240595,45.1195119 C55.2460357,45.3235476 55.352369,45.3660119 55.3775714,45.4019167 C55.6106071,45.5710833 55.848131,45.6929524 56.0870357,45.8303571 C57.3544048,46.5015 58.5520357,46.6982857 59.8031786,46.6982857 C62.3527619,46.6982857 63.936369,45.342881 63.936369,43.1602857 L63.936369,43.117131 C63.936369,41.098869 62.1490714,40.3655833 60.4732857,39.8363333 L60.2544048,39.7652143 C58.9911786,39.3550714 57.899881,39.0008571 57.899881,38.1681429 L57.899881,38.1249881 C57.899881,37.4127619 58.5382262,36.8886905 59.5256071,36.8886905 C60.6241548,36.8886905 61.9253571,37.2539524 62.7649762,37.7172619 C62.7649762,37.7172619 63.0121667,37.8771071 63.1022738,37.6378571 C63.1509524,37.5094286 63.5755952,36.3666905 63.6204762,36.24275 C63.6688095,36.1084524 63.583881,36.0083333 63.496881,35.9555119 C62.5381548,35.3724048 61.2141667,34.9746905 59.8442619,34.9746905 L59.5894762,34.9757262 C57.2563571,34.9757262 55.6268333,36.386369 55.6268333,38.4060119 L55.6268333,38.4491667 C55.6268333,40.5775595 57.4237976,41.2694167 59.107869,41.7506786 L59.3785357,41.833881 C60.6044762,42.2101905 61.6633214,42.5350595 61.6633214,43.3981548 L61.6633214,43.4413095 C61.6633214,44.2312143 60.9752619,44.8177738 59.8670476,44.8177738 C59.436881,44.8177738 58.06525,44.8105238 56.5831429,43.8728571 C56.403619,43.7685952 56.2986667,43.6964405 56.1626429,43.60875 C56.116381,43.5790595 55.9012976,43.4955119 55.8277619,43.7237143 L55.3240595,45.1195119" id="Fill-5" fill="#FFFFFE"></path>
            <path d="M80.8036667,40.8433929 C80.8036667,42.0769286 80.5737381,43.0501548 80.1207857,43.7361429 C79.671631,44.4169524 78.9939286,44.7476905 78.0479762,44.7476905 C77.1020238,44.7476905 76.4274286,44.4172976 75.985869,43.7368333 C75.5398214,43.0505 75.313,42.0769286 75.313,40.8433929 C75.313,39.6108929 75.5394762,38.641119 75.9855238,37.9613452 C76.4274286,37.2877857 77.1020238,36.9608452 78.0479762,36.9608452 C78.9939286,36.9608452 79.671631,37.288131 80.121131,37.962381 C80.5740833,38.641119 80.8036667,39.6108929 80.8036667,40.8433929 M82.9324048,38.5565357 C82.7225,37.8494881 82.3969405,37.227369 81.9636667,36.7077857 C81.5293571,36.1871667 80.9797381,35.7690833 80.3293095,35.465619 C79.6792262,35.1618095 78.9114167,35.0081786 78.0479762,35.0081786 C77.1845357,35.0081786 76.4167262,35.1618095 75.7662976,35.465619 C75.115869,35.7690833 74.5659048,36.1871667 74.1315952,36.7084762 C73.6983214,37.2290952 73.3720714,37.850869 73.1632024,38.5565357 C72.9557143,39.25875 72.8504167,40.0279405 72.8504167,40.8433929 C72.8504167,41.6595357 72.9557143,42.4290714 73.1632024,43.13025 C73.3720714,43.8362619 73.697631,44.4580357 74.1319405,44.9793452 C74.5665952,45.5006548 75.11725,45.915631 75.7673333,46.2115 C76.4181071,46.5077143 77.1852262,46.6578929 78.0479762,46.6578929 C78.9107262,46.6578929 79.6775,46.5077143 80.3282738,46.2115 C80.9787024,45.915631 81.5286667,45.5006548 81.9636667,44.9793452 C82.3969405,44.4597619 82.7225,43.8376429 82.9324048,43.13025 C83.1398929,42.4276905 83.2451905,41.6585 83.2451905,40.8433929 C83.2451905,40.0289762 83.1398929,39.2594405 82.9324048,38.5565357" id="Fill-6" fill="#FFFFFE"></path>
            <path d="M100.407321,44.4179881 C100.337238,44.2108452 100.135964,44.2892143 100.135964,44.2892143 C99.8259405,44.407631 99.4972738,44.5167262 99.1461667,44.571619 C98.7912619,44.6272024 98.3994167,44.6551667 97.9796071,44.6551667 C96.9504524,44.6551667 96.1312024,44.3485952 95.5460238,43.7437381 C94.9587738,43.1375 94.6280357,42.1584048 94.6314881,40.8340714 C94.6352857,39.6295357 94.9266667,38.7232857 95.4486667,38.0314286 C95.9672143,37.34475 96.7574643,36.9926071 97.8094048,36.9926071 C98.6876905,36.9926071 99.3574524,37.0941071 100.059321,37.314369 C100.059321,37.314369 100.226071,37.3875595 100.305821,37.1669524 C100.492595,36.6504762 100.63069,36.2817619 100.829548,35.7131548 C100.886167,35.5515833 100.747381,35.4821905 100.696976,35.4625119 C100.421131,35.3551429 99.7693214,35.1790714 99.2777024,35.1045 C98.8171548,35.0347619 98.2799643,34.997131 97.6809762,34.997131 C96.7871548,34.997131 95.9896548,35.1504167 95.3085,35.4535357 C94.6287262,35.7566548 94.0518333,36.1747381 93.5950833,36.6953571 C93.1379881,37.2159762 92.7899881,37.8380952 92.5597143,38.5437619 C92.3290952,39.2466667 92.2124048,40.0175833 92.2124048,40.8344167 C92.2124048,42.6003095 92.6888333,44.0257976 93.627881,45.0704881 C94.5707262,46.1193214 95.9844762,46.6516786 97.830119,46.6516786 C98.9200357,46.6516786 100.038607,46.4310714 100.843702,46.1141429 C100.843702,46.1141429 100.997333,46.0402619 100.930357,45.8610833 L100.407321,44.4179881" id="Fill-7" fill="#FFFFFE"></path>
            <path d="M104.130714,39.6612976 C104.23256,38.9756548 104.420714,38.4063571 104.712786,37.9613452 C105.15469,37.2877857 105.826524,36.9166548 106.772476,36.9166548 C107.718429,36.9166548 108.341929,37.288131 108.791429,37.962381 C109.087988,38.4070476 109.217798,39.0001667 109.268893,39.6623333 L104.130714,39.6612976 Z M111.295095,38.1557143 C111.114536,37.4731786 110.667107,36.7844286 110.374,36.468881 C109.91,35.9700119 109.456702,35.6202857 109.005821,35.4269524 C108.418571,35.1749286 107.713595,35.0081786 106.943024,35.0081786 C106.043333,35.0081786 105.226845,35.1597381 104.563988,35.4704524 C103.900786,35.7815119 103.343226,36.2075357 102.905464,36.7360952 C102.468048,37.2643095 102.140071,37.8933333 101.929821,38.6065952 C101.720262,39.3157143 101.613929,40.0893929 101.613929,40.9051905 C101.613929,41.7361786 101.723714,42.5105476 101.940869,43.2058571 C102.159405,43.9077262 102.510857,44.5239762 102.984524,45.0366548 C103.45819,45.5510595 104.067881,45.9549881 104.796333,46.2363571 C105.520988,46.5170357 106.401,46.6627262 107.410821,46.6596677 C109.491917,46.6530595 110.587012,46.1887143 111.039274,45.9387619 C111.119024,45.8945714 111.194631,45.8172381 111.100381,45.5945595 L110.628786,44.27575 C110.556631,44.078619 110.357774,44.1504286 110.357774,44.1504286 C109.841643,44.3427262 109.110083,44.6865833 107.400119,44.683131 C106.283619,44.6810595 105.455738,44.3510119 104.935464,43.8355714 C104.403798,43.3083929 104.142452,42.5336786 104.097917,41.439619 L111.300619,41.4451429 C111.300619,41.4451429 111.4905,41.4430714 111.509833,41.2576786 C111.518119,41.181381 111.757714,39.7779881 111.295095,38.1557143 L111.295095,38.1557143 Z" id="Fill-8" fill="#FFFFFE"></path>
            <path d="M46.4372857,39.6612976 C46.539131,38.9756548 46.7272857,38.4063571 47.0190119,37.9613452 C47.4612619,37.2877857 48.1330952,36.9166548 49.0790476,36.9166548 C50.025,36.9166548 50.6488452,37.288131 51.0983452,37.962381 C51.3945595,38.4070476 51.524369,39.0001667 51.5754643,39.6623333 L46.4372857,39.6612976 Z M53.6016667,38.1557143 C53.4207619,37.4731786 52.9736786,36.7844286 52.6805714,36.468881 C52.2169167,35.9700119 51.7632738,35.6202857 51.3123929,35.4269524 C50.7251429,35.1749286 50.0201667,35.0081786 49.24925,35.0081786 C48.35025,35.0081786 47.5334167,35.1597381 46.8705595,35.4704524 C46.2073571,35.7815119 45.6497976,36.2075357 45.2120357,36.7360952 C44.7742738,37.2643095 44.4462976,37.8933333 44.2363929,38.6065952 C44.0268333,39.3157143 43.9205,40.0893929 43.9205,40.9051905 C43.9205,41.7361786 44.0302857,42.5105476 44.2474405,43.2058571 C44.4663214,43.9077262 44.8174286,44.5239762 45.2910952,45.0366548 C45.7651071,45.5510595 46.3741071,45.9549881 47.1029048,46.2363571 C47.8279048,46.5170357 48.7075714,46.6627262 49.7177381,46.6596677 C51.7988333,46.6530595 52.8935833,46.1887143 53.3458452,45.9387619 C53.4255952,45.8945714 53.5012024,45.8172381 53.4066071,45.5945595 L52.9357024,44.27575 C52.8635476,44.078619 52.6643452,44.1504286 52.6643452,44.1504286 C52.1482143,44.3427262 51.417,44.6865833 49.7066905,44.683131 C48.5905357,44.6810595 47.7623095,44.3510119 47.242381,43.8355714 C46.7107143,43.3083929 46.4490238,42.5336786 46.4048333,41.439619 L53.6071905,41.4451429 C53.6071905,41.4451429 53.7970714,41.4430714 53.8164048,41.2576786 C53.8246905,41.181381 54.0642857,39.7779881 53.6016667,38.1557143 L53.6016667,38.1557143 Z" id="Fill-9" fill="#FFFFFE"></path>
            <path d="M30.8660119,44.378631 C30.5839524,44.1531905 30.5449405,44.0972619 30.4506905,43.9512262 C30.3077619,43.730619 30.2349167,43.4157619 30.2349167,43.01425 C30.2349167,42.3817738 30.4448214,41.9260595 30.87775,41.6194881 C30.8736071,41.6212143 31.4991786,41.0805714 32.967131,41.0992143 C33.9993929,41.1126786 34.92325,41.265619 34.92325,41.265619 L34.92325,44.5405476 L34.9235952,44.5405476 C34.9235952,44.5405476 34.0080238,44.7373333 32.9778333,44.799131 C31.5122976,44.8875119 30.861869,44.37725 30.8660119,44.378631 Z M33.732869,39.3160595 C33.4401071,39.2946548 33.0617262,39.2839524 32.6080833,39.2839524 C31.9911429,39.2839524 31.3942262,39.3605952 30.83425,39.5114643 C30.2715119,39.6630238 29.7653929,39.898131 29.3300476,40.2091905 C28.8922857,40.5233571 28.5404881,40.9224524 28.2853571,41.3968095 C28.0295357,41.8722024 27.8997262,42.4307976 27.8997262,43.0570595 C27.8997262,43.69575 28.0108929,44.2495119 28.230119,44.7017738 C28.4500357,45.1564524 28.7662738,45.535869 29.1695119,45.8293214 C29.5699881,46.1207024 30.0636786,46.33475 30.6367738,46.4649048 C31.2022738,46.5940238 31.8440714,46.659619 32.5442143,46.659619 C33.2837143,46.659619 34.0197619,46.5978214 34.7323333,46.4773333 C35.4397262,46.3568452 36.3062738,46.1804286 36.5465595,46.1248452 C36.7868452,46.0696071 37.0516429,45.9971071 37.0516429,45.9971071 C37.230131,45.951881 37.2159762,45.7609643 37.2159762,45.7609643 L37.2125238,39.1734762 C37.2125238,37.7279643 36.8272381,36.6584167 36.0677143,35.9931429 C35.3116429,35.3320119 34.1989405,34.997131 32.7592976,34.997131 C32.2179643,34.997131 31.3496905,35.0706667 30.8280357,35.1749286 C30.8280357,35.1749286 29.2558214,35.4797738 28.6074643,35.9872738 C28.6074643,35.9872738 28.4655714,36.0753095 28.54325,36.2738214 L29.0531667,37.6440714 C29.1166905,37.8211786 29.2893095,37.7607619 29.2893095,37.7607619 C29.2893095,37.7607619 29.3438571,37.7390119 29.4077262,37.701381 C30.7935119,36.9484167 32.546631,36.9705119 32.546631,36.9705119 C33.3251429,36.9705119 33.924131,37.12725 34.3266786,37.4362381 C34.72025,37.7379762 34.9197976,38.1923095 34.9197976,39.1520714 L34.9197976,39.4569167 C34.3014762,39.3675 33.732869,39.3160595 33.732869,39.3160595 L33.732869,39.3160595 Z" id="Fill-10" fill="#FFFFFE"></path>
            <path d="M91.8354048,35.60475 C91.8906429,35.4421429 91.7746429,35.3637738 91.7276905,35.3454762 C91.6047857,35.2985238 90.9919881,35.1690595 90.5200476,35.1400595 C89.6148333,35.0844762 89.1125119,35.2367262 88.6623214,35.4390357 C88.2155833,35.6403095 87.7208571,35.9655238 87.4453571,36.337 L87.4446667,35.4587143 C87.4446667,35.3382262 87.3587024,35.2405238 87.237869,35.2405238 L85.3911905,35.2405238 C85.2707024,35.2405238 85.1847381,35.3382262 85.1847381,35.4587143 L85.1847381,46.2052857 C85.1847381,46.3254286 85.2820952,46.423131 85.4029286,46.423131 L87.295869,46.423131 C87.4163571,46.423131 87.5140595,46.3254286 87.5140595,46.2052857 L87.5140595,40.8364881 C87.5140595,40.115631 87.5941548,39.3975357 87.7522738,38.945619 C87.9086667,38.4985357 88.1206429,38.14225 88.3837143,37.8857381 C88.6464405,37.6309524 88.9461071,37.4514286 89.2733929,37.3513095 C89.608619,37.2487738 89.9787143,37.2152857 90.2400595,37.2152857 C90.6167143,37.2152857 91.0313452,37.3116071 91.0313452,37.3116071 C91.1704762,37.3271429 91.2474643,37.2422143 91.2940714,37.1172381 C91.4180119,36.787881 91.7687738,35.8008452 91.8354048,35.60475" id="Fill-11" fill="#FFFFFE"></path>
            <path d="M74.0704881,30.6250357 C73.8405595,30.5535714 73.6316905,30.5062738 73.3582619,30.4555238 C73.0817262,30.4054643 72.752369,30.3795714 72.3791667,30.3795714 C71.0769286,30.3795714 70.0498452,30.748631 69.3282976,31.4750119 C68.6122738,32.1969048 68.1251429,33.2961429 67.8810595,34.7423452 L67.7926786,35.2298214 L66.1572857,35.2298214 C66.1572857,35.2298214 65.9577381,35.2229167 65.9159643,35.4397262 L65.647369,36.9377143 C65.6287262,37.0809881 65.6898333,37.1704048 65.8824762,37.1700595 L67.4736786,37.1700595 L65.8586548,46.1859524 C65.7322976,46.9116429 65.5879881,47.5089048 65.4274524,47.9611667 C65.2689881,48.4079048 65.1146667,48.7427857 64.9247857,48.9858333 C64.7407738,49.2209405 64.5664286,49.39425 64.265381,49.4950595 C64.0171548,49.5782619 63.7312976,49.6165833 63.4178214,49.6165833 C63.2434762,49.6165833 63.0114762,49.5875833 62.8405833,49.55375 C62.6693452,49.5195714 62.5802738,49.48125 62.4518452,49.4273929 C62.4518452,49.4273929 62.2650714,49.3562738 62.1915357,49.5430476 C62.1314643,49.6959881 61.7075119,50.8632381 61.6567619,51.0072024 C61.6063571,51.1497857 61.6778214,51.2623333 61.7679286,51.2944405 C61.9795595,51.3700476 62.1373333,51.4190714 62.4259524,51.4870833 C62.8267738,51.5816786 63.1647619,51.5872024 63.4813452,51.5872024 C64.1442024,51.5872024 64.7487143,51.4939881 65.2493095,51.3130833 C65.7537024,51.1307976 66.1925,50.813869 66.5805476,50.3843929 C67.0000119,49.9200476 67.264119,49.4353333 67.5168333,48.7728214 C67.7667857,48.1165238 67.9797976,47.3021071 68.15,46.3527024 L69.7729643,37.1700595 L72.1457857,37.1700595 C72.1457857,37.1700595 72.3453333,37.1769643 72.3871071,36.9601548 L72.6553571,35.4621667 C72.6743452,35.3188929 72.6128929,35.2294762 72.4205952,35.2298214 L70.1175119,35.2298214 C70.12925,35.1776905 70.2338571,34.3681071 70.4979643,33.6054762 C70.6105119,33.2799167 70.8228333,33.0171905 71.0030476,32.836631 C71.1801548,32.6595238 71.3835,32.5331667 71.6061786,32.4613571 C71.8347262,32.3874762 72.0950357,32.3505357 72.3791667,32.3505357 C72.5963214,32.3505357 72.8093333,32.3753929 72.9709048,32.4099167 C73.194619,32.4575595 73.281619,32.4824167 73.339619,32.5000238 C73.574381,32.5714881 73.6057976,32.5020952 73.6520595,32.3888571 L74.2030595,30.8756786 C74.2596786,30.7141071 74.1208929,30.6447143 74.0704881,30.6250357" id="Fill-12" fill="#FFFFFE"></path>
            <path d="M41.8880833,46.2052857 C41.8880833,46.3254286 41.802119,46.423131 41.681631,46.423131 L39.7710833,46.423131 C39.6505952,46.423131 39.564631,46.3254286 39.564631,46.2052857 L39.564631,30.8304524 C39.564631,30.7099643 39.6505952,30.6122619 39.7710833,30.6122619 L41.681631,30.6122619 C41.802119,30.6122619 41.8880833,30.7099643 41.8880833,30.8304524 L41.8880833,46.2052857" id="Fill-13" fill="#FFFFFE"></path>
        </g>
        <path id="Line" d="M155.810309,68.4503238 C156.293461,68.182775 156.902025,68.3575561 157.169574,68.8407084 C157.437122,69.3238606 157.262341,69.932424 156.779189,70.1999728 L156.779189,70.1999728 L148.072,75.02 L291.94,75.98 L283.299188,71.0434395 C282.853899,70.7890418 282.678398,70.2441771 282.874952,69.783689 L282.926961,69.6790909 C283.200928,69.1995488 283.811768,69.0328971 284.29131,69.3068638 L284.29131,69.3068638 L296.246044,76.1367121 C296.923132,76.5235385 296.916609,77.5020597 296.234423,77.8798244 L296.234423,77.8798244 L284.189691,84.5496762 C283.706539,84.817225 283.097975,84.6424439 282.830426,84.1592916 C282.562878,83.6761394 282.737659,83.067576 283.220811,82.8000272 L283.220811,82.8000272 L291.927,77.979 L148.059,77.019 L156.700812,81.9565605 C157.146101,82.2109582 157.321602,82.7558229 157.125048,83.216311 L157.073039,83.3209091 C156.799072,83.8004512 156.188232,83.9671029 155.70869,83.6931362 L155.70869,83.6931362 L143.753956,76.8632879 C143.076868,76.4764615 143.083391,75.4979403 143.765577,75.1201756 L143.765577,75.1201756 Z" fill="#DBCDE5" fill-rule="nonzero"></path>
        <path id="Line" d="M450.878424,60.7597388 C451.149188,60.2783809 451.758903,60.1076607 452.240261,60.3784245 L452.240261,60.3784245 L464.240261,67.1284245 C464.919913,67.5107285 464.919913,68.4892715 464.240261,68.8715755 L464.240261,68.8715755 L452.240261,75.6215755 C451.758903,75.8923393 451.149188,75.7216191 450.878424,75.2402612 C450.607661,74.7589034 450.778381,74.1491883 451.259739,73.8784245 L451.259739,73.8784245 L459.931,69 L345,69 C344.487164,69 344.064493,68.6139598 344.006728,68.1166211 L344,68 C344,67.4477153 344.447715,67 345,67 L345,67 L459.931,67 L451.259739,62.1215755 C450.812764,61.870152 450.633634,61.3264695 450.827113,60.8646812 Z" fill="#DBCDE5" fill-rule="nonzero"></path>
        <path id="Line" d="M615.878424,59.7597388 C616.149188,59.2783809 616.758903,59.1076607 617.240261,59.3784245 L617.240261,59.3784245 L629.240261,66.1284245 C629.919913,66.5107285 629.919913,67.4892715 629.240261,67.8715755 L629.240261,67.8715755 L617.240261,74.6215755 C616.758903,74.8923393 616.149188,74.7216191 615.878424,74.2402612 C615.607661,73.7589034 615.778381,73.1491883 616.259739,72.8784245 L616.259739,72.8784245 L624.931,68 L515,68 C514.487164,68 514.064493,67.6139598 514.006728,67.1166211 L514,67 C514,66.4477153 514.447715,66 515,66 L515,66 L624.931,66 L616.259739,61.1215755 C615.812764,60.870152 615.633634,60.3264695 615.827113,59.8646812 Z" fill="#DBCDE5" fill-rule="nonzero"></path>
        <path id="Line" d="M355.759739,81.3784245 C356.241097,81.1076607 356.850812,81.2783809 357.121576,81.7597388 C357.392339,82.2410966 357.221619,82.8508117 356.740261,83.1215755 L356.740261,83.1215755 L348.067,88 L463,88 C463.512836,88 463.935507,88.3860402 463.993272,88.8833789 L464,89 C464,89.5522847 463.552285,90 463,90 L463,90 L348.067,90 L356.740261,94.8784245 C357.187236,95.129848 357.366366,95.6735305 357.172887,96.1353188 L357.121576,96.2402612 C356.850812,96.7216191 356.241097,96.8923393 355.759739,96.6215755 L355.759739,96.6215755 L343.759739,89.8715755 C343.080087,89.4892715 343.080087,88.5107285 343.759739,88.1284245 L343.759739,88.1284245 Z" fill="#DBCDE5" fill-rule="nonzero"></path>
        <path id="Line" d="M525.759739,80.3784245 C526.241097,80.1076607 526.850812,80.2783809 527.121576,80.7597388 C527.392339,81.2410966 527.221619,81.8508117 526.740261,82.1215755 L526.740261,82.1215755 L518.065,87 L628,87 C628.512836,87 628.935507,87.3860402 628.993272,87.8833789 L629,88 C629,88.5522847 628.552285,89 628,89 L628,89 L518.067,89 L526.740261,93.8784245 C527.187236,94.129848 527.366366,94.6735305 527.172887,95.1353188 L527.121576,95.2402612 C526.850812,95.7216191 526.241097,95.8923393 525.759739,95.6215755 L525.759739,95.6215755 L513.759739,88.8715755 C513.080087,88.4892715 513.080087,87.5107285 513.759739,87.1284245 L513.759739,87.1284245 Z" fill="#DBCDE5" fill-rule="nonzero"></path>
    </g>
</svg>