<svg xmlns="http://www.w3.org/2000/svg" xmlns:xlink="http://www.w3.org/1999/xlink" viewBox="0 0 177.55 152.39"><defs><style>.cls-1{fill:none;}.cls-2{fill:#704797;}.cls-3{fill:#fff;}.cls-4{opacity:0.5;}.cls-5{clip-path:url(#clip-path);}.cls-6{fill:#fefefe;}.cls-7{fill:#fdfdfd;}.cls-8{fill:#fcfcfc;}.cls-9{fill:#fbfbfc;}.cls-10{fill:#fafafb;}.cls-11{fill:#f9f9fa;}.cls-12{fill:#f7f7f9;}.cls-13{fill:#f6f6f8;}.cls-14{fill:#f5f5f7;}.cls-15{fill:#f4f4f7;}.cls-16{fill:#f3f3f6;}.cls-17{fill:#f2f2f5;}.cls-18{fill:#f1f1f4;}.cls-19{fill:#704898;}.cls-20{fill:#dbcde5;}.cls-21{fill:#78c26d;}.cls-22{fill:#3ca0d9;}.cls-23{fill:#482f8b;}.cls-24{fill:#f8a051;}.cls-25{fill:#d7dce6;}</style><clipPath id="clip-path"><rect class="cls-1" x="59.32" y="67.62" width="58.83" height="91.8" transform="translate(-24.78 202.26) rotate(-90)"/></clipPath></defs><title>data-viz</title><g id="Layer_2" data-name="Layer 2"><g id="Layer_2-2" data-name="Layer 2"><path class="cls-2" d="M0,.07H5.83C9.71.07,12,1.63,12,5A4.34,4.34,0,0,1,8.34,9.58l3.84,6.78H9.23L5.57,9.93H2.71v6.43H0ZM5.72,7.53C8,7.53,9.25,7,9.25,5S8,2.58,5.7,2.58h-3v5Z"/><path class="cls-2" d="M15.43.07H26V2.62H18.18V6.67h5.71V9.12H18.18v4.73H26.4v2.51h-11Z"/><path class="cls-2" d="M33.79,0H36.5l5.77,16.36H39.45l-1.32-3.88H31.94L30.6,16.36H28Zm3.53,10.06-2.23-6.6h0l-2.27,6.6Z"/><path class="cls-2" d="M44.89.07h2.75V13.85h7.51v2.51H44.89Z"/><path class="cls-2" d="M61.6,2.62h-5V.07H69.37V2.62h-5V16.36H61.6Z"/><path class="cls-2" d="M72.21.07H75V16.36H72.21Z"/><path class="cls-2" d="M79.08.07h3.63L87.07,13h0L91.34.07H95V16.36H92.38V4.21h0a31.67,31.67,0,0,1-1,3.32l-3.17,8.83H85.75L82.6,7.53a26.79,26.79,0,0,1-1-3.44h0V16.36H79.08Z"/><path class="cls-2" d="M99,.07h10.52V2.62h-7.77V6.67h5.7V9.12h-5.7v4.73h8.21v2.51H99Z"/><path class="cls-2" d="M118.59.07h4.65c5.11,0,8.45,2.37,8.45,8.08s-3.41,8.21-8.45,8.21h-4.65Zm4.89,13.82c3.72,0,5.46-1.63,5.46-5.74,0-3.92-1.76-5.53-5.5-5.53h-2.09V13.89Z"/><path class="cls-2" d="M139.31,0H142l5.77,16.36H145l-1.32-3.88h-6.19l-1.34,3.88h-2.58Zm3.52,10.06-2.22-6.6h-.05l-2.26,6.6Z"/><path class="cls-2" d="M154.17,2.62h-5V.07h12.79V2.62h-5V16.36h-2.75Z"/><path class="cls-2" d="M169.07,0h2.71l5.77,16.36h-2.82l-1.32-3.88h-6.19l-1.34,3.88h-2.57Zm3.53,10.06-2.23-6.6h0l-2.27,6.6Z"/><path class="cls-2" d="M1.65,26.48h2.8l4.2,12.71h0L13,26.48h2.6L9.91,42.84H7.31Z"/><path class="cls-2" d="M18.36,26.48h2.77v16.3H18.36Z"/><path class="cls-2" d="M24.37,39l2.18-1.15A4.72,4.72,0,0,0,31,40.64c2,0,3.33-.64,3.33-2.11s-1-2.07-3.7-2.86C27.52,34.74,25,33.88,25,30.78c0-2.78,2.26-4.6,5.57-4.6a6.42,6.42,0,0,1,6.1,3.5l-2,1.38a4.49,4.49,0,0,0-4.12-2.37c-1.8,0-2.84.66-2.84,1.85,0,1.51,1.17,2,3.84,2.81,3.08.91,5.54,1.92,5.54,5,0,2.66-2.26,4.76-6.14,4.76A6.75,6.75,0,0,1,24.37,39Z"/><path class="cls-2" d="M40.07,36.83V26.48h2.75V36.59c0,2.49,1.08,4,3.59,4S50,39.12,50,36.61V26.48h2.71V36.81c0,3.7-2.09,6.23-6.29,6.23C41.89,43,40.07,40.53,40.07,36.83Z"/><path class="cls-2" d="M60.85,26.42h2.71l5.77,16.36H66.51L65.19,38.9H59l-1.34,3.88H55.08Zm3.52,10.06-2.22-6.6h0l-2.26,6.6Z"/><path class="cls-2" d="M71.94,26.48H74.7V40.27h7.5v2.51H71.94Z"/><path class="cls-2" d="M85.06,26.48h2.78v16.3H85.06Z"/><path class="cls-2" d="M90.85,40.86l9-12.06H91.45V26.48h11.87v2l-8.9,12.06h8.9v2.25H90.85Z"/><path class="cls-2" d="M110.82,26.42h2.71l5.77,16.36h-2.82l-1.32-3.88H109l-1.34,3.88h-2.58Zm3.53,10.06-2.23-6.6h0l-2.27,6.6Z"/><path class="cls-2" d="M125.68,29h-5V26.48h12.8V29h-5V42.78h-2.75Z"/><path class="cls-2" d="M136.29,26.48h2.78v16.3h-2.78Z"/><path class="cls-2" d="M142.37,34.63c0-5.48,3.24-8.45,7.38-8.45s7.33,3,7.33,8.45-3.22,8.46-7.33,8.46S142.37,40.11,142.37,34.63Zm11.93,0c0-3.83-1.82-5.92-4.55-5.92s-4.61,2.09-4.61,5.92,1.83,6,4.61,6S154.3,38.46,154.3,34.63Z"/><path class="cls-2" d="M160.2,26.48H163l7.7,11.63h.05V26.48h2.55v16.3h-2.51l-8-11.87h-.05V42.78H160.2Z"/><rect class="cls-3" x="41.83" y="65.41" width="92.81" height="85.23" rx="7.35"/><g class="cls-4"><g class="cls-5"><rect class="cls-3" x="42.84" y="138.73" width="91.8" height="4.2"/><rect class="cls-6" x="42.84" y="134.53" width="91.8" height="4.2"/><rect class="cls-7" x="42.84" y="130.33" width="91.8" height="4.2"/><rect class="cls-8" x="42.84" y="126.13" width="91.8" height="4.2"/><rect class="cls-9" x="42.84" y="121.93" width="91.8" height="4.2"/><rect class="cls-10" x="42.84" y="117.72" width="91.8" height="4.2"/><rect class="cls-11" x="42.84" y="113.52" width="91.8" height="4.2"/><rect class="cls-12" x="42.84" y="109.32" width="91.8" height="4.2"/><rect class="cls-13" x="42.84" y="105.12" width="91.8" height="4.2"/><rect class="cls-14" x="42.84" y="100.92" width="91.8" height="4.2"/><rect class="cls-15" x="42.84" y="96.71" width="91.8" height="4.2"/><rect class="cls-16" x="42.84" y="92.51" width="91.8" height="4.2"/><rect class="cls-17" x="42.84" y="88.31" width="91.8" height="4.2"/><rect class="cls-18" x="42.84" y="84.11" width="91.8" height="4.2"/><path class="cls-18" d="M134.64,84.11h0Z"/></g></g><path class="cls-19" d="M127.29,152.39H49.18a9.11,9.11,0,0,1-9.1-9.09V72.76a9.11,9.11,0,0,1,9.1-9.1h78.11a9.11,9.11,0,0,1,9.1,9.1V143.3A9.11,9.11,0,0,1,127.29,152.39ZM49.18,67.16a5.6,5.6,0,0,0-5.6,5.6V143.3a5.6,5.6,0,0,0,5.6,5.59h78.11a5.6,5.6,0,0,0,5.6-5.59V72.76a5.6,5.6,0,0,0-5.6-5.6Z"/><path class="cls-20" d="M134.64,82.84V70.31a4.92,4.92,0,0,0-4.91-4.9h-83a4.92,4.92,0,0,0-4.9,4.9V82.84Z"/><path class="cls-19" d="M134.64,84.59H41.83a1.75,1.75,0,0,1-1.75-1.75V70.31a6.66,6.66,0,0,1,6.65-6.65h83a6.66,6.66,0,0,1,6.66,6.65V82.84A1.75,1.75,0,0,1,134.64,84.59Zm-91.06-3.5h89.31V70.31a3.16,3.16,0,0,0-3.16-3.15h-83a3.16,3.16,0,0,0-3.15,3.15Z"/><circle class="cls-2" cx="51.41" cy="74.13" r="3"/><circle class="cls-2" cx="60.23" cy="74.13" r="3"/><circle class="cls-2" cx="69.04" cy="74.13" r="3"/><path class="cls-21" d="M58.94,123.59c1.34,0,3.74,3.58,5.45,3.64s6.78-5.08,7.63-5.91,2.71-3.58,4.35-3.61,3.71,2.68,5.48,2.65,4.44-2.28,5.9-2.28,3.87,2.22,5.72,2.22,3.65-2.22,5.65-2.19,4.14,3.55,6.06,3.52,2.22-1.83,4.53-1.83c1.76,0,7.67,2.57,10.39,3.79V108.43a63.13,63.13,0,0,1-9.26,3.68c-3.26.76-3.47-1.76-5.66-1.73s-4.47,3.38-6.18,3.47-3.59-2.22-5.53-2.2-4.08,2-5.9,2-4-2-5.6-2-4.6,2.77-5.66,2.73-2.19-1.38-3.07-2.33-7-7.33-8.91-7.21-3.84,3.5-5.54,3.41a5.09,5.09,0,0,1-2.62-1.62V125.3C56.87,124.63,58.05,123.62,58.94,123.59Z"/><path class="cls-22" d="M67,114.38c6.76.52,12.17,2.35,16.29,2.69A44.42,44.42,0,0,0,96,116.5c3.81-.86,6.45-2.93,9.28-2.39s3.2,4.64,8.36,5.39a33.25,33.25,0,0,1,6.44,2v-13a63.13,63.13,0,0,1-9.26,3.68c-3.26.76-3.47-1.76-5.66-1.73s-4.47,3.38-6.18,3.47-3.59-2.22-5.53-2.2-4.08,2-5.9,2-4-2-5.6-2-4.6,2.77-5.66,2.73-2.19-1.38-3.07-2.33-7-7.33-8.91-7.21-3.84,3.5-5.54,3.41a5.09,5.09,0,0,1-2.62-1.62v12.05C58.07,117,62.14,114,67,114.38Z"/><path class="cls-23" d="M105.18,110.38c-2.19,0-4.47,3.38-6.18,3.47s-3.59-2.22-5.53-2.2-4.08,2-5.9,2-4-2-5.6-2-4.6,2.77-5.66,2.73-2.19-1.38-3.07-2.33-7-7.33-8.91-7.21-3.84,3.5-5.54,3.41a5.09,5.09,0,0,1-2.62-1.62v6.51A14,14,0,0,0,60.71,110c1.58-2,2.58-3.4,3.83-3.43s4.38,4.56,6.14,5.65,3.9,2.4,5.6,2.44,4.2-1.34,6.66-1.16,2.92,1,4.75.88,3.69-2.31,5.78-2.31,3.8,2.19,5.44,2.25,4-3.71,6.33-3.71,2.16,4.44,5.08,4.26c2.12-.13,7.18-2.27,9.78-3.42v-3a63.13,63.13,0,0,1-9.26,3.68C107.58,112.87,107.37,110.35,105.18,110.38Z"/><path class="cls-24" d="M109.6,118.75c-1.84-.51-2.33,1.19-4.55,1.25s-3.28-3.39-5.17-3.43-3.74,2-6.07,2.18-3.92-1-6-1.07-3.64,1.52-5.73,1.85-4.19-2.53-5.91-2.59-9.4,6.2-11.36,6.19-3.2-4.42-5.35-4.38c-1.05,0-2.29,1.17-3.28,2.34v4.21c.7-.67,1.88-1.68,2.77-1.71,1.34,0,3.74,3.58,5.45,3.64s6.78-5.08,7.63-5.91,2.71-3.58,4.35-3.61,3.71,2.68,5.48,2.65,4.44-2.28,5.9-2.28,3.87,2.22,5.72,2.22,3.65-2.22,5.65-2.19,4.14,3.55,6.06,3.52,2.22-1.83,4.53-1.83c1.76,0,7.67,2.57,10.39,3.79v-1.14C117.91,121.65,111.14,119.18,109.6,118.75Z"/><path class="cls-25" d="M119.41,94.94a.42.42,0,0,1,.41.42v41.85a.42.42,0,0,1-.41.42H57.06a.41.41,0,0,1-.41-.42V95.36a.41.41,0,0,1,.41-.42h62.35m0-1.59H57.06a2,2,0,0,0-2,2v41.85a2,2,0,0,0,2,2h62.35a2,2,0,0,0,2-2V95.36a2,2,0,0,0-2-2Z"/></g></g></svg>