<svg xmlns="http://www.w3.org/2000/svg" viewBox="0 0 278.05 143.37"><defs><style>.cls-1{fill:#231f20;}.cls-2{fill:#fff;}</style></defs><title>data-viz-tooltip-sm</title><g id="Layer_2" data-name="Layer 2"><g id="Layer_2-2" data-name="Layer 2"><rect class="cls-1" y="78.21" width="278.05" height="65.16" rx="6.92"/><path class="cls-2" d="M16.63,95.41h3.72c2.46,0,3.89,1,3.89,3.11a2.75,2.75,0,0,1-2.3,2.94l2.44,4.31H22.5l-2.32-4.09H18.36v4.09H16.63Zm3.65,4.74c1.45,0,2.24-.36,2.24-1.59S21.75,97,20.26,97h-1.9v3.15Z"/><path class="cls-2" d="M25.82,102.06a3.54,3.54,0,0,1,3.54-3.87c1.67,0,3.26,1,3.26,4v.41H27.54a1.84,1.84,0,0,0,2,1.93,2.69,2.69,0,0,0,2.09-.87l.91.9a4,4,0,0,1-3.13,1.35C27.54,105.93,25.82,104.79,25.82,102.06Zm5.22-.73c-.1-1.13-.66-1.74-1.69-1.74a1.75,1.75,0,0,0-1.78,1.74Z"/><path class="cls-2" d="M33.8,104c0-1.61,1.37-2.69,4.84-3.08v-.23c0-.74-.39-1.06-1.21-1.06a4,4,0,0,0-2.51,1l-.84-1.08a5.31,5.31,0,0,1,3.58-1.35c2,0,2.68,1,2.68,2.69V104a5.18,5.18,0,0,0,.21,1.82H38.81a2.64,2.64,0,0,1-.17-1,3.55,3.55,0,0,1-2.74,1.06A1.87,1.87,0,0,1,33.8,104Zm4.84-.28v-1.64c-2.06.28-3.15.78-3.15,1.6,0,.58.41.89,1,.89A2.94,2.94,0,0,0,38.64,103.7Z"/><path class="cls-2" d="M42.39,95.41h1.74v10.36H42.39Z"/><path class="cls-2" d="M46.07,100.76h3.46V102H46.07Z"/><path class="cls-2" d="M52,103.82V99.71H50.71V98.33H52V95.74h1.72v2.59h1.92v1.38H53.72v3.68c0,.8.24,1.12,1.09,1.12a2.67,2.67,0,0,0,.75-.1v1.36a8.88,8.88,0,0,1-1.26.1C52.4,105.87,52,105.17,52,103.82Z"/><path class="cls-2" d="M57.25,95.55H59v1.5H57.25Zm0,2.78H59v7.44H57.26Z"/><path class="cls-2" d="M61.14,98.33h1.72v1a3.41,3.41,0,0,1,2.55-1.17,1.85,1.85,0,0,1,2,1.22,3.55,3.55,0,0,1,2.61-1.22,2,2,0,0,1,2.17,2.24v5.34H70.5v-4.9c0-.83-.24-1.21-1-1.21a2.94,2.94,0,0,0-1.91,1v5.14H65.82v-4.9c0-.83-.24-1.21-1-1.21a3,3,0,0,0-1.91,1v5.14H61.14Z"/><path class="cls-2" d="M73.79,102.06a3.54,3.54,0,0,1,3.55-3.87c1.66,0,3.26,1,3.26,4v.41H75.52a1.84,1.84,0,0,0,2,1.93,2.68,2.68,0,0,0,2.08-.87l.91.9a4,4,0,0,1-3.12,1.35C75.52,105.93,73.79,104.79,73.79,102.06Zm5.23-.73c-.1-1.13-.66-1.74-1.7-1.74a1.75,1.75,0,0,0-1.78,1.74Z"/><path class="cls-2" d="M85.5,102.07c0-2.57,1.27-3.88,3.18-3.88a2.87,2.87,0,0,1,2.13.94V95.41h1.72V104a4.9,4.9,0,0,0,.22,1.82H91a3,3,0,0,1-.16-1,3,3,0,0,1-2.37,1.12C86.74,105.88,85.5,104.65,85.5,102.07Zm5.31,1.46v-3a2.27,2.27,0,0,0-1.75-.93c-1.31,0-1.84.84-1.84,2.5s.67,2.35,1.78,2.35A2.53,2.53,0,0,0,90.81,103.53Z"/><path class="cls-2" d="M94.12,104c0-1.61,1.37-2.69,4.85-3.08v-.23c0-.74-.4-1.06-1.22-1.06a4,4,0,0,0-2.51,1l-.84-1.08A5.34,5.34,0,0,1,98,98.19c2,0,2.67,1,2.67,2.69V104a5.18,5.18,0,0,0,.21,1.82H99.14a2.64,2.64,0,0,1-.17-1,3.59,3.59,0,0,1-2.75,1.06A1.88,1.88,0,0,1,94.12,104ZM99,103.7v-1.64c-2.06.28-3.15.78-3.15,1.6,0,.58.4.89,1,.89A3,3,0,0,0,99,103.7Z"/><path class="cls-2" d="M103.24,103.82V99.71H102V98.33h1.29V95.74H105v2.59h1.92v1.38H105v3.68c0,.8.24,1.12,1.09,1.12a2.65,2.65,0,0,0,.74-.1v1.36a8.62,8.62,0,0,1-1.26.1C103.64,105.87,103.24,105.17,103.24,103.82Z"/><path class="cls-2" d="M108,104c0-1.61,1.38-2.69,4.85-3.08v-.23c0-.74-.39-1.06-1.22-1.06a4,4,0,0,0-2.51,1l-.84-1.08a5.34,5.34,0,0,1,3.59-1.35c2,0,2.67,1,2.67,2.69V104a5.18,5.18,0,0,0,.21,1.82H113a2.64,2.64,0,0,1-.17-1,3.59,3.59,0,0,1-2.75,1.06A1.88,1.88,0,0,1,108,104Zm4.85-.28v-1.64c-2.06.28-3.15.78-3.15,1.6,0,.58.4.89,1,.89A3,3,0,0,0,112.8,103.7Z"/><path class="cls-2" d="M119.29,98.33h1.81l1.82,5.49h0l1.8-5.49h1.67l-2.69,7.46H122Z"/><path class="cls-2" d="M127.71,95.55h1.76v1.5h-1.76Zm0,2.78h1.74v7.44h-1.74Z"/><path class="cls-2" d="M131,104.75l.94-1a3.63,3.63,0,0,0,2.34.88c.92,0,1.48-.24,1.48-.85s-.76-.79-1.65-1c-1.28-.29-2.8-.63-2.8-2.35,0-1.3,1.12-2.19,2.76-2.19a4.38,4.38,0,0,1,3,1l-.83,1.12a3.78,3.78,0,0,0-2.1-.81c-.95,0-1.26.34-1.26.76,0,.6.74.78,1.63,1,1.27.28,2.83.6,2.83,2.34,0,1.57-1.42,2.3-3.11,2.3A4.73,4.73,0,0,1,131,104.75Z"/><path class="cls-2" d="M139,103.67V98.33h1.73v4.93c0,.83.35,1.21,1.11,1.21a3,3,0,0,0,2-1V98.33h1.73v7.44h-1.73v-1a3.69,3.69,0,0,1-2.72,1.15A2,2,0,0,1,139,103.67Z"/><path class="cls-2" d="M147.17,104c0-1.61,1.37-2.69,4.84-3.08v-.23c0-.74-.39-1.06-1.22-1.06a4,4,0,0,0-2.5,1l-.84-1.08A5.29,5.29,0,0,1,151,98.19c2,0,2.68,1,2.68,2.69V104a5,5,0,0,0,.21,1.82h-1.74a2.64,2.64,0,0,1-.17-1,3.57,3.57,0,0,1-2.74,1.06A1.87,1.87,0,0,1,147.17,104Zm4.84-.28v-1.64c-2.06.28-3.15.78-3.15,1.6,0,.58.41.89,1,.89A2.94,2.94,0,0,0,152,103.7Z"/><path class="cls-2" d="M155.76,95.41h1.74v10.36h-1.74Z"/><path class="cls-2" d="M159.7,95.55h1.76v1.5H159.7Zm0,2.78h1.74v7.44h-1.74Z"/><path class="cls-2" d="M163.1,104.78l4-5.07h-3.67V98.33h5.83v1l-4,5.07h4.22v1.33H163.1Z"/><path class="cls-2" d="M170.53,104c0-1.61,1.37-2.69,4.85-3.08v-.23c0-.74-.39-1.06-1.22-1.06a4,4,0,0,0-2.51,1l-.84-1.08a5.34,5.34,0,0,1,3.59-1.35c2,0,2.67,1,2.67,2.69V104a5.18,5.18,0,0,0,.21,1.82h-1.73a2.64,2.64,0,0,1-.17-1,3.59,3.59,0,0,1-2.75,1.06A1.88,1.88,0,0,1,170.53,104Zm4.85-.28v-1.64c-2.06.28-3.15.78-3.15,1.6,0,.58.4.89,1,.89A3,3,0,0,0,175.38,103.7Z"/><path class="cls-2" d="M179.65,103.82V99.71h-1.29V98.33h1.29V95.74h1.72v2.59h1.92v1.38h-1.92v3.68c0,.8.24,1.12,1.09,1.12a2.6,2.6,0,0,0,.74-.1v1.36a8.62,8.62,0,0,1-1.26.1C180.05,105.87,179.65,105.17,179.65,103.82Z"/><path class="cls-2" d="M184.9,95.55h1.76v1.5H184.9Zm0,2.78h1.74v7.44h-1.74Z"/><path class="cls-2" d="M188.37,102.06a3.63,3.63,0,1,1,3.62,3.87A3.5,3.5,0,0,1,188.37,102.06Zm5.52,0c0-1.39-.59-2.4-1.9-2.4s-1.89.9-1.89,2.4.58,2.42,1.89,2.42S193.89,103.59,193.89,102.06Z"/><path class="cls-2" d="M197.27,98.33H199v1a3.71,3.71,0,0,1,2.72-1.15,2,2,0,0,1,2.14,2.24v5.34h-1.74v-4.9c0-.83-.35-1.21-1.1-1.21a3,3,0,0,0-2,1v5.14h-1.74Z"/><path class="cls-2" d="M209.58,95.41h1.73v10.36h-1.73Z"/><path class="cls-2" d="M213.51,95.55h1.77v1.5h-1.77Zm0,2.78h1.73v7.44h-1.73Z"/><path class="cls-2" d="M216.84,104.75l.94-1a3.65,3.65,0,0,0,2.34.88c.92,0,1.49-.24,1.49-.85s-.76-.79-1.66-1c-1.27-.29-2.8-.63-2.8-2.35,0-1.3,1.12-2.19,2.76-2.19a4.38,4.38,0,0,1,3.05,1l-.82,1.12a3.81,3.81,0,0,0-2.1-.81c-1,0-1.26.34-1.26.76,0,.6.74.78,1.62,1,1.28.28,2.83.6,2.83,2.34,0,1.57-1.41,2.3-3.11,2.3A4.75,4.75,0,0,1,216.84,104.75Z"/><path class="cls-2" d="M225.45,103.82V99.71h-1.28V98.33h1.28V95.74h1.73v2.59h1.92v1.38h-1.92v3.68c0,.8.23,1.12,1.09,1.12a2.65,2.65,0,0,0,.74-.1v1.36a8.62,8.62,0,0,1-1.26.1C225.86,105.87,225.45,105.17,225.45,103.82Z"/><path class="cls-2" d="M230.23,102.06a3.54,3.54,0,0,1,3.54-3.87c1.67,0,3.26,1,3.26,4v.41H232a1.84,1.84,0,0,0,2,1.93,2.7,2.7,0,0,0,2.09-.87l.91.9a4,4,0,0,1-3.13,1.35C232,105.93,230.23,104.79,230.23,102.06Zm5.22-.73c-.1-1.13-.66-1.74-1.69-1.74a1.75,1.75,0,0,0-1.78,1.74Z"/><path class="cls-2" d="M238.68,98.33h1.74v1a3.71,3.71,0,0,1,2.72-1.15,2,2,0,0,1,2.14,2.24v5.34h-1.74v-4.9c0-.83-.35-1.21-1.1-1.21a3,3,0,0,0-2,1v5.14h-1.74Z"/><path class="cls-2" d="M246.7,104.75l.94-1a3.65,3.65,0,0,0,2.34.88c.93,0,1.49-.24,1.49-.85s-.76-.79-1.66-1c-1.27-.29-2.8-.63-2.8-2.35,0-1.3,1.12-2.19,2.76-2.19a4.39,4.39,0,0,1,3.06,1l-.83,1.12a3.81,3.81,0,0,0-2.1-.81c-1,0-1.26.34-1.26.76,0,.6.74.78,1.62,1,1.28.28,2.83.6,2.83,2.34,0,1.57-1.41,2.3-3.11,2.3A4.77,4.77,0,0,1,246.7,104.75Z"/><path class="cls-2" d="M17,120.62v-4.11H15.72v-1.38H17v-2.59h1.73v2.59h1.91v1.38H18.74v3.68c0,.8.23,1.12,1.09,1.12a2.65,2.65,0,0,0,.74-.1v1.36a8.75,8.75,0,0,1-1.26.1C17.42,122.67,17,122,17,120.62Z"/><path class="cls-2" d="M21.78,118.86A3.5,3.5,0,0,1,25.41,115a3.88,3.88,0,0,1,0,7.74A3.53,3.53,0,0,1,21.78,118.86Zm5.52,0c0-1.39-.58-2.4-1.89-2.4s-1.89.9-1.89,2.4.58,2.42,1.89,2.42S27.3,120.39,27.3,118.86Z"/><path class="cls-2" d="M33.78,121.55l.94-1a3.71,3.71,0,0,0,2.34.88c.93,0,1.49-.24,1.49-.85s-.76-.79-1.66-1c-1.27-.29-2.8-.63-2.8-2.35,0-1.3,1.12-2.19,2.76-2.19a4.36,4.36,0,0,1,3,1.05l-.82,1.12a3.81,3.81,0,0,0-2.1-.81c-1,0-1.26.34-1.26.76,0,.6.74.78,1.62,1,1.28.28,2.83.6,2.83,2.34,0,1.57-1.41,2.3-3.11,2.3A4.75,4.75,0,0,1,33.78,121.55Z"/><path class="cls-2" d="M41.81,115.13h1.72v1A3,3,0,0,1,45.9,115c1.69,0,2.94,1.28,2.94,3.85s-1.28,3.84-3.18,3.84a2.81,2.81,0,0,1-2.13-.94v3.63H41.81Zm5.3,3.73c0-1.57-.67-2.4-1.78-2.4a2.49,2.49,0,0,0-1.8.94v3a2.26,2.26,0,0,0,1.75.92C46.58,121.31,47.11,120.51,47.11,118.86Z"/><path class="cls-2" d="M50.08,118.86A3.54,3.54,0,0,1,53.62,115c1.67,0,3.27,1,3.27,4v.41H51.8a1.84,1.84,0,0,0,2,1.93,2.69,2.69,0,0,0,2.09-.87l.91.9a4,4,0,0,1-3.13,1.35C51.8,122.73,50.08,121.59,50.08,118.86Zm5.22-.73c-.09-1.13-.65-1.74-1.69-1.74a1.75,1.75,0,0,0-1.78,1.74Z"/><path class="cls-2" d="M58.11,118.86A3.5,3.5,0,0,1,61.69,115a3,3,0,0,1,3.08,2.17l-1.46.52a1.61,1.61,0,0,0-1.65-1.24c-1,0-1.81.64-1.81,2.42,0,1.58.65,2.45,1.78,2.45A1.66,1.66,0,0,0,63.37,120l1.43.52a3.29,3.29,0,0,1-3.21,2.19C59.86,122.73,58.11,121.58,58.11,118.86Z"/><path class="cls-2" d="M66.36,112.35h1.77v1.49H66.36Zm0,2.78h1.74v7.44H66.37Z"/><path class="cls-2" d="M70.9,116.51H69.61v-1.38H70.9v-.75c0-1.25.51-2.22,2.41-2.22.32,0,.89.06,1,.07v1.33a4.2,4.2,0,0,0-.59,0c-.62,0-1.12.17-1.12,1v.66h1.62v1.38H72.62v6.06H70.9Z"/><path class="cls-2" d="M75.68,112.35h1.77v1.49H75.68Zm0,2.78h1.74v7.44H75.7Z"/><path class="cls-2" d="M79.16,118.86c0-2.84,1.91-3.87,3.57-3.87a3,3,0,0,1,3.08,2.17l-1.46.52a1.61,1.61,0,0,0-1.65-1.24c-1,0-1.81.64-1.81,2.42,0,1.58.65,2.45,1.78,2.45A1.65,1.65,0,0,0,84.41,120l1.43.52a3.28,3.28,0,0,1-3.21,2.19C80.91,122.73,79.16,121.58,79.16,118.86Z"/><path class="cls-2" d="M91.21,112.21H93V117L97,112.21h2.07l-3.53,4,4,6.37h-2l-3.11-5L93,119.17v3.4H91.21Z"/><path class="cls-2" d="M100.44,120.78c0-1.61,1.37-2.69,4.84-3.08v-.23c0-.74-.39-1.06-1.22-1.06a4,4,0,0,0-2.5,1l-.84-1.08A5.29,5.29,0,0,1,104.3,115c2,0,2.68,1,2.68,2.69v3.07a5,5,0,0,0,.21,1.82h-1.74a2.64,2.64,0,0,1-.17-.95,3.57,3.57,0,0,1-2.74,1.06A1.87,1.87,0,0,1,100.44,120.78Zm4.84-.28v-1.64c-2.06.28-3.15.78-3.15,1.6,0,.58.41.89,1,.89A2.94,2.94,0,0,0,105.28,120.5Z"/><path class="cls-2" d="M109.61,116.51h-1.29v-1.38h1.29v-.75c0-1.25.51-2.22,2.41-2.22.32,0,.89.06,1,.07v1.33a4.2,4.2,0,0,0-.59,0c-.62,0-1.12.17-1.12,1v.66H113v1.38h-1.62v6.06h-1.72Z"/><path class="cls-2" d="M114.34,112.21h1.72v6.17l2.82-3.25h1.89l-2.43,2.72,2.64,4.72h-1.81l-1.92-3.44-1.19,1.3v2.14h-1.72Z"/><path class="cls-2" d="M121.88,120.78c0-1.61,1.38-2.69,4.85-3.08v-.23c0-.74-.39-1.06-1.22-1.06a4,4,0,0,0-2.5,1l-.85-1.08a5.34,5.34,0,0,1,3.59-1.35c2,0,2.68,1,2.68,2.69v3.07a5,5,0,0,0,.21,1.82H126.9a2.64,2.64,0,0,1-.17-.95,3.58,3.58,0,0,1-2.74,1.06A1.88,1.88,0,0,1,121.88,120.78Zm4.85-.28v-1.64c-2.06.28-3.15.78-3.15,1.6,0,.58.41.89,1,.89A2.94,2.94,0,0,0,126.73,120.5Z"/><path class="cls-2" d="M136.67,113.83h-3.19v-1.62h8.13v1.62h-3.19v8.74h-1.75Z"/><path class="cls-2" d="M142.67,118.86a3.64,3.64,0,1,1,3.63,3.87A3.5,3.5,0,0,1,142.67,118.86Zm5.52,0c0-1.39-.59-2.4-1.89-2.4s-1.89.9-1.89,2.4.58,2.42,1.89,2.42S148.19,120.39,148.19,118.86Z"/><path class="cls-2" d="M151.58,115.13h1.72v1a3,3,0,0,1,2.37-1.12c1.69,0,2.94,1.28,2.94,3.85s-1.28,3.84-3.18,3.84a2.83,2.83,0,0,1-2.13-.94v3.63h-1.72Zm5.31,3.73c0-1.57-.68-2.4-1.78-2.4a2.51,2.51,0,0,0-1.81.94v3a2.28,2.28,0,0,0,1.75.92C156.35,121.31,156.89,120.51,156.89,118.86Z"/><path class="cls-2" d="M160.33,112.35h1.76v1.49h-1.76Zm0,2.78h1.74v7.44h-1.74Z"/><path class="cls-2" d="M163.8,118.86a3.5,3.5,0,0,1,3.57-3.87,3,3,0,0,1,3.08,2.17l-1.45.52a1.63,1.63,0,0,0-1.66-1.24c-1,0-1.8.64-1.8,2.42,0,1.58.64,2.45,1.78,2.45a1.64,1.64,0,0,0,1.73-1.29l1.43.52a3.27,3.27,0,0,1-3.21,2.19C165.55,122.73,163.8,121.58,163.8,118.86Z"/><path class="cls-2" d="M171.43,121.55l.94-1a3.68,3.68,0,0,0,2.34.88c.92,0,1.48-.24,1.48-.85s-.76-.79-1.65-1c-1.28-.29-2.8-.63-2.8-2.35,0-1.3,1.12-2.19,2.76-2.19a4.38,4.38,0,0,1,3.05,1.05l-.83,1.12a3.78,3.78,0,0,0-2.1-.81c-1,0-1.26.34-1.26.76,0,.6.74.78,1.63,1,1.27.28,2.83.6,2.83,2.34,0,1.57-1.42,2.3-3.11,2.3A4.73,4.73,0,0,1,171.43,121.55Z"/><path class="cls-2" d="M179.45,120.75h1.93v1.82h-1.93Z"/><rect class="cls-1" x="246.68" y="4.09" width="2.08" height="78.55"/><path class="cls-1" d="M252,4.3a4.3,4.3,0,1,0-4.3,4.3A4.31,4.31,0,0,0,252,4.3Z"/></g></g></svg>