<svg xmlns="http://www.w3.org/2000/svg" viewBox="0 0 136.8 150.81"><defs><style>.cls-1{fill:#704797;}.cls-2{fill:#fff;}</style></defs><title>data-producers</title><g id="Layer_2" data-name="Layer 2"><g id="Layer_2-2" data-name="Layer 2"><path class="cls-1" d="M39.22.07h4.65c5.1,0,8.45,2.37,8.45,8.08s-3.41,8.21-8.45,8.21H39.22Zm4.89,13.82c3.72,0,5.46-1.63,5.46-5.74,0-3.92-1.76-5.53-5.51-5.53H42V13.89Z"/><path class="cls-1" d="M59.94,0h2.7l5.77,16.36H65.59l-1.32-3.88H58.09l-1.35,3.88H54.17Zm3.52,10.06-2.22-6.6h-.05l-2.27,6.6Z"/><path class="cls-1" d="M74.8,2.62h-5V.07H82.57V2.62h-5V16.36H74.8Z"/><path class="cls-1" d="M89.7,0h2.71l5.77,16.36H95.36L94,12.48H87.85l-1.34,3.88H83.93Zm3.52,10.06L91,3.46h0l-2.27,6.6Z"/><path class="cls-1" d="M0,26.48H5.7c3.53,0,6.28,1.24,6.28,5,0,3.94-3,5.11-6.36,5.11H2.73v6.19H0Zm5.75,7.71c2.42,0,3.52-.75,3.52-2.62S8.17,29,5.72,29h-3v5.2Z"/><path class="cls-1" d="M14.82,26.48h5.83c3.88,0,6.12,1.57,6.12,4.89A4.34,4.34,0,0,1,23.16,36L27,42.78H24l-3.65-6.43H17.52v6.43h-2.7ZM20.54,34c2.29,0,3.52-.57,3.52-2.51S22.85,29,20.52,29h-3v5Z"/><path class="cls-1" d="M29.46,34.63c0-5.48,3.23-8.45,7.37-8.45s7.33,3,7.33,8.45S41,43.09,36.83,43.09,29.46,40.11,29.46,34.63Zm11.93,0c0-3.83-1.83-5.92-4.56-5.92s-4.6,2.09-4.6,5.92,1.83,6,4.6,6S41.39,38.46,41.39,34.63Z"/><path class="cls-1" d="M47.29,26.48h4.64c5.11,0,8.46,2.38,8.46,8.08S57,42.78,51.93,42.78H47.29Zm4.89,13.83c3.72,0,5.46-1.63,5.46-5.75,0-3.91-1.76-5.52-5.51-5.52H50V40.31Z"/><path class="cls-1" d="M63.31,36.83V26.48h2.76V36.59c0,2.49,1.08,4,3.59,4s3.56-1.43,3.56-3.94V26.48h2.71V36.81c0,3.7-2.09,6.23-6.3,6.23C65.14,43,63.31,40.53,63.31,36.83Z"/><path class="cls-1" d="M78.83,34.59c0-5.46,3.07-8.41,7.16-8.41,3.79,0,5.59,2.09,6.32,5.06L89.69,32c-.62-2.16-1.56-3.26-3.72-3.26-2.75,0-4.36,2.14-4.36,5.83,0,3.88,1.65,6,4.4,6,2.12,0,3.31-1.06,3.92-3.51l2.62.6c-.79,3.24-2.79,5.42-6.56,5.42C81.81,43.09,78.83,40.2,78.83,34.59Z"/><path class="cls-1" d="M95.63,26.48h10.53V29H98.38v4.05h5.71v2.44H98.38v4.74h8.22v2.51h-11Z"/><path class="cls-1" d="M109.52,26.48h5.84c3.87,0,6.12,1.57,6.12,4.89A4.34,4.34,0,0,1,117.87,36l3.83,6.78h-3l-3.66-6.43h-2.86v6.43h-2.71ZM115.25,34c2.29,0,3.52-.57,3.52-2.51S117.56,29,115.23,29h-3v5Z"/><path class="cls-1" d="M124.1,39l2.18-1.15a4.71,4.71,0,0,0,4.49,2.84c2,0,3.32-.64,3.32-2.11s-1-2.07-3.7-2.86c-3.14-.93-5.68-1.79-5.68-4.89,0-2.78,2.27-4.6,5.58-4.6a6.4,6.4,0,0,1,6.09,3.5l-2,1.38a4.51,4.51,0,0,0-4.12-2.37c-1.8,0-2.84.66-2.84,1.85,0,1.51,1.17,2,3.83,2.81,3.09.91,5.55,1.92,5.55,5,0,2.66-2.27,4.76-6.14,4.76A6.75,6.75,0,0,1,124.1,39Z"/><path class="cls-2" d="M85.58,81.19,65.08,69.34a11.86,11.86,0,0,0-11.84,0L32.72,81.19A11.89,11.89,0,0,0,26.8,91.44v23.68a11.85,11.85,0,0,0,5.92,10.25l20.51,11.85a11.9,11.9,0,0,0,11.85,0l20.5-11.85a11.87,11.87,0,0,0,5.92-10.25V91.43A11.86,11.86,0,0,0,85.58,81.19Z"/><path class="cls-1" d="M85.58,81.19,65.08,69.34a11.86,11.86,0,0,0-11.84,0L32.72,81.19A11.88,11.88,0,0,0,26.8,91.44v23.68a11.85,11.85,0,0,0,5.92,10.25l20.51,11.85a11.9,11.9,0,0,0,11.85,0l20.5-11.85a11.87,11.87,0,0,0,5.92-10.25V91.42A11.85,11.85,0,0,0,85.58,81.19Zm1.73,33.93a7.67,7.67,0,0,1-3.83,6.63L63,133.6a7.7,7.7,0,0,1-7.66,0l-20.5-11.85A7.68,7.68,0,0,1,31,115.12V91.42a7.67,7.67,0,0,1,3.83-6.63L55.32,73A7.7,7.7,0,0,1,63,73l20.5,11.84a7.67,7.67,0,0,1,3.83,6.63v23.7Z"/><path class="cls-1" d="M68.65,94.7l-6.83-3.94a5.33,5.33,0,0,0-5.35,0l-6.83,3.95A5.33,5.33,0,0,0,47,99.33v7.89a5.35,5.35,0,0,0,2.67,4.62l6.83,3.94a5.29,5.29,0,0,0,2.67.71,5.23,5.23,0,0,0,2.66-.71l6.84-4a5.34,5.34,0,0,0,2.66-4.62V99.32A5.24,5.24,0,0,0,68.65,94.7Zm-1.51,12.52a1.12,1.12,0,0,1-.58,1l-6.84,4a1.15,1.15,0,0,1-1.16,0l-6.84-4a1.16,1.16,0,0,1-.59-1V99.33a1.14,1.14,0,0,1,.59-1l6.84-4a1.2,1.2,0,0,1,1.16,0l6.84,4a1.17,1.17,0,0,1,.58,1Z"/><path class="cls-2" d="M93.58,87.19,73.08,75.34a11.89,11.89,0,0,0-11.83,0L40.73,87.19a11.88,11.88,0,0,0-5.92,10.25v23.68a11.86,11.86,0,0,0,5.92,10.26l20.5,11.84a11.9,11.9,0,0,0,11.85,0l20.5-11.84a11.89,11.89,0,0,0,5.93-10.26V97.43A11.89,11.89,0,0,0,93.58,87.19Z"/><path class="cls-1" d="M93.58,87.19,73.08,75.34a11.85,11.85,0,0,0-11.83,0L40.73,87.19a11.87,11.87,0,0,0-5.92,10.25v23.68a11.83,11.83,0,0,0,5.92,10.25l20.5,11.85a11.9,11.9,0,0,0,11.85,0l20.5-11.85a11.87,11.87,0,0,0,5.93-10.25V97.43A11.87,11.87,0,0,0,93.58,87.19Zm1.74,33.93a7.67,7.67,0,0,1-3.83,6.63L71,139.6a7.7,7.7,0,0,1-7.66,0L42.82,127.75A7.67,7.67,0,0,1,39,121.12V97.43a7.67,7.67,0,0,1,3.82-6.63L63.33,79A7.7,7.7,0,0,1,71,79L91.49,90.8a7.66,7.66,0,0,1,3.83,6.63v23.69Z"/><path class="cls-1" d="M76.66,100.7l-6.84-3.94a5.31,5.31,0,0,0-5.34,0l-6.84,4A5.32,5.32,0,0,0,55,105.34v7.89a5.35,5.35,0,0,0,2.66,4.62l6.84,3.94a5.36,5.36,0,0,0,5.33,0l6.84-4a5.32,5.32,0,0,0,2.66-4.62v-7.89A5.27,5.27,0,0,0,76.66,100.7Zm-1.51,12.53a1.14,1.14,0,0,1-.59,1l-6.83,4a1.17,1.17,0,0,1-1.17,0l-6.84-4a1.17,1.17,0,0,1-.58-1v-7.89a1.12,1.12,0,0,1,.58-1l6.84-4a1.22,1.22,0,0,1,1.17,0l6.83,4a1.14,1.14,0,0,1,.59,1Z"/><path class="cls-2" d="M103.59,93.2,83.09,81.35a11.86,11.86,0,0,0-11.84,0L50.74,93.2a11.87,11.87,0,0,0-5.93,10.25v23.68a11.84,11.84,0,0,0,5.93,10.25l20.5,11.85a11.9,11.9,0,0,0,11.85,0l20.5-11.85a11.87,11.87,0,0,0,5.92-10.25v-23.7A11.85,11.85,0,0,0,103.59,93.2Z"/><path class="cls-1" d="M103.59,93.19,83.09,81.35a11.86,11.86,0,0,0-11.84,0L50.74,93.19a11.89,11.89,0,0,0-5.93,10.26v23.68a11.85,11.85,0,0,0,5.93,10.25l20.5,11.85a11.9,11.9,0,0,0,11.85,0l20.5-11.85a11.88,11.88,0,0,0,5.92-10.25v-23.7A11.88,11.88,0,0,0,103.59,93.19Zm1.74,33.94a7.69,7.69,0,0,1-3.83,6.63L81,145.6a7.68,7.68,0,0,1-7.65,0L52.83,133.76A7.69,7.69,0,0,1,49,127.13v-23.7a7.67,7.67,0,0,1,3.83-6.63L73.34,85A7.68,7.68,0,0,1,81,85L101.5,96.8a7.69,7.69,0,0,1,3.83,6.63v23.7Z"/><path class="cls-1" d="M86.67,106.71l-6.84-3.94a5.31,5.31,0,0,0-5.34,0l-6.84,4A5.35,5.35,0,0,0,65,111.34v7.89a5.35,5.35,0,0,0,2.67,4.62l6.84,3.94a5.34,5.34,0,0,0,5.32,0l6.84-4a5.35,5.35,0,0,0,2.67-4.62v-7.89A5.27,5.27,0,0,0,86.67,106.71Zm-1.52,12.52a1.12,1.12,0,0,1-.58,1l-6.84,4a1.2,1.2,0,0,1-1.16,0l-6.84-4a1.17,1.17,0,0,1-.58-1v-7.89a1.12,1.12,0,0,1,.58-1l6.84-4a1.13,1.13,0,0,1,1.16,0l6.84,4a1.17,1.17,0,0,1,.58,1Z"/></g></g></svg>