<svg xmlns="http://www.w3.org/2000/svg" viewBox="0 0 371.1 193.2"><defs><style>.cls-1{fill:#231f20;}.cls-2{fill:#fff;}.cls-3{fill:none;stroke:#231f20;stroke-miterlimit:10;stroke-width:3px;}</style></defs><title>data-producers-tooltip</title><g id="Layer_2" data-name="Layer 2"><g id="Layer_2-2" data-name="Layer 2"><rect class="cls-1" width="371.1" height="119.82" rx="10.84"/><path class="cls-2" d="M24.13,24.82h4.6c5.05,0,8.37,2.35,8.37,8s-3.38,8.13-8.37,8.13h-4.6ZM29,38.5c3.68,0,5.4-1.61,5.4-5.69,0-3.88-1.74-5.47-5.45-5.47H26.85V38.5Z"/><path class="cls-2" d="M39.15,38.15c0-2.5,2.13-4.18,7.53-4.79V33c0-1.16-.61-1.66-1.89-1.66a6.31,6.31,0,0,0-3.9,1.57l-1.31-1.68a8.3,8.3,0,0,1,5.58-2.09c3.09,0,4.16,1.48,4.16,4.19v4.77a7.91,7.91,0,0,0,.33,2.83H47a4,4,0,0,1-.27-1.48,5.56,5.56,0,0,1-4.27,1.66C40.54,41.12,39.15,40.07,39.15,38.15Zm7.53-.43V35.17c-3.2.43-4.9,1.22-4.9,2.48,0,.92.63,1.39,1.61,1.39A4.63,4.63,0,0,0,46.68,37.72Z"/><path class="cls-2" d="M53.33,37.91v-6.4h-2V29.37h2v-4H56v4h3v2.14H56v5.73c0,1.24.37,1.74,1.7,1.74a4.81,4.81,0,0,0,1.16-.15v2.11a12.79,12.79,0,0,1-2,.15C54,41.09,53.33,40,53.33,37.91Z"/><path class="cls-2" d="M60.68,38.15c0-2.5,2.13-4.18,7.53-4.79V33c0-1.16-.61-1.66-1.89-1.66a6.31,6.31,0,0,0-3.9,1.57l-1.31-1.68a8.3,8.3,0,0,1,5.58-2.09c3.09,0,4.16,1.48,4.16,4.19v4.77a7.91,7.91,0,0,0,.33,2.83h-2.7a4,4,0,0,1-.27-1.48,5.54,5.54,0,0,1-4.27,1.66C62.07,41.12,60.68,40.07,60.68,38.15Zm7.53-.43V35.17c-3.2.43-4.9,1.22-4.9,2.48,0,.92.63,1.39,1.61,1.39A4.61,4.61,0,0,0,68.21,37.72Z"/><path class="cls-2" d="M79.63,29.37h2.68V30.9A4.68,4.68,0,0,1,86,29.15c2.63,0,4.57,2,4.57,6s-2,6-4.94,6a4.45,4.45,0,0,1-3.32-1.46V45.3H79.63Zm8.26,5.8c0-2.44-1-3.73-2.77-3.73a3.92,3.92,0,0,0-2.81,1.46v4.64A3.53,3.53,0,0,0,85,39C87.06,39,87.89,37.74,87.89,35.17Z"/><path class="cls-2" d="M93.17,29.37h2.68v1.9h0a4.52,4.52,0,0,1,4.16-2.12h.18l-.09,2.46c-.13,0-.57,0-.72,0a3.92,3.92,0,0,0-3.57,2v7.32H93.17Z"/><path class="cls-2" d="M101.71,35.17c0-4.27,2.81-6,5.64-6s5.65,1.75,5.65,6-2.84,6-5.65,6S101.71,39.39,101.71,35.17Zm8.58,0c0-2.16-.91-3.73-2.94-3.73s-2.94,1.39-2.94,3.73.89,3.77,2.94,3.77S110.29,37.54,110.29,35.17Z"/><path class="cls-2" d="M114.94,35.19c0-4,2-6,4.94-6a4.41,4.41,0,0,1,3.31,1.46V24.82h2.68V38.11a7.38,7.38,0,0,0,.35,2.83h-2.76a4.18,4.18,0,0,1-.27-1.57,4.62,4.62,0,0,1-3.68,1.75C116.87,41.12,114.94,39.2,114.94,35.19Zm8.25,2.26V32.81a3.55,3.55,0,0,0-2.72-1.44c-2,0-2.85,1.31-2.85,3.88s1,3.66,2.76,3.66A3.86,3.86,0,0,0,123.19,37.45Z"/><path class="cls-2" d="M129,37.67v-8.3h2.7V37c0,1.29.55,1.87,1.72,1.87a4.7,4.7,0,0,0,3.14-1.5v-8h2.7V40.94h-2.7V39.37a5.71,5.71,0,0,1-4.23,1.79C130.28,41.16,129,40,129,37.67Z"/><path class="cls-2" d="M141.8,35.17c0-4.43,3-6,5.56-6a4.7,4.7,0,0,1,4.8,3.38l-2.27.81a2.53,2.53,0,0,0-2.57-1.94c-1.53,0-2.81,1-2.81,3.77,0,2.46,1,3.81,2.76,3.81,1.22,0,2.07-.37,2.71-2l2.22.81a5.09,5.09,0,0,1-5,3.4C144.53,41.18,141.8,39.39,141.8,35.17Z"/><path class="cls-2" d="M153.9,35.17c0-4.41,3.12-6,5.51-6,2.59,0,5.08,1.55,5.08,6.26V36h-7.91a2.86,2.86,0,0,0,3.09,3,4.19,4.19,0,0,0,3.25-1.35l1.42,1.4a6.24,6.24,0,0,1-4.86,2.09C156.58,41.18,153.9,39.41,153.9,35.17ZM162,34c-.16-1.76-1-2.7-2.64-2.7a2.71,2.71,0,0,0-2.77,2.7Z"/><path class="cls-2" d="M167.06,29.37h2.68v1.9h0A4.51,4.51,0,0,1,174,29.15h.17L174,31.61c-.13,0-.56,0-.71,0a3.93,3.93,0,0,0-3.58,2v7.32h-2.68Z"/><path class="cls-2" d="M175.39,39.35l1.46-1.63a5.68,5.68,0,0,0,3.63,1.37c1.44,0,2.31-.37,2.31-1.33s-1.17-1.22-2.57-1.55c-2-.46-4.35-1-4.35-3.66,0-2,1.74-3.4,4.29-3.4a6.76,6.76,0,0,1,4.75,1.64l-1.29,1.74a5.78,5.78,0,0,0-3.27-1.26c-1.48,0-2,.52-2,1.17,0,.94,1.16,1.22,2.53,1.53,2,.43,4.4.93,4.4,3.64,0,2.44-2.2,3.57-4.84,3.57A7.29,7.29,0,0,1,175.39,39.35Z"/><path class="cls-2" d="M192.91,35.17c0-4.43,3-6,5.55-6a4.7,4.7,0,0,1,4.8,3.38l-2.27.81a2.53,2.53,0,0,0-2.57-1.94c-1.53,0-2.81,1-2.81,3.77,0,2.46,1,3.81,2.76,3.81,1.23,0,2.08-.37,2.71-2l2.22.81a5.09,5.09,0,0,1-5,3.4C195.63,41.18,192.91,39.39,192.91,35.17Z"/><path class="cls-2" d="M204.91,38.15c0-2.5,2.14-4.18,7.54-4.79V33c0-1.16-.61-1.66-1.89-1.66a6.31,6.31,0,0,0-3.9,1.57l-1.31-1.68a8.3,8.3,0,0,1,5.58-2.09c3.09,0,4.16,1.48,4.16,4.19v4.77a7.91,7.91,0,0,0,.33,2.83h-2.71a4.26,4.26,0,0,1-.26-1.48,5.56,5.56,0,0,1-4.27,1.66C206.31,41.12,204.91,40.07,204.91,38.15Zm7.54-.43V35.17c-3.2.43-4.9,1.22-4.9,2.48,0,.92.63,1.39,1.61,1.39A4.63,4.63,0,0,0,212.45,37.72Z"/><path class="cls-2" d="M218.18,29.37h2.71v1.57a5.7,5.7,0,0,1,4.22-1.79c2,0,3.34,1.2,3.34,3.49v8.3h-2.7V33.31c0-1.28-.55-1.87-1.73-1.87a4.7,4.7,0,0,0-3.13,1.5v8h-2.71Z"/><path class="cls-2" d="M239.91,39.66v1.28h-2.68V24.82h2.68V30.9a4.66,4.66,0,0,1,3.68-1.75c2.64,0,4.58,2,4.58,6s-2,6-4.95,6A4.44,4.44,0,0,1,239.91,39.66Zm5.58-4.49c0-2.44-1.05-3.73-2.77-3.73a3.9,3.9,0,0,0-2.81,1.46v4.64A3.53,3.53,0,0,0,242.63,39C244.66,39,245.49,37.74,245.49,35.17Z"/><path class="cls-2" d="M250.11,35.17c0-4.41,3.12-6,5.51-6,2.59,0,5.08,1.55,5.08,6.26V36h-7.91a2.86,2.86,0,0,0,3.09,3,4.19,4.19,0,0,0,3.25-1.35l1.42,1.4a6.24,6.24,0,0,1-4.86,2.09C252.79,41.18,250.11,39.41,250.11,35.17ZM258.24,34c-.16-1.76-1-2.7-2.64-2.7a2.71,2.71,0,0,0-2.77,2.7Z"/><path class="cls-2" d="M268.22,38.15c0-2.5,2.13-4.18,7.54-4.79V33c0-1.16-.61-1.66-1.9-1.66a6.31,6.31,0,0,0-3.9,1.57l-1.31-1.68a8.34,8.34,0,0,1,5.58-2.09c3.1,0,4.16,1.48,4.16,4.19v4.77a7.91,7.91,0,0,0,.33,2.83H276a4.26,4.26,0,0,1-.26-1.48,5.57,5.57,0,0,1-4.27,1.66C269.61,41.12,268.22,40.07,268.22,38.15Zm7.54-.43V35.17c-3.21.43-4.9,1.22-4.9,2.48,0,.92.63,1.39,1.61,1.39A4.64,4.64,0,0,0,275.76,37.72Z"/><path class="cls-2" d="M281.49,29.37h2.7v1.57a5.72,5.72,0,0,1,4.23-1.79c2,0,3.33,1.2,3.33,3.49v8.3h-2.7V33.31c0-1.28-.55-1.87-1.72-1.87a4.7,4.7,0,0,0-3.14,1.5v8h-2.7Z"/><path class="cls-2" d="M23.15,61.32c0-4.41,3.12-6,5.51-6,2.6,0,5.08,1.55,5.08,6.26v.63H25.83a2.86,2.86,0,0,0,3.09,3,4.19,4.19,0,0,0,3.25-1.36l1.42,1.4a6.24,6.24,0,0,1-4.86,2.09C25.83,67.33,23.15,65.57,23.15,61.32Zm8.13-1.14c-.16-1.76-1-2.7-2.64-2.7-1.31,0-2.5.74-2.77,2.7Z"/><path class="cls-2" d="M36,59.29h5.38v1.92H36Z"/><path class="cls-2" d="M43.66,61.32c0-4.43,3-6,5.55-6A4.7,4.7,0,0,1,54,58.68l-2.27.81a2.52,2.52,0,0,0-2.57-1.94c-1.53,0-2.81,1-2.81,3.77,0,2.46,1,3.81,2.77,3.81,1.22,0,2.07-.37,2.7-2l2.22.81a5.09,5.09,0,0,1-5,3.4C46.38,67.33,43.66,65.54,43.66,61.32Z"/><path class="cls-2" d="M55.75,61.32c0-4.27,2.81-6,5.64-6s5.65,1.75,5.65,6-2.83,6-5.65,6S55.75,65.54,55.75,61.32Zm8.59,0c0-2.16-.92-3.73-3-3.73s-2.94,1.4-2.94,3.73.9,3.77,2.94,3.77S64.34,63.69,64.34,61.32Z"/><path class="cls-2" d="M69.61,55.52h2.68v1.59a5.26,5.26,0,0,1,4-1.81c1.94,0,2.7.77,3.16,1.9a5.47,5.47,0,0,1,4-1.9c2.35,0,3.38,1.42,3.38,3.49v8.3H84.17V59.46c0-1.28-.38-1.87-1.64-1.87a4.53,4.53,0,0,0-3,1.5v8H76.89V59.46c0-1.28-.37-1.87-1.64-1.87a4.6,4.6,0,0,0-3,1.5v8H69.61Z"/><path class="cls-2" d="M90,55.52h2.68v1.59a5.28,5.28,0,0,1,4-1.81c1.94,0,2.7.77,3.16,1.9a5.49,5.49,0,0,1,4-1.9c2.35,0,3.38,1.42,3.38,3.49v8.3h-2.68V59.46c0-1.28-.37-1.87-1.64-1.87a4.55,4.55,0,0,0-3,1.5v8H97.24V59.46c0-1.28-.37-1.87-1.63-1.87a4.62,4.62,0,0,0-3,1.5v8H90Z"/><path class="cls-2" d="M109.66,61.32c0-4.41,3.12-6,5.52-6,2.59,0,5.07,1.55,5.07,6.26v.63h-7.91a2.87,2.87,0,0,0,3.1,3,4.19,4.19,0,0,0,3.24-1.36l1.42,1.4a6.24,6.24,0,0,1-4.86,2.09C112.34,67.33,109.66,65.57,109.66,61.32Zm8.13-1.14c-.15-1.76-1-2.7-2.63-2.7a2.71,2.71,0,0,0-2.77,2.7Z"/><path class="cls-2" d="M122.83,55.52h2.68v1.9h0a4.52,4.52,0,0,1,4.16-2.12h.18l-.09,2.46c-.13,0-.57,0-.72,0a3.92,3.92,0,0,0-3.57,2.05v7.32h-2.68Z"/><path class="cls-2" d="M131.37,61.32c0-4.43,3-6,5.55-6a4.7,4.7,0,0,1,4.8,3.38l-2.27.81a2.52,2.52,0,0,0-2.57-1.94c-1.52,0-2.81,1-2.81,3.77,0,2.46,1,3.81,2.77,3.81,1.22,0,2.07-.37,2.7-2l2.22.81a5.09,5.09,0,0,1-5,3.4C134.09,67.33,131.37,65.54,131.37,61.32Z"/><path class="cls-2" d="M143.46,61.32c0-4.41,3.12-6,5.52-6,2.59,0,5.07,1.55,5.07,6.26v.63h-7.91a2.87,2.87,0,0,0,3.1,3,4.19,4.19,0,0,0,3.24-1.36l1.42,1.4A6.24,6.24,0,0,1,149,67.33C146.14,67.33,143.46,65.57,143.46,61.32Zm8.13-1.14c-.15-1.76-1-2.7-2.64-2.7a2.71,2.71,0,0,0-2.76,2.7Z"/><path class="cls-2" d="M161.44,65.5l1.46-1.63a5.71,5.71,0,0,0,3.64,1.37c1.44,0,2.31-.37,2.31-1.33s-1.18-1.22-2.57-1.55c-2-.45-4.36-1-4.36-3.66,0-2,1.74-3.4,4.29-3.4A6.76,6.76,0,0,1,171,56.94l-1.28,1.74a5.78,5.78,0,0,0-3.27-1.26c-1.48,0-2,.52-2,1.17,0,.94,1.15,1.22,2.53,1.53,2,.43,4.4.93,4.4,3.64,0,2.44-2.2,3.57-4.84,3.57A7.32,7.32,0,0,1,161.44,65.5Z"/><path class="cls-2" d="M174.84,64.06v-6.4h-2V55.52h2v-4h2.68v4h3v2.14h-3v5.73c0,1.24.37,1.74,1.7,1.74a4.74,4.74,0,0,0,1.16-.15v2.11a12.79,12.79,0,0,1-2,.15C175.47,67.24,174.84,66.15,174.84,64.06Z"/><path class="cls-2" d="M182.27,61.32c0-4.27,2.81-6,5.65-6s5.64,1.75,5.64,6-2.83,6-5.64,6S182.27,65.54,182.27,61.32Zm8.59,0c0-2.16-.92-3.73-2.94-3.73S185,59,185,61.32s.89,3.77,2.94,3.77S190.86,63.69,190.86,61.32Z"/><path class="cls-2" d="M196.13,55.52h2.68v1.9h.05A4.52,4.52,0,0,1,203,55.3h.17l-.08,2.46c-.14,0-.57,0-.72,0a4,4,0,0,0-3.58,2.05v7.32h-2.68Z"/><path class="cls-2" d="M204.67,61.32c0-4.41,3.12-6,5.52-6,2.59,0,5.07,1.55,5.07,6.26v.63h-7.9a2.86,2.86,0,0,0,3.09,3,4.22,4.22,0,0,0,3.25-1.36l1.41,1.4a6.24,6.24,0,0,1-4.86,2.09C207.36,67.33,204.67,65.57,204.67,61.32Zm8.13-1.14c-.15-1.76-1-2.7-2.63-2.7a2.71,2.71,0,0,0-2.77,2.7Z"/><path class="cls-2" d="M219,67.09h-1.15V64.26h3v2.46l-1.37,2.81h-1.24Z"/><path class="cls-2" d="M229,64.3c0-2.5,2.13-4.18,7.54-4.79v-.35c0-1.16-.61-1.66-1.9-1.66a6.31,6.31,0,0,0-3.9,1.57l-1.31-1.68A8.3,8.3,0,0,1,235,55.3c3.09,0,4.16,1.48,4.16,4.19v4.77a7.91,7.91,0,0,0,.33,2.83h-2.7a4,4,0,0,1-.26-1.48,5.57,5.57,0,0,1-4.27,1.66C230.41,67.27,229,66.22,229,64.3Zm7.54-.43V61.32c-3.21.43-4.91,1.22-4.91,2.48,0,.92.64,1.4,1.62,1.4A4.65,4.65,0,0,0,236.56,63.87Z"/><path class="cls-2" d="M247.45,63.3l2.16-1.13A4.68,4.68,0,0,0,254.05,65c2,0,3.29-.63,3.29-2.09s-1-2-3.66-2.84c-3.11-.91-5.62-1.76-5.62-4.83,0-2.75,2.25-4.56,5.52-4.56a6.34,6.34,0,0,1,6,3.47l-2,1.37a4.46,4.46,0,0,0-4.08-2.35c-1.78,0-2.81.65-2.81,1.83,0,1.5,1.16,2,3.79,2.78,3,.9,5.49,1.9,5.49,4.93,0,2.64-2.24,4.71-6.07,4.71A6.69,6.69,0,0,1,247.45,63.3Z"/><path class="cls-2" d="M262.14,64.3c0-2.5,2.13-4.18,7.54-4.79v-.35c0-1.16-.61-1.66-1.9-1.66a6.31,6.31,0,0,0-3.9,1.57l-1.3-1.68a8.29,8.29,0,0,1,5.57-2.09c3.1,0,4.17,1.48,4.17,4.19v4.77a8,8,0,0,0,.32,2.83h-2.7a4.26,4.26,0,0,1-.26-1.48,5.57,5.57,0,0,1-4.27,1.66C263.53,67.27,262.14,66.22,262.14,64.3Zm7.54-.43V61.32c-3.2.43-4.9,1.22-4.9,2.48,0,.92.63,1.4,1.61,1.4A4.65,4.65,0,0,0,269.68,63.87Z"/><path class="cls-2" d="M274.67,64.3c0-2.5,2.13-4.18,7.54-4.79v-.35c0-1.16-.61-1.66-1.9-1.66a6.31,6.31,0,0,0-3.9,1.57l-1.3-1.68a8.29,8.29,0,0,1,5.57-2.09c3.1,0,4.17,1.48,4.17,4.19v4.77a8,8,0,0,0,.32,2.83h-2.7a4.26,4.26,0,0,1-.26-1.48,5.57,5.57,0,0,1-4.27,1.66C276.06,67.27,274.67,66.22,274.67,64.3Zm7.54-.43V61.32c-3.2.43-4.9,1.22-4.9,2.48,0,.92.63,1.4,1.61,1.4A4.65,4.65,0,0,0,282.21,63.87Z"/><path class="cls-2" d="M287.42,63.3l2.15-1.13A4.68,4.68,0,0,0,294,65c2,0,3.29-.63,3.29-2.09s-1-2-3.66-2.84c-3.12-.91-5.62-1.76-5.62-4.83,0-2.75,2.24-4.56,5.51-4.56a6.36,6.36,0,0,1,6,3.47l-2,1.37a4.46,4.46,0,0,0-4.07-2.35c-1.79,0-2.81.65-2.81,1.83,0,1.5,1.15,2,3.79,2.78,3.05.9,5.49,1.9,5.49,4.93,0,2.64-2.24,4.71-6.08,4.71A6.68,6.68,0,0,1,287.42,63.3Z"/><path class="cls-2" d="M23.8,81.67h2.68V83.2a4.69,4.69,0,0,1,3.69-1.75c2.63,0,4.57,2,4.57,6s-2,6-4.94,6A4.41,4.41,0,0,1,26.48,92V97.6H23.8Zm8.26,5.8c0-2.44-1-3.73-2.77-3.73a3.92,3.92,0,0,0-2.81,1.46v4.64a3.53,3.53,0,0,0,2.73,1.44C31.23,91.28,32.06,90,32.06,87.47Z"/><path class="cls-2" d="M37.34,81.67H40v1.9h0a4.52,4.52,0,0,1,4.16-2.12h.18l-.09,2.46c-.13,0-.57,0-.72,0a3.92,3.92,0,0,0-3.57,2v7.32H37.34Z"/><path class="cls-2" d="M45.88,87.47c0-4.27,2.81-6,5.64-6s5.65,1.75,5.65,6-2.84,6-5.65,6S45.88,91.69,45.88,87.47Zm8.58,0c0-2.16-.91-3.73-2.94-3.73s-2.94,1.39-2.94,3.73.89,3.77,2.94,3.77S54.46,89.84,54.46,87.47Z"/><path class="cls-2" d="M59.11,87.49c0-4,2-6,4.94-6a4.41,4.41,0,0,1,3.31,1.46V77.12H70V90.41a7.38,7.38,0,0,0,.35,2.83H67.63a4.18,4.18,0,0,1-.27-1.57,4.61,4.61,0,0,1-3.68,1.74C61.05,93.41,59.11,91.5,59.11,87.49Zm8.25,2.26V85.11a3.53,3.53,0,0,0-2.72-1.44c-2,0-2.85,1.31-2.85,3.88s1,3.66,2.76,3.66A3.85,3.85,0,0,0,67.36,89.75Z"/><path class="cls-2" d="M73.14,90v-8.3h2.7v7.67c0,1.28.55,1.87,1.72,1.87a4.7,4.7,0,0,0,3.14-1.5v-8h2.7V93.24H80.7V91.67a5.71,5.71,0,0,1-4.23,1.79C74.45,93.46,73.14,92.26,73.14,90Z"/><path class="cls-2" d="M86,87.47c0-4.43,3-6,5.56-6a4.7,4.7,0,0,1,4.8,3.38l-2.27.81a2.53,2.53,0,0,0-2.57-1.94c-1.53,0-2.81,1-2.81,3.77,0,2.46,1,3.81,2.76,3.81,1.22,0,2.07-.37,2.71-2l2.22.81a5.09,5.09,0,0,1-5,3.4C88.7,93.48,86,91.69,86,87.47Z"/><path class="cls-2" d="M99.64,90.21v-6.4h-2V81.67h2v-4h2.68v4h3v2.14h-3v5.73c0,1.24.37,1.74,1.7,1.74a4.65,4.65,0,0,0,1.15-.15v2.11a12.57,12.57,0,0,1-2,.15C100.27,93.39,99.64,92.3,99.64,90.21Z"/><path class="cls-2" d="M108.88,93.24h-1.16V90.41h3v2.46l-1.37,2.81h-1.24Z"/><path class="cls-2" d="M119,87.47c0-4.27,2.81-6,5.64-6s5.65,1.75,5.65,6-2.84,6-5.65,6S119,91.69,119,87.47Zm8.59,0c0-2.16-.92-3.73-3-3.73s-2.94,1.39-2.94,3.73.89,3.77,2.94,3.77S127.58,89.84,127.58,87.47Z"/><path class="cls-2" d="M132.85,81.67h2.68v1.9h0a4.52,4.52,0,0,1,4.16-2.12h.18l-.09,2.46c-.13,0-.57,0-.72,0a3.92,3.92,0,0,0-3.57,2v7.32h-2.68Z"/><path class="cls-2" d="M147,90.45c0-2.5,2.14-4.18,7.54-4.79v-.35c0-1.16-.61-1.66-1.89-1.66a6.28,6.28,0,0,0-3.9,1.57l-1.31-1.68A8.3,8.3,0,0,1,153,81.45c3.09,0,4.16,1.48,4.16,4.19v4.77a8,8,0,0,0,.32,2.83h-2.7a4.26,4.26,0,0,1-.26-1.48,5.56,5.56,0,0,1-4.27,1.65C148.39,93.41,147,92.37,147,90.45Zm7.54-.43V87.47c-3.2.43-4.9,1.22-4.9,2.48,0,.92.63,1.39,1.61,1.39A4.64,4.64,0,0,0,154.53,90Z"/><path class="cls-2" d="M160.26,81.67H163v1.57a5.74,5.74,0,0,1,4.23-1.79c2,0,3.34,1.2,3.34,3.49v8.3h-2.71V85.61c0-1.28-.54-1.87-1.72-1.87a4.74,4.74,0,0,0-3.14,1.5v8h-2.7Z"/><path class="cls-2" d="M172.1,97.38l.61-2.16a7.51,7.51,0,0,0,2,.24,1.73,1.73,0,0,0,1.83-1.3l.32-.85-4.44-11.64h2.79l3,8.43h0l3-8.43h2.66L178.89,94.5c-.76,2-1.76,3.23-4,3.23A9.71,9.71,0,0,1,172.1,97.38Z"/><path class="cls-2" d="M190.79,87.47c0-4.27,2.81-6,5.65-6s5.64,1.75,5.64,6-2.83,6-5.64,6S190.79,91.69,190.79,87.47Zm8.59,0c0-2.16-.92-3.73-2.94-3.73s-2.94,1.39-2.94,3.73.89,3.77,2.94,3.77S199.38,89.84,199.38,87.47Z"/><path class="cls-2" d="M205.57,90.21v-6.4h-2V81.67h2v-4h2.68v4h3v2.14h-3v5.73c0,1.24.37,1.74,1.7,1.74a4.65,4.65,0,0,0,1.15-.15v2.11a12.57,12.57,0,0,1-2,.15C206.2,93.39,205.57,92.3,205.57,90.21Z"/><path class="cls-2" d="M213.65,77.12h2.7v6.12a5.72,5.72,0,0,1,4.23-1.79c2,0,3.34,1.2,3.34,3.49v8.3h-2.71V85.61c0-1.28-.54-1.87-1.72-1.87a4.72,4.72,0,0,0-3.14,1.5v8h-2.7Z"/><path class="cls-2" d="M226.36,87.47c0-4.41,3.11-6,5.51-6,2.59,0,5.08,1.55,5.08,6.26v.63H229a2.86,2.86,0,0,0,3.09,3A4.2,4.2,0,0,0,235.38,90l1.41,1.4a6.21,6.21,0,0,1-4.85,2.09C229,93.48,226.36,91.71,226.36,87.47Zm8.13-1.14c-.16-1.76-1-2.7-2.64-2.7a2.71,2.71,0,0,0-2.77,2.7Z"/><path class="cls-2" d="M239.52,81.67h2.68v1.9h0a4.53,4.53,0,0,1,4.17-2.12h.17l-.09,2.46c-.13,0-.56,0-.72,0a3.92,3.92,0,0,0-3.57,2v7.32h-2.68Z"/><path class="cls-2" d="M253.16,81.67h2.72l1.27,4.79c.35,1.31.56,2.2.87,3.69h0c.35-1.57.55-2.4.92-3.73l1.22-4.75h2.18l1.28,4.84c.37,1.28.57,2.15.9,3.64h0c.35-1.51.55-2.34.92-3.6l1.3-4.88h2.44l-3.44,11.57h-2.5l-2.1-8h0l-2.09,8H256.6Z"/><path class="cls-2" d="M270.59,87.47c0-4.41,3.12-6,5.52-6,2.59,0,5.07,1.55,5.07,6.26v.63h-7.91a2.86,2.86,0,0,0,3.1,3A4.22,4.22,0,0,0,279.62,90l1.41,1.4a6.24,6.24,0,0,1-4.86,2.09C273.27,93.48,270.59,91.71,270.59,87.47Zm8.13-1.14c-.15-1.76-1-2.7-2.64-2.7a2.71,2.71,0,0,0-2.76,2.7Z"/><path class="cls-2" d="M286.44,92v1.29h-2.68V77.12h2.68V83.2a4.66,4.66,0,0,1,3.68-1.75c2.63,0,4.57,2,4.57,6s-2,6-4.94,6A4.41,4.41,0,0,1,286.44,92ZM292,87.47c0-2.44-1-3.73-2.76-3.73a3.9,3.9,0,0,0-2.81,1.46v4.64a3.52,3.52,0,0,0,2.72,1.44C291.19,91.28,292,90,292,87.47Z"/><path class="cls-2" d="M296.42,91.65,297.88,90a5.69,5.69,0,0,0,3.64,1.37c1.43,0,2.31-.37,2.31-1.33s-1.18-1.22-2.58-1.55c-2-.46-4.35-1-4.35-3.66,0-2,1.74-3.4,4.29-3.4a6.76,6.76,0,0,1,4.75,1.64l-1.29,1.74a5.78,5.78,0,0,0-3.27-1.26c-1.48,0-2,.52-2,1.17,0,.94,1.16,1.22,2.53,1.53,2,.43,4.4.93,4.4,3.64,0,2.44-2.2,3.57-4.83,3.57A7.3,7.3,0,0,1,296.42,91.65Z"/><path class="cls-2" d="M309,77.33h2.75v2.33H309Zm0,4.34h2.7V93.24H309Z"/><path class="cls-2" d="M316,90.21v-6.4h-2V81.67h2v-4h2.68v4h3v2.14h-3v5.73c0,1.24.37,1.74,1.7,1.74a4.67,4.67,0,0,0,1.16-.15v2.11a12.79,12.79,0,0,1-2,.15C316.6,93.39,316,92.3,316,90.21Z"/><path class="cls-2" d="M323.39,87.47c0-4.41,3.12-6,5.52-6,2.59,0,5.07,1.55,5.07,6.26v.63h-7.9a2.85,2.85,0,0,0,3.09,3A4.22,4.22,0,0,0,332.42,90l1.41,1.4A6.24,6.24,0,0,1,329,93.48C326.08,93.48,323.39,91.71,323.39,87.47Zm8.13-1.14c-.15-1.76-1-2.7-2.63-2.7a2.71,2.71,0,0,0-2.77,2.7Z"/><path class="cls-2" d="M336.56,90.41h3v2.83h-3Z"/><line class="cls-3" x1="185.55" y1="115.81" x2="185.55" y2="187.31"/><circle class="cls-1" cx="185.55" cy="187" r="6.2"/></g></g></svg>