<svg xmlns="http://www.w3.org/2000/svg" viewBox="0 0 387.67 162.27"><defs><style>.cls-1{fill:#231f20;}.cls-2{fill:#fff;}</style></defs><title>data-viz-tooltip</title><g id="Layer_2" data-name="Layer 2"><g id="Layer_2-2" data-name="Layer 2"><rect class="cls-1" width="387.67" height="91.56" rx="10.7"/><path class="cls-2" d="M27.68,24.82h5.78c3.83,0,6,1.55,6,4.84a4.3,4.3,0,0,1-3.57,4.58L39.73,41H36.81l-3.62-6.37H30.36V41H27.68Zm5.67,7.39c2.26,0,3.48-.57,3.48-2.49s-1.19-2.41-3.51-2.41h-3v4.9Z"/><path class="cls-2" d="M42,35.17c0-4.4,3.11-6,5.51-6,2.59,0,5.08,1.54,5.08,6.25V36H44.66a2.86,2.86,0,0,0,3.09,3A4.2,4.2,0,0,0,51,37.7l1.41,1.39a6.22,6.22,0,0,1-4.86,2.1C44.66,41.19,42,39.42,42,35.17ZM50.1,34c-.15-1.77-1-2.7-2.63-2.7A2.71,2.71,0,0,0,44.7,34Z"/><path class="cls-2" d="M54.4,38.16c0-2.51,2.13-4.19,7.54-4.8V33c0-1.15-.61-1.65-1.9-1.65a6.25,6.25,0,0,0-3.9,1.57l-1.31-1.68a8.34,8.34,0,0,1,5.58-2.09c3.1,0,4.16,1.48,4.16,4.18v4.77A7.94,7.94,0,0,0,64.9,41H62.2a4.28,4.28,0,0,1-.26-1.49,5.57,5.57,0,0,1-4.27,1.66C55.79,41.12,54.4,40.07,54.4,38.16Zm7.54-.44V35.17c-3.21.44-4.9,1.22-4.9,2.49,0,.91.63,1.39,1.61,1.39A4.61,4.61,0,0,0,61.94,37.72Z"/><path class="cls-2" d="M67.78,24.82h2.7V41h-2.7Z"/><path class="cls-2" d="M73.51,33.15h5.38v1.91H73.51Z"/><path class="cls-2" d="M82.73,37.92V31.51h-2V29.38h2v-4h2.68v4h3v2.13h-3v5.73c0,1.24.37,1.75,1.7,1.75a4.19,4.19,0,0,0,1.15-.16V41a14.09,14.09,0,0,1-2,.15C83.36,41.1,82.73,40,82.73,37.92Z"/><path class="cls-2" d="M90.9,25h2.74v2.33H90.9Zm0,4.34h2.7V41h-2.7Z"/><path class="cls-2" d="M97,29.38h2.68V31a5.26,5.26,0,0,1,4-1.81c1.94,0,2.7.76,3.16,1.89a5.5,5.5,0,0,1,4-1.89c2.36,0,3.38,1.41,3.38,3.48V41h-2.68V33.32c0-1.29-.37-1.87-1.63-1.87a4.58,4.58,0,0,0-3,1.5v8h-2.68V33.32c0-1.29-.37-1.87-1.63-1.87a4.58,4.58,0,0,0-3,1.5v8H97Z"/><path class="cls-2" d="M116.66,35.17c0-4.4,3.11-6,5.51-6,2.59,0,5.08,1.54,5.08,6.25V36h-7.91a2.86,2.86,0,0,0,3.09,3,4.22,4.22,0,0,0,3.25-1.35l1.41,1.39a6.25,6.25,0,0,1-4.86,2.1C119.34,41.19,116.66,39.42,116.66,35.17ZM124.78,34c-.15-1.77-1-2.7-2.63-2.7a2.71,2.71,0,0,0-2.77,2.7Z"/><path class="cls-2" d="M134.87,35.19c0-4,2-6,4.95-6a4.41,4.41,0,0,1,3.31,1.46v-5.8h2.68V38.11a7.4,7.4,0,0,0,.35,2.84h-2.77a4.42,4.42,0,0,1-.26-1.57,4.61,4.61,0,0,1-3.68,1.74C136.81,41.12,134.87,39.2,134.87,35.19Zm8.26,2.27V32.82a3.52,3.52,0,0,0-2.72-1.44c-2,0-2.86,1.31-2.86,3.88s1,3.66,2.77,3.66A3.9,3.9,0,0,0,143.13,37.46Z"/><path class="cls-2" d="M148.3,38.16c0-2.51,2.13-4.19,7.54-4.8V33c0-1.15-.61-1.65-1.9-1.65a6.25,6.25,0,0,0-3.9,1.57l-1.31-1.68a8.3,8.3,0,0,1,5.58-2.09c3.1,0,4.16,1.48,4.16,4.18v4.77A7.94,7.94,0,0,0,158.8,41h-2.7a4.28,4.28,0,0,1-.26-1.49,5.57,5.57,0,0,1-4.27,1.66C149.69,41.12,148.3,40.07,148.3,38.16Zm7.54-.44V35.17c-3.21.44-4.91,1.22-4.91,2.49,0,.91.64,1.39,1.62,1.39A4.61,4.61,0,0,0,155.84,37.72Z"/><path class="cls-2" d="M162.48,37.92V31.51h-2V29.38h2v-4h2.68v4h3v2.13h-3v5.73c0,1.24.37,1.75,1.7,1.75a4.21,4.21,0,0,0,1.16-.16V41a14.22,14.22,0,0,1-2,.15C163.12,41.1,162.48,40,162.48,37.92Z"/><path class="cls-2" d="M169.83,38.16c0-2.51,2.13-4.19,7.54-4.8V33c0-1.15-.61-1.65-1.9-1.65a6.25,6.25,0,0,0-3.9,1.57l-1.31-1.68a8.34,8.34,0,0,1,5.58-2.09c3.1,0,4.16,1.48,4.16,4.18v4.77a7.94,7.94,0,0,0,.33,2.84h-2.7a4.28,4.28,0,0,1-.26-1.49,5.57,5.57,0,0,1-4.27,1.66C171.22,41.12,169.83,40.07,169.83,38.16Zm7.54-.44V35.17c-3.21.44-4.9,1.22-4.9,2.49,0,.91.63,1.39,1.61,1.39A4.61,4.61,0,0,0,177.37,37.72Z"/><path class="cls-2" d="M187.48,29.38h2.81l2.83,8.54h0L196,29.38h2.59L194.39,41h-2.73Z"/><path class="cls-2" d="M200.58,25h2.74v2.33h-2.74Zm0,4.34h2.7V41h-2.7Z"/><path class="cls-2" d="M205.76,39.36l1.46-1.64a5.71,5.71,0,0,0,3.64,1.37c1.44,0,2.31-.37,2.31-1.33s-1.18-1.22-2.57-1.54c-2-.46-4.36-1-4.36-3.66,0-2,1.74-3.4,4.3-3.4a6.82,6.82,0,0,1,4.75,1.63L214,32.53a5.85,5.85,0,0,0-3.27-1.26c-1.48,0-2,.52-2,1.18,0,.94,1.15,1.22,2.53,1.52,2,.44,4.4.94,4.4,3.64,0,2.44-2.2,3.58-4.84,3.58A7.38,7.38,0,0,1,205.76,39.36Z"/><path class="cls-2" d="M218.12,37.68v-8.3h2.7v7.67c0,1.28.55,1.87,1.72,1.87a4.7,4.7,0,0,0,3.14-1.5v-8h2.7V41h-2.7V39.38a5.74,5.74,0,0,1-4.23,1.78C219.43,41.16,218.12,40,218.12,37.68Z"/><path class="cls-2" d="M230.87,38.16c0-2.51,2.13-4.19,7.54-4.8V33c0-1.15-.61-1.65-1.9-1.65a6.25,6.25,0,0,0-3.9,1.57l-1.31-1.68a8.32,8.32,0,0,1,5.58-2.09c3.09,0,4.16,1.48,4.16,4.18v4.77a7.94,7.94,0,0,0,.33,2.84h-2.7a4.28,4.28,0,0,1-.26-1.49,5.57,5.57,0,0,1-4.27,1.66C232.26,41.12,230.87,40.07,230.87,38.16Zm7.54-.44V35.17c-3.21.44-4.91,1.22-4.91,2.49,0,.91.64,1.39,1.62,1.39A4.61,4.61,0,0,0,238.41,37.72Z"/><path class="cls-2" d="M244.25,24.82H247V41h-2.7Z"/><path class="cls-2" d="M250.37,25h2.75v2.33h-2.75Zm0,4.34h2.7V41h-2.7Z"/><path class="cls-2" d="M255.66,39.4l6.17-7.89h-5.71V29.38h9.07V31L259,38.88h6.56V41h-9.9Z"/><path class="cls-2" d="M267.23,38.16c0-2.51,2.14-4.19,7.54-4.8V33c0-1.15-.61-1.65-1.89-1.65a6.25,6.25,0,0,0-3.9,1.57l-1.31-1.68a8.3,8.3,0,0,1,5.58-2.09c3.09,0,4.16,1.48,4.16,4.18v4.77a7.94,7.94,0,0,0,.33,2.84H275a4,4,0,0,1-.27-1.49,5.56,5.56,0,0,1-4.27,1.66C268.63,41.12,267.23,40.07,267.23,38.16Zm7.54-.44V35.17c-3.2.44-4.9,1.22-4.9,2.49,0,.91.63,1.39,1.61,1.39A4.59,4.59,0,0,0,274.77,37.72Z"/><path class="cls-2" d="M281.42,37.92V31.51h-2V29.38h2v-4h2.68v4h3v2.13h-3v5.73c0,1.24.37,1.75,1.7,1.75a4.27,4.27,0,0,0,1.16-.16V41a14.22,14.22,0,0,1-2,.15C282.05,41.1,281.42,40,281.42,37.92Z"/><path class="cls-2" d="M289.59,25h2.75v2.33h-2.75Zm0,4.34h2.7V41h-2.7Z"/><path class="cls-2" d="M295,35.17c0-4.27,2.81-6,5.64-6s5.65,1.74,5.65,6-2.84,6-5.65,6S295,39.4,295,35.17Zm8.58,0c0-2.16-.91-3.72-2.94-3.72s-2.94,1.39-2.94,3.72.89,3.77,2.94,3.77S303.58,37.55,303.58,35.17Z"/><path class="cls-2" d="M308.86,29.38h2.7V31a5.72,5.72,0,0,1,4.23-1.79c2,0,3.33,1.2,3.33,3.48V41h-2.7V33.32c0-1.29-.55-1.87-1.72-1.87a4.7,4.7,0,0,0-3.14,1.5v8h-2.7Z"/><path class="cls-2" d="M27.46,51h2.71V67.1H27.46Z"/><path class="cls-2" d="M33.59,51.19h2.74v2.33H33.59Zm0,4.34h2.7V67.1h-2.7Z"/><path class="cls-2" d="M38.77,65.51l1.46-1.64a5.71,5.71,0,0,0,3.64,1.37c1.44,0,2.31-.37,2.31-1.33S45,62.7,43.61,62.37c-2-.46-4.36-1-4.36-3.66,0-2,1.75-3.4,4.3-3.4a6.8,6.8,0,0,1,4.75,1.63L47,58.69a5.79,5.79,0,0,0-3.27-1.27c-1.48,0-2,.53-2,1.18,0,.94,1.16,1.22,2.53,1.52,2,.44,4.4.94,4.4,3.64,0,2.44-2.2,3.58-4.84,3.58A7.38,7.38,0,0,1,38.77,65.51Z"/><path class="cls-2" d="M52.17,64.07V57.66h-2V55.53h2v-4h2.68v4h3v2.13h-3v5.73c0,1.24.37,1.75,1.7,1.75A4.21,4.21,0,0,0,57.71,65V67.1a14.09,14.09,0,0,1-2,.15C52.81,67.25,52.17,66.16,52.17,64.07Z"/><path class="cls-2" d="M59.61,61.32c0-4.4,3.11-6,5.51-6,2.59,0,5.08,1.55,5.08,6.25v.63H62.29a2.85,2.85,0,0,0,3.09,3,4.2,4.2,0,0,0,3.25-1.35L70,65.24a6.25,6.25,0,0,1-4.86,2.1C62.29,67.34,59.61,65.57,59.61,61.32Zm8.12-1.13c-.15-1.77-1-2.7-2.63-2.7a2.71,2.71,0,0,0-2.77,2.7Z"/><path class="cls-2" d="M72.77,55.53h2.7V57.1a5.72,5.72,0,0,1,4.23-1.79c2,0,3.33,1.2,3.33,3.48V67.1h-2.7V59.47c0-1.29-.55-1.87-1.72-1.87a4.7,4.7,0,0,0-3.14,1.5v8h-2.7Z"/><path class="cls-2" d="M85.26,65.51l1.46-1.64a5.68,5.68,0,0,0,3.63,1.37c1.44,0,2.31-.37,2.31-1.33s-1.17-1.21-2.57-1.54c-2-.46-4.36-1-4.36-3.66,0-2,1.75-3.4,4.3-3.4a6.8,6.8,0,0,1,4.75,1.63l-1.29,1.75a5.79,5.79,0,0,0-3.27-1.27c-1.48,0-2,.53-2,1.18,0,.94,1.16,1.22,2.53,1.52,2,.44,4.4.94,4.4,3.64,0,2.44-2.2,3.58-4.84,3.58A7.34,7.34,0,0,1,85.26,65.51Z"/><path class="cls-2" d="M104.34,64.07V57.66h-2V55.53h2v-4H107v4h3v2.13h-3v5.73c0,1.24.37,1.75,1.7,1.75a4.21,4.21,0,0,0,1.16-.16V67.1a14.09,14.09,0,0,1-2,.15C105,67.25,104.34,66.16,104.34,64.07Z"/><path class="cls-2" d="M111.78,61.32c0-4.27,2.81-6,5.64-6s5.64,1.74,5.64,6-2.83,6-5.64,6S111.78,65.55,111.78,61.32Zm8.58,0c0-2.16-.91-3.72-2.94-3.72s-2.94,1.39-2.94,3.72.89,3.77,2.94,3.77S120.36,63.7,120.36,61.32Z"/><path class="cls-2" d="M130.45,65.51l1.46-1.64a5.71,5.71,0,0,0,3.64,1.37c1.44,0,2.31-.37,2.31-1.33s-1.18-1.21-2.57-1.54c-2-.46-4.36-1-4.36-3.66,0-2,1.74-3.4,4.29-3.4A6.78,6.78,0,0,1,140,56.94l-1.28,1.75a5.79,5.79,0,0,0-3.27-1.27c-1.48,0-2,.53-2,1.18,0,.94,1.15,1.22,2.53,1.52,2,.44,4.4.94,4.4,3.64,0,2.44-2.2,3.58-4.84,3.58A7.38,7.38,0,0,1,130.45,65.51Z"/><path class="cls-2" d="M142.94,55.53h2.68v1.52a4.68,4.68,0,0,1,3.68-1.74c2.64,0,4.58,2,4.58,6s-2,6-4.95,6a4.41,4.41,0,0,1-3.31-1.46v5.64h-2.68Zm8.26,5.79c0-2.44-1-3.72-2.77-3.72a3.86,3.86,0,0,0-2.81,1.46V63.7a3.55,3.55,0,0,0,2.72,1.44C150.37,65.14,151.2,63.89,151.2,61.32Z"/><path class="cls-2" d="M155.82,61.32c0-4.4,3.11-6,5.51-6,2.59,0,5.08,1.55,5.08,6.25v.63H158.5a2.86,2.86,0,0,0,3.09,3,4.19,4.19,0,0,0,3.25-1.35l1.41,1.39a6.22,6.22,0,0,1-4.86,2.1C158.5,67.34,155.82,65.57,155.82,61.32ZM164,60.19c-.16-1.77-1-2.7-2.64-2.7a2.71,2.71,0,0,0-2.77,2.7Z"/><path class="cls-2" d="M168.32,61.32c0-4.42,3-6,5.56-6a4.7,4.7,0,0,1,4.8,3.38l-2.27.8a2.53,2.53,0,0,0-2.57-1.94c-1.53,0-2.81,1-2.81,3.77,0,2.46,1,3.82,2.77,3.82,1.21,0,2.06-.37,2.7-2l2.22.81a5.09,5.09,0,0,1-5,3.4C171.05,67.34,168.32,65.55,168.32,61.32Z"/><path class="cls-2" d="M181.16,51.19h2.75v2.33h-2.75Zm0,4.34h2.71V67.1h-2.71Z"/><path class="cls-2" d="M188.22,57.66h-2V55.53h2V54.35c0-1.94.81-3.44,3.75-3.44.5,0,1.39.08,1.59.11v2.07a4.45,4.45,0,0,0-.92-.09c-.95,0-1.74.26-1.74,1.5v1h2.53v2.13H190.9V67.1h-2.68Z"/><path class="cls-2" d="M195.67,51.19h2.75v2.33h-2.75Zm0,4.34h2.7V67.1h-2.7Z"/><path class="cls-2" d="M201.08,61.32c0-4.42,3-6,5.56-6a4.7,4.7,0,0,1,4.79,3.38l-2.27.8a2.52,2.52,0,0,0-2.57-1.94c-1.53,0-2.81,1-2.81,3.77,0,2.46,1,3.82,2.77,3.82,1.22,0,2.07-.37,2.7-2l2.22.81a5.09,5.09,0,0,1-5,3.4C203.8,67.34,201.08,65.55,201.08,61.32Z"/><path class="cls-2" d="M219.84,51h2.72v7.5L228.9,51h3.23l-5.49,6.21,6.16,9.92h-3.11l-4.84-7.83-2.29,2.53v5.3h-2.72Z"/><path class="cls-2" d="M234.2,64.31c0-2.51,2.14-4.19,7.54-4.8v-.35c0-1.15-.61-1.65-1.89-1.65a6.23,6.23,0,0,0-3.9,1.57l-1.31-1.68a8.3,8.3,0,0,1,5.58-2.09c3.09,0,4.16,1.48,4.16,4.18v4.77a7.94,7.94,0,0,0,.33,2.84H242a4.28,4.28,0,0,1-.26-1.49,5.57,5.57,0,0,1-4.27,1.66C235.6,67.27,234.2,66.23,234.2,64.31Zm7.54-.44V61.32c-3.2.44-4.9,1.22-4.9,2.49,0,.91.63,1.39,1.61,1.39A4.61,4.61,0,0,0,241.74,63.87Z"/><path class="cls-2" d="M248.47,57.66h-2V55.53h2V54.35c0-1.94.81-3.44,3.75-3.44.5,0,1.4.08,1.59.11v2.07a4.42,4.42,0,0,0-.91-.09c-1,0-1.75.26-1.75,1.5v1h2.53v2.13h-2.53V67.1h-2.68Z"/><path class="cls-2" d="M255.84,51h2.68v9.61l4.38-5h2.94l-3.77,4.22,4.1,7.35h-2.81l-3-5.36-1.85,2V67.1h-2.68Z"/><path class="cls-2" d="M267.59,64.31c0-2.51,2.13-4.19,7.54-4.8v-.35c0-1.15-.61-1.65-1.9-1.65a6.25,6.25,0,0,0-3.9,1.57L268,57.4a8.34,8.34,0,0,1,5.58-2.09c3.1,0,4.16,1.48,4.16,4.18v4.77a7.94,7.94,0,0,0,.33,2.84h-2.7a4.28,4.28,0,0,1-.26-1.49,5.57,5.57,0,0,1-4.27,1.66C269,67.27,267.59,66.23,267.59,64.31Zm7.54-.44V61.32c-3.21.44-4.91,1.22-4.91,2.49,0,.91.64,1.39,1.62,1.39A4.61,4.61,0,0,0,275.13,63.87Z"/><path class="cls-2" d="M290.6,53.5h-5V51h12.66V53.5h-5V67.1H290.6Z"/><path class="cls-2" d="M300,61.32c0-4.27,2.81-6,5.64-6s5.64,1.74,5.64,6-2.83,6-5.64,6S300,65.55,300,61.32Zm8.58,0c0-2.16-.91-3.72-2.94-3.72s-2.94,1.39-2.94,3.72.89,3.77,2.94,3.77S308.53,63.7,308.53,61.32Z"/><path class="cls-2" d="M313.81,55.53h2.68v1.52a4.68,4.68,0,0,1,3.68-1.74c2.64,0,4.58,2,4.58,6s-2,6-4.95,6a4.41,4.41,0,0,1-3.31-1.46v5.64h-2.68Zm8.26,5.79c0-2.44-1.05-3.72-2.77-3.72a3.86,3.86,0,0,0-2.81,1.46V63.7a3.55,3.55,0,0,0,2.72,1.44C321.24,65.14,322.07,63.89,322.07,61.32Z"/><path class="cls-2" d="M327.43,51.19h2.74v2.33h-2.74Zm0,4.34h2.7V67.1h-2.7Z"/><path class="cls-2" d="M332.83,61.32c0-4.42,3-6,5.56-6a4.7,4.7,0,0,1,4.79,3.38l-2.27.8a2.52,2.52,0,0,0-2.57-1.94c-1.52,0-2.81,1-2.81,3.77,0,2.46,1,3.82,2.77,3.82,1.22,0,2.07-.37,2.7-2l2.22.81a5.08,5.08,0,0,1-5,3.4C335.55,67.34,332.83,65.55,332.83,61.32Z"/><path class="cls-2" d="M344.71,65.51l1.46-1.64a5.71,5.71,0,0,0,3.64,1.37c1.44,0,2.31-.37,2.31-1.33s-1.18-1.21-2.57-1.54c-2-.46-4.36-1-4.36-3.66,0-2,1.74-3.4,4.29-3.4a6.8,6.8,0,0,1,4.75,1.63L353,58.69a5.82,5.82,0,0,0-3.27-1.27c-1.48,0-2,.53-2,1.18,0,.94,1.15,1.22,2.52,1.52,2,.44,4.4.94,4.4,3.64,0,2.44-2.2,3.58-4.83,3.58A7.35,7.35,0,0,1,344.71,65.51Z"/><path class="cls-2" d="M357.2,64.26h3V67.1h-3Z"/><rect class="cls-1" x="192.33" y="86.89" width="3" height="69.49"/><path class="cls-1" d="M187.63,156.07a6.21,6.21,0,1,0,6.2-6.21A6.21,6.21,0,0,0,187.63,156.07Z"/></g></g></svg>