<svg xmlns="http://www.w3.org/2000/svg" viewBox="0 0 14.79 99.26"><defs><style>.cls-1{fill:#dbcde5;}</style></defs><title>data-viz-arrow</title><g id="Layer_2" data-name="Layer 2"><g id="Layer_2-2" data-name="Layer 2"><path class="cls-1" d="M7.39,99.26h0a1.47,1.47,0,0,1-1.47-1.47v-96A1.47,1.47,0,0,1,7.39.3h0A1.47,1.47,0,0,1,8.86,1.77v96A1.47,1.47,0,0,1,7.39,99.26Z"/><path class="cls-1" d="M14.44,11.81a.72.72,0,0,1-1-.23l-6-9.48-6,9.48a.72.72,0,0,1-1,.23.75.75,0,0,1-.23-1L6.77.34A.75.75,0,0,1,7.39,0,.73.73,0,0,1,8,.34l6.66,10.45a.73.73,0,0,1-.23,1Z"/></g></g></svg>