<svg xmlns="http://www.w3.org/2000/svg" viewBox="0 0 278.05 158.16"><defs><style>.cls-1{fill:#231f20;}.cls-2{fill:#fff;}</style></defs><title>data-pro-tooltip-sm</title><g id="Layer_2" data-name="Layer 2"><g id="Layer_2-2" data-name="Layer 2"><rect class="cls-1" y="78.21" width="278.05" height="79.94" rx="7.67"/><path class="cls-2" d="M16.63,95.41h3c3.25,0,5.38,1.51,5.38,5.14s-2.17,5.22-5.38,5.22h-3Zm3.11,8.79c2.37,0,3.48-1,3.48-3.65S22.1,97,19.71,97H18.38v7.17Z"/><path class="cls-2" d="M26.28,104c0-1.61,1.37-2.69,4.85-3.08v-.23c0-.74-.4-1.06-1.22-1.06a4,4,0,0,0-2.51,1l-.84-1.08a5.32,5.32,0,0,1,3.59-1.35c2,0,2.67,1,2.67,2.69V104a5.18,5.18,0,0,0,.21,1.82H31.29a2.9,2.9,0,0,1-.16-1,3.59,3.59,0,0,1-2.75,1.06A1.88,1.88,0,0,1,26.28,104Zm4.85-.28v-1.64c-2.06.28-3.16.78-3.16,1.6,0,.58.41.89,1,.89A3,3,0,0,0,31.13,103.7Z"/><path class="cls-2" d="M35.39,103.82V99.71H34.11V98.33h1.28V95.74h1.73v2.59H39v1.38H37.12v3.68c0,.8.24,1.12,1.09,1.12a2.65,2.65,0,0,0,.74-.1v1.36a8.62,8.62,0,0,1-1.26.1C35.8,105.87,35.39,105.17,35.39,103.82Z"/><path class="cls-2" d="M40.11,104c0-1.61,1.37-2.69,4.85-3.08v-.23c0-.74-.39-1.06-1.22-1.06a4,4,0,0,0-2.51,1l-.84-1.08A5.34,5.34,0,0,1,44,98.19c2,0,2.67,1,2.67,2.69V104a5.18,5.18,0,0,0,.21,1.82H45.13a2.64,2.64,0,0,1-.17-1,3.59,3.59,0,0,1-2.75,1.06A1.88,1.88,0,0,1,40.11,104ZM45,103.7v-1.64c-2.06.28-3.15.78-3.15,1.6,0,.58.4.89,1,.89A3,3,0,0,0,45,103.7Z"/><path class="cls-2" d="M52.29,98.33H54v1a3.06,3.06,0,0,1,2.37-1.12c1.7,0,2.94,1.28,2.94,3.86s-1.27,3.83-3.18,3.83a2.84,2.84,0,0,1-2.13-.94v3.63H52.29Zm5.31,3.73c0-1.57-.67-2.4-1.78-2.4a2.53,2.53,0,0,0-1.81.94v3a2.29,2.29,0,0,0,1.76.92C57.07,104.51,57.6,103.71,57.6,102.06Z"/><path class="cls-2" d="M61,98.33h1.72v1.22h0a2.91,2.91,0,0,1,2.67-1.36h.11l0,1.59a3.55,3.55,0,0,0-.46,0,2.52,2.52,0,0,0-2.3,1.32v4.7H61Z"/><path class="cls-2" d="M66.47,102.06a3.64,3.64,0,1,1,3.63,3.87A3.5,3.5,0,0,1,66.47,102.06Zm5.52,0c0-1.39-.59-2.4-1.89-2.4s-1.89.9-1.89,2.4.57,2.42,1.89,2.42S72,103.59,72,102.06Z"/><path class="cls-2" d="M75,102.07c0-2.57,1.28-3.88,3.18-3.88a2.87,2.87,0,0,1,2.13.94V95.41H82V104a4.65,4.65,0,0,0,.23,1.82H80.45a2.75,2.75,0,0,1-.17-1,3,3,0,0,1-2.37,1.12C76.22,105.88,75,104.65,75,102.07Zm5.31,1.46v-3a2.26,2.26,0,0,0-1.75-.93c-1.3,0-1.84.84-1.84,2.5s.68,2.35,1.78,2.35A2.51,2.51,0,0,0,80.28,103.53Z"/><path class="cls-2" d="M84,103.67V98.33h1.73v4.93c0,.83.35,1.21,1.11,1.21a3,3,0,0,0,2-1V98.33h1.73v7.44H88.85v-1a3.69,3.69,0,0,1-2.72,1.15A2,2,0,0,1,84,103.67Z"/><path class="cls-2" d="M92.23,102.06a3.5,3.5,0,0,1,3.57-3.87,3,3,0,0,1,3.09,2.17l-1.46.52a1.62,1.62,0,0,0-1.65-1.24c-1,0-1.81.64-1.81,2.42,0,1.58.64,2.45,1.78,2.45a1.66,1.66,0,0,0,1.74-1.29l1.42.52a3.26,3.26,0,0,1-3.2,2.19C94,105.93,92.23,104.78,92.23,102.06Z"/><path class="cls-2" d="M100,102.06a3.54,3.54,0,0,1,3.55-3.87c1.66,0,3.26,1,3.26,4v.41h-5.08a1.83,1.83,0,0,0,2,1.93,2.69,2.69,0,0,0,2.09-.87l.91.9a4,4,0,0,1-3.12,1.35C101.73,105.93,100,104.79,100,102.06Zm5.23-.73c-.1-1.13-.66-1.74-1.7-1.74a1.75,1.75,0,0,0-1.78,1.74Z"/><path class="cls-2" d="M108.46,98.33h1.72v1.22h0a2.91,2.91,0,0,1,2.67-1.36H113l-.06,1.59a3.33,3.33,0,0,0-.46,0,2.52,2.52,0,0,0-2.3,1.32v4.7h-1.72Z"/><path class="cls-2" d="M113.81,104.75l.93-1a3.71,3.71,0,0,0,2.34.88c.93,0,1.49-.24,1.49-.85s-.76-.79-1.65-1c-1.28-.29-2.81-.63-2.81-2.35,0-1.3,1.12-2.19,2.76-2.19a4.39,4.39,0,0,1,3.06,1l-.83,1.12a3.81,3.81,0,0,0-2.1-.81c-1,0-1.26.34-1.26.76,0,.6.74.78,1.62,1,1.28.28,2.83.6,2.83,2.34,0,1.57-1.41,2.3-3.11,2.3A4.67,4.67,0,0,1,113.81,104.75Z"/><path class="cls-2" d="M125.06,102.06a3.5,3.5,0,0,1,3.57-3.87,3,3,0,0,1,3.08,2.17l-1.45.52a1.63,1.63,0,0,0-1.66-1.24c-1,0-1.8.64-1.8,2.42,0,1.58.64,2.45,1.78,2.45a1.64,1.64,0,0,0,1.73-1.29l1.43.52a3.26,3.26,0,0,1-3.2,2.19C126.81,105.93,125.06,104.78,125.06,102.06Z"/><path class="cls-2" d="M132.78,104c0-1.61,1.37-2.69,4.84-3.08v-.23c0-.74-.39-1.06-1.22-1.06a4,4,0,0,0-2.5,1l-.84-1.08a5.29,5.29,0,0,1,3.58-1.35c2,0,2.68,1,2.68,2.69V104a5,5,0,0,0,.21,1.82h-1.74a2.64,2.64,0,0,1-.17-1,3.57,3.57,0,0,1-2.74,1.06A1.87,1.87,0,0,1,132.78,104Zm4.84-.28v-1.64c-2.06.28-3.15.78-3.15,1.6,0,.58.41.89,1,.89A2.94,2.94,0,0,0,137.62,103.7Z"/><path class="cls-2" d="M141.3,98.33H143v1a3.69,3.69,0,0,1,2.72-1.15,2,2,0,0,1,2.14,2.24v5.34h-1.74v-4.9c0-.83-.35-1.21-1.1-1.21a3,3,0,0,0-2,1v5.14H141.3Z"/><path class="cls-2" d="M155.26,104.94v.83h-1.72V95.41h1.72v3.9a3,3,0,0,1,2.37-1.12c1.69,0,2.94,1.28,2.94,3.86s-1.27,3.83-3.18,3.83A2.83,2.83,0,0,1,155.26,104.94Zm3.59-2.88c0-1.57-.68-2.4-1.78-2.4a2.51,2.51,0,0,0-1.81.94v3a2.28,2.28,0,0,0,1.75.92C158.31,104.51,158.85,103.71,158.85,102.06Z"/><path class="cls-2" d="M161.81,102.06a3.54,3.54,0,0,1,3.54-3.87c1.67,0,3.27,1,3.27,4v.41h-5.09a1.84,1.84,0,0,0,2,1.93,2.69,2.69,0,0,0,2.09-.87l.91.9a4,4,0,0,1-3.12,1.35C163.53,105.93,161.81,104.79,161.81,102.06Zm5.23-.73c-.1-1.13-.66-1.74-1.7-1.74a1.75,1.75,0,0,0-1.78,1.74Z"/><path class="cls-2" d="M173.44,104c0-1.61,1.38-2.69,4.85-3.08v-.23c0-.74-.39-1.06-1.22-1.06a4,4,0,0,0-2.5,1l-.85-1.08a5.34,5.34,0,0,1,3.59-1.35c2,0,2.68,1,2.68,2.69V104a5,5,0,0,0,.21,1.82h-1.74a2.64,2.64,0,0,1-.17-1,3.58,3.58,0,0,1-2.74,1.06A1.88,1.88,0,0,1,173.44,104Zm4.85-.28v-1.64c-2.06.28-3.15.78-3.15,1.6,0,.58.41.89,1,.89A2.94,2.94,0,0,0,178.29,103.7Z"/><path class="cls-2" d="M182,98.33h1.74v1a3.68,3.68,0,0,1,2.71-1.15,2,2,0,0,1,2.15,2.24v5.34h-1.74v-4.9c0-.83-.35-1.21-1.11-1.21a3,3,0,0,0-2,1v5.14H182Z"/><path class="cls-2" d="M16,118.86A3.54,3.54,0,0,1,19.55,115c1.66,0,3.26,1,3.26,4v.41H17.73a1.83,1.83,0,0,0,2,1.93,2.69,2.69,0,0,0,2.09-.87l.91.9a4,4,0,0,1-3.12,1.35C17.73,122.73,16,121.59,16,118.86Zm5.23-.73c-.1-1.13-.66-1.74-1.7-1.74a1.75,1.75,0,0,0-1.78,1.74Z"/><path class="cls-2" d="M24.26,117.56h3.46v1.23H24.26Z"/><path class="cls-2" d="M29.18,118.86A3.5,3.5,0,0,1,32.75,115a3,3,0,0,1,3.08,2.17l-1.46.52a1.61,1.61,0,0,0-1.65-1.24c-1,0-1.81.64-1.81,2.42,0,1.58.65,2.45,1.78,2.45A1.65,1.65,0,0,0,34.43,120l1.43.52a3.28,3.28,0,0,1-3.21,2.19C30.93,122.73,29.18,121.58,29.18,118.86Z"/><path class="cls-2" d="M37,118.86a3.63,3.63,0,1,1,3.62,3.87A3.5,3.5,0,0,1,37,118.86Zm5.52,0c0-1.39-.59-2.4-1.9-2.4s-1.89.9-1.89,2.4.58,2.42,1.89,2.42S42.47,120.39,42.47,118.86Z"/><path class="cls-2" d="M45.85,115.13h1.72v1A3.41,3.41,0,0,1,50.12,115a1.85,1.85,0,0,1,2,1.22A3.56,3.56,0,0,1,54.76,115a2,2,0,0,1,2.17,2.24v5.34H55.21v-4.9c0-.83-.24-1.21-1.05-1.21a3,3,0,0,0-1.91,1v5.14H50.53v-4.9c0-.83-.24-1.21-1.05-1.21a3,3,0,0,0-1.91,1v5.14H45.85Z"/><path class="cls-2" d="M58.93,115.13h1.72v1A3.38,3.38,0,0,1,63.2,115a1.85,1.85,0,0,1,2,1.22A3.55,3.55,0,0,1,67.84,115,2,2,0,0,1,70,117.23v5.34H68.28v-4.9c0-.83-.23-1.21-1-1.21a2.92,2.92,0,0,0-1.9,1v5.14H63.61v-4.9c0-.83-.24-1.21-1.06-1.21a3,3,0,0,0-1.9,1v5.14H58.93Z"/><path class="cls-2" d="M71.58,118.86A3.54,3.54,0,0,1,75.13,115c1.66,0,3.26,1,3.26,4v.41H73.3a1.84,1.84,0,0,0,2,1.93,2.69,2.69,0,0,0,2.09-.87l.91.9a4,4,0,0,1-3.12,1.35C73.3,122.73,71.58,121.59,71.58,118.86Zm5.23-.73c-.1-1.13-.66-1.74-1.7-1.74a1.75,1.75,0,0,0-1.78,1.74Z"/><path class="cls-2" d="M80,115.13h1.72v1.22h0A2.91,2.91,0,0,1,84.46,115h.12l-.06,1.59a3.33,3.33,0,0,0-.46,0,2.53,2.53,0,0,0-2.3,1.31v4.71H80Z"/><path class="cls-2" d="M85.52,118.86A3.5,3.5,0,0,1,89.1,115a3,3,0,0,1,3.08,2.17l-1.46.52a1.61,1.61,0,0,0-1.65-1.24c-1,0-1.81.64-1.81,2.42,0,1.58.65,2.45,1.78,2.45A1.65,1.65,0,0,0,90.78,120l1.43.52A3.29,3.29,0,0,1,89,122.73C87.28,122.73,85.52,121.58,85.52,118.86Z"/><path class="cls-2" d="M93.29,118.86A3.54,3.54,0,0,1,96.84,115c1.67,0,3.26,1,3.26,4v.41H95a1.84,1.84,0,0,0,2,1.93,2.68,2.68,0,0,0,2.08-.87l.91.9a4,4,0,0,1-3.12,1.35C95,122.73,93.29,121.59,93.29,118.86Zm5.23-.73c-.1-1.13-.66-1.74-1.7-1.74a1.74,1.74,0,0,0-1.77,1.74Z"/><path class="cls-2" d="M104.84,121.55l.94-1a3.71,3.71,0,0,0,2.34.88c.93,0,1.49-.24,1.49-.85s-.76-.79-1.66-1c-1.27-.29-2.8-.63-2.8-2.35,0-1.3,1.12-2.19,2.76-2.19a4.36,4.36,0,0,1,3,1.05l-.82,1.12a3.81,3.81,0,0,0-2.1-.81c-1,0-1.26.34-1.26.76,0,.6.74.78,1.62,1,1.28.28,2.83.6,2.83,2.34,0,1.57-1.41,2.3-3.11,2.3A4.77,4.77,0,0,1,104.84,121.55Z"/><path class="cls-2" d="M113.45,120.62v-4.11h-1.28v-1.38h1.28v-2.59h1.73v2.59h1.92v1.38h-1.92v3.68c0,.8.24,1.12,1.09,1.12a2.65,2.65,0,0,0,.74-.1v1.36a8.62,8.62,0,0,1-1.26.1C113.86,122.67,113.45,122,113.45,120.62Z"/><path class="cls-2" d="M118.23,118.86a3.63,3.63,0,1,1,3.63,3.87A3.5,3.5,0,0,1,118.23,118.86Zm5.52,0c0-1.39-.59-2.4-1.89-2.4s-1.9.9-1.9,2.4.58,2.42,1.9,2.42S123.75,120.39,123.75,118.86Z"/><path class="cls-2" d="M127.13,115.13h1.72v1.22h0a2.92,2.92,0,0,1,2.68-1.36h.11l-.06,1.59a3.33,3.33,0,0,0-.46,0,2.55,2.55,0,0,0-2.3,1.31v4.71h-1.72Z"/><path class="cls-2" d="M132.62,118.86a3.54,3.54,0,0,1,3.54-3.87c1.67,0,3.27,1,3.27,4v.41h-5.09a1.84,1.84,0,0,0,2,1.93,2.69,2.69,0,0,0,2.09-.87l.91.9a4,4,0,0,1-3.13,1.35C134.34,122.73,132.62,121.59,132.62,118.86Zm5.22-.73c-.09-1.13-.66-1.74-1.69-1.74a1.75,1.75,0,0,0-1.78,1.74Z"/><path class="cls-2" d="M141.82,122.57h-.74v-1.82H143v1.58l-.88,1.81h-.8Z"/><path class="cls-2" d="M148.26,120.78c0-1.61,1.37-2.69,4.84-3.08v-.23c0-.74-.39-1.06-1.22-1.06a4,4,0,0,0-2.5,1l-.84-1.08a5.29,5.29,0,0,1,3.58-1.35c2,0,2.68,1,2.68,2.69v3.07a5,5,0,0,0,.21,1.82h-1.74a2.64,2.64,0,0,1-.17-.95,3.57,3.57,0,0,1-2.74,1.06A1.87,1.87,0,0,1,148.26,120.78Zm4.84-.28v-1.64c-2.06.28-3.15.78-3.15,1.6,0,.58.41.89,1,.89A2.94,2.94,0,0,0,153.1,120.5Z"/><path class="cls-2" d="M160.1,120.13l1.39-.72a3,3,0,0,0,2.85,1.8c1.27,0,2.12-.4,2.12-1.34s-.64-1.32-2.35-1.82c-2-.59-3.62-1.14-3.62-3.11,0-1.77,1.45-2.93,3.55-2.93a4.09,4.09,0,0,1,3.88,2.23l-1.28.88a2.85,2.85,0,0,0-2.62-1.51c-1.15,0-1.81.42-1.81,1.17,0,1,.75,1.29,2.44,1.8,2,.57,3.53,1.22,3.53,3.16,0,1.7-1.44,3-3.91,3A4.29,4.29,0,0,1,160.1,120.13Z"/><path class="cls-2" d="M169.54,120.78c0-1.61,1.37-2.69,4.84-3.08v-.23c0-.74-.39-1.06-1.22-1.06a4,4,0,0,0-2.5,1l-.84-1.08A5.31,5.31,0,0,1,173.4,115c2,0,2.68,1,2.68,2.69v3.07a5,5,0,0,0,.21,1.82h-1.74a2.64,2.64,0,0,1-.17-.95,3.57,3.57,0,0,1-2.74,1.06A1.87,1.87,0,0,1,169.54,120.78Zm4.84-.28v-1.64c-2.06.28-3.15.78-3.15,1.6,0,.58.41.89,1,.89A2.94,2.94,0,0,0,174.38,120.5Z"/><path class="cls-2" d="M177.59,120.78c0-1.61,1.37-2.69,4.84-3.08v-.23c0-.74-.39-1.06-1.22-1.06a4,4,0,0,0-2.5,1l-.84-1.08a5.29,5.29,0,0,1,3.58-1.35c2,0,2.68,1,2.68,2.69v3.07a5,5,0,0,0,.21,1.82H182.6a2.64,2.64,0,0,1-.17-.95,3.57,3.57,0,0,1-2.74,1.06A1.87,1.87,0,0,1,177.59,120.78Zm4.84-.28v-1.64c-2.06.28-3.15.78-3.15,1.6,0,.58.41.89,1,.89A2.94,2.94,0,0,0,182.43,120.5Z"/><path class="cls-2" d="M185.78,120.13l1.38-.72a3,3,0,0,0,2.86,1.8c1.26,0,2.12-.4,2.12-1.34s-.65-1.32-2.36-1.82c-2-.59-3.61-1.14-3.61-3.11,0-1.77,1.44-2.93,3.54-2.93a4.08,4.08,0,0,1,3.88,2.23l-1.27.88a2.86,2.86,0,0,0-2.62-1.51c-1.15,0-1.81.42-1.81,1.17,0,1,.74,1.29,2.44,1.8,2,.57,3.53,1.22,3.53,3.16,0,1.7-1.44,3-3.91,3A4.28,4.28,0,0,1,185.78,120.13Z"/><path class="cls-2" d="M16.42,131.93h1.73v1a3,3,0,0,1,2.36-1.12c1.7,0,2.95,1.28,2.95,3.86s-1.28,3.83-3.18,3.83a2.84,2.84,0,0,1-2.13-.93v3.62H16.42Zm5.31,3.73c0-1.57-.67-2.4-1.78-2.4a2.49,2.49,0,0,0-1.8.94v3a2.26,2.26,0,0,0,1.75.92C21.2,138.11,21.73,137.31,21.73,135.66Z"/><path class="cls-2" d="M25.12,131.93h1.72v1.22h0a2.91,2.91,0,0,1,2.67-1.36h.12l-.06,1.59a3.33,3.33,0,0,0-.46,0,2.52,2.52,0,0,0-2.3,1.32v4.7H25.12Z"/><path class="cls-2" d="M30.6,135.66a3.64,3.64,0,1,1,3.63,3.87A3.5,3.5,0,0,1,30.6,135.66Zm5.52,0c0-1.39-.58-2.4-1.89-2.4s-1.89.9-1.89,2.4.58,2.42,1.89,2.42S36.12,137.19,36.12,135.66Z"/><path class="cls-2" d="M39.1,135.67c0-2.57,1.28-3.88,3.18-3.88a2.85,2.85,0,0,1,2.13.94V129h1.72v8.54a4.65,4.65,0,0,0,.23,1.82H44.58a2.75,2.75,0,0,1-.17-1A3,3,0,0,1,42,139.48C40.35,139.48,39.1,138.25,39.1,135.67Zm5.31,1.46v-3a2.24,2.24,0,0,0-1.75-.93c-1.3,0-1.83.84-1.83,2.5s.67,2.35,1.77,2.35A2.49,2.49,0,0,0,44.41,137.13Z"/><path class="cls-2" d="M48.12,137.27v-5.34h1.73v4.93c0,.83.36,1.21,1.11,1.21a3,3,0,0,0,2-1v-5.17h1.74v7.44H53v-1a3.67,3.67,0,0,1-2.72,1.15A2,2,0,0,1,48.12,137.27Z"/><path class="cls-2" d="M56.36,135.66a3.5,3.5,0,0,1,3.58-3.87A3,3,0,0,1,63,134l-1.46.52a1.61,1.61,0,0,0-1.65-1.24c-1,0-1.81.64-1.81,2.42,0,1.58.65,2.45,1.78,2.45a1.65,1.65,0,0,0,1.74-1.29l1.43.52a3.29,3.29,0,0,1-3.21,2.19C58.12,139.53,56.36,138.38,56.36,135.66Z"/><path class="cls-2" d="M65.14,137.42v-4.11H63.85v-1.38h1.29v-2.59h1.73v2.59h1.92v1.38H66.87V137c0,.8.23,1.12,1.09,1.12a2.65,2.65,0,0,0,.74-.1v1.36a8.75,8.75,0,0,1-1.26.1C65.55,139.47,65.14,138.77,65.14,137.42Z"/><path class="cls-2" d="M71.08,139.37h-.74v-1.82h1.93v1.58l-.88,1.81h-.8Z"/><path class="cls-2" d="M77.57,135.66a3.64,3.64,0,1,1,3.63,3.87A3.5,3.5,0,0,1,77.57,135.66Zm5.52,0c0-1.39-.59-2.4-1.89-2.4s-1.89.9-1.89,2.4.57,2.42,1.89,2.42S83.09,137.19,83.09,135.66Z"/><path class="cls-2" d="M86.48,131.93H88.2v1.22h0a2.91,2.91,0,0,1,2.67-1.36H91L91,133.38a3.33,3.33,0,0,0-.46,0,2.52,2.52,0,0,0-2.3,1.32v4.7H86.48Z"/><path class="cls-2" d="M95.56,137.58c0-1.61,1.38-2.69,4.85-3.08v-.23c0-.74-.39-1.06-1.22-1.06a4,4,0,0,0-2.51,1l-.84-1.08a5.34,5.34,0,0,1,3.59-1.35c2,0,2.67,1,2.67,2.69v3.07a5.18,5.18,0,0,0,.21,1.82h-1.73a2.64,2.64,0,0,1-.17-1,3.59,3.59,0,0,1-2.75,1.06A1.88,1.88,0,0,1,95.56,137.58Zm4.85-.28v-1.64c-2.06.28-3.15.78-3.15,1.6,0,.58.4.89,1,.89A3,3,0,0,0,100.41,137.3Z"/><path class="cls-2" d="M104.09,131.93h1.74v1a3.68,3.68,0,0,1,2.71-1.15,2,2,0,0,1,2.15,2.24v5.34H109v-4.9c0-.83-.35-1.21-1.11-1.21a3,3,0,0,0-2,1v5.14h-1.74Z"/><path class="cls-2" d="M111.69,142l.39-1.38a5.34,5.34,0,0,0,1.26.15,1.12,1.12,0,0,0,1.18-.84l.21-.55-2.86-7.48h1.8l1.92,5.42h0l1.91-5.42h1.71l-3.17,8.25c-.49,1.31-1.13,2.08-2.6,2.08A6.14,6.14,0,0,1,111.69,142Z"/><path class="cls-2" d="M123.7,135.66a3.64,3.64,0,1,1,3.63,3.87A3.5,3.5,0,0,1,123.7,135.66Zm5.52,0c0-1.39-.59-2.4-1.89-2.4s-1.89.9-1.89,2.4.57,2.42,1.89,2.42S129.22,137.19,129.22,135.66Z"/><path class="cls-2" d="M133.2,137.42v-4.11h-1.29v-1.38h1.29v-2.59h1.72v2.59h1.92v1.38h-1.92V137c0,.8.24,1.12,1.09,1.12a2.6,2.6,0,0,0,.74-.1v1.36a8.62,8.62,0,0,1-1.26.1C133.6,139.47,133.2,138.77,133.2,137.42Z"/><path class="cls-2" d="M138.39,129h1.74v3.93a3.68,3.68,0,0,1,2.71-1.15A2,2,0,0,1,145,134v5.34h-1.74v-4.9c0-.83-.35-1.21-1.11-1.21a3,3,0,0,0-2,1v5.14h-1.74Z"/><path class="cls-2" d="M146.55,135.66a3.54,3.54,0,0,1,3.54-3.87c1.67,0,3.27,1,3.27,4v.41h-5.09a1.84,1.84,0,0,0,2,1.93,2.69,2.69,0,0,0,2.09-.87l.91.9a4,4,0,0,1-3.12,1.35C148.27,139.53,146.55,138.39,146.55,135.66Zm5.23-.73c-.1-1.13-.66-1.74-1.7-1.74a1.75,1.75,0,0,0-1.78,1.74Z"/><path class="cls-2" d="M155,131.93h1.72v1.22h0a2.91,2.91,0,0,1,2.67-1.36h.12l-.06,1.59a3.33,3.33,0,0,0-.46,0,2.52,2.52,0,0,0-2.3,1.32v4.7H155Z"/><path class="cls-2" d="M163.77,131.93h1.75l.81,3.09c.23.84.37,1.41.56,2.36h0c.23-1,.35-1.54.59-2.39l.78-3.06h1.41l.82,3.11c.24.83.37,1.39.58,2.34h0c.23-1,.35-1.5.59-2.31l.84-3.14h1.57l-2.21,7.44H170.3L169,134.2h0l-1.34,5.17H166Z"/><path class="cls-2" d="M175,135.66a3.54,3.54,0,0,1,3.54-3.87c1.67,0,3.27,1,3.27,4v.41h-5.09a1.84,1.84,0,0,0,2,1.93,2.69,2.69,0,0,0,2.09-.87l.91.9a4,4,0,0,1-3.13,1.35C176.69,139.53,175,138.39,175,135.66Zm5.22-.73c-.09-1.13-.65-1.74-1.69-1.74a1.75,1.75,0,0,0-1.78,1.74Z"/><path class="cls-2" d="M185.15,138.55v.82h-1.72V129h1.72v3.9a3,3,0,0,1,2.37-1.12c1.69,0,2.94,1.28,2.94,3.86s-1.28,3.83-3.18,3.83A2.84,2.84,0,0,1,185.15,138.55Zm3.58-2.89c0-1.57-.67-2.4-1.77-2.4a2.49,2.49,0,0,0-1.81.94v3a2.26,2.26,0,0,0,1.75.92C188.2,138.11,188.73,137.31,188.73,135.66Z"/><path class="cls-2" d="M191.56,138.35l.94-1a3.63,3.63,0,0,0,2.34.88c.92,0,1.48-.24,1.48-.85s-.76-.79-1.65-1c-1.28-.29-2.8-.63-2.8-2.35,0-1.3,1.12-2.19,2.76-2.19a4.38,4.38,0,0,1,3.05,1.05l-.83,1.12a3.78,3.78,0,0,0-2.1-.81c-.95,0-1.26.34-1.26.76,0,.6.74.78,1.63,1,1.27.28,2.83.6,2.83,2.34,0,1.57-1.42,2.3-3.11,2.3A4.68,4.68,0,0,1,191.56,138.35Z"/><path class="cls-2" d="M199.64,129.15h1.76v1.5h-1.76Zm0,2.78h1.74v7.44h-1.74Z"/><path class="cls-2" d="M204.12,137.42v-4.11h-1.29v-1.38h1.29v-2.59h1.72v2.59h1.92v1.38h-1.92V137c0,.8.24,1.12,1.09,1.12a2.6,2.6,0,0,0,.74-.1v1.36a8.59,8.59,0,0,1-1.25.1C204.52,139.47,204.12,138.77,204.12,137.42Z"/><path class="cls-2" d="M208.89,135.66a3.54,3.54,0,0,1,3.54-3.87c1.67,0,3.27,1,3.27,4v.41h-5.09a1.84,1.84,0,0,0,2,1.93,2.69,2.69,0,0,0,2.09-.87l.91.9a4,4,0,0,1-3.12,1.35C210.61,139.53,208.89,138.39,208.89,135.66Zm5.23-.73c-.1-1.13-.66-1.74-1.7-1.74a1.75,1.75,0,0,0-1.78,1.74Z"/><path class="cls-2" d="M217.35,137.55h1.93v1.82h-1.93Z"/><rect class="cls-1" x="27.11" y="4.09" width="2.08" height="78.55"/><path class="cls-1" d="M32.45,4.3a4.3,4.3,0,1,0-4.3,4.3A4.3,4.3,0,0,0,32.45,4.3Z"/></g></g></svg>