<svg xmlns="http://www.w3.org/2000/svg" viewBox="0 0 84.96 139.25"><defs><style>.cls-1{fill:#704797;}.cls-2{fill:#fff;}</style></defs><title>data-writer</title><g id="Layer_2" data-name="Layer 2"><g id="Layer_2-2" data-name="Layer 2"><path class="cls-1" d="M13.92,96.54h4.65c5.11,0,8.45,2.37,8.45,8.08s-3.41,8.21-8.45,8.21H13.92Zm4.89,13.82c3.72,0,5.46-1.63,5.46-5.74,0-3.92-1.76-5.53-5.5-5.53H16.68v11.27Z"/><path class="cls-1" d="M34.64,96.47h2.71l5.77,16.36H40.3L39,109H32.79l-1.34,3.88H28.87Zm3.52,10.06-2.22-6.6h0l-2.27,6.6Z"/><path class="cls-1" d="M49.5,99.09h-5V96.54H57.27v2.55h-5v13.74H49.5Z"/><path class="cls-1" d="M64.4,96.47h2.71l5.77,16.36H70.06L68.74,109H62.55l-1.34,3.88H58.64Zm3.53,10.06-2.23-6.6h0l-2.27,6.6Z"/><path class="cls-1" d="M0,123H2.77l2.07,8.44c.33,1.3.64,2.51.86,3.78h0c.22-1.25.5-2.46.83-3.76l2-8.46h2.65l2,8.5c.35,1.39.62,2.36.86,3.72h0c.25-1.41.49-2.26.8-3.65l2-8.57h2.58l-4.3,16.3h-2.4L9.89,126.76H9.84L6.76,139.25H4.34Z"/><path class="cls-1" d="M22.21,123h5.84c3.87,0,6.12,1.57,6.12,4.89a4.34,4.34,0,0,1-3.61,4.63l3.83,6.78H31.44l-3.66-6.43H24.92v6.43H22.21Zm5.73,7.47c2.29,0,3.52-.58,3.52-2.51s-1.21-2.45-3.54-2.45h-3v5Z"/><path class="cls-1" d="M37.82,123H40.6v16.3H37.82Z"/><path class="cls-1" d="M48.46,125.51h-5V123H56.23v2.56h-5v13.74H48.46Z"/><path class="cls-1" d="M58.89,123H69.41v2.56H61.64v4h5.7V132h-5.7v4.74h8.21v2.51h-11Z"/><path class="cls-1" d="M72.78,123h5.84c3.87,0,6.12,1.57,6.12,4.89a4.35,4.35,0,0,1-3.61,4.63L85,139.25H82l-3.66-6.43H75.49v6.43H72.78Zm5.73,7.47c2.29,0,3.52-.58,3.52-2.51s-1.21-2.45-3.55-2.45h-3v5Z"/><path class="cls-2" d="M69.29,13.43,48.78,1.58A11.85,11.85,0,0,0,37,1.58L16.43,13.43a11.89,11.89,0,0,0-5.92,10.25V47.36a11.83,11.83,0,0,0,5.92,10.25L36.94,69.46a11.88,11.88,0,0,0,11.84,0L69.29,57.61a11.86,11.86,0,0,0,5.92-10.25V23.67A11.86,11.86,0,0,0,69.29,13.43Z"/><path class="cls-1" d="M69.29,13.43,48.78,1.58A11.85,11.85,0,0,0,37,1.58L16.43,13.43a11.89,11.89,0,0,0-5.92,10.25V47.36a11.85,11.85,0,0,0,5.92,10.25L36.94,69.46a11.88,11.88,0,0,0,11.84,0L69.29,57.61a11.87,11.87,0,0,0,5.92-10.25V23.67A11.86,11.86,0,0,0,69.29,13.43ZM71,47.36A7.67,7.67,0,0,1,67.19,54L46.69,65.84a7.7,7.7,0,0,1-7.66,0L18.53,54a7.68,7.68,0,0,1-3.83-6.63V23.67A7.65,7.65,0,0,1,18.53,17L39,5.19a7.7,7.7,0,0,1,7.66,0L67.19,17A7.65,7.65,0,0,1,71,23.67V47.36Z"/><path class="cls-1" d="M52.36,26.94,45.52,23a5.31,5.31,0,0,0-5.34,0L33.34,27a5.34,5.34,0,0,0-2.66,4.62v7.9a5.38,5.38,0,0,0,2.66,4.62L40.18,48a5.38,5.38,0,0,0,2.67.7,5.32,5.32,0,0,0,2.66-.7l6.84-4A5.33,5.33,0,0,0,55,39.45V31.56A5.27,5.27,0,0,0,52.36,26.94ZM50.85,39.47a1.15,1.15,0,0,1-.58,1l-6.84,4a1.17,1.17,0,0,1-1.17,0l-6.83-4a1.18,1.18,0,0,1-.59-1v-7.9a1.13,1.13,0,0,1,.59-1l6.83-4a1.23,1.23,0,0,1,.59-.15,1.17,1.17,0,0,1,.58.15l6.84,4a1.14,1.14,0,0,1,.58,1Z"/></g></g></svg>