<svg xmlns="http://www.w3.org/2000/svg" viewBox="0 0 118.9 135.39"><defs><style>.cls-1,.cls-3{fill:#704797;}.cls-2{fill:#fff;}.cls-2,.cls-3{fill-rule:evenodd;}</style></defs><title>heroku-postgres</title><g id="Layer_2" data-name="Layer 2"><g id="Layer_2-2" data-name="Layer 2"><path class="cls-1" d="M13.63,92.37h2.75v6.49h7.4V92.37h2.75v16.29H23.78v-7.24h-7.4v7.24H13.63Z"/><path class="cls-1" d="M30.45,92.37H41v2.55H33.2v4h5.7v2.45H33.2v4.73h8.21v2.51h-11Z"/><path class="cls-1" d="M44.34,92.37h5.83c3.88,0,6.12,1.56,6.12,4.89a4.33,4.33,0,0,1-3.61,4.62l3.83,6.78H53.56l-3.65-6.43H47.05v6.43H44.34Zm5.72,7.46c2.29,0,3.53-.57,3.53-2.51S52.38,94.88,50,94.88h-3v5Z"/><path class="cls-1" d="M59,100.51c0-5.48,3.23-8.45,7.37-8.45s7.34,3,7.34,8.45S70.47,109,66.35,109,59,106,59,100.51Zm11.93,0c0-3.83-1.83-5.92-4.56-5.92s-4.6,2.09-4.6,5.92,1.83,6,4.6,6S70.91,104.35,70.91,100.51Z"/><path class="cls-1" d="M76.81,92.37h2.75v7.57L86,92.37h3.26l-5.55,6.27,6.23,10H86.76l-4.89-7.9-2.31,2.55v5.35H76.81Z"/><path class="cls-1" d="M92.17,102.72V92.37h2.76v10.1c0,2.49,1.08,4,3.59,4s3.56-1.43,3.56-3.94V92.37h2.71v10.32c0,3.7-2.09,6.24-6.3,6.24C94,108.93,92.17,106.42,92.17,102.72Z"/><path class="cls-1" d="M0,118.79H5.7c3.53,0,6.28,1.23,6.28,5,0,3.94-3,5.11-6.37,5.11H2.73v6.19H0Zm5.75,7.7c2.42,0,3.52-.75,3.52-2.62s-1.1-2.57-3.55-2.57h-3v5.19Z"/><path class="cls-1" d="M14,126.93c0-5.48,3.24-8.45,7.38-8.45s7.33,3,7.33,8.45-3.21,8.46-7.33,8.46S14,132.42,14,126.93Zm11.94,0c0-3.83-1.83-5.92-4.56-5.92s-4.6,2.09-4.6,5.92,1.83,6,4.6,6S26,130.76,26,126.93Z"/><path class="cls-1" d="M31,131.25l2.18-1.15a4.71,4.71,0,0,0,4.49,2.84c2,0,3.32-.64,3.32-2.11s-1-2.07-3.7-2.86c-3.14-.93-5.68-1.79-5.68-4.89,0-2.78,2.27-4.6,5.57-4.6a6.41,6.41,0,0,1,6.1,3.5l-2,1.39A4.51,4.51,0,0,0,37.16,121c-1.8,0-2.84.66-2.84,1.85,0,1.52,1.17,2,3.83,2.82,3.09.9,5.55,1.91,5.55,5,0,2.67-2.27,4.76-6.14,4.76A6.75,6.75,0,0,1,31,131.25Z"/><path class="cls-1" d="M50.68,121.34h-5v-2.55H58.45v2.55h-5v13.74H50.68Z"/><path class="cls-1" d="M60.32,126.87c0-5.22,2.84-8.39,7.18-8.39,3.08,0,5.35,1.43,6.32,5.13l-2.56.68c-.72-2.44-1.85-3.26-3.78-3.26s-4.39,1.19-4.39,5.77,2.18,6.12,4.5,6.12a3.6,3.6,0,0,0,3.81-3.68H68.12V127H74v8.06H71.77v-2.36h0a4.7,4.7,0,0,1-4.45,2.67C62.61,135.39,60.32,131.84,60.32,126.87Z"/><path class="cls-1" d="M77.73,118.79h5.84c3.87,0,6.12,1.56,6.12,4.88a4.34,4.34,0,0,1-3.61,4.63l3.83,6.78H87l-3.66-6.43H80.44v6.43H77.73Zm5.73,7.46c2.29,0,3.52-.57,3.52-2.51s-1.21-2.44-3.54-2.44h-3v5Z"/><path class="cls-1" d="M93.17,118.79h10.52v2.55H95.92v4h5.7v2.44h-5.7v4.74h8.21v2.51h-11Z"/><path class="cls-1" d="M106.2,131.25l2.18-1.15a4.71,4.71,0,0,0,4.49,2.84c2,0,3.33-.64,3.33-2.11s-1-2.07-3.7-2.86c-3.15-.93-5.68-1.79-5.68-4.89,0-2.78,2.26-4.6,5.57-4.6a6.43,6.43,0,0,1,6.1,3.5l-2,1.39a4.51,4.51,0,0,0-4.12-2.38c-1.8,0-2.84.66-2.84,1.85,0,1.52,1.17,2,3.83,2.82,3.09.9,5.55,1.91,5.55,5,0,2.67-2.26,4.76-6.14,4.76A6.75,6.75,0,0,1,106.2,131.25Z"/><path class="cls-2" d="M33.71,0a7.64,7.64,0,0,0-7.63,7.63V57.21a7.63,7.63,0,0,0,7.63,7.62H83.28a7.63,7.63,0,0,0,7.63-7.62V7.63A7.64,7.64,0,0,0,83.28,0Z"/><path class="cls-3" d="M33.71,0a7.64,7.64,0,0,0-7.63,7.63V57.21a7.63,7.63,0,0,0,7.63,7.62H83.28a7.63,7.63,0,0,0,7.63-7.62V7.63A7.64,7.64,0,0,0,83.28,0ZM87.1,57.21A3.82,3.82,0,0,1,83.28,61H33.71a3.82,3.82,0,0,1-3.82-3.81V7.63a3.82,3.82,0,0,1,3.82-3.82H83.28A3.82,3.82,0,0,1,87.1,7.63Zm-30-43.89a1.9,1.9,0,0,0-1.9-1.9c-8.83,0-20.57.85-20.57,8.28,0,6.83,8.83,17.38,20.57,17.38a1.91,1.91,0,0,0,1.9-1.91Zm4.77-1.9a1.91,1.91,0,0,0-1.91,1.9V48.18a1.87,1.87,0,0,1-3.2,1.32A1.91,1.91,0,0,0,54,52.2a5.61,5.61,0,0,0,4,1.68,5.83,5.83,0,0,0,2.22-.45,5.61,5.61,0,0,0,3.51-5.25V37c10.77-1,18.66-10.82,18.66-17.28,0-7.43-11.74-8.28-20.57-8.28m1.91,21.73V15.25c9.34.19,14.85,1.82,14.85,4.45,0,4.33-6.16,12.39-14.85,13.45"/></g></g></svg>