<svg xmlns="http://www.w3.org/2000/svg" viewBox="0 0 91.03 144.44"><defs><style>.cls-1{fill:#704797;}.cls-2{fill:#fff;}</style></defs><title>kafka-icon-NEW.svg</title><g id="Layer_2" data-name="Layer 2"><g id="Layer_2-2" data-name="Layer 2"><path class="cls-1" d="M5.77,101.66H8.48L14.25,118H11.43l-1.32-3.87H3.92L2.58,118H0Zm3.52,10.07-2.22-6.61H7l-2.26,6.61Z"/><path class="cls-1" d="M16.86,101.73h5.71c3.52,0,6.27,1.23,6.27,5,0,3.94-3,5.11-6.36,5.11H19.59V118H16.86Zm5.75,7.71c2.42,0,3.52-.75,3.52-2.62s-1.1-2.58-3.54-2.58h-3v5.2Z"/><path class="cls-1" d="M36.15,101.66h2.71L44.63,118H41.81l-1.32-3.87H34.3L33,118H30.38Zm3.52,10.07-2.22-6.61H37.4l-2.26,6.61Z"/><path class="cls-1" d="M46.45,109.83c0-5.46,3.06-8.41,7.16-8.41,3.78,0,5.59,2.09,6.32,5.07l-2.62.74c-.62-2.15-1.57-3.25-3.72-3.25-2.76,0-4.36,2.13-4.36,5.83,0,3.88,1.65,6,4.4,6,2.11,0,3.3-1,3.92-3.5l2.62.6c-.79,3.23-2.8,5.41-6.56,5.41C49.42,118.33,46.45,115.45,46.45,109.83Z"/><path class="cls-1" d="M63.25,101.73H66v6.5h7.4v-6.5h2.75V118H73.4v-7.24H66V118H63.25Z"/><path class="cls-1" d="M80.07,101.73H90.59v2.55H82.82v4.06h5.7v2.44h-5.7v4.73H91V118h-11Z"/><path class="cls-1" d="M12.88,128.15h2.75v7.57L22,128.15H25.3l-5.55,6.27,6.23,10H22.83l-4.89-7.9-2.31,2.55v5.35H12.88Z"/><path class="cls-1" d="M32.94,128.08h2.7l5.77,16.36H38.59l-1.32-3.87H31.09l-1.35,3.87H27.17Zm3.52,10.07-2.23-6.61h0l-2.27,6.61Z"/><path class="cls-1" d="M44,128.15H54.29v2.55H46.78v4.36h5.44v2.45H46.78v6.93H44Z"/><path class="cls-1" d="M57,128.15h2.76v7.57l6.4-7.57h3.26l-5.55,6.27,6.24,10H66.93L62,136.54l-2.31,2.55v5.35H57Z"/><path class="cls-1" d="M77,128.08h2.71l5.77,16.36H82.69l-1.32-3.87H75.18l-1.34,3.87H71.26Zm3.52,10.07-2.22-6.61h0L76,138.15Z"/><g id="Page-1"><g id="heroku-data-redis"><g id="Background"><path class="cls-2" d="M77,72H20.12a6.57,6.57,0,0,1-6.56-6.57V8.47A6.57,6.57,0,0,1,20.12,1.9H77a6.57,6.57,0,0,1,6.57,6.57V65.38A6.57,6.57,0,0,1,77,72"/><path class="cls-1" d="M77,73.85H20.12a8.48,8.48,0,0,1-8.46-8.47V8.47A8.48,8.48,0,0,1,20.12,0H77a8.48,8.48,0,0,1,8.47,8.47V65.38A8.48,8.48,0,0,1,77,73.85ZM20.12,3.8a4.67,4.67,0,0,0-4.66,4.67V65.38a4.67,4.67,0,0,0,4.66,4.67H77a4.68,4.68,0,0,0,4.67-4.67V8.47A4.68,4.68,0,0,0,77,3.8Z"/></g></g></g><line class="cls-2" x1="53.06" y1="13.36" x2="53.06" y2="61.58"/><path class="cls-1" d="M53.06,63.33a1.75,1.75,0,0,1-1.75-1.75V13.36a1.75,1.75,0,0,1,3.5,0V61.58A1.75,1.75,0,0,1,53.06,63.33Z"/><line class="cls-2" x1="39.84" y1="33.28" x2="31.6" y2="29.41"/><path class="cls-1" d="M39.84,35a1.76,1.76,0,0,1-.74-.16L30.86,31a1.75,1.75,0,1,1,1.49-3.17l8.24,3.87A1.75,1.75,0,0,1,39.84,35Z"/><line class="cls-2" x1="31.57" y1="45.36" x2="39.74" y2="41.33"/><path class="cls-1" d="M31.57,47.12a1.75,1.75,0,0,1-.78-3.32l8.17-4a1.75,1.75,0,1,1,1.55,3.14l-8.17,4A1.65,1.65,0,0,1,31.57,47.12Z"/><circle class="cls-1" cx="27.63" cy="47.31" r="4.39"/><path class="cls-1" d="M27.63,53.45a6.14,6.14,0,1,1,6.15-6.14A6.15,6.15,0,0,1,27.63,53.45Zm0-8.78a2.64,2.64,0,1,0,2.65,2.64A2.64,2.64,0,0,0,27.63,44.67Z"/><circle class="cls-1" cx="27.63" cy="27.55" r="4.39"/><path class="cls-1" d="M27.63,33.69a6.14,6.14,0,1,1,6.15-6.14A6.15,6.15,0,0,1,27.63,33.69Zm0-8.78a2.64,2.64,0,1,0,2.65,2.64A2.64,2.64,0,0,0,27.63,24.91Z"/><path class="cls-1" d="M44.73,22.06a4.39,4.39,0,0,1,0-8.78Z"/><path class="cls-1" d="M44.73,23.81a6.14,6.14,0,1,1,0-12.28,1.75,1.75,0,0,1,1.75,1.75v8.78A1.76,1.76,0,0,1,44.73,23.81ZM43,15.69a2.64,2.64,0,0,0,0,4Z"/><path class="cls-1" d="M44.73,52.79a4.4,4.4,0,0,0,0,8.79Z"/><path class="cls-1" d="M44.73,63.33a6.15,6.15,0,0,1,0-12.29,1.76,1.76,0,0,1,1.75,1.75v8.79A1.76,1.76,0,0,1,44.73,63.33ZM43,55.21a2.64,2.64,0,0,0,0,3.95Z"/><path class="cls-1" d="M44.71,46a9.27,9.27,0,0,1-.06-17.2Z"/><path class="cls-1" d="M44.71,47.79a1.82,1.82,0,0,1-.65-.12A11,11,0,0,1,44,27.22a1.74,1.74,0,0,1,2.41,1.61L46.46,46a1.74,1.74,0,0,1-1.75,1.76ZM42.91,32a7.54,7.54,0,0,0,0,10.86Z"/><line class="cls-2" x1="73.92" y1="25.41" x2="53.06" y2="35.11"/><path class="cls-1" d="M53.06,36.87a1.75,1.75,0,0,1-.74-3.34l20.86-9.7A1.75,1.75,0,1,1,74.66,27L53.8,36.7A1.78,1.78,0,0,1,53.06,36.87Z"/><line class="cls-2" x1="73.92" y1="49.52" x2="53.06" y2="39.28"/><path class="cls-1" d="M73.92,51.27a1.64,1.64,0,0,1-.77-.18L52.29,40.85a1.75,1.75,0,1,1,1.54-3.14L74.69,48a1.75,1.75,0,0,1-.77,3.32Z"/></g></g></svg>