<svg xmlns="http://www.w3.org/2000/svg" xmlns:xlink="http://www.w3.org/1999/xlink" viewBox="0 0 120.8 154.21"><defs><style>.cls-1{fill:none;}.cls-2,.cls-3,.cls-7{fill:#704797;}.cls-2{clip-rule:evenodd;}.cls-4{fill:#fff;}.cls-5{fill:#dbcde5;}.cls-6{clip-path:url(#clip-path);}.cls-7{fill-rule:evenodd;}.cls-8{clip-path:url(#clip-path-2);}.cls-9{clip-path:url(#clip-path-3);}</style><clipPath id="clip-path"><path class="cls-1" d="M103,10.12,92.46,4a4.31,4.31,0,0,0-4.31,0l-10.57,6.1a4.33,4.33,0,0,0-2.16,3.74V26.07a4.33,4.33,0,0,0,2.16,3.73l10.57,6.1a4.29,4.29,0,0,0,4.31,0L103,29.8a4.33,4.33,0,0,0,2.16-3.73V13.86A4.33,4.33,0,0,0,103,10.12Zm.22,16a2.39,2.39,0,0,1-1.19,2.05l-10.57,6.1a2.39,2.39,0,0,1-2.37,0l-10.57-6.1a2.39,2.39,0,0,1-1.19-2.05V13.86a2.37,2.37,0,0,1,1.19-2L89.12,5.7a2.39,2.39,0,0,1,2.37,0l10.57,6.11a2.37,2.37,0,0,1,1.19,2ZM99.4,13a1.62,1.62,0,0,0-.84,1.51l-6.84,3.81L93,15a1.62,1.62,0,0,0,1.38-1,1.64,1.64,0,1,0-2.74.5L90,18.73l-7.42-4.18A1.64,1.64,0,0,0,81.76,13a1.65,1.65,0,1,0,.12,2.79l7.1,4-3.72,1.9A1.64,1.64,0,1,0,85,24.5,1.64,1.64,0,0,0,85.92,23l3.55-1.81-.69,7.91a1.62,1.62,0,0,0-1,1.38,1.64,1.64,0,1,0,2.49-1.25L91,20.82l5.89,1.05a1.65,1.65,0,1,0,.26-1.43l-4.66-.84,6.82-3.79A1.64,1.64,0,1,0,99.4,13"/></clipPath><clipPath id="clip-path-2"><path class="cls-2" d="M103,10.12,92.46,4a4.31,4.31,0,0,0-4.31,0l-10.57,6.1a4.33,4.33,0,0,0-2.16,3.74V26.07a4.33,4.33,0,0,0,2.16,3.73l10.57,6.1a4.29,4.29,0,0,0,4.31,0L103,29.8a4.33,4.33,0,0,0,2.16-3.73V13.86A4.33,4.33,0,0,0,103,10.12Zm.22,16a2.39,2.39,0,0,1-1.19,2.05l-10.57,6.1a2.39,2.39,0,0,1-2.37,0l-10.57-6.1a2.39,2.39,0,0,1-1.19-2.05V13.86a2.37,2.37,0,0,1,1.19-2L89.12,5.7a2.39,2.39,0,0,1,2.37,0l10.57,6.11a2.37,2.37,0,0,1,1.19,2ZM99.4,13a1.62,1.62,0,0,0-.84,1.51l-6.84,3.81L93,15a1.62,1.62,0,0,0,1.38-1,1.64,1.64,0,1,0-2.74.5L90,18.73l-7.42-4.18A1.64,1.64,0,0,0,81.76,13a1.65,1.65,0,1,0,.12,2.79l7.1,4-3.72,1.9A1.64,1.64,0,1,0,85,24.5,1.64,1.64,0,0,0,85.92,23l3.55-1.81-.69,7.91a1.62,1.62,0,0,0-1,1.38,1.64,1.64,0,1,0,2.49-1.25L91,20.82l5.89,1.05a1.65,1.65,0,1,0,.26-1.43l-4.66-.84,6.82-3.79A1.64,1.64,0,1,0,99.4,13"/></clipPath><clipPath id="clip-path-3"><rect class="cls-3" x="74.04" y="3.44" width="33.04" height="33.04"/></clipPath></defs><title>metabase-app</title><g id="Layer_2" data-name="Layer 2"><g id="Layer_2-2" data-name="Layer 2"><path class="cls-3" d="M0,111.49H3.63L8,124.42H8l4.22-12.93H16v16.3H13.3V115.63h-.05a33.56,33.56,0,0,1-1,3.33l-3.17,8.83H6.67L3.52,119a28.51,28.51,0,0,1-1-3.44h0v12.27H0Z"/><path class="cls-3" d="M19.88,111.49H30.4v2.56H22.63v4h5.7v2.44h-5.7v4.74h8.21v2.51h-11Z"/><path class="cls-3" d="M37.54,114.05h-5v-2.56H45.31v2.56h-5v13.74H37.54Z"/><path class="cls-3" d="M52.44,111.43h2.71l5.77,16.36H58.1l-1.32-3.88H50.59l-1.34,3.88H46.67ZM56,121.49l-2.22-6.6h-.05l-2.26,6.6Z"/><path class="cls-3" d="M63.53,111.49H69.7c3.26,0,5.68,1.06,5.68,4.06a3.44,3.44,0,0,1-2.88,3.74v0a3.68,3.68,0,0,1,3.36,4c0,3-2.44,4.47-5.76,4.47H63.53Zm5.9,6.81c2.16,0,3.31-.66,3.31-2.23s-1-2.15-3.26-2.15H66.24v4.38Zm.38,7.11c2.33,0,3.35-.75,3.35-2.38s-1.33-2.4-3.64-2.4H66.24v4.78Z"/><path class="cls-3" d="M83.68,111.43h2.71l5.77,16.36H89.34L88,123.91H81.83l-1.34,3.88H77.91Zm3.52,10.06L85,114.89h0l-2.26,6.6Z"/><path class="cls-3" d="M93.92,124l2.17-1.15a4.72,4.72,0,0,0,4.5,2.84c2,0,3.32-.64,3.32-2.11s-1-2.07-3.7-2.86c-3.15-.93-5.68-1.79-5.68-4.89,0-2.78,2.27-4.6,5.57-4.6a6.41,6.41,0,0,1,6.1,3.5l-2,1.38a4.52,4.52,0,0,0-4.12-2.37c-1.81,0-2.84.66-2.84,1.85,0,1.52,1.17,2,3.83,2.81,3.08.91,5.55,1.92,5.55,5,0,2.66-2.27,4.76-6.14,4.76A6.75,6.75,0,0,1,93.92,124Z"/><path class="cls-3" d="M109.83,111.49h10.53v2.56h-7.78v4h5.71v2.44h-5.71v4.74h8.22v2.51h-11Z"/><path class="cls-3" d="M46.61,137.85h2.7l5.77,16.36H52.26l-1.32-3.88H44.76l-1.35,3.88H40.84Zm3.52,10.06L47.9,141.3h0l-2.27,6.61Z"/><path class="cls-3" d="M57.7,137.91h5.7c3.53,0,6.28,1.24,6.28,5,0,3.94-3,5.11-6.37,5.11H60.43v6.19H57.7Zm5.75,7.71c2.42,0,3.52-.75,3.52-2.62s-1.1-2.58-3.55-2.58h-3v5.2Z"/><path class="cls-3" d="M72.52,137.91h5.7c3.52,0,6.27,1.24,6.27,5,0,3.94-3,5.11-6.36,5.11H75.25v6.19H72.52Zm5.74,7.71c2.43,0,3.53-.75,3.53-2.62s-1.1-2.58-3.55-2.58h-3v5.2Z"/><g id="Page-1"><g id="heroku-data-redis"><g id="Background"><path class="cls-4" d="M85.18,82.55H34.67a5.83,5.83,0,0,1-5.83-5.82V26.21a5.83,5.83,0,0,1,5.83-5.83H85.18A5.83,5.83,0,0,1,91,26.21V76.73a5.83,5.83,0,0,1-5.83,5.82"/><path class="cls-3" d="M85.18,84.45H34.67a7.73,7.73,0,0,1-7.73-7.72V26.21a7.74,7.74,0,0,1,7.73-7.73H85.18a7.74,7.74,0,0,1,7.73,7.73V76.73A7.73,7.73,0,0,1,85.18,84.45ZM34.67,22.28a3.94,3.94,0,0,0-3.93,3.93V76.73a3.93,3.93,0,0,0,3.93,3.92H85.18a3.93,3.93,0,0,0,3.93-3.92V26.21a3.94,3.94,0,0,0-3.93-3.93Z"/></g></g></g><circle class="cls-3" cx="44.82" cy="38.86" r="2.59"/><circle class="cls-5" cx="52.75" cy="38.86" r="2.59"/><circle class="cls-5" cx="60.68" cy="38.86" r="2.59"/><circle class="cls-5" cx="68.61" cy="38.86" r="2.59"/><circle class="cls-3" cx="76.54" cy="38.86" r="2.59"/><circle class="cls-3" cx="44.82" cy="47.27" r="2.59"/><circle class="cls-3" cx="52.75" cy="47.27" r="2.59"/><circle class="cls-5" cx="60.68" cy="47.27" r="2.59"/><circle class="cls-3" cx="68.61" cy="47.27" r="2.59"/><circle class="cls-3" cx="76.54" cy="47.27" r="2.59"/><circle class="cls-3" cx="44.82" cy="55.69" r="2.59"/><circle class="cls-5" cx="52.75" cy="55.69" r="2.59"/><circle class="cls-3" cx="60.68" cy="55.69" r="2.59"/><circle class="cls-5" cx="68.61" cy="55.69" r="2.59"/><circle class="cls-3" cx="76.54" cy="55.69" r="2.59"/><circle class="cls-3" cx="44.82" cy="64.1" r="2.59"/><circle class="cls-5" cx="52.75" cy="64.1" r="2.59"/><circle class="cls-5" cx="60.68" cy="64.1" r="2.59"/><circle class="cls-5" cx="60.68" cy="72.52" r="2.59"/><circle class="cls-5" cx="60.68" cy="30.44" r="2.59"/><circle class="cls-5" cx="68.61" cy="64.1" r="2.59"/><circle class="cls-3" cx="76.54" cy="64.1" r="2.59"/><polygon class="cls-4" points="76.73 11.93 90.1 4.26 103.72 11.93 104.21 27.78 90.6 35.45 76.24 27.53 76.73 11.93"/><path class="cls-7" d="M103,10.12,92.46,4a4.31,4.31,0,0,0-4.31,0l-10.57,6.1a4.33,4.33,0,0,0-2.16,3.74V26.07a4.33,4.33,0,0,0,2.16,3.73l10.57,6.1a4.29,4.29,0,0,0,4.31,0L103,29.8a4.33,4.33,0,0,0,2.16-3.73V13.86A4.33,4.33,0,0,0,103,10.12Zm.22,16a2.39,2.39,0,0,1-1.19,2.05l-10.57,6.1a2.39,2.39,0,0,1-2.37,0l-10.57-6.1a2.39,2.39,0,0,1-1.19-2.05V13.86a2.37,2.37,0,0,1,1.19-2L89.12,5.7a2.39,2.39,0,0,1,2.37,0l10.57,6.11a2.37,2.37,0,0,1,1.19,2ZM99.4,13a1.62,1.62,0,0,0-.84,1.51l-6.84,3.81L93,15a1.62,1.62,0,0,0,1.38-1,1.64,1.64,0,1,0-2.74.5L90,18.73l-7.42-4.18A1.64,1.64,0,0,0,81.76,13a1.65,1.65,0,1,0,.12,2.79l7.1,4-3.72,1.9A1.64,1.64,0,1,0,85,24.5,1.64,1.64,0,0,0,85.92,23l3.55-1.81-.69,7.91a1.62,1.62,0,0,0-1,1.38,1.64,1.64,0,1,0,2.49-1.25L91,20.82l5.89,1.05a1.65,1.65,0,1,0,.26-1.43l-4.66-.84,6.82-3.79A1.64,1.64,0,1,0,99.4,13"/><g class="cls-8"><rect class="cls-3" x="74.04" y="3.44" width="33.04" height="33.04"/><g class="cls-9"><rect class="cls-3" x="71.98" width="36.65" height="39.92"/></g></g></g></g></svg>