<svg xmlns="http://www.w3.org/2000/svg" viewBox="0 0 278.05 144.73"><defs><style>.cls-1{fill:#231f20;}.cls-2{fill:#fff;}</style></defs><title>postgres-tooltip-sm</title><g id="Layer_2" data-name="Layer 2"><g id="Layer_2-2" data-name="Layer 2"><rect class="cls-1" width="278.05" height="78.65" rx="7.61"/><path class="cls-2" d="M19.48,16.15H21.2l3.67,10.41H23.08l-.84-2.47H18.3l-.85,2.47H15.81Zm2.24,6.4-1.42-4.2h0l-1.45,4.2Z"/><path class="cls-2" d="M26.32,19.12H28v1.22h0A2.92,2.92,0,0,1,30.75,19h.11l-.06,1.58-.46,0A2.52,2.52,0,0,0,28,21.85v4.71H26.32Z"/><path class="cls-2" d="M31.81,22.85C31.81,20,33.73,19,35.38,19a3,3,0,0,1,3.08,2.17L37,21.67a1.64,1.64,0,0,0-1.66-1.25c-1,0-1.8.65-1.8,2.43,0,1.58.64,2.45,1.78,2.45A1.64,1.64,0,0,0,37.06,24l1.43.52a3.26,3.26,0,0,1-3.21,2.18C33.56,26.71,31.81,25.56,31.81,22.85Z"/><path class="cls-2" d="M40,16.19h1.74v3.94A3.64,3.64,0,0,1,44.45,19a2,2,0,0,1,2.15,2.24v5.34H44.86v-4.9c0-.83-.35-1.21-1.11-1.21a3,3,0,0,0-2,1v5.14H40Z"/><path class="cls-2" d="M48.64,16.33H50.4v1.5H48.64Zm0,2.79h1.74v7.44H48.65Z"/><path class="cls-2" d="M51.69,19.12H53.5l1.82,5.49h0l1.81-5.49h1.67l-2.69,7.45H54.38Z"/><path class="cls-2" d="M59.63,22.85A3.54,3.54,0,0,1,63.17,19c1.67,0,3.26,1,3.26,4v.41H61.35a1.84,1.84,0,0,0,2,1.93,2.7,2.7,0,0,0,2.09-.87l.91.9a4,4,0,0,1-3.13,1.34C61.35,26.71,59.63,25.58,59.63,22.85Zm5.22-.73c-.1-1.14-.66-1.74-1.69-1.74a1.75,1.75,0,0,0-1.78,1.74Z"/><path class="cls-2" d="M71.33,22.86c0-2.58,1.27-3.88,3.18-3.88a2.83,2.83,0,0,1,2.13.94V16.19h1.72v8.55a4.68,4.68,0,0,0,.23,1.82H76.81a2.75,2.75,0,0,1-.17-1,3,3,0,0,1-2.37,1.12C72.58,26.67,71.33,25.44,71.33,22.86Zm5.31,1.46v-3a2.28,2.28,0,0,0-1.75-.92c-1.3,0-1.84.84-1.84,2.49s.68,2.36,1.78,2.36A2.51,2.51,0,0,0,76.64,24.32Z"/><path class="cls-2" d="M80,24.77c0-1.62,1.38-2.69,4.85-3.09v-.22c0-.74-.39-1.07-1.22-1.07a4.08,4.08,0,0,0-2.51,1l-.84-1.08A5.38,5.38,0,0,1,83.82,19c2,0,2.68.95,2.68,2.69v3.07a5,5,0,0,0,.21,1.82H85a2.64,2.64,0,0,1-.17-.95,3.59,3.59,0,0,1-2.75,1.06A1.88,1.88,0,0,1,80,24.77Zm4.85-.28V22.85c-2.06.28-3.15.78-3.15,1.59,0,.59.4.9,1,.9A3,3,0,0,0,84.8,24.49Z"/><path class="cls-2" d="M89.07,24.61V20.49H87.78V19.12h1.29V16.53h1.72v2.59h1.92v1.37H90.79v3.69c0,.8.24,1.12,1.09,1.12a2.67,2.67,0,0,0,.75-.1v1.36a8.88,8.88,0,0,1-1.26.1C89.47,26.66,89.07,26,89.07,24.61Z"/><path class="cls-2" d="M93.79,24.77c0-1.62,1.37-2.69,4.84-3.09v-.22c0-.74-.39-1.07-1.22-1.07a4.06,4.06,0,0,0-2.5,1l-.84-1.08A5.33,5.33,0,0,1,97.65,19c2,0,2.68.95,2.68,2.69v3.07a5,5,0,0,0,.21,1.82H98.8a2.64,2.64,0,0,1-.17-.95,3.57,3.57,0,0,1-2.74,1.06A1.87,1.87,0,0,1,93.79,24.77Zm4.84-.28V22.85c-2.06.28-3.15.78-3.15,1.59,0,.59.41.9,1,.9A3,3,0,0,0,98.63,24.49Z"/><path class="cls-2" d="M106.55,24.61V20.49h-1.28V19.12h1.28V16.53h1.73v2.59h1.92v1.37h-1.92v3.69c0,.8.23,1.12,1.09,1.12a2.65,2.65,0,0,0,.74-.1v1.36a8.62,8.62,0,0,1-1.26.1C107,26.66,106.55,26,106.55,24.61Z"/><path class="cls-2" d="M111.33,22.85a3.63,3.63,0,1,1,7.25,0,3.63,3.63,0,1,1-7.25,0Zm5.52,0c0-1.39-.59-2.4-1.9-2.4s-1.89.9-1.89,2.4.58,2.42,1.89,2.42S116.85,24.37,116.85,22.85Z"/><path class="cls-2" d="M124.09,16.19h1.76v4.13h4.7V16.19h1.75V26.56h-1.75V22h-4.7v4.61h-1.76Z"/><path class="cls-2" d="M134.16,22.85A3.54,3.54,0,0,1,137.7,19c1.67,0,3.27,1,3.27,4v.41h-5.09a1.84,1.84,0,0,0,2,1.93,2.69,2.69,0,0,0,2.09-.87l.91.9a4,4,0,0,1-3.12,1.34C135.88,26.71,134.16,25.58,134.16,22.85Zm5.22-.73c-.09-1.14-.65-1.74-1.69-1.74a1.75,1.75,0,0,0-1.78,1.74Z"/><path class="cls-2" d="M142.62,19.12h1.72v1.22h0A2.91,2.91,0,0,1,147,19h.11l-.05,1.58-.47,0a2.52,2.52,0,0,0-2.29,1.32v4.71h-1.72Z"/><path class="cls-2" d="M148.1,22.85a3.64,3.64,0,1,1,7.26,0,3.64,3.64,0,1,1-7.26,0Zm5.52,0c0-1.39-.59-2.4-1.89-2.4s-1.89.9-1.89,2.4.57,2.42,1.89,2.42S153.62,24.37,153.62,22.85Z"/><path class="cls-2" d="M157,16.19h1.72v6.18l2.82-3.25h1.89L161,21.84l2.64,4.72h-1.81l-1.92-3.45-1.19,1.31v2.14H157Z"/><path class="cls-2" d="M165,24.46V19.12h1.73v4.93c0,.83.35,1.21,1.11,1.21a3.06,3.06,0,0,0,2-1V19.12h1.73v7.44h-1.73v-1a3.73,3.73,0,0,1-2.72,1.15A2,2,0,0,1,165,24.46Z"/><path class="cls-2" d="M177.47,16.19h3.63c2.24,0,4,.79,4,3.18s-1.91,3.25-4,3.25h-1.84v3.94h-1.74Zm3.66,4.91c1.54,0,2.24-.48,2.24-1.67s-.7-1.64-2.25-1.64h-1.91V21.1Z"/><path class="cls-2" d="M186.27,22.85a3.63,3.63,0,1,1,7.25,0,3.63,3.63,0,1,1-7.25,0Zm5.52,0c0-1.39-.59-2.4-1.9-2.4s-1.89.9-1.89,2.4.58,2.42,1.89,2.42S191.79,24.37,191.79,22.85Z"/><path class="cls-2" d="M194.61,25.54l.94-1.05a3.71,3.71,0,0,0,2.34.88c.92,0,1.48-.24,1.48-.86s-.75-.78-1.65-1c-1.27-.3-2.8-.63-2.8-2.35,0-1.31,1.12-2.19,2.76-2.19a4.38,4.38,0,0,1,3,1.05l-.82,1.12a3.74,3.74,0,0,0-2.11-.81c-1,0-1.26.34-1.26.76,0,.6.75.78,1.63,1,1.27.28,2.83.6,2.83,2.34,0,1.56-1.42,2.29-3.11,2.29A4.74,4.74,0,0,1,194.61,25.54Z"/><path class="cls-2" d="M203.22,24.61V20.49h-1.29V19.12h1.29V16.53h1.72v2.59h1.92v1.37h-1.92v3.69c0,.8.24,1.12,1.1,1.12a2.65,2.65,0,0,0,.74-.1v1.36a8.75,8.75,0,0,1-1.26.1C203.63,26.66,203.22,26,203.22,24.61Z"/><path class="cls-2" d="M207.63,27.62a1.68,1.68,0,0,1,1.22-1.57,1,1,0,0,1-.58-.91,1.75,1.75,0,0,1,1-1.36,2.44,2.44,0,0,1-1.17-2.14c0-1.53,1.17-2.66,3.12-2.66a3.38,3.38,0,0,1,2.28.78,3.87,3.87,0,0,1,1.85-.72v1.4a4.57,4.57,0,0,0-1.3.19,1.9,1.9,0,0,1,.27,1c0,1.56-1.17,2.65-3.1,2.65a3.84,3.84,0,0,1-1-.15.59.59,0,0,0-.37.47c0,.3.19.39.85.45l1.32.08c2.2.14,3.06.73,3.06,2,0,1.53-1.54,2.27-3.83,2.27C208.65,29.44,207.63,28.7,207.63,27.62Zm5.9-.29c0-.53-.38-.73-1.89-.83l-1.29-.08a3.27,3.27,0,0,1-.45,0,1,1,0,0,0-.69.95c0,.66.76.87,2.27.87C212.74,28.2,213.53,27.86,213.53,27.33Zm-.77-5.63a1.33,1.33,0,0,0-1.52-1.43,1.42,1.42,0,1,0,0,2.83A1.32,1.32,0,0,0,212.76,21.7Z"/><path class="cls-2" d="M216.77,19.12h1.73v1.22h0A2.93,2.93,0,0,1,221.2,19h.11l-.05,1.58-.47,0a2.52,2.52,0,0,0-2.29,1.32v4.71h-1.73Z"/><path class="cls-2" d="M222.26,22.85A3.54,3.54,0,0,1,225.8,19c1.67,0,3.27,1,3.27,4v.41H224a1.84,1.84,0,0,0,2,1.93,2.69,2.69,0,0,0,2.09-.87l.91.9a4,4,0,0,1-3.13,1.34C224,26.71,222.26,25.58,222.26,22.85Zm5.22-.73c-.09-1.14-.65-1.74-1.69-1.74A1.75,1.75,0,0,0,224,22.12Z"/><path class="cls-2" d="M230.16,25.54l.93-1.05a3.71,3.71,0,0,0,2.34.88c.93,0,1.49-.24,1.49-.86s-.76-.78-1.66-1c-1.27-.3-2.8-.63-2.8-2.35,0-1.31,1.12-2.19,2.76-2.19A4.39,4.39,0,0,1,236.28,20l-.83,1.12a3.73,3.73,0,0,0-2.1-.81c-.95,0-1.26.34-1.26.76,0,.6.74.78,1.62,1,1.28.28,2.83.6,2.83,2.34,0,1.56-1.41,2.29-3.11,2.29A4.72,4.72,0,0,1,230.16,25.54Z"/><path class="cls-2" d="M16,41.57c0-1.62,1.37-2.69,4.84-3.09v-.22c0-.74-.39-1.07-1.21-1.07a4.06,4.06,0,0,0-2.51,1l-.84-1.08a5.36,5.36,0,0,1,3.58-1.34c2,0,2.68.95,2.68,2.69v3.07a5.22,5.22,0,0,0,.21,1.82H21a2.64,2.64,0,0,1-.17-1,3.55,3.55,0,0,1-2.74,1.06A1.87,1.87,0,0,1,16,41.57Zm4.84-.29V39.65c-2.06.28-3.15.78-3.15,1.59,0,.59.41.9,1,.9A3,3,0,0,0,20.79,41.28Z"/><path class="cls-2" d="M24.47,35.92h1.74v1a3.67,3.67,0,0,1,2.72-1.15A2,2,0,0,1,31.07,38v5.34H29.33v-4.9c0-.83-.35-1.21-1.1-1.21a3,3,0,0,0-2,1v5.14H24.47Z"/><path class="cls-2" d="M32.65,39.66c0-2.58,1.27-3.88,3.18-3.88a2.83,2.83,0,0,1,2.13.94V33h1.72v8.55a4.68,4.68,0,0,0,.23,1.82H38.13a2.75,2.75,0,0,1-.17-1,3,3,0,0,1-2.37,1.12C33.9,43.47,32.65,42.24,32.65,39.66ZM38,41.12v-3a2.28,2.28,0,0,0-1.75-.92c-1.3,0-1.84.84-1.84,2.49s.68,2.36,1.78,2.36A2.51,2.51,0,0,0,38,41.12Z"/><path class="cls-2" d="M50.31,42.35a3,3,0,0,1-2.37,1.12c-1.7,0-2.94-1.23-2.94-3.81s1.27-3.88,3.18-3.88a2.84,2.84,0,0,1,2.13.94v-.8H52V46.16H50.31Zm0-1.23v-3a2.29,2.29,0,0,0-1.76-.92c-1.3,0-1.83.84-1.83,2.49s.67,2.36,1.78,2.36A2.53,2.53,0,0,0,50.31,41.12Z"/><path class="cls-2" d="M54,41.26V35.92h1.74v4.93c0,.83.35,1.21,1.11,1.21a3,3,0,0,0,2-1V35.92h1.74v7.44H58.87v-1a3.68,3.68,0,0,1-2.71,1.15A2,2,0,0,1,54,41.26Z"/><path class="cls-2" d="M62.26,39.65a3.54,3.54,0,0,1,3.54-3.87c1.67,0,3.27,1,3.27,4v.41H64a1.84,1.84,0,0,0,2,1.93,2.69,2.69,0,0,0,2.09-.87l.91.9a4,4,0,0,1-3.13,1.34C64,43.51,62.26,42.38,62.26,39.65Zm5.22-.73c-.09-1.14-.65-1.74-1.69-1.74A1.75,1.75,0,0,0,64,38.92Z"/><path class="cls-2" d="M70.72,35.92h1.72v1.22h0a2.91,2.91,0,0,1,2.67-1.36h.11l0,1.58-.46,0a2.52,2.52,0,0,0-2.3,1.32v4.71H70.72Z"/><path class="cls-2" d="M75.64,46,76,44.63a4.75,4.75,0,0,0,1.27.16A1.11,1.11,0,0,0,78.47,44l.21-.55-2.86-7.48h1.8l1.92,5.42h0l1.91-5.42h1.71L80,44.17c-.49,1.3-1.13,2.07-2.6,2.07A6.23,6.23,0,0,1,75.64,46Z"/><path class="cls-2" d="M88.13,33.13H89.9v1.5H88.13Zm0,2.79h1.74v7.44H88.14Z"/><path class="cls-2" d="M92.61,41.41V37.29H91.32V35.92h1.29V33.33h1.72v2.59h1.92v1.37H94.33V41c0,.8.24,1.12,1.1,1.12a2.65,2.65,0,0,0,.74-.1v1.36a8.75,8.75,0,0,1-1.26.1C93,43.46,92.61,42.76,92.61,41.41Z"/><path class="cls-2" d="M100.66,35.92h1.75l.81,3.08c.23.84.37,1.42.56,2.37h0c.23-1,.35-1.54.59-2.4l.78-3h1.41l.82,3.11c.24.83.37,1.39.58,2.34h0c.23-1,.35-1.5.59-2.31l.84-3.14H111l-2.21,7.44h-1.61l-1.35-5.17h0l-1.34,5.17h-1.6Z"/><path class="cls-2" d="M112.34,33.13h1.76v1.5h-1.76Zm0,2.79h1.74v7.44h-1.74Z"/><path class="cls-2" d="M116.81,41.41V37.29h-1.28V35.92h1.28V33.33h1.73v2.59h1.92v1.37h-1.92V41c0,.8.24,1.12,1.09,1.12a2.65,2.65,0,0,0,.74-.1v1.36a8.62,8.62,0,0,1-1.26.1C117.22,43.46,116.81,42.76,116.81,41.41Z"/><path class="cls-2" d="M122,33h1.74v3.94a3.64,3.64,0,0,1,2.71-1.15A2,2,0,0,1,128.61,38v5.34h-1.74v-4.9c0-.83-.35-1.21-1.11-1.21a3,3,0,0,0-2,1v5.14H122Z"/><path class="cls-2" d="M133.77,41.57c0-1.62,1.37-2.69,4.84-3.09v-.22c0-.74-.39-1.07-1.21-1.07a4.06,4.06,0,0,0-2.51,1l-.84-1.08a5.36,5.36,0,0,1,3.58-1.34c2,0,2.68.95,2.68,2.69v3.07a5.22,5.22,0,0,0,.21,1.82h-1.74a2.64,2.64,0,0,1-.17-1,3.55,3.55,0,0,1-2.74,1.06A1.87,1.87,0,0,1,133.77,41.57Zm4.84-.29V39.65c-2.06.28-3.15.78-3.15,1.59,0,.59.41.9,1,.9A3,3,0,0,0,138.61,41.28Z"/><path class="cls-2" d="M146.16,33h3.92c2.07,0,3.61.67,3.61,2.58A2.19,2.19,0,0,1,151.86,38v0A2.34,2.34,0,0,1,154,40.51c0,1.91-1.55,2.85-3.67,2.85h-4.17Zm3.75,4.33c1.38,0,2.1-.42,2.1-1.41s-.63-1.38-2.07-1.38h-2.06v2.79Zm.24,4.53c1.48,0,2.13-.48,2.13-1.52s-.84-1.52-2.31-1.52h-2.09v3Z"/><path class="cls-2" d="M156.24,33H158V43.36h-1.76Z"/><path class="cls-2" d="M164.64,41.41V37.29h-1.29V35.92h1.29V33.33h1.72v2.59h1.92v1.37h-1.92V41c0,.8.24,1.12,1.09,1.12a2.67,2.67,0,0,0,.75-.1v1.36a8.88,8.88,0,0,1-1.26.1C165,43.46,164.64,42.76,164.64,41.41Z"/><path class="cls-2" d="M169.41,39.65a3.64,3.64,0,1,1,7.26,0,3.64,3.64,0,1,1-7.26,0Zm5.52,0c0-1.39-.59-2.4-1.89-2.4s-1.89.9-1.89,2.4.57,2.42,1.89,2.42S174.93,41.17,174.93,39.65Z"/><path class="cls-2" d="M177.89,39.65a3.64,3.64,0,1,1,7.26,0,3.64,3.64,0,1,1-7.26,0Zm5.52,0c0-1.39-.58-2.4-1.89-2.4s-1.89.9-1.89,2.4.58,2.42,1.89,2.42S183.41,41.17,183.41,39.65Z"/><path class="cls-2" d="M186.87,33h1.74V43.36h-1.74Z"/><path class="cls-2" d="M191.49,43.36h-.74V41.54h1.93v1.58l-.88,1.81H191Z"/><path class="cls-2" d="M16,56.45a3.54,3.54,0,0,1,3.55-3.87c1.66,0,3.26,1,3.26,4V57H17.73a1.83,1.83,0,0,0,2,1.93,2.69,2.69,0,0,0,2.09-.87l.91.9a4,4,0,0,1-3.12,1.34C17.73,60.31,16,59.18,16,56.45Zm5.23-.73c-.1-1.14-.66-1.74-1.7-1.74a1.75,1.75,0,0,0-1.78,1.74Z"/><path class="cls-2" d="M24.46,58.34h1.93v1.82H24.46Z"/><path class="cls-2" d="M27.68,61.22a1.68,1.68,0,0,1,1.22-1.57,1,1,0,0,1-.58-.91,1.72,1.72,0,0,1,1-1.35,2.47,2.47,0,0,1-1.17-2.15c0-1.52,1.17-2.66,3.12-2.66a3.38,3.38,0,0,1,2.28.78,3.87,3.87,0,0,1,1.85-.72V54a4.57,4.57,0,0,0-1.3.19,1.9,1.9,0,0,1,.27,1c0,1.56-1.17,2.65-3.1,2.65a3.84,3.84,0,0,1-1-.15c-.22.12-.38.28-.38.47s.2.39.86.45l1.32.08c2.19.14,3.06.73,3.06,2,0,1.53-1.54,2.27-3.84,2.27C28.7,63,27.68,62.3,27.68,61.22Zm5.9-.29c0-.53-.38-.73-1.89-.83L30.4,60A3.27,3.27,0,0,1,30,60a1,1,0,0,0-.69,1c0,.66.76.87,2.27.87C32.79,61.8,33.58,61.46,33.58,60.93Zm-.77-5.63a1.33,1.33,0,0,0-1.52-1.43,1.34,1.34,0,0,0-1.51,1.43c0,.91.57,1.4,1.53,1.4A1.32,1.32,0,0,0,32.81,55.3Z"/><path class="cls-2" d="M36.82,58.34h1.93v1.82H36.82Z"/><path class="cls-2" d="M44.69,49.79H47L49.77,58h0l2.69-8.23h2.35V60.16H53.15V52.43h0c-.15.71-.38,1.38-.61,2.11l-2,5.62H48.93l-2-5.62a17.39,17.39,0,0,1-.63-2.18h0v7.8H44.69Z"/><path class="cls-2" d="M56.7,56.45a3.54,3.54,0,0,1,3.54-3.87c1.67,0,3.27,1,3.27,4V57H58.42a1.84,1.84,0,0,0,2,1.93,2.69,2.69,0,0,0,2.09-.87l.91.9a4,4,0,0,1-3.12,1.34C58.42,60.31,56.7,59.18,56.7,56.45Zm5.23-.73c-.1-1.14-.66-1.74-1.7-1.74a1.75,1.75,0,0,0-1.78,1.74Z"/><path class="cls-2" d="M65.75,58.21V54.09H64.46V52.72h1.29V50.13h1.72v2.59h1.92v1.37H67.47v3.69c0,.8.24,1.12,1.09,1.12a2.65,2.65,0,0,0,.74-.1v1.36a8.62,8.62,0,0,1-1.26.1C66.15,60.26,65.75,59.56,65.75,58.21Z"/><path class="cls-2" d="M70.46,58.37c0-1.62,1.38-2.69,4.85-3.09v-.22c0-.74-.39-1.06-1.22-1.06a4.05,4.05,0,0,0-2.51,1l-.84-1.07a5.34,5.34,0,0,1,3.59-1.35c2,0,2.67,1,2.67,2.69v3.07a5.22,5.22,0,0,0,.21,1.82H75.48a2.64,2.64,0,0,1-.17-.95,3.59,3.59,0,0,1-2.75,1.06A1.88,1.88,0,0,1,70.46,58.37Zm4.85-.28V56.45c-2.06.28-3.15.78-3.15,1.59,0,.59.4.9,1,.9A3,3,0,0,0,75.31,58.09Z"/><path class="cls-2" d="M80.71,59.33v.83H79V49.79h1.72V53.7a3,3,0,0,1,2.37-1.12c1.69,0,2.94,1.28,2.94,3.85s-1.27,3.84-3.18,3.84A2.83,2.83,0,0,1,80.71,59.33Zm3.59-2.88c0-1.57-.67-2.4-1.78-2.4a2.51,2.51,0,0,0-1.81.94v3a2.26,2.26,0,0,0,1.75.93C83.76,58.9,84.3,58.1,84.3,56.45Z"/><path class="cls-2" d="M87.21,58.37c0-1.62,1.37-2.69,4.84-3.09v-.22c0-.74-.39-1.06-1.22-1.06a4,4,0,0,0-2.5,1l-.84-1.07a5.31,5.31,0,0,1,3.58-1.35c2,0,2.68,1,2.68,2.69v3.07A5,5,0,0,0,94,60.16H92.22a2.64,2.64,0,0,1-.17-.95,3.57,3.57,0,0,1-2.74,1.06A1.87,1.87,0,0,1,87.21,58.37Zm4.84-.28V56.45c-2.06.28-3.15.78-3.15,1.59,0,.59.41.9,1,.9A3,3,0,0,0,92.05,58.09Z"/><path class="cls-2" d="M95.17,59.14l.94-1a3.71,3.71,0,0,0,2.34.88c.92,0,1.48-.24,1.48-.86s-.75-.78-1.65-1c-1.27-.3-2.8-.63-2.8-2.35,0-1.31,1.12-2.19,2.76-2.19a4.38,4.38,0,0,1,3.05,1.05l-.82,1.12a3.73,3.73,0,0,0-2.1-.81c-1,0-1.27.34-1.27.76,0,.6.75.78,1.63,1,1.28.28,2.83.6,2.83,2.34,0,1.56-1.42,2.29-3.11,2.29A4.74,4.74,0,0,1,95.17,59.14Z"/><path class="cls-2" d="M102.77,56.45a3.54,3.54,0,0,1,3.55-3.87c1.66,0,3.26,1,3.26,4V57H104.5a1.84,1.84,0,0,0,2,1.93,2.68,2.68,0,0,0,2.08-.87l.91.9a4,4,0,0,1-3.12,1.34C104.5,60.31,102.77,59.18,102.77,56.45Zm5.23-.73c-.1-1.14-.66-1.74-1.7-1.74a1.75,1.75,0,0,0-1.78,1.74Z"/><path class="cls-2" d="M111.23,58.34h1.93v1.82h-1.93Z"/><rect class="cls-1" x="132.82" y="73.09" width="2.08" height="67.55"/><path class="cls-1" d="M129.56,140.43a4.3,4.3,0,1,0,4.3-4.3A4.31,4.31,0,0,0,129.56,140.43Z"/></g></g></svg>