<svg xmlns="http://www.w3.org/2000/svg" viewBox="0 0 442.36 170.74"><defs><style>.cls-1{fill:#231f20;}.cls-2{fill:#fff;}</style></defs><title>postgres-tooltip</title><g id="Layer_2" data-name="Layer 2"><g id="Layer_2-2" data-name="Layer 2"><rect class="cls-1" width="442.36" height="92.69" rx="10.31"/><path class="cls-2" d="M26.12,23.29H28.8l5.71,16.19H31.72l-1.3-3.84H24.29L23,39.48H20.41Zm3.49,10-2.2-6.54h0l-2.25,6.54Z"/><path class="cls-2" d="M36.78,27.91h2.68V29.8h0a4.54,4.54,0,0,1,4.16-2.11h.18l-.09,2.46c-.13,0-.57,0-.72,0a3.9,3.9,0,0,0-3.57,2v7.32H36.78Z"/><path class="cls-2" d="M45.32,33.7c0-4.42,3-6,5.56-6a4.7,4.7,0,0,1,4.79,3.38l-2.27.8a2.53,2.53,0,0,0-2.57-1.94c-1.52,0-2.81,1-2.81,3.77,0,2.46,1,3.82,2.77,3.82,1.22,0,2.07-.37,2.7-2l2.22.81a5.08,5.08,0,0,1-5,3.4C48,39.72,45.32,37.93,45.32,33.7Z"/><path class="cls-2" d="M58.07,23.35h2.7v6.13A5.72,5.72,0,0,1,65,27.69c2,0,3.33,1.2,3.33,3.49v8.3h-2.7V31.85c0-1.28-.55-1.87-1.72-1.87a4.7,4.7,0,0,0-3.14,1.5v8h-2.7Z"/><path class="cls-2" d="M71.52,23.57h2.74V25.9H71.52Zm0,4.34h2.7V39.48h-2.7Z"/><path class="cls-2" d="M76.27,27.91h2.81l2.83,8.54h0l2.81-8.54h2.6L83.17,39.5H80.45Z"/><path class="cls-2" d="M88.62,33.7c0-4.4,3.12-6,5.51-6,2.6,0,5.08,1.55,5.08,6.25v.63H91.3a2.87,2.87,0,0,0,3.1,3,4.18,4.18,0,0,0,3.24-1.35l1.42,1.39a6.25,6.25,0,0,1-4.86,2.1C91.3,39.72,88.62,38,88.62,33.7Zm8.13-1.13c-.15-1.76-1-2.7-2.64-2.7-1.31,0-2.5.74-2.77,2.7Z"/><path class="cls-2" d="M106.84,33.73c0-4,2-6,4.94-6a4.41,4.41,0,0,1,3.32,1.46v-5.8h2.68V36.64a7.45,7.45,0,0,0,.34,2.84h-2.76a4.42,4.42,0,0,1-.26-1.57,4.61,4.61,0,0,1-3.69,1.74C108.78,39.65,106.84,37.73,106.84,33.73ZM115.1,36V31.35a3.53,3.53,0,0,0-2.73-1.44c-2,0-2.85,1.31-2.85,3.88s1,3.66,2.77,3.66A3.92,3.92,0,0,0,115.1,36Z"/><path class="cls-2" d="M120.26,36.69c0-2.51,2.14-4.19,7.54-4.8v-.34c0-1.16-.61-1.66-1.89-1.66A6.28,6.28,0,0,0,122,31.46l-1.3-1.68a8.3,8.3,0,0,1,5.58-2.09c3.09,0,4.16,1.48,4.16,4.18v4.77a8,8,0,0,0,.32,2.84h-2.7A4.26,4.26,0,0,1,127.8,38a5.6,5.6,0,0,1-4.27,1.65C121.66,39.65,120.26,38.61,120.26,36.69Zm7.54-.44V33.7c-3.2.44-4.9,1.22-4.9,2.49,0,.91.63,1.39,1.61,1.39A4.61,4.61,0,0,0,127.8,36.25Z"/><path class="cls-2" d="M134.45,36.45V30h-2V27.91h2v-4h2.68v4h3V30h-3v5.73c0,1.25.37,1.75,1.7,1.75a4.19,4.19,0,0,0,1.15-.16v2.12a14,14,0,0,1-2,.15C135.08,39.63,134.45,38.54,134.45,36.45Z"/><path class="cls-2" d="M141.79,36.69c0-2.51,2.14-4.19,7.54-4.8v-.34c0-1.16-.61-1.66-1.89-1.66a6.23,6.23,0,0,0-3.9,1.57l-1.31-1.68a8.3,8.3,0,0,1,5.58-2.09c3.09,0,4.16,1.48,4.16,4.18v4.77a7.94,7.94,0,0,0,.33,2.84h-2.71a4.26,4.26,0,0,1-.26-1.48,5.58,5.58,0,0,1-4.27,1.65C143.19,39.65,141.79,38.61,141.79,36.69Zm7.54-.44V33.7c-3.2.44-4.9,1.22-4.9,2.49,0,.91.63,1.39,1.61,1.39A4.59,4.59,0,0,0,149.33,36.25Z"/><path class="cls-2" d="M161.67,36.45V30h-2V27.91h2v-4h2.68v4h3V30h-3v5.73c0,1.25.37,1.75,1.7,1.75a4.19,4.19,0,0,0,1.15-.16v2.12a14,14,0,0,1-2,.15C162.3,39.63,161.67,38.54,161.67,36.45Z"/><path class="cls-2" d="M169.1,33.7c0-4.27,2.81-6,5.64-6s5.64,1.74,5.64,6-2.83,6-5.64,6S169.1,37.93,169.1,33.7Zm8.58,0c0-2.15-.91-3.72-2.94-3.72s-2.94,1.39-2.94,3.72.89,3.77,2.94,3.77S177.68,36.08,177.68,33.7Z"/><path class="cls-2" d="M189,23.35h2.73v6.43H199V23.35h2.72V39.48H199V32.31H191.7v7.17H189Z"/><path class="cls-2" d="M204.64,33.7c0-4.4,3.12-6,5.51-6,2.6,0,5.08,1.55,5.08,6.25v.63h-7.91a2.87,2.87,0,0,0,3.1,3,4.18,4.18,0,0,0,3.24-1.35l1.42,1.39a6.25,6.25,0,0,1-4.86,2.1C207.32,39.72,204.64,38,204.64,33.7Zm8.13-1.13c-.15-1.76-1-2.7-2.64-2.7-1.31,0-2.5.74-2.77,2.7Z"/><path class="cls-2" d="M217.8,27.91h2.68V29.8h.05a4.54,4.54,0,0,1,4.16-2.11h.17l-.08,2.46c-.14,0-.57,0-.72,0a3.92,3.92,0,0,0-3.58,2v7.32H217.8Z"/><path class="cls-2" d="M226.34,33.7c0-4.27,2.81-6,5.65-6s5.64,1.74,5.64,6-2.83,6-5.64,6S226.34,37.93,226.34,33.7Zm8.59,0c0-2.15-.92-3.72-2.94-3.72s-2.94,1.39-2.94,3.72.89,3.77,2.94,3.77S234.93,36.08,234.93,33.7Z"/><path class="cls-2" d="M240.2,23.35h2.68V33l4.38-5.05h3l-3.77,4.22,4.09,7.35h-2.81l-3-5.36-1.86,2v3.34H240.2Z"/><path class="cls-2" d="M252.56,36.21v-8.3h2.7v7.67c0,1.28.55,1.87,1.72,1.87a4.7,4.7,0,0,0,3.14-1.5v-8h2.7V39.48h-2.7V37.91a5.76,5.76,0,0,1-4.23,1.79C253.87,39.7,252.56,38.5,252.56,36.21Z"/><path class="cls-2" d="M272.06,23.35h5.65c3.48,0,6.21,1.22,6.21,4.95,0,3.9-3,5.05-6.3,5.05h-2.86v6.13h-2.7ZM277.75,31c2.4,0,3.49-.74,3.49-2.59s-1.09-2.55-3.51-2.55h-3V31Z"/><path class="cls-2" d="M285.75,33.7c0-4.27,2.81-6,5.64-6s5.65,1.74,5.65,6-2.84,6-5.65,6S285.75,37.93,285.75,33.7Zm8.58,0c0-2.15-.91-3.72-2.94-3.72s-2.94,1.39-2.94,3.72.89,3.77,2.94,3.77S294.33,36.08,294.33,33.7Z"/><path class="cls-2" d="M298.74,37.89l1.46-1.64a5.68,5.68,0,0,0,3.63,1.37c1.44,0,2.31-.37,2.31-1.32s-1.17-1.22-2.57-1.55c-2-.46-4.35-1-4.35-3.66,0-2,1.74-3.4,4.29-3.4a6.8,6.8,0,0,1,4.75,1.63L307,31.07a5.79,5.79,0,0,0-3.27-1.27c-1.48,0-2,.53-2,1.18,0,.94,1.16,1.22,2.53,1.52,2,.44,4.4.94,4.4,3.64,0,2.44-2.2,3.58-4.84,3.58A7.34,7.34,0,0,1,298.74,37.89Z"/><path class="cls-2" d="M312.14,36.45V30h-2V27.91h2v-4h2.68v4h3V30h-3v5.73c0,1.25.37,1.75,1.7,1.75a4.19,4.19,0,0,0,1.15-.16v2.12a14,14,0,0,1-2,.15C312.77,39.63,312.14,38.54,312.14,36.45Z"/><path class="cls-2" d="M319,41.13a2.6,2.6,0,0,1,1.9-2.44,1.51,1.51,0,0,1-.9-1.41,2.73,2.73,0,0,1,1.57-2.12,3.81,3.81,0,0,1-1.83-3.33c0-2.38,1.83-4.14,4.86-4.14a5.2,5.2,0,0,1,3.55,1.22A5.89,5.89,0,0,1,331,27.78V30a7,7,0,0,0-2,.31,2.87,2.87,0,0,1,.42,1.57c0,2.42-1.81,4.12-4.82,4.12a5.54,5.54,0,0,1-1.61-.24c-.35.19-.59.43-.59.74s.31.61,1.33.7l2,.13c3.42.21,4.77,1.13,4.77,3.16,0,2.37-2.4,3.53-6,3.53C320.59,44,319,42.81,319,41.13Zm9.18-.45c0-.83-.59-1.14-2.95-1.29l-2-.13a3.33,3.33,0,0,1-.7-.07,1.61,1.61,0,0,0-1.07,1.49c0,1,1.18,1.35,3.54,1.35C327,42,328.18,41.5,328.18,40.68ZM327,31.92a2.07,2.07,0,0,0-2.36-2.23,2.21,2.21,0,1,0,0,4.41A2.05,2.05,0,0,0,327,31.92Z"/><path class="cls-2" d="M333.23,27.91h2.68V29.8h0a4.54,4.54,0,0,1,4.16-2.11h.17l-.08,2.46c-.13,0-.57,0-.72,0a3.93,3.93,0,0,0-3.58,2v7.32h-2.68Z"/><path class="cls-2" d="M341.77,33.7c0-4.4,3.12-6,5.52-6,2.59,0,5.07,1.55,5.07,6.25v.63h-7.9a2.85,2.85,0,0,0,3.09,3,4.22,4.22,0,0,0,3.25-1.35l1.41,1.39a6.25,6.25,0,0,1-4.86,2.1C344.46,39.72,341.77,38,341.77,33.7Zm8.13-1.13c-.15-1.76-1-2.7-2.63-2.7a2.71,2.71,0,0,0-2.77,2.7Z"/><path class="cls-2" d="M354.06,37.89l1.46-1.64a5.73,5.73,0,0,0,3.64,1.37c1.44,0,2.31-.37,2.31-1.32s-1.17-1.22-2.57-1.55c-2-.46-4.36-1-4.36-3.66,0-2,1.75-3.4,4.3-3.4a6.8,6.8,0,0,1,4.75,1.63l-1.29,1.75A5.79,5.79,0,0,0,359,29.8c-1.48,0-2,.53-2,1.18,0,.94,1.16,1.22,2.53,1.52,2,.44,4.4.94,4.4,3.64,0,2.44-2.2,3.58-4.84,3.58A7.38,7.38,0,0,1,354.06,37.89Z"/><path class="cls-2" d="M371.5,36.69c0-2.51,2.13-4.19,7.54-4.8v-.34c0-1.16-.61-1.66-1.9-1.66a6.25,6.25,0,0,0-3.9,1.57l-1.31-1.68a8.34,8.34,0,0,1,5.58-2.09c3.1,0,4.16,1.48,4.16,4.18v4.77a7.94,7.94,0,0,0,.33,2.84h-2.7A4.26,4.26,0,0,1,379,38a5.6,5.6,0,0,1-4.27,1.65C372.89,39.65,371.5,38.61,371.5,36.69Zm7.54-.44V33.7c-3.21.44-4.9,1.22-4.9,2.49,0,.91.63,1.39,1.61,1.39A4.61,4.61,0,0,0,379,36.25Z"/><path class="cls-2" d="M384.77,27.91h2.7v1.57a5.72,5.72,0,0,1,4.23-1.79c2,0,3.33,1.2,3.33,3.49v8.3h-2.7V31.85c0-1.28-.54-1.87-1.72-1.87a4.7,4.7,0,0,0-3.14,1.5v8h-2.7Z"/><path class="cls-2" d="M397.5,33.73c0-4,2-6,4.94-6a4.39,4.39,0,0,1,3.31,1.46v-5.8h2.68V36.64a7.4,7.4,0,0,0,.35,2.84H406a4.18,4.18,0,0,1-.27-1.57,4.59,4.59,0,0,1-3.68,1.74C399.44,39.65,397.5,37.73,397.5,33.73ZM405.75,36V31.35A3.5,3.5,0,0,0,403,29.91c-2,0-2.85,1.31-2.85,3.88s1,3.66,2.76,3.66A3.88,3.88,0,0,0,405.75,36Z"/><path class="cls-2" d="M29,64.06a4.61,4.61,0,0,1-3.68,1.74c-2.64,0-4.58-1.92-4.58-5.92s2-6,5-6A4.41,4.41,0,0,1,29,55.3V54.06h2.68V70H29Zm0-1.92V57.5a3.53,3.53,0,0,0-2.72-1.44c-2,0-2.86,1.31-2.86,3.88s1,3.66,2.77,3.66A3.9,3.9,0,0,0,29,62.14Z"/><path class="cls-2" d="M34.77,62.36v-8.3h2.71v7.67c0,1.28.54,1.87,1.72,1.87a4.7,4.7,0,0,0,3.13-1.5v-8H45V65.63H42.33V64.06a5.74,5.74,0,0,1-4.22,1.79C36.08,65.85,34.77,64.65,34.77,62.36Z"/><path class="cls-2" d="M47.61,59.85c0-4.4,3.12-6,5.51-6,2.59,0,5.08,1.55,5.08,6.25v.64H50.29a2.86,2.86,0,0,0,3.09,3,4.19,4.19,0,0,0,3.25-1.35l1.42,1.4a6.28,6.28,0,0,1-4.86,2.09C50.29,65.87,47.61,64.1,47.61,59.85Zm8.13-1.13c-.16-1.76-1-2.7-2.64-2.7a2.71,2.71,0,0,0-2.77,2.7Z"/><path class="cls-2" d="M60.77,54.06h2.68V56h0a4.52,4.52,0,0,1,4.16-2.11h.17l-.09,2.46c-.13,0-.56,0-.72,0a3.9,3.9,0,0,0-3.57,2.05v7.32H60.77Z"/><path class="cls-2" d="M68.44,69.77l.61-2.16a7.65,7.65,0,0,0,2,.24,1.73,1.73,0,0,0,1.83-1.31l.33-.85L68.73,54.06h2.78l3,8.43h0l3-8.43h2.66L75.24,66.89c-.76,2-1.76,3.23-4,3.23A9.79,9.79,0,0,1,68.44,69.77Z"/><path class="cls-2" d="M87.88,49.72h2.74v2.33H87.88Zm0,4.34h2.7V65.63H87.9Z"/><path class="cls-2" d="M94.85,62.6V56.19h-2V54.06h2V50h2.68v4h3v2.13h-3v5.73c0,1.25.37,1.75,1.7,1.75a4.33,4.33,0,0,0,1.16-.16v2.12a14.22,14.22,0,0,1-2,.15C95.48,65.78,94.85,64.69,94.85,62.6Z"/><path class="cls-2" d="M107.38,54.06h2.73l1.26,4.79c.35,1.31.57,2.2.87,3.68h.05c.34-1.57.54-2.39.91-3.72l1.22-4.75h2.18l1.28,4.83c.38,1.29.57,2.16.9,3.64h0c.35-1.5.55-2.33.92-3.59l1.3-4.88h2.45L120,65.63h-2.5l-2.1-8h0l-2.09,8h-2.48Z"/><path class="cls-2" d="M125.56,49.72h2.74v2.33h-2.74Zm0,4.34h2.7V65.63h-2.7Z"/><path class="cls-2" d="M132.53,62.6V56.19h-2V54.06h2V50h2.68v4h3v2.13h-3v5.73c0,1.25.37,1.75,1.7,1.75a4.19,4.19,0,0,0,1.15-.16v2.12a14,14,0,0,1-2,.15C133.16,65.78,132.53,64.69,132.53,62.6Z"/><path class="cls-2" d="M140.62,49.5h2.7v6.13a5.7,5.7,0,0,1,4.22-1.79c2,0,3.34,1.2,3.34,3.49v8.3h-2.7V58c0-1.28-.55-1.87-1.73-1.87a4.7,4.7,0,0,0-3.13,1.5v8h-2.7Z"/><path class="cls-2" d="M158.92,62.84c0-2.51,2.14-4.18,7.54-4.8V57.7c0-1.16-.61-1.66-1.9-1.66a6.25,6.25,0,0,0-3.9,1.57l-1.3-1.68a8.29,8.29,0,0,1,5.57-2.09c3.1,0,4.17,1.48,4.17,4.18v4.77a8,8,0,0,0,.32,2.84h-2.7a4.26,4.26,0,0,1-.26-1.48,5.6,5.6,0,0,1-4.27,1.65C160.31,65.8,158.92,64.76,158.92,62.84Zm7.54-.44V59.85c-3.2.44-4.9,1.22-4.9,2.49,0,.91.63,1.39,1.61,1.39A4.61,4.61,0,0,0,166.46,62.4Z"/><path class="cls-2" d="M178.21,49.5h6.1c3.22,0,5.62,1,5.62,4a3.41,3.41,0,0,1-2.86,3.71v0a3.63,3.63,0,0,1,3.34,3.94c0,3-2.42,4.43-5.71,4.43h-6.49ZM184,56.24c2.14,0,3.27-.66,3.27-2.2s-1-2.14-3.22-2.14h-3.2v4.34Zm.38,7c2.3,0,3.31-.74,3.31-2.35s-1.31-2.37-3.6-2.37h-3.24v4.72Z"/><path class="cls-2" d="M193.9,49.5h2.74V65.63H193.9Z"/><path class="cls-2" d="M207,62.6V56.19h-2V54.06h2V50h2.68v4h3v2.13h-3v5.73c0,1.25.37,1.75,1.7,1.75a4.33,4.33,0,0,0,1.16-.16v2.12a14.26,14.26,0,0,1-2,.15C207.6,65.78,207,64.69,207,62.6Z"/><path class="cls-2" d="M214.4,59.85c0-4.27,2.81-6,5.65-6s5.64,1.74,5.64,6-2.83,6-5.64,6S214.4,64.08,214.4,59.85Zm8.59,0c0-2.15-.92-3.72-2.94-3.72s-3,1.39-3,3.72.9,3.77,3,3.77S223,62.23,223,59.85Z"/><path class="cls-2" d="M227.61,59.85c0-4.27,2.81-6,5.64-6s5.64,1.74,5.64,6-2.83,6-5.64,6S227.61,64.08,227.61,59.85Zm8.58,0c0-2.15-.91-3.72-2.94-3.72s-2.94,1.39-2.94,3.72.89,3.77,2.94,3.77S236.19,62.23,236.19,59.85Z"/><path class="cls-2" d="M241.58,49.5h2.7V65.63h-2.7Z"/><path class="cls-2" d="M248.77,65.63h-1.16V62.79h3v2.47l-1.37,2.81H248Z"/><path class="cls-2" d="M258.88,59.85c0-4.4,3.12-6,5.51-6,2.59,0,5.08,1.55,5.08,6.25v.64h-7.91a2.86,2.86,0,0,0,3.09,3,4.19,4.19,0,0,0,3.25-1.35l1.42,1.4a6.28,6.28,0,0,1-4.86,2.09C261.56,65.87,258.88,64.1,258.88,59.85ZM267,58.72c-.16-1.76-1-2.7-2.64-2.7a2.71,2.71,0,0,0-2.77,2.7Z"/><path class="cls-2" d="M272,62.79h3v2.84h-3Z"/><path class="cls-2" d="M277.05,67.28a2.6,2.6,0,0,1,1.9-2.44,1.51,1.51,0,0,1-.9-1.41,2.73,2.73,0,0,1,1.57-2.12A3.81,3.81,0,0,1,277.79,58c0-2.38,1.83-4.14,4.86-4.14a5.2,5.2,0,0,1,3.55,1.22,5.89,5.89,0,0,1,2.88-1.13v2.18a7,7,0,0,0-2,.3,2.87,2.87,0,0,1,.42,1.57c0,2.42-1.81,4.12-4.82,4.12a5.54,5.54,0,0,1-1.61-.24c-.35.19-.59.43-.59.74s.31.61,1.33.7l2.05.13c3.42.22,4.77,1.13,4.77,3.16,0,2.37-2.4,3.53-6,3.53C278.64,70.12,277.05,69,277.05,67.28Zm9.18-.45c0-.83-.59-1.14-3-1.29l-2-.13a3.33,3.33,0,0,1-.7-.07,1.61,1.61,0,0,0-1.07,1.49c0,1,1.18,1.35,3.53,1.35C285,68.18,286.23,67.65,286.23,66.83ZM285,58.07a2.07,2.07,0,0,0-2.36-2.23,2.21,2.21,0,1,0,0,4.41A2.05,2.05,0,0,0,285,58.07Z"/><path class="cls-2" d="M291.28,62.79h3v2.84h-3Z"/><path class="cls-2" d="M303.53,49.5h3.59l4.32,12.79h0l4.19-12.79h3.66V65.63h-2.64v-12h0a32.87,32.87,0,0,1-1,3.29l-3.14,8.74h-2.42L307,56.89a24.66,24.66,0,0,1-1-3.4H306V65.63h-2.46Z"/><path class="cls-2" d="M322.23,59.85c0-4.4,3.11-6,5.51-6,2.59,0,5.08,1.55,5.08,6.25v.64h-7.91a2.86,2.86,0,0,0,3.09,3,4.19,4.19,0,0,0,3.25-1.35l1.42,1.4a6.28,6.28,0,0,1-4.86,2.09C324.91,65.87,322.23,64.1,322.23,59.85Zm8.13-1.13c-.16-1.76-1-2.7-2.64-2.7a2.71,2.71,0,0,0-2.77,2.7Z"/><path class="cls-2" d="M336.3,62.6V56.19h-2V54.06h2V50H339v4h3v2.13h-3v5.73c0,1.25.37,1.75,1.7,1.75a4.21,4.21,0,0,0,1.16-.16v2.12a14.09,14.09,0,0,1-2,.15C336.94,65.78,336.3,64.69,336.3,62.6Z"/><path class="cls-2" d="M343.65,62.84c0-2.51,2.13-4.18,7.54-4.8V57.7c0-1.16-.61-1.66-1.9-1.66a6.25,6.25,0,0,0-3.9,1.57l-1.31-1.68a8.34,8.34,0,0,1,5.58-2.09c3.1,0,4.16,1.48,4.16,4.18v4.77a7.94,7.94,0,0,0,.33,2.84h-2.7a4.26,4.26,0,0,1-.26-1.48,5.6,5.6,0,0,1-4.27,1.65C345,65.8,343.65,64.76,343.65,62.84Zm7.54-.44V59.85c-3.21.44-4.9,1.22-4.9,2.49,0,.91.63,1.39,1.61,1.39A4.61,4.61,0,0,0,351.19,62.4Z"/><path class="cls-2" d="M359.6,64.34v1.29h-2.68V49.5h2.68v6.08a4.68,4.68,0,0,1,3.68-1.74c2.64,0,4.58,2,4.58,6s-2,6-4.95,6A4.41,4.41,0,0,1,359.6,64.34Zm5.58-4.49c0-2.44-1.05-3.72-2.77-3.72a3.86,3.86,0,0,0-2.81,1.46v4.64a3.52,3.52,0,0,0,2.72,1.44C364.35,63.67,365.18,62.42,365.18,59.85Z"/><path class="cls-2" d="M369.71,62.84c0-2.51,2.14-4.18,7.54-4.8V57.7c0-1.16-.61-1.66-1.9-1.66a6.25,6.25,0,0,0-3.9,1.57l-1.3-1.68a8.29,8.29,0,0,1,5.57-2.09c3.1,0,4.17,1.48,4.17,4.18v4.77a8,8,0,0,0,.32,2.84h-2.7a4.26,4.26,0,0,1-.26-1.48A5.6,5.6,0,0,1,373,65.8C371.11,65.8,369.71,64.76,369.71,62.84Zm7.54-.44V59.85c-3.2.44-4.9,1.22-4.9,2.49,0,.91.63,1.39,1.61,1.39A4.61,4.61,0,0,0,377.25,62.4Z"/><path class="cls-2" d="M382.11,64l1.46-1.64a5.71,5.71,0,0,0,3.64,1.38c1.44,0,2.31-.37,2.31-1.33s-1.18-1.22-2.57-1.55c-2-.46-4.36-1-4.36-3.66,0-2,1.74-3.4,4.29-3.4a6.8,6.8,0,0,1,4.75,1.63l-1.28,1.75A5.82,5.82,0,0,0,387.08,56c-1.48,0-2,.53-2,1.18,0,.94,1.15,1.22,2.52,1.53,2,.43,4.41.93,4.41,3.63,0,2.44-2.2,3.58-4.84,3.58A7.36,7.36,0,0,1,382.11,64Z"/><path class="cls-2" d="M393.94,59.85c0-4.4,3.12-6,5.52-6,2.59,0,5.07,1.55,5.07,6.25v.64h-7.91a2.86,2.86,0,0,0,3.1,3A4.18,4.18,0,0,0,403,62.38l1.42,1.4a6.28,6.28,0,0,1-4.86,2.09C396.62,65.87,393.94,64.1,393.94,59.85Zm8.13-1.13c-.15-1.76-1-2.7-2.64-2.7a2.71,2.71,0,0,0-2.76,2.7Z"/><path class="cls-2" d="M407.11,62.79h3v2.84h-3Z"/><rect class="cls-1" x="219.68" y="89.36" width="3" height="75.5"/><path class="cls-1" d="M215,164.54a6.2,6.2,0,1,0,6.2-6.2A6.19,6.19,0,0,0,215,164.54Z"/></g></g></svg>