<svg xmlns="http://www.w3.org/2000/svg" viewBox="0 0 54.67 85.93"><defs><style>.cls-1{font-size:11px;font-family:HelveticaNeue-Medium, Helvetica Neue;font-weight:500;letter-spacing:0.01em;}.cls-1,.cls-4{fill:#704898;}.cls-2{letter-spacing:-0.08em;}.cls-3{fill:#fff;}</style></defs><title>redshift-icon</title><g id="Layer_2" data-name="Layer 2"><g id="Layer_7" data-name="Layer 7"><text class="cls-1" transform="translate(0 56.38)">REDSHIFT<tspan x="8.82" y="13.2">B</tspan><tspan class="cls-2" x="16.68" y="13.2">A</tspan><tspan x="23.11" y="13.2">TCH</tspan><tspan x="5.81" y="26.4">WRITER</tspan></text><path class="cls-3" d="M40.54,6.71,30.29.79a5.94,5.94,0,0,0-5.91,0L14.13,6.71a5.94,5.94,0,0,0-3,5.12V23.67a5.93,5.93,0,0,0,3,5.12l10.24,5.92a5.94,5.94,0,0,0,5.92,0l10.25-5.92a6,6,0,0,0,3-5.12V11.83A5.94,5.94,0,0,0,40.54,6.71Z"/><path class="cls-4" d="M40.54,6.71,30.29.79a5.94,5.94,0,0,0-5.91,0L14.13,6.71a5.93,5.93,0,0,0-3,5.12V23.66a5.94,5.94,0,0,0,3,5.13l10.24,5.92a5.94,5.94,0,0,0,5.92,0l10.25-5.92a6,6,0,0,0,3-5.13V11.83A5.93,5.93,0,0,0,40.54,6.71Zm.87,17A3.84,3.84,0,0,1,39.49,27L29.25,32.9a3.85,3.85,0,0,1-3.83,0L15.18,27a3.85,3.85,0,0,1-1.92-3.32V11.83a3.84,3.84,0,0,1,1.92-3.32L25.42,2.59a3.85,3.85,0,0,1,3.83,0L39.49,8.51a3.84,3.84,0,0,1,1.92,3.32V23.66Z"/><path class="cls-4" d="M32.08,13.46l-3.41-2a2.66,2.66,0,0,0-2.67,0l-3.42,2a2.66,2.66,0,0,0-1.33,2.31v3.94A2.67,2.67,0,0,0,22.58,22L26,24a2.7,2.7,0,0,0,2.66,0l3.42-2a2.68,2.68,0,0,0,1.33-2.31V15.77A2.64,2.64,0,0,0,32.08,13.46Zm-.75,6.26a.57.57,0,0,1-.29.5l-3.42,2a.55.55,0,0,1-.58,0l-3.42-2a.58.58,0,0,1-.29-.5V15.78a.56.56,0,0,1,.29-.5l3.42-2a.57.57,0,0,1,.29-.07.59.59,0,0,1,.29.07l3.42,2a.58.58,0,0,1,.29.5Z"/></g></g></svg>