<svg xmlns="http://www.w3.org/2000/svg" viewBox="0 0 10.06 95.86"><defs><style>.cls-1{fill:#dbcde5;}</style></defs><title>viz-arrow-mobile</title><g id="Layer_2" data-name="Layer 2"><g id="Layer_2-2" data-name="Layer 2"><path class="cls-1" d="M5,95.86a1,1,0,0,1-1-1V1.2a1,1,0,0,1,2,0V94.86A1,1,0,0,1,5,95.86Z"/><path class="cls-1" d="M9.83,8a.49.49,0,0,1-.69-.16L5,1.43.92,7.88A.5.5,0,0,1,.23,8a.5.5,0,0,1-.15-.69L4.61.23a.5.5,0,0,1,.84,0L10,7.35a.42.42,0,0,1,.08.26A.51.51,0,0,1,9.83,8Z"/></g></g></svg>