<?xml version="1.0" encoding="UTF-8"?>
<svg width="154px" height="17px" viewBox="0 0 154 17" version="1.1" xmlns="http://www.w3.org/2000/svg" xmlns:xlink="http://www.w3.org/1999/xlink">
    <!-- Generator: Sketch 59.1 (86144) - https://sketch.com -->
    <title>arrow-one</title>
    <desc>Created with Sketch.</desc>
    <g id="Page-1" stroke="none" stroke-width="1" fill="none" fill-rule="evenodd">
        <g id="animation-mockup-rev2-copy" transform="translate(-155.000000, -165.000000)" fill="#DBCDE5" fill-rule="nonzero">
            <path id="arrow-one" d="M167.810309,165.450324 C168.293461,165.182775 168.902025,165.357556 169.169574,165.840708 C169.437122,166.323861 169.262341,166.932424 168.779189,167.199973 L168.779189,167.199973 L160.072,172.02 L303.94,172.98 L295.299188,168.043439 C294.853899,167.789042 294.678398,167.244177 294.874952,166.783689 L294.926961,166.679091 C295.200928,166.199549 295.811768,166.032897 296.29131,166.306864 L296.29131,166.306864 L308.246044,173.136712 C308.923132,173.523539 308.916609,174.50206 308.234423,174.879824 L308.234423,174.879824 L296.189691,181.549676 C295.706539,181.817225 295.097975,181.642444 294.830426,181.159292 C294.562878,180.676139 294.737659,180.067576 295.220811,179.800027 L295.220811,179.800027 L303.927,174.979 L160.059,174.019 L168.700812,178.956561 C169.146101,179.210958 169.321602,179.755823 169.125048,180.216311 L169.073039,180.320909 C168.799072,180.800451 168.188232,180.967103 167.70869,180.693136 L167.70869,180.693136 L155.753956,173.863288 C155.076868,173.476461 155.083391,172.49794 155.765577,172.120176 L155.765577,172.120176 Z"></path>
        </g>
    </g>
</svg>