<svg height="37" viewBox="0 0 122 37" width="122" xmlns="http://www.w3.org/2000/svg"><g fill="#dbcde5" transform="translate(1.5 7.5)"><path d="m106.378424-6.74026124c.270764-.48135788.880479-.6520781 1.361837-.3813143l12 6.75c.679652.38230407.679652 1.36084701 0 1.74315108l-12 6.75c-.481358.2707638-1.091073.10004358-1.361837-.3813143-.270763-.48135788-.100043-1.09107297.381315-1.36183678l8.672261-4.87842446h-114.932c-.51283584 0-.93550716-.38604019-.99327227-.88337887l-.00672773-.11662113c0-.55228475.44771525-1 1-1h114.932l-8.672261-4.87842446c-.446975-.25142354-.626105-.79510609-.432626-1.25689431z"/><path d="m11.2597388 13.8784245c.4813578-.2707638 1.0910729-.1000436 1.3618367.3813143.2707638.4813578.1000436 1.0910729-.3813143 1.3618367l-8.6732612 4.8784245h114.933c.512836 0 .935507.3860402.993272.8833789l.006728.1166211c0 .5522847-.447715 1-1 1h-114.933l8.6732612 4.8784245c.4469752.2514235.6261047.795106.4326254 1.2568943l-.0513111.1049424c-.2707638.4813579-.8804789.6520781-1.3618367.3813143l-12.00000004-6.75c-.67965168-.382304-.67965168-1.360847 0-1.743151z"/></g></svg>