<?xml version="1.0" encoding="UTF-8"?>
<svg width="67px" height="98px" viewBox="0 0 67 98" version="1.1" xmlns="http://www.w3.org/2000/svg" xmlns:xlink="http://www.w3.org/1999/xlink">
    <!-- Generator: Sketch 59.1 (86144) - https://sketch.com -->
    <title>heroku-app</title>
    <desc>Created with Sketch.</desc>
    <g id="Page-1" stroke="none" stroke-width="1" fill="none" fill-rule="evenodd">
        <g id="animation-mockup-rev2-copy" transform="translate(-631.000000, -151.000000)" fill="#79589F">
            <g id="heroku-app" transform="translate(630.930650, 151.500000)">
                <path d="M29.9325151,0.936558881 C32.1419469,-0.312186294 34.8608218,-0.312186294 37.0702537,0.936558881 L52.0877456,9.43888473 C54.2944087,10.6903446 55.6538462,12.9978085 55.6538462,15.4980135 L55.6538462,32.5026652 C55.6538462,35.0001555 54.2944087,37.3103341 52.0877456,38.5617939 L37.0702537,47.0614051 C34.8608218,48.312865 32.1419469,48.312865 29.9325151,47.0614051 L14.9150231,38.5617939 C12.7055913,37.3103341 11.3461538,35.0001555 11.3461538,32.5026652 L11.3461538,15.4980135 C11.3461538,12.9978085 12.7055913,10.6903446 14.9150231,9.43888473 L29.9325151,0.936558881 Z" id="Hexagon"></path>
                <path d="M0.3601784,77.2023252 L2.3842534,77.2023252 L2.3842534,71.8749598 L7.824967,71.8749598 L7.824967,77.2023252 L9.849042,77.2023252 L9.849042,65.2198012 L7.824967,65.2198012 L7.824967,69.9966182 L2.3842534,69.9966182 L2.3842534,65.2198012 L0.3601784,65.2198012 L0.3601784,77.2023252 Z M12.5793988,77.2023252 L20.6433136,77.2023252 L20.6433136,75.3563688 L14.6034738,75.3563688 L14.6034738,71.8749598 L18.7973572,71.8749598 L18.7973572,70.0775812 L14.6034738,70.0775812 L14.6034738,67.0981428 L20.3194616,67.0981428 L20.3194616,65.2198012 L12.5793988,65.2198012 L12.5793988,77.2023252 Z M22.6450034,77.2023252 L24.6366932,77.2023252 L24.6366932,72.474086 L26.7417312,72.474086 L29.4297028,77.2023252 L31.5995112,77.2023252 L28.7819988,72.2150044 C30.4498366,71.8101894 31.4375852,70.7252852 31.4375852,68.8145584 C31.4375852,66.3694758 29.78594,65.2198012 26.9360424,65.2198012 L22.6450034,65.2198012 L22.6450034,77.2023252 Z M24.6366932,70.7090926 L24.6366932,67.0657576 L26.8388868,67.0657576 C28.5553024,67.0657576 29.4458954,67.4867652 29.4458954,68.8631362 C29.4458954,70.288085 28.5391098,70.7090926 26.8550794,70.7090926 L24.6366932,70.7090926 Z M38.6856774,77.4290216 C41.7136936,77.4290216 44.0778132,75.2430206 44.0778132,71.2110632 C44.0778132,67.1791058 41.7136936,64.9931048 38.6856774,64.9931048 C35.6414686,64.9931048 33.2611564,67.1791058 33.2611564,71.2110632 C33.2611564,75.2430206 35.6414686,77.4290216 38.6856774,77.4290216 Z M38.6856774,75.5992578 C36.6454098,75.5992578 35.301424,74.0285756 35.301424,71.2110632 C35.301424,68.3935508 36.6454098,66.8552538 38.6856774,66.8552538 C40.6935598,66.8552538 42.0375456,68.3935508 42.0375456,71.2110632 C42.0375456,74.0285756 40.6935598,75.5992578 38.6856774,75.5992578 Z M46.2252364,77.2023252 L48.2493114,77.2023252 L48.2493114,73.2675234 L49.9495344,71.3891818 L53.5442916,77.2023252 L55.8598334,77.2023252 L51.2773276,69.8346922 L55.3578628,65.2198012 L52.961358,65.2198012 L48.2493114,70.7900556 L48.2493114,65.2198012 L46.2252364,65.2198012 L46.2252364,77.2023252 Z M62.0230214,77.3966364 C58.719731,77.3966364 57.3757452,75.55068 57.3757452,72.8303232 L57.3757452,65.2198012 L59.3998202,65.2198012 L59.3998202,72.6522046 C59.3998202,74.4819684 60.1932576,75.5668726 62.039214,75.5668726 C63.8689778,75.5668726 64.6624152,74.5143536 64.6624152,72.6683972 L64.6624152,65.2198012 L66.654105,65.2198012 L66.654105,72.8141306 C66.654105,75.5344874 65.115808,77.3966364 62.0230214,77.3966364 Z" id="HEROKU" fill-rule="nonzero"></path>
                <path d="M17.404815,96.6340252 L19.2993492,96.6340252 L20.2870978,93.7841276 L24.8372184,93.7841276 L25.8087744,96.6340252 L27.8814272,96.6340252 L23.638966,84.6029234 L21.6472762,84.6029234 L17.404815,96.6340252 Z M20.9024166,92.0029416 L22.5702544,87.1451616 L22.6026396,87.1451616 L24.2380922,92.0029416 L20.9024166,92.0029416 Z M29.6564206,96.6340252 L31.664303,96.6340252 L31.664303,92.0839046 L33.7855336,92.0839046 C36.2468088,92.0839046 38.465195,91.2256968 38.465195,88.3272214 C38.465195,85.5582868 36.44112,84.6515012 33.850304,84.6515012 L29.6564206,84.6515012 L29.6564206,96.6340252 Z M31.664303,90.3189112 L31.664303,86.4974576 L33.8664966,86.4974576 C35.6638752,86.4974576 36.4735052,87.0641986 36.4735052,88.3919918 C36.4735052,89.7683628 35.6638752,90.3189112 33.8826892,90.3189112 L31.664303,90.3189112 Z M40.4021144,96.6340252 L42.4099968,96.6340252 L42.4099968,92.0839046 L44.5312274,92.0839046 C46.9925026,92.0839046 49.2108888,91.2256968 49.2108888,88.3272214 C49.2108888,85.5582868 47.1868138,84.6515012 44.5959978,84.6515012 L40.4021144,84.6515012 L40.4021144,96.6340252 Z M42.4099968,90.3189112 L42.4099968,86.4974576 L44.6121904,86.4974576 C46.409569,86.4974576 47.219199,87.0641986 47.219199,88.3919918 C47.219199,89.7683628 46.409569,90.3189112 44.628383,90.3189112 L42.4099968,90.3189112 Z" id="APP" fill-rule="nonzero"></path>
            </g>
        </g>
    </g>
</svg>