<?xml version="1.0" encoding="UTF-8"?>
<svg width="81px" height="98px" viewBox="0 0 81 98" version="1.1" xmlns="http://www.w3.org/2000/svg" xmlns:xlink="http://www.w3.org/1999/xlink">
    <!-- Generator: Sketch 59.1 (86144) - https://sketch.com -->
    <title>heroku-connect</title>
    <desc>Created with Sketch.</desc>
    <g id="Page-1" stroke="none" stroke-width="1" fill="none" fill-rule="evenodd">
        <g id="animation-mockup-rev2-copy" transform="translate(-292.000000, -151.000000)" fill="#79589F">
            <g id="heroku-connect" transform="translate(291.918900, 151.500000)">
                <path d="M40.5120354,1.02044982e-06 C41.7381783,0.00339630107 42.9617639,0.243927716 43.8991622,0.719590089 L43.8991622,0.721469828 L60.1982512,8.99378329 C62.0934214,9.95788052 63.6111106,12.4045696 63.6111106,14.4727002 L63.6111106,33.529285 C63.6111106,35.6160041 62.0838226,38.0514148 60.1982512,39.007993 L43.8991622,47.2804109 C42.0040999,48.2426284 38.9611719,48.2370936 37.0776497,47.2804109 L20.7977582,39.0062177 C18.9046373,38.0420161 17.3888894,35.5955358 17.3888894,33.5274052 L17.3888894,14.4708205 C17.3888894,12.3841014 18.9142361,9.94858625 20.7977582,8.99190355 L37.0776497,0.719590089 C38.0239743,0.238601236 39.2576344,-0.000570114117 40.4903961,1.02044982e-06 L40.5120354,1.02044982e-06 L40.5120354,1.02044982e-06 Z M20.1123486,16.0920517 C20.0750208,16.1663476 20.0555809,16.2483419 20.0555809,16.3314878 L20.0555809,25.2922554 L25.3401195,22.1598331 C26.1046491,21.7678186 27.3335675,21.7700735 28.0949611,22.1598331 L34.6772855,25.5308007 C35.4426427,25.9235811 36.0555557,26.9203804 36.0555557,27.7629521 L36.0555557,35.5267459 C36.0555557,36.3768907 35.4387663,37.369095 34.6772855,37.7588121 L29.1911191,40.5678079 L38.3971143,45.1555556 C38.7253513,45.3243316 39.1498939,45.4409793 39.6111111,45.5053363 L39.6111111,24.6963653 C38.6695621,24.6076829 37.7689315,24.3752433 37.040041,24.0000005 L20.8283503,15.8549222 C20.5651504,15.7226853 20.2445855,15.8288518 20.1123486,16.0920517 Z M60.4110858,15.7976194 C60.3280396,15.7976194 60.2461408,15.8170128 60.1719133,15.8542548 L43.936516,24.0000005 C43.2113879,24.3731795 42.3200229,24.6043047 41.3888889,24.6942986 L41.3888889,45.5022882 C41.8407921,45.4373956 42.2564738,45.3218693 42.5794428,45.1555556 L51.7981484,40.566324 L46.3211029,37.7580888 C45.5565733,37.3652659 44.9444443,36.3685518 44.9444443,35.52598 L44.9444443,27.7621863 C44.9444443,26.9120414 45.5604497,25.9197945 46.3211029,25.5300349 L52.8956745,22.1598331 C53.6602041,21.7678186 54.8891224,21.7700735 55.6505161,22.1598331 L60.9444191,25.2942457 L60.9444191,16.3309528 C60.9444191,16.0364009 60.7056377,15.7976194 60.4110858,15.7976194 Z M46.641414,29.1991852 L46.641414,34.8202464 C46.641414,35.5096232 47.1422468,36.3251166 47.767771,36.6465172 L53.1469659,39.2268037 C53.2551447,39.2822347 53.3748983,39.3138479 53.5022228,39.3265641 L53.5022228,32.5251321 C52.9207191,32.4501682 52.3689972,32.2889551 51.9148812,32.0420151 L46.641414,29.1991852 Z M34.358586,29.1967352 L29.0694458,32.0420151 C28.618159,32.2873332 28.0725969,32.4475574 27.4981152,32.5231912 L27.4981152,39.3260818 C27.6222844,39.312706 27.739273,39.2811507 27.8453723,39.2268037 L33.2309104,36.647109 C33.8539401,36.3282495 34.358586,35.516446 34.358586,34.8208729 L34.358586,29.1967352 Z M19.9747471,29.6783685 L19.9747471,32.9725439 C19.9747471,34.5694954 20.8315123,36.0436834 22.2190667,36.8342193 L25.591411,38.7555558 C25.6995898,38.8109867 25.8193434,38.8710767 25.9466678,38.9308466 L25.9466678,32.5251321 C25.3651641,32.4501682 24.8134422,32.2889551 24.3593262,32.0420151 L19.9747471,29.6783685 Z M61.0252529,29.6749104 L56.6250008,32.0420151 C56.173714,32.2873332 55.6281519,32.4475574 55.0536701,32.5231912 L55.0536701,38.9268432 C55.1778393,38.8685179 55.294828,38.8099027 55.4009272,38.7555558 L58.7786694,36.8337654 C60.1674965,36.0435824 61.0252529,34.568684 61.0252529,32.9708011 L61.0252529,29.6749104 Z M53.1469659,23.884308 L47.767771,26.6417458 C47.5134398,26.7720655 47.2788731,26.9847087 47.0903913,27.2380982 L52.8393774,30.4395065 C53.5641693,30.8243451 54.9751783,30.8257822 55.7013133,30.4395065 L60.8012219,27.6056192 C60.5961524,27.1970302 60.2687784,26.8328727 59.8975765,26.6423724 L55.4009272,23.884308 C54.7779688,23.5654138 53.7724902,23.5635688 53.1469659,23.884308 Z M25.591411,23.884308 L21.1011044,26.6417458 C20.7306351,26.8315748 20.4021022,27.1960781 20.1968541,27.6067526 L25.2838224,30.4395065 C26.0086144,30.8243451 27.4196233,30.8257822 28.1457583,30.4395065 L33.9075861,27.2378079 C33.7195348,26.9854256 33.4855336,26.7730447 33.2309104,26.6423724 L27.8453723,23.884308 C27.2224138,23.5654138 26.2169352,23.5635688 25.591411,23.884308 Z M29.8333336,7.22100689 C26.6558934,8.78830175 23.9892268,10.114633 21.8333337,11.2000008 C20.9814621,11.628869 20.63855,12.6671138 21.0674182,13.5189855 C21.2367985,13.8554298 21.5115385,14.1272665 21.8497631,14.2930631 L38.3879716,22.4000005 C39.451761,22.8851359 41.5227229,22.8869475 42.5884835,22.4000005 L59.1502246,14.2913452 C60.0061287,13.8722971 60.3602704,12.8387441 59.9412222,11.98284 C59.7754728,11.6442973 59.5034267,11.369342 59.1666663,11.2000008 C56.9968624,10.1089072 54.3301958,8.78423511 51.1666664,7.22598442 L51.1666664,14.1568098 C51.1666664,15.037869 50.4617643,16.0661535 49.5915006,16.4700421 L42.0688441,19.9628408 C41.1941999,20.3691104 39.7897716,20.3667735 38.9204537,19.9628408 L31.4066577,16.4692925 C30.5329095,16.0621852 29.8333336,15.0292268 29.8333336,14.1560161 L29.8333336,7.22100689 Z M31.6111113,7.9673963 L31.6111113,13.1493199 C31.6111113,13.8285146 32.1940913,14.6319641 32.9222147,14.9486176 L39.1837114,17.8970138 C39.3142723,17.9536377 39.4593174,18.0001157 39.6136518,18.0364156 L39.6136518,11.369577 C38.9490761,11.2946131 38.3185368,11.1333999 37.7995471,10.88646 L31.6111113,7.9673963 Z M49.3888887,7.96510675 L43.1825409,10.88646 C42.6667846,11.1317781 42.043285,11.2920022 41.3867345,11.3676361 L41.3867345,18.0342636 C41.537381,17.9983215 41.6792013,17.9525814 41.8073701,17.8970138 L48.0762505,14.9492007 C48.8014702,14.6350508 49.3888887,13.8352379 49.3888887,13.1499385 L49.3888887,7.96510675 Z M39.1837114,2.66666763 L32.9222147,5.68888979 C32.6462377,5.80858034 32.3902534,5.9113111 32.1790812,6.03052199 L38.8561142,9.28395144 C39.6844478,9.66878996 41.2970295,9.67022705 42.1268981,9.28395144 L48.8174133,6.03092348 C48.6069641,5.91198333 48.3519959,5.80866602 48.0762505,5.68888979 L41.8073701,2.66666763 C41.0822333,2.35248347 39.9118349,2.35066579 39.1837114,2.66666763 Z" id="Combined-Shape"></path>
                <path d="M7.3601784,77.2023252 L9.3842534,77.2023252 L9.3842534,71.8749598 L14.824967,71.8749598 L14.824967,77.2023252 L16.849042,77.2023252 L16.849042,65.2198012 L14.824967,65.2198012 L14.824967,69.9966182 L9.3842534,69.9966182 L9.3842534,65.2198012 L7.3601784,65.2198012 L7.3601784,77.2023252 Z M19.5793988,77.2023252 L27.6433136,77.2023252 L27.6433136,75.3563688 L21.6034738,75.3563688 L21.6034738,71.8749598 L25.7973572,71.8749598 L25.7973572,70.0775812 L21.6034738,70.0775812 L21.6034738,67.0981428 L27.3194616,67.0981428 L27.3194616,65.2198012 L19.5793988,65.2198012 L19.5793988,77.2023252 Z M29.6450034,77.2023252 L31.6366932,77.2023252 L31.6366932,72.474086 L33.7417312,72.474086 L36.4297028,77.2023252 L38.5995112,77.2023252 L35.7819988,72.2150044 C37.4498366,71.8101894 38.4375852,70.7252852 38.4375852,68.8145584 C38.4375852,66.3694758 36.78594,65.2198012 33.9360424,65.2198012 L29.6450034,65.2198012 L29.6450034,77.2023252 Z M31.6366932,70.7090926 L31.6366932,67.0657576 L33.8388868,67.0657576 C35.5553024,67.0657576 36.4458954,67.4867652 36.4458954,68.8631362 C36.4458954,70.288085 35.5391098,70.7090926 33.8550794,70.7090926 L31.6366932,70.7090926 Z M45.6856774,77.4290216 C48.7136936,77.4290216 51.0778132,75.2430206 51.0778132,71.2110632 C51.0778132,67.1791058 48.7136936,64.9931048 45.6856774,64.9931048 C42.6414686,64.9931048 40.2611564,67.1791058 40.2611564,71.2110632 C40.2611564,75.2430206 42.6414686,77.4290216 45.6856774,77.4290216 Z M45.6856774,75.5992578 C43.6454098,75.5992578 42.301424,74.0285756 42.301424,71.2110632 C42.301424,68.3935508 43.6454098,66.8552538 45.6856774,66.8552538 C47.6935598,66.8552538 49.0375456,68.3935508 49.0375456,71.2110632 C49.0375456,74.0285756 47.6935598,75.5992578 45.6856774,75.5992578 Z M53.2252364,77.2023252 L55.2493114,77.2023252 L55.2493114,73.2675234 L56.9495344,71.3891818 L60.5442916,77.2023252 L62.8598334,77.2023252 L58.2773276,69.8346922 L62.3578628,65.2198012 L59.961358,65.2198012 L55.2493114,70.7900556 L55.2493114,65.2198012 L53.2252364,65.2198012 L53.2252364,77.2023252 Z M69.0230214,77.3966364 C65.719731,77.3966364 64.3757452,75.55068 64.3757452,72.8303232 L64.3757452,65.2198012 L66.3998202,65.2198012 L66.3998202,72.6522046 C66.3998202,74.4819684 67.1932576,75.5668726 69.039214,75.5668726 C70.8689778,75.5668726 71.6624152,74.5143536 71.6624152,72.6683972 L71.6624152,65.2198012 L73.654105,65.2198012 L73.654105,72.8141306 C73.654105,75.5344874 72.115808,77.3966364 69.0230214,77.3966364 Z" id="HEROKU" fill-rule="nonzero"></path>
                <path d="M6.0398398,96.8607216 C8.8087744,96.8607216 10.282301,95.2576542 10.8652346,92.877342 L8.9383152,92.4401418 C8.4849224,94.2375204 7.610522,95.0147652 6.0560324,95.0147652 C4.0319574,95.0147652 2.8175124,93.444083 2.8175124,90.5941854 C2.8175124,87.8738286 3.9995722,86.3031464 6.0236472,86.3031464 C7.610522,86.3031464 8.3068038,87.1127764 8.7601966,88.6996512 L10.687116,88.1491028 C10.1527602,85.9631018 8.824967,84.4248048 6.0398398,84.4248048 C3.0280162,84.4248048 0.7772448,86.5946132 0.7772448,90.610378 C0.7772448,94.739491 2.9632458,96.8607216 6.0398398,96.8607216 Z M17.82186,96.8607216 C20.8498762,96.8607216 23.2139958,94.6747206 23.2139958,90.6427632 C23.2139958,86.6108058 20.8498762,84.4248048 17.82186,84.4248048 C14.7776512,84.4248048 12.397339,86.6108058 12.397339,90.6427632 C12.397339,94.6747206 14.7776512,96.8607216 17.82186,96.8607216 Z M17.82186,95.0309578 C15.7815924,95.0309578 14.4376066,93.4602756 14.4376066,90.6427632 C14.4376066,87.8252508 15.7815924,86.2869538 17.82186,86.2869538 C19.8297424,86.2869538 21.1737282,87.8252508 21.1737282,90.6427632 C21.1737282,93.4602756 19.8297424,95.0309578 17.82186,95.0309578 Z M25.361419,96.6340252 L27.2397606,96.6340252 L27.2397606,87.9062138 L27.2721458,87.9062138 L33.1500596,96.6340252 L34.996016,96.6340252 L34.996016,84.6515012 L33.1176744,84.6515012 L33.1176744,93.201194 L33.0852892,93.201194 L27.4178792,84.6515012 L25.361419,84.6515012 L25.361419,96.6340252 Z M37.7263728,96.6340252 L39.6047144,96.6340252 L39.6047144,87.9062138 L39.6370996,87.9062138 L45.5150134,96.6340252 L47.3609698,96.6340252 L47.3609698,84.6515012 L45.4826282,84.6515012 L45.4826282,93.201194 L45.450243,93.201194 L39.782833,84.6515012 L37.7263728,84.6515012 L37.7263728,96.6340252 Z M50.0913266,96.6340252 L58.1552414,96.6340252 L58.1552414,94.7880688 L52.1154016,94.7880688 L52.1154016,91.3066598 L56.309285,91.3066598 L56.309285,89.5092812 L52.1154016,89.5092812 L52.1154016,86.5298428 L57.8313894,86.5298428 L57.8313894,84.6515012 L50.0913266,84.6515012 L50.0913266,96.6340252 Z M64.8365926,96.8607216 C67.6055272,96.8607216 69.0790538,95.2576542 69.6619874,92.877342 L67.735068,92.4401418 C67.2816752,94.2375204 66.4072748,95.0147652 64.8527852,95.0147652 C62.8287102,95.0147652 61.6142652,93.444083 61.6142652,90.5941854 C61.6142652,87.8738286 62.796325,86.3031464 64.8204,86.3031464 C66.4072748,86.3031464 67.1035566,87.1127764 67.5569494,88.6996512 L69.4838688,88.1491028 C68.949513,85.9631018 67.6217198,84.4248048 64.8365926,84.4248048 C61.824769,84.4248048 59.5739976,86.5946132 59.5739976,90.610378 C59.5739976,94.739491 61.7599986,96.8607216 64.8365926,96.8607216 Z M74.54596,96.6340252 L74.54596,86.5298428 L70.8540472,86.5298428 L70.8540472,84.6515012 L80.2619478,84.6515012 L80.2619478,86.5298428 L76.570035,86.5298428 L76.570035,96.6340252 L74.54596,96.6340252 Z" id="CONNECT" fill-rule="nonzero"></path>
            </g>
        </g>
    </g>
</svg>