<?xml version="1.0" encoding="UTF-8"?>
<svg width="87px" height="98px" viewBox="0 0 87 98" version="1.1" xmlns="http://www.w3.org/2000/svg" xmlns:xlink="http://www.w3.org/1999/xlink">
    <!-- Generator: Sketch 59.1 (86144) - https://sketch.com -->
    <title>heroku-postgres</title>
    <desc>Created with Sketch.</desc>
    <g id="Page-1" stroke="none" stroke-width="1" fill="none" fill-rule="evenodd">
        <g id="animation-mockup-rev2-copy" transform="translate(-458.000000, -151.000000)">
            <g id="heroku-postgres" transform="translate(457.924775, 151.500000)">
                <path d="M10.3836784,77.2023252 L12.4077534,77.2023252 L12.4077534,71.8749598 L17.848467,71.8749598 L17.848467,77.2023252 L19.872542,77.2023252 L19.872542,65.2198012 L17.848467,65.2198012 L17.848467,69.9966182 L12.4077534,69.9966182 L12.4077534,65.2198012 L10.3836784,65.2198012 L10.3836784,77.2023252 Z M22.6028988,77.2023252 L30.6668136,77.2023252 L30.6668136,75.3563688 L24.6269738,75.3563688 L24.6269738,71.8749598 L28.8208572,71.8749598 L28.8208572,70.0775812 L24.6269738,70.0775812 L24.6269738,67.0981428 L30.3429616,67.0981428 L30.3429616,65.2198012 L22.6028988,65.2198012 L22.6028988,77.2023252 Z M32.6685034,77.2023252 L34.6601932,77.2023252 L34.6601932,72.474086 L36.7652312,72.474086 L39.4532028,77.2023252 L41.6230112,77.2023252 L38.8054988,72.2150044 C40.4733366,71.8101894 41.4610852,70.7252852 41.4610852,68.8145584 C41.4610852,66.3694758 39.80944,65.2198012 36.9595424,65.2198012 L32.6685034,65.2198012 L32.6685034,77.2023252 Z M34.6601932,70.7090926 L34.6601932,67.0657576 L36.8623868,67.0657576 C38.5788024,67.0657576 39.4693954,67.4867652 39.4693954,68.8631362 C39.4693954,70.288085 38.5626098,70.7090926 36.8785794,70.7090926 L34.6601932,70.7090926 Z M48.7091774,77.4290216 C51.7371936,77.4290216 54.1013132,75.2430206 54.1013132,71.2110632 C54.1013132,67.1791058 51.7371936,64.9931048 48.7091774,64.9931048 C45.6649686,64.9931048 43.2846564,67.1791058 43.2846564,71.2110632 C43.2846564,75.2430206 45.6649686,77.4290216 48.7091774,77.4290216 Z M48.7091774,75.5992578 C46.6689098,75.5992578 45.324924,74.0285756 45.324924,71.2110632 C45.324924,68.3935508 46.6689098,66.8552538 48.7091774,66.8552538 C50.7170598,66.8552538 52.0610456,68.3935508 52.0610456,71.2110632 C52.0610456,74.0285756 50.7170598,75.5992578 48.7091774,75.5992578 Z M56.2487364,77.2023252 L58.2728114,77.2023252 L58.2728114,73.2675234 L59.9730344,71.3891818 L63.5677916,77.2023252 L65.8833334,77.2023252 L61.3008276,69.8346922 L65.3813628,65.2198012 L62.984858,65.2198012 L58.2728114,70.7900556 L58.2728114,65.2198012 L56.2487364,65.2198012 L56.2487364,77.2023252 Z M72.0465214,77.3966364 C68.743231,77.3966364 67.3992452,75.55068 67.3992452,72.8303232 L67.3992452,65.2198012 L69.4233202,65.2198012 L69.4233202,72.6522046 C69.4233202,74.4819684 70.2167576,75.5668726 72.062714,75.5668726 C73.8924778,75.5668726 74.6859152,74.5143536 74.6859152,72.6683972 L74.6859152,65.2198012 L76.677605,65.2198012 L76.677605,72.8141306 C76.677605,75.5344874 75.139308,77.3966364 72.0465214,77.3966364 Z" id="HEROKU" fill="#79589F" fill-rule="nonzero"></path>
                <path d="M0.3601784,96.6340252 L2.3680608,96.6340252 L2.3680608,92.0839046 L4.4892914,92.0839046 C6.9505666,92.0839046 9.1689528,91.2256968 9.1689528,88.3272214 C9.1689528,85.5582868 7.1448778,84.6515012 4.5540618,84.6515012 L0.3601784,84.6515012 L0.3601784,96.6340252 Z M2.3680608,90.3189112 L2.3680608,86.4974576 L4.5702544,86.4974576 C6.367633,86.4974576 7.177263,87.0641986 7.177263,88.3919918 C7.177263,89.7683628 6.367633,90.3189112 4.586447,90.3189112 L2.3680608,90.3189112 Z M15.9474596,96.8607216 C18.9754758,96.8607216 21.3395954,94.6747206 21.3395954,90.6427632 C21.3395954,86.6108058 18.9754758,84.4248048 15.9474596,84.4248048 C12.9032508,84.4248048 10.5229386,86.6108058 10.5229386,90.6427632 C10.5229386,94.6747206 12.9032508,96.8607216 15.9474596,96.8607216 Z M15.9474596,95.0309578 C13.907192,95.0309578 12.5632062,93.4602756 12.5632062,90.6427632 C12.5632062,87.8252508 13.907192,86.2869538 15.9474596,86.2869538 C17.955342,86.2869538 19.2993278,87.8252508 19.2993278,90.6427632 C19.2993278,93.4602756 17.955342,95.0309578 15.9474596,95.0309578 Z M27.680902,96.8607216 C30.5307996,96.8607216 32.1986374,95.3224246 32.1986374,93.36312 C32.1986374,91.3301651 30.7190954,90.5257586 28.7622819,89.8999027 L27.651075,89.5616916 C26.0217227,89.0534145 25.3005898,88.6551215 25.3005898,87.6309396 C25.3005898,86.7565392 26.061642,86.2707612 27.3894352,86.2707612 C28.6848432,86.2707612 29.704977,86.8213096 30.4174514,88.019562 L31.890978,86.9994282 C31.162311,85.590672 29.7697474,84.4248048 27.4056278,84.4248048 C24.9767378,84.4248048 23.3089,85.7687906 23.3089,87.8090582 C23.3089,90.0185645 25.0528481,90.6812648 27.2639688,91.3380948 L27.4865908,91.4038154 C29.462088,91.986749 30.2069476,92.472527 30.2069476,93.5088534 C30.2069476,94.5937576 29.219199,95.063343 27.761865,95.063343 C26.2721458,95.063343 25.171049,94.3832538 24.4585746,92.9744976 L22.8555072,93.8165128 C23.6165594,95.630084 25.3005898,96.8607216 27.680902,96.8607216 Z M37.1797656,96.6340252 L39.2038406,96.6340252 L39.2038406,86.5298428 L42.8957534,86.5298428 L42.8957534,84.6515012 L33.4878528,84.6515012 L33.4878528,86.5298428 L37.1797656,86.5298428 L37.1797656,96.6340252 Z M49.23706,96.8607216 C51.0830164,96.8607216 52.1355354,95.7596248 52.5079652,94.901417 L52.5403504,94.901417 L52.5403504,96.6340252 L54.2081882,96.6340252 L54.2081882,90.7075336 L49.8523788,90.7075336 L49.8523788,92.3429862 L52.2650762,92.3429862 C52.1355354,94.1079796 51.0506312,95.0471504 49.4637564,95.0471504 C47.7635334,95.0471504 46.160466,93.8974758 46.160466,90.5456076 C46.160466,87.1775468 47.9578446,86.3031464 49.3827934,86.3031464 C50.8077422,86.3031464 51.6335648,86.9022726 52.1679206,88.6996512 L54.0462622,88.1976806 C53.3337878,85.4773238 51.66595,84.4248048 49.398986,84.4248048 C46.2090438,84.4248048 44.1201984,86.7565392 44.1201984,90.5941854 C44.1201984,94.253713 45.8042288,96.8607216 49.23706,96.8607216 Z M56.776619,96.6340252 L58.7683088,96.6340252 L58.7683088,91.905786 L60.8733468,91.905786 L63.5613184,96.6340252 L65.7311268,96.6340252 L62.9136144,91.6467044 C64.5814522,91.2418894 65.5692008,90.1569852 65.5692008,88.2462584 C65.5692008,85.8011758 63.9175556,84.6515012 61.067658,84.6515012 L56.776619,84.6515012 L56.776619,96.6340252 Z M58.7683088,90.1407926 L58.7683088,86.4974576 L60.9705024,86.4974576 C62.686918,86.4974576 63.577511,86.9184652 63.577511,88.2948362 C63.577511,89.719785 62.6707254,90.1407926 60.986695,90.1407926 L58.7683088,90.1407926 Z M67.9757056,96.6340252 L76.0396204,96.6340252 L76.0396204,94.7880688 L69.9997806,94.7880688 L69.9997806,91.3066598 L74.193664,91.3066598 L74.193664,89.5092812 L69.9997806,89.5092812 L69.9997806,86.5298428 L75.7157684,86.5298428 L75.7157684,84.6515012 L67.9757056,84.6515012 L67.9757056,96.6340252 Z M82.2351936,96.8607216 C79.8548814,96.8607216 78.170851,95.630084 77.4097988,93.8165128 L79.0128662,92.9744976 C79.7253406,94.3832538 80.8264374,95.063343 82.3161566,95.063343 C83.7734906,95.063343 84.7612392,94.5937576 84.7612392,93.5088534 C84.7612392,92.472527 84.0163796,91.986749 82.0408824,91.4038154 L81.3826435,91.206194 C79.3823641,90.5860301 77.8631916,89.8712641 77.8631916,87.8090582 C77.8631916,85.7687906 79.5310294,84.4248048 81.9599194,84.4248048 C84.324039,84.4248048 85.7166026,85.590672 86.4452696,86.9994282 L84.971743,88.019562 C84.2592686,86.8213096 83.2391348,86.2707612 81.9437268,86.2707612 C80.6159336,86.2707612 79.8548814,86.7565392 79.8548814,87.6309396 C79.8548814,88.6551215 80.5760143,89.0534145 82.2053666,89.5616916 L83.1051343,89.8334821 C85.1658183,90.469868 86.752929,91.2575596 86.752929,93.36312 C86.752929,95.3224246 85.0850912,96.8607216 82.2351936,96.8607216 Z" id="POSTGRES" fill="#79589F" fill-rule="nonzero"></path>
                <g id="Group" transform="translate(19.624200, 0.000000)">
                    <path d="M5.6112,9.99999999e-05 C2.5162,9.99999999e-05 0.0002,2.5181 0.0002,5.6111 L0.0002,42.0771 C0.0002,45.1711 2.5162,47.6881 5.6112,47.6881 L42.0772,47.6881 C45.1712,47.6881 47.6872,45.1711 47.6872,42.0771 L47.6872,5.6111 C47.6872,2.5181 45.1712,9.99999999e-05 42.0772,9.99999999e-05 L5.6112,9.99999999e-05 Z" id="Fill-2" fill="#FFFFFF"></path>
                    <path d="M27.701,24.381 L27.701,11.217 C34.57,11.359 38.622,12.558 38.622,14.487 C38.622,17.675 34.092,23.603 27.701,24.381 L27.701,24.381 Z M26.299,8.397 C25.524,8.397 24.895,9.025 24.895,9.8 L24.895,35.435 C24.895,36.289 24.245,36.625 24.044,36.707 C23.845,36.79 23.145,37.014 22.541,36.408 C21.994,35.861 21.105,35.861 20.558,36.408 C20.01,36.957 20.01,37.845 20.558,38.393 C21.369,39.203 22.413,39.628 23.49,39.628 C24.033,39.628 24.584,39.52 25.117,39.301 C26.712,38.64 27.701,37.157 27.701,35.435 L27.701,27.203 C35.625,26.429 41.427,19.24 41.427,14.487 C41.427,9.028 32.793,8.397 26.299,8.397 L26.299,8.397 Z M22.792,9.8 C22.792,9.025 22.163,8.397 21.389,8.397 C14.894,8.397 6.262,9.028 6.262,14.487 C6.262,19.516 12.758,27.272 21.389,27.272 C22.163,27.272 22.792,26.644 22.792,25.869 L22.792,9.8 Z M44.883,42.077 C44.883,43.625 43.624,44.883 42.077,44.883 L5.611,44.883 C4.063,44.883 2.805,43.625 2.805,42.077 L2.805,5.611 C2.805,4.064 4.063,2.806 5.611,2.806 L42.077,2.806 C43.624,2.806 44.883,4.064 44.883,5.611 L44.883,42.077 Z M5.611,-6.39488462e-14 C2.516,-6.39488462e-14 -5.32907052e-14,2.518 -5.32907052e-14,5.611 L-5.32907052e-14,42.077 C-5.32907052e-14,45.171 2.516,47.688 5.611,47.688 L42.077,47.688 C45.171,47.688 47.687,45.171 47.687,42.077 L47.687,5.611 C47.687,2.518 45.171,-6.39488462e-14 42.077,-6.39488462e-14 L5.611,-6.39488462e-14 Z" id="Fill-3" fill="#79589F"></path>
                </g>
            </g>
        </g>
    </g>
</svg>