<?xml version="1.0" encoding="UTF-8"?>
<svg width="229px" height="125px" viewBox="0 0 229 125" version="1.1" xmlns="http://www.w3.org/2000/svg" xmlns:xlink="http://www.w3.org/1999/xlink">
    <!-- Generator: Sketch 59.1 (86144) - https://sketch.com -->
    <title>mobile-speech-3</title>
    <desc>Created with Sketch.</desc>
    <g id="Page-1" stroke="none" stroke-width="1" fill="none" fill-rule="evenodd">
        <g id="animation-mockup-rev2-copy-2" transform="translate(-73.000000, -134.000000)">
            <g id="mobile-speech-3" transform="translate(73.000000, 134.001667)">
                <g id="Group-8" transform="translate(109.500000, 67.500000)">
                    <path d="M0.688,52.437 C0.688,54.957 2.732,57 5.251,57 C7.771,57 9.814,54.957 9.814,52.437 C9.814,49.917 7.771,47.875 5.251,47.875 C2.732,47.875 0.688,49.917 0.688,52.437" id="Fill-6" fill="#231F20"></path>
                    <line x1="5.2515" y1="1.3" x2="5.2515" y2="54.5" id="Stroke-4" stroke="#231F20" stroke-width="2.207"></line>
                </g>
                <rect id="Rectangle" fill="#231F20" x="0" y="0" width="229" height="76" rx="6"></rect>
                <path d="M15.114375,25 L17.004375,25 L17.004375,13.9 L15.114375,13.9 L15.114375,25 Z M19.4287333,25 L21.2887333,25 L21.2887333,19.495 C21.9637333,18.88 22.6387333,18.46 23.4487333,18.46 C24.2587333,18.46 24.6337333,18.865 24.6337333,19.75 L24.6337333,25 L26.4937333,25 L26.4937333,19.285 C26.4937333,17.71 25.5937333,16.885 24.1987333,16.885 C22.7587333,16.885 21.7987333,17.575 21.2887333,18.115 L21.2887333,17.035 L19.4287333,17.035 L19.4287333,25 Z M32.25745,25 L34.10245,25 L34.10245,19.96 C34.62745,19.105 35.37745,18.55 36.56245,18.55 L36.87457,18.56296 C36.95185,18.568 37.02145,18.574 37.05745,18.58 L37.11745,16.885 L36.99745,16.885 C35.48245,16.885 34.62745,17.545 34.13245,18.34 L34.10245,18.34 L34.10245,17.035 L32.25745,17.035 L32.25745,25 Z M41.8368083,25.165 C43.2618083,25.165 44.3568083,24.64 45.1818083,23.725 L44.2068083,22.765 C43.6068083,23.35 43.0068083,23.695 41.9718083,23.695 C40.8018083,23.695 39.9168083,23.065 39.8418083,21.625 L45.2868083,21.625 L45.2868083,21.19 C45.2868083,17.95 43.5768083,16.885 41.7918083,16.885 C40.1418083,16.885 37.9968083,17.995 37.9968083,21.025 C37.9968083,23.95 39.8418083,25.165 41.8368083,25.165 Z M39.8718083,20.245 C40.0518083,18.895 40.8768083,18.385 41.7768083,18.385 C42.8868083,18.385 43.4868083,19.03 43.5918083,20.245 L39.8718083,20.245 Z M48.6561667,25.12 C49.8411667,25.12 50.7861667,24.805 51.5961667,23.98 C51.5961667,24.43 51.6711667,24.67 51.7761667,25 L53.6361667,25 C53.4861667,24.6318182 53.4229435,24.114876 53.4126881,23.3026672 L53.4111667,19.765 C53.4111667,17.905 52.6761667,16.885 50.5461667,16.885 C48.8961667,16.885 47.5611667,17.545 46.7061667,18.325 L47.6061667,19.48 C48.2811667,18.94 49.1811667,18.4 50.2911667,18.4 C51.1761667,18.4 51.5961667,18.745 51.5961667,19.54 L51.5961667,19.78 C47.8761667,20.2 46.4061667,21.355 46.4061667,23.08 C46.4061667,24.4 47.3661667,25.12 48.6561667,25.12 Z M49.3311667,23.695 C48.6561667,23.695 48.2211667,23.365 48.2211667,22.735 C48.2211667,21.865 49.3911667,21.325 51.5961667,21.025 L51.5961667,22.78 C51.0111667,23.335 50.2761667,23.695 49.3311667,23.695 Z M58.115525,25.12 C59.300525,25.12 60.065525,24.595 60.650525,23.92 C60.650525,24.325 60.725525,24.775 60.830525,25 L62.735525,25 C62.570525,24.62875 62.5063583,24.10625 62.4968097,23.2823003 L62.495525,13.9 L60.650525,13.9 L60.650525,17.89 C60.065525,17.23 59.225525,16.885 58.370525,16.885 C56.330525,16.885 54.965525,18.28 54.965525,21.04 C54.965525,23.8 56.300525,25.12 58.115525,25.12 Z M58.715525,23.605 C57.530525,23.605 56.810525,22.765 56.810525,21.085 C56.810525,19.315 57.380525,18.415 58.775525,18.415 C59.435525,18.415 60.155525,18.76 60.650525,19.405 L60.650525,22.6 C60.215525,23.125 59.480525,23.605 58.715525,23.605 Z M64.3648833,20.95 L68.0698833,20.95 L68.0698833,19.63 L64.3648833,19.63 L64.3648833,20.95 Z M71.4542416,25 L73.1642416,25 L74.6042416,19.465 L74.6342416,19.465 L76.0742416,25 L77.7992416,25 L80.1692416,17.035 L78.4892416,17.035 L77.5892416,20.395 L77.4345503,20.9389506 C77.2690565,21.5412963 77.1459083,22.065 76.9592416,22.87 L76.9292416,22.87 L76.7740854,22.1727344 C76.6292416,21.5321875 76.5054916,21.02875 76.3142416,20.365 L75.4292416,17.035 L73.9292416,17.035 L73.0892416,20.305 L72.9345503,20.8732716 C72.7690565,21.4985185 72.6459083,22.03 72.4592416,22.87 L72.4292416,22.87 C72.2454916,21.9775 72.1076791,21.3950781 71.9153159,20.6604883 L70.9592416,17.035 L69.0842416,17.035 L71.4542416,25 Z M81.3936,25 L83.2386,25 L83.2386,19.96 C83.7636,19.105 84.5136,18.55 85.6986,18.55 L86.01072,18.56296 C86.088,18.568 86.1576,18.574 86.1936,18.58 L86.2536,16.885 L86.1336,16.885 C84.6186,16.885 83.7636,17.545 83.2686,18.34 L83.2386,18.34 L83.2386,17.035 L81.3936,17.035 L81.3936,25 Z M87.6429583,15.655 L89.5329583,15.655 L89.5329583,14.05 L87.6429583,14.05 L87.6429583,15.655 Z M87.6579583,25 L89.5179583,25 L89.5179583,17.035 L87.6579583,17.035 L87.6579583,25 Z M94.7623166,25.105 L95.0625566,25.0984 C95.4835166,25.0816 95.9563166,25.036 96.1123166,25 L96.1123166,23.545 C95.9323166,23.605 95.5873166,23.65 95.3173166,23.65 C94.4023166,23.65 94.1473166,23.305 94.1473166,22.45 L94.1473166,18.505 L96.2023166,18.505 L96.2023166,17.035 L94.1473166,17.035 L94.1473166,14.26 L92.3023166,14.26 L92.3023166,17.035 L90.9223166,17.035 L90.9223166,18.505 L92.3023166,18.505 L92.3023166,22.915 C92.3023166,24.355 92.7373166,25.105 94.7623166,25.105 Z M101.116675,25.165 C102.541675,25.165 103.636675,24.64 104.461675,23.725 L103.486675,22.765 C102.886675,23.35 102.286675,23.695 101.251675,23.695 C100.081675,23.695 99.196675,23.065 99.121675,21.625 L104.566675,21.625 L104.566675,21.19 C104.566675,17.95 102.856675,16.885 101.071675,16.885 C99.421675,16.885 97.276675,17.995 97.276675,21.025 C97.276675,23.95 99.121675,25.165 101.116675,25.165 Z M99.151675,20.245 C99.331675,18.895 100.156675,18.385 101.056675,18.385 C102.166675,18.385 102.766675,19.03 102.871675,20.245 L99.151675,20.245 Z M109.970392,25 L111.815392,25 L111.815392,19.495 C112.505392,18.88 113.120392,18.46 113.855392,18.46 C114.725392,18.46 114.980392,18.865 114.980392,19.75 L114.980392,25 L116.825392,25 L116.825392,19.495 C117.515392,18.88 118.115392,18.46 118.865392,18.46 C119.735392,18.46 119.990392,18.865 119.990392,19.75 L119.990392,25 L121.835392,25 L121.835392,19.285 C121.835392,17.86 121.130392,16.885 119.510392,16.885 C118.295392,16.885 117.350392,17.5 116.720392,18.19 C116.405392,17.41 115.880392,16.885 114.545392,16.885 C113.330392,16.885 112.430392,17.455 111.815392,18.13 L111.815392,17.035 L109.970392,17.035 L109.970392,25 Z M127.27475,25.165 C129.20975,25.165 131.15975,23.935 131.15975,21.025 C131.15975,18.085 129.20975,16.885 127.27475,16.885 C125.32475,16.885 123.38975,18.085 123.38975,21.025 C123.38975,23.935 125.33975,25.165 127.27475,25.165 Z M127.27475,23.62 C125.86475,23.62 125.24975,22.54 125.24975,21.025 C125.24975,19.42 125.93975,18.46 127.27475,18.46 C128.66975,18.46 129.29975,19.54 129.29975,21.025 C129.29975,22.66 128.60975,23.62 127.27475,23.62 Z M135.504108,25.12 C136.689108,25.12 137.454108,24.595 138.039108,23.92 C138.039108,24.325 138.114108,24.775 138.219108,25 L140.124108,25 C139.959108,24.62875 139.894942,24.10625 139.885393,23.2823003 L139.884108,13.9 L138.039108,13.9 L138.039108,17.89 C137.454108,17.23 136.614108,16.885 135.759108,16.885 C133.719108,16.885 132.354108,18.28 132.354108,21.04 C132.354108,23.8 133.689108,25.12 135.504108,25.12 Z M136.104108,23.605 C134.919108,23.605 134.199108,22.765 134.199108,21.085 C134.199108,19.315 134.769108,18.415 136.164108,18.415 C136.824108,18.415 137.544108,18.76 138.039108,19.405 L138.039108,22.6 C137.604108,23.125 136.869108,23.605 136.104108,23.605 Z M145.353467,25.165 C146.778467,25.165 147.873467,24.64 148.698467,23.725 L147.723467,22.765 C147.123467,23.35 146.523467,23.695 145.488467,23.695 C144.318467,23.695 143.433467,23.065 143.358467,21.625 L148.803467,21.625 L148.803467,21.19 C148.803467,17.95 147.093467,16.885 145.308467,16.885 C143.658467,16.885 141.513467,17.995 141.513467,21.025 C141.513467,23.95 143.358467,25.165 145.353467,25.165 Z M143.388467,20.245 C143.568467,18.895 144.393467,18.385 145.293467,18.385 C146.403467,18.385 147.003467,19.03 147.108467,20.245 L143.388467,20.245 Z M150.702825,26.68 L151.557825,26.68 L152.502825,24.745 L152.502825,23.05 L150.432825,23.05 L150.432825,25 L151.227825,25 L150.702825,26.68 Z M161.626542,25.165 C163.546542,25.165 164.491542,24.1 165.061542,22.825 L163.531542,22.27 C163.096542,23.395 162.511542,23.65 161.671542,23.65 C160.456542,23.65 159.766542,22.72 159.766542,21.025 C159.766542,19.12 160.651542,18.43 161.701542,18.43 C162.586542,18.43 163.156542,18.865 163.471542,19.765 L165.031542,19.21 C164.551542,17.98 163.711542,16.885 161.731542,16.885 C159.961542,16.885 157.906542,17.98 157.906542,21.025 C157.906542,23.935 159.781542,25.165 161.626542,25.165 Z M166.5409,25 L168.4009,25 L168.4009,19.495 C169.0759,18.88 169.7509,18.46 170.5609,18.46 C171.3709,18.46 171.7459,18.865 171.7459,19.75 L171.7459,25 L173.6059,25 L173.6059,19.285 C173.6059,17.71 172.7059,16.885 171.3109,16.885 C169.8709,16.885 168.9109,17.575 168.4009,18.115 L168.4009,13.9 L166.5409,13.9 L166.5409,25 Z M177.335258,25.12 C178.520258,25.12 179.465258,24.805 180.275258,23.98 C180.275258,24.43 180.350258,24.67 180.455258,25 L182.315258,25 C182.165258,24.6318182 182.102035,24.114876 182.09178,23.3026672 L182.090258,19.765 C182.090258,17.905 181.355258,16.885 179.225258,16.885 C177.575258,16.885 176.240258,17.545 175.385258,18.325 L176.285258,19.48 C176.960258,18.94 177.860258,18.4 178.970258,18.4 C179.855258,18.4 180.275258,18.745 180.275258,19.54 L180.275258,19.78 C176.555258,20.2 175.085258,21.355 175.085258,23.08 C175.085258,24.4 176.045258,25.12 177.335258,25.12 Z M178.010258,23.695 C177.335258,23.695 176.900258,23.365 176.900258,22.735 C176.900258,21.865 178.070258,21.325 180.275258,21.025 L180.275258,22.78 C179.690258,23.335 178.955258,23.695 178.010258,23.695 Z M184.079617,25 L185.939617,25 L185.939617,19.495 C186.614617,18.88 187.289617,18.46 188.099617,18.46 C188.909617,18.46 189.284617,18.865 189.284617,19.75 L189.284617,25 L191.144617,25 L191.144617,19.285 C191.144617,17.71 190.244617,16.885 188.849617,16.885 C187.409617,16.885 186.449617,17.575 185.939617,18.115 L185.939617,17.035 L184.079617,17.035 L184.079617,25 Z M196.133975,28.09 C198.593975,28.09 200.243975,27.295 200.243975,25.66 C200.243975,24.3148214 199.379217,23.6809758 197.205866,23.5029211 L195.548975,23.395 C194.843975,23.335 194.633975,23.23 194.633975,22.915 C194.633975,22.705 194.798975,22.54 195.038975,22.405 C195.428975,22.51 195.698975,22.57 196.148975,22.57 C198.218975,22.57 199.463975,21.4 199.463975,19.735 C199.463975,19.315 199.358975,18.94 199.178975,18.655 C199.703975,18.49 200.213975,18.445 200.573975,18.445 L200.573975,16.945 C199.913975,17.005 199.103975,17.32 198.593975,17.725 C198.053975,17.245 197.243975,16.885 196.148975,16.885 C194.063975,16.885 192.803975,18.1 192.803975,19.735 C192.803975,20.71 193.253975,21.52 194.063975,22.03 C193.463975,22.39 192.983975,22.885 192.983975,23.485 C192.983975,23.92 193.193975,24.25 193.598975,24.46 C192.788975,24.775 192.293975,25.345 192.293975,26.14 C192.293975,27.295 193.388975,28.09 196.133975,28.09 Z M196.178975,21.295 C195.158975,21.295 194.543975,20.77 194.543975,19.795 C194.543975,18.82 195.143975,18.265 196.163975,18.265 C197.213975,18.265 197.783975,18.805 197.783975,19.795 C197.783975,20.77 197.183975,21.295 196.178975,21.295 Z M196.418975,26.755 C194.798975,26.755 193.988975,26.53 193.988975,25.825 C193.988975,25.42 194.198975,25.045 194.723975,24.805 C194.888975,24.835 195.038975,24.85 195.203975,24.85 L196.583975,24.94 L196.979555,24.9699408 C198.271347,25.0842439 198.608975,25.3045652 198.608975,25.825 C198.608975,26.395 197.768975,26.755 196.418975,26.755 Z M205.338333,25.165 C206.763333,25.165 207.858333,24.64 208.683333,23.725 L207.708333,22.765 C207.108333,23.35 206.508333,23.695 205.473333,23.695 C204.303333,23.695 203.418333,23.065 203.343333,21.625 L208.788333,21.625 L208.788333,21.19 C208.788333,17.95 207.078333,16.885 205.293333,16.885 C203.643333,16.885 201.498333,17.995 201.498333,21.025 C201.498333,23.95 203.343333,25.165 205.338333,25.165 Z M203.373333,20.245 C203.553333,18.895 204.378333,18.385 205.278333,18.385 C206.388333,18.385 206.988333,19.03 207.093333,20.245 L203.373333,20.245 Z M213.327692,25.165 C215.142692,25.165 216.657692,24.385 216.657692,22.705 C216.657692,21.1107143 215.434426,20.6294898 214.22533,20.3356122 L213.301441,20.125748 C212.506636,19.9378893 211.887692,19.7191176 211.887692,19.15 C211.887692,18.7 212.217692,18.34 213.237692,18.34 C213.957692,18.34 214.902692,18.73 215.487692,19.21 L216.372692,18.01 C215.547692,17.32 214.617692,16.885 213.102692,16.885 C211.347692,16.885 210.147692,17.83 210.147692,19.225 C210.147692,20.8064286 211.348916,21.2968367 212.551715,21.6030466 L213.479212,21.8239477 C214.287069,22.0221107 214.917692,22.2408824 214.917692,22.81 C214.917692,23.47 214.317692,23.725 213.327692,23.725 C212.307692,23.725 211.422692,23.29 210.822692,22.78 L209.817692,23.905 C210.537692,24.64 211.857692,25.165 213.327692,25.165 Z M16.284375,42 L17.994375,42 L19.434375,36.465 L19.464375,36.465 L20.904375,42 L22.629375,42 L24.999375,34.035 L23.319375,34.035 L22.419375,37.395 L22.2646836,37.9389506 C22.0991898,38.5412963 21.9760417,39.065 21.789375,39.87 L21.759375,39.87 L21.6042187,39.1727344 C21.459375,38.5321875 21.335625,38.02875 21.144375,37.365 L20.259375,34.035 L18.759375,34.035 L17.919375,37.305 L17.7646836,37.8732716 C17.5991898,38.4985185 17.4760417,39.03 17.289375,39.87 L17.259375,39.87 C17.075625,38.9775 16.9378125,38.3950781 16.7454492,37.6604883 L15.789375,34.035 L13.914375,34.035 L16.284375,42 Z M26.2837333,32.655 L28.1737333,32.655 L28.1737333,31.05 L26.2837333,31.05 L26.2837333,32.655 Z M26.2987333,42 L28.1587333,42 L28.1587333,34.035 L26.2987333,34.035 L26.2987333,42 Z M30.3880917,42 L32.2480917,42 L32.2480917,30.9 L30.3880917,30.9 L30.3880917,42 Z M34.47745,42 L36.33745,42 L36.33745,30.9 L34.47745,30.9 L34.47745,42 Z M46.3911667,42.12 C48.4311667,42.12 49.7961667,40.77 49.7961667,38.01 C49.7961667,35.25 48.4611667,33.885 46.6461667,33.885 C45.4611667,33.885 44.6361667,34.455 44.1111667,35.085 L44.1111667,30.9 L42.2661667,30.9 L42.2661667,42 L44.1111667,42 L44.1111667,41.115 C44.6961667,41.775 45.5361667,42.12 46.3911667,42.12 Z M45.9861667,40.65 C45.3261667,40.65 44.6061667,40.305 44.1111667,39.66 L44.1111667,36.465 C44.5461667,35.94 45.2811667,35.46 46.0461667,35.46 C47.2311667,35.46 47.9511667,36.345 47.9511667,38.025 C47.9511667,39.795 47.3811667,40.65 45.9861667,40.65 Z M54.830525,42.165 C56.255525,42.165 57.350525,41.64 58.175525,40.725 L57.200525,39.765 C56.600525,40.35 56.000525,40.695 54.965525,40.695 C53.795525,40.695 52.910525,40.065 52.835525,38.625 L58.280525,38.625 L58.280525,38.19 C58.280525,34.95 56.570525,33.885 54.785525,33.885 C53.135525,33.885 50.990525,34.995 50.990525,38.025 C50.990525,40.95 52.835525,42.165 54.830525,42.165 Z M52.865525,37.245 C53.045525,35.895 53.870525,35.385 54.770525,35.385 C55.880525,35.385 56.480525,36.03 56.585525,37.245 L52.865525,37.245 Z M66.5942416,42.165 C68.4092416,42.165 69.9242416,41.385 69.9242416,39.705 C69.9242416,38.1107143 68.7009763,37.6294898 67.4918801,37.3356122 L66.5679909,37.125748 C65.7731863,36.9378893 65.1542416,36.7191176 65.1542416,36.15 C65.1542416,35.7 65.4842416,35.34 66.5042416,35.34 C67.2242416,35.34 68.1692416,35.73 68.7542416,36.21 L69.6392416,35.01 C68.8142416,34.32 67.8842416,33.885 66.3692416,33.885 C64.6142416,33.885 63.4142416,34.83 63.4142416,36.225 C63.4142416,37.8064286 64.6154661,38.2968367 65.818265,38.6030466 L66.7457621,38.8239477 C67.5536188,39.0221107 68.1842416,39.2408824 68.1842416,39.81 C68.1842416,40.47 67.5842416,40.725 66.5942416,40.725 C65.5742416,40.725 64.6892416,40.29 64.0892416,39.78 L63.0842416,40.905 C63.8042416,41.64 65.1242416,42.165 66.5942416,42.165 Z M72.3786,45.09 C73.8851217,45.09 74.581927,44.3351796 75.0991268,43.048703 L78.5586,34.035 L76.7286,34.035 L74.6886,39.84 L74.6586,39.84 L72.6036,34.035 L70.6836,34.035 L73.7436,42.045 L73.5186,42.63 C73.2636,43.275 72.9186,43.53 72.2586,43.53 C71.6136,43.53 71.1336,43.425 70.9086,43.365 L70.4886,44.85 L70.6983916,44.9042361 C71.0744333,44.99625 71.5911,45.09 72.3786,45.09 Z M79.7529583,42 L81.6129583,42 L81.6129583,36.495 C82.2879583,35.88 82.9629583,35.46 83.7729583,35.46 C84.5829583,35.46 84.9579583,35.865 84.9579583,36.75 L84.9579583,42 L86.8179583,42 L86.8179583,36.285 C86.8179583,34.71 85.9179583,33.885 84.5229583,33.885 C83.0829583,33.885 82.1229583,34.575 81.6129583,35.115 L81.6129583,34.035 L79.7529583,34.035 L79.7529583,42 Z M92.0773166,42.165 C93.9973166,42.165 94.9423166,41.1 95.5123166,39.825 L93.9823166,39.27 C93.5473166,40.395 92.9623166,40.65 92.1223166,40.65 C90.9073166,40.65 90.2173166,39.72 90.2173166,38.025 C90.2173166,36.12 91.1023166,35.43 92.1523166,35.43 C93.0373166,35.43 93.6073166,35.865 93.9223166,36.765 L95.4823166,36.21 C95.0023166,34.98 94.1623166,33.885 92.1823166,33.885 C90.4123166,33.885 88.3573166,34.98 88.3573166,38.025 C88.3573166,40.935 90.2323166,42.165 92.0773166,42.165 Z M100.381675,42.165 C101.806675,42.165 102.901675,41.64 103.726675,40.725 L102.751675,39.765 C102.151675,40.35 101.551675,40.695 100.516675,40.695 C99.346675,40.695 98.461675,40.065 98.386675,38.625 L103.831675,38.625 L103.831675,38.19 C103.831675,34.95 102.121675,33.885 100.336675,33.885 C98.686675,33.885 96.541675,34.995 96.541675,38.025 C96.541675,40.95 98.386675,42.165 100.381675,42.165 Z M98.416675,37.245 C98.596675,35.895 99.421675,35.385 100.321675,35.385 C101.431675,35.385 102.031675,36.03 102.136675,37.245 L98.416675,37.245 Z M108.176033,42.12 C109.361033,42.12 110.126033,41.595 110.711033,40.92 C110.711033,41.325 110.786033,41.775 110.891033,42 L112.796033,42 C112.631033,41.62875 112.566867,41.10625 112.557318,40.2823003 L112.556033,30.9 L110.711033,30.9 L110.711033,34.89 C110.126033,34.23 109.286033,33.885 108.431033,33.885 C106.391033,33.885 105.026033,35.28 105.026033,38.04 C105.026033,40.8 106.361033,42.12 108.176033,42.12 Z M108.776033,40.605 C107.591033,40.605 106.871033,39.765 106.871033,38.085 C106.871033,36.315 107.441033,35.415 108.836033,35.415 C109.496033,35.415 110.216033,35.76 110.711033,36.405 L110.711033,39.6 C110.276033,40.125 109.541033,40.605 108.776033,40.605 Z M122.53475,42.12 C124.57475,42.12 125.93975,40.77 125.93975,38.01 C125.93975,35.25 124.60475,33.885 122.78975,33.885 C121.60475,33.885 120.77975,34.455 120.25475,35.085 L120.25475,30.9 L118.40975,30.9 L118.40975,42 L120.25475,42 L120.25475,41.115 C120.83975,41.775 121.67975,42.12 122.53475,42.12 Z M122.12975,40.65 C121.46975,40.65 120.74975,40.305 120.25475,39.66 L120.25475,36.465 C120.68975,35.94 121.42475,35.46 122.18975,35.46 C123.37475,35.46 124.09475,36.345 124.09475,38.025 C124.09475,39.795 123.52475,40.65 122.12975,40.65 Z M129.324108,42.12 C130.509108,42.12 131.454108,41.805 132.264108,40.98 C132.264108,41.43 132.339108,41.67 132.444108,42 L134.304108,42 C134.154108,41.6318182 134.090885,41.114876 134.08063,40.3026672 L134.079108,36.765 C134.079108,34.905 133.344108,33.885 131.214108,33.885 C129.564108,33.885 128.229108,34.545 127.374108,35.325 L128.274108,36.48 C128.949108,35.94 129.849108,35.4 130.959108,35.4 C131.844108,35.4 132.264108,35.745 132.264108,36.54 L132.264108,36.78 C128.544108,37.2 127.074108,38.355 127.074108,40.08 C127.074108,41.4 128.034108,42.12 129.324108,42.12 Z M129.999108,40.695 C129.324108,40.695 128.889108,40.365 128.889108,39.735 C128.889108,38.865 130.059108,38.325 132.264108,38.025 L132.264108,39.78 C131.679108,40.335 130.944108,40.695 129.999108,40.695 Z M139.338467,42.165 C141.258467,42.165 142.203467,41.1 142.773467,39.825 L141.243467,39.27 C140.808467,40.395 140.223467,40.65 139.383467,40.65 C138.168467,40.65 137.478467,39.72 137.478467,38.025 C137.478467,36.12 138.363467,35.43 139.413467,35.43 C140.298467,35.43 140.868467,35.865 141.183467,36.765 L142.743467,36.21 C142.263467,34.98 141.423467,33.885 139.443467,33.885 C137.673467,33.885 135.618467,34.98 135.618467,38.025 C135.618467,40.935 137.493467,42.165 139.338467,42.165 Z M144.252825,42 L146.097825,42 L146.097825,39.705 L147.372825,38.31 L149.427825,42 L151.362825,42 L148.542825,36.945 L151.137825,34.035 L149.112825,34.035 L146.097825,37.515 L146.097825,30.9 L144.252825,30.9 L144.252825,42 Z M159.571542,42.105 L159.871782,42.0984 C160.292742,42.0816 160.765542,42.036 160.921542,42 L160.921542,40.545 C160.741542,40.605 160.396542,40.65 160.126542,40.65 C159.211542,40.65 158.956542,40.305 158.956542,39.45 L158.956542,35.505 L161.011542,35.505 L161.011542,34.035 L158.956542,34.035 L158.956542,31.26 L157.111542,31.26 L157.111542,34.035 L155.731542,34.035 L155.731542,35.505 L157.111542,35.505 L157.111542,39.915 C157.111542,41.355 157.546542,42.105 159.571542,42.105 Z M165.9709,42.165 C167.9059,42.165 169.8559,40.935 169.8559,38.025 C169.8559,35.085 167.9059,33.885 165.9709,33.885 C164.0209,33.885 162.0859,35.085 162.0859,38.025 C162.0859,40.935 164.0359,42.165 165.9709,42.165 Z M165.9709,40.62 C164.5609,40.62 163.9459,39.54 163.9459,38.025 C163.9459,36.42 164.6359,35.46 165.9709,35.46 C167.3659,35.46 167.9959,36.54 167.9959,38.025 C167.9959,39.66 167.3059,40.62 165.9709,40.62 Z M176.099617,45.09 C177.606138,45.09 178.302944,44.3351796 178.820143,43.048703 L182.279617,34.035 L180.449617,34.035 L178.409617,39.84 L178.379617,39.84 L176.324617,34.035 L174.404617,34.035 L177.464617,42.045 L177.239617,42.63 C176.984617,43.275 176.639617,43.53 175.979617,43.53 C175.334617,43.53 174.854617,43.425 174.629617,43.365 L174.209617,44.85 L174.419408,44.9042361 C174.79545,44.99625 175.312117,45.09 176.099617,45.09 Z M186.908975,42.165 C188.843975,42.165 190.793975,40.935 190.793975,38.025 C190.793975,35.085 188.843975,33.885 186.908975,33.885 C184.958975,33.885 183.023975,35.085 183.023975,38.025 C183.023975,40.935 184.973975,42.165 186.908975,42.165 Z M186.908975,40.62 C185.498975,40.62 184.883975,39.54 184.883975,38.025 C184.883975,36.42 185.573975,35.46 186.908975,35.46 C188.303975,35.46 188.933975,36.54 188.933975,38.025 C188.933975,39.66 188.243975,40.62 186.908975,40.62 Z M194.628333,42.15 C196.068333,42.15 197.028333,41.46 197.538333,40.92 L197.538333,42 L199.398333,42 L199.398333,34.035 L197.538333,34.035 L197.538333,39.57 C196.863333,40.185 196.188333,40.605 195.378333,40.605 C194.568333,40.605 194.193333,40.2 194.193333,39.315 L194.193333,34.035 L192.333333,34.035 L192.333333,39.75 C192.333333,41.325 193.233333,42.15 194.628333,42.15 Z M201.477692,42 L203.322692,42 L203.322692,36.96 C203.847692,36.105 204.597692,35.55 205.782692,35.55 C205.887692,35.55 206.187692,35.565 206.277692,35.58 L206.337692,33.885 L206.217692,33.885 C204.702692,33.885 203.847692,34.545 203.352692,35.34 L203.322692,35.34 L203.322692,34.035 L201.477692,34.035 L201.477692,42 Z M18.879375,59.21 C21.519375,59.21 23.064375,57.785 23.064375,55.97 C23.064375,53.9545 21.4945083,53.24255 19.4929283,52.6417989 L19.284375,52.58 C17.469375,52.04 16.674375,51.695 16.674375,50.66 C16.674375,49.85 17.379375,49.4 18.609375,49.4 C19.809375,49.4 20.754375,49.91 21.414375,51.02 L22.779375,50.075 C22.104375,48.77 20.814375,47.69 18.624375,47.69 C16.374375,47.69 14.829375,48.935 14.829375,50.825 C14.829375,52.7285 16.226625,53.3927 18.06978,53.965775 L18.699375,54.155 C20.529375,54.695 21.219375,55.145 21.219375,56.105 C21.219375,57.11 20.304375,57.545 18.954375,57.545 C17.574375,57.545 16.554375,56.915 15.894375,55.61 L14.409375,56.39 C15.114375,58.07 16.674375,59.21 18.879375,59.21 Z M26.6287333,59.12 C27.8137333,59.12 28.7587333,58.805 29.5687333,57.98 C29.5687333,58.43 29.6437333,58.67 29.7487333,59 L31.6087333,59 C31.4437333,58.595 31.3837333,58.01 31.3837333,57.05 L31.3837333,53.765 C31.3837333,51.905 30.6487333,50.885 28.5187333,50.885 C26.8687333,50.885 25.5337333,51.545 24.6787333,52.325 L25.5787333,53.48 C26.2537333,52.94 27.1537333,52.4 28.2637333,52.4 C29.1487333,52.4 29.5687333,52.745 29.5687333,53.54 L29.5687333,53.78 C25.8487333,54.2 24.3787333,55.355 24.3787333,57.08 C24.3787333,58.4 25.3387333,59.12 26.6287333,59.12 Z M27.3037333,57.695 C26.6287333,57.695 26.1937333,57.365 26.1937333,56.735 C26.1937333,55.865 27.3637333,55.325 29.5687333,55.025 L29.5687333,56.78 C28.9837333,57.335 28.2487333,57.695 27.3037333,57.695 Z M33.4480917,59 L35.3080917,59 L35.3080917,47.9 L33.4480917,47.9 L33.4480917,59 Z M40.85245,59.165 C42.27745,59.165 43.37245,58.64 44.19745,57.725 L43.22245,56.765 C42.62245,57.35 42.02245,57.695 40.98745,57.695 C39.81745,57.695 38.93245,57.065 38.85745,55.625 L44.30245,55.625 L44.30245,55.19 C44.30245,51.95 42.59245,50.885 40.80745,50.885 C39.15745,50.885 37.01245,51.995 37.01245,55.025 C37.01245,57.95 38.85745,59.165 40.85245,59.165 Z M38.88745,54.245 C39.06745,52.895 39.89245,52.385 40.79245,52.385 C41.90245,52.385 42.50245,53.03 42.60745,54.245 L38.88745,54.245 Z M48.8418083,59.165 C50.6568083,59.165 52.1718083,58.385 52.1718083,56.705 C52.1718083,55.1107143 50.948543,54.6294898 49.7394468,54.3356122 L48.8155576,54.125748 C48.020753,53.9378893 47.4018083,53.7191176 47.4018083,53.15 C47.4018083,52.7 47.7318083,52.34 48.7518083,52.34 C49.4718083,52.34 50.4168083,52.73 51.0018083,53.21 L51.8868083,52.01 C51.0618083,51.32 50.1318083,50.885 48.6168083,50.885 C46.8618083,50.885 45.6618083,51.83 45.6618083,53.225 C45.6618083,54.8064286 46.8630328,55.2968367 48.0658316,55.6030466 L48.9933288,55.8239477 C49.8011855,56.0221107 50.4318083,56.2408824 50.4318083,56.81 C50.4318083,57.47 49.8318083,57.725 48.8418083,57.725 C47.8218083,57.725 46.9368083,57.29 46.3368083,56.78 L45.3318083,57.905 C46.0518083,58.64 47.3718083,59.165 48.8418083,59.165 Z M54.4761667,59 L56.3211667,59 L56.3211667,52.505 L58.0611667,52.505 L58.0611667,51.035 L56.3211667,51.035 L56.3211667,50.33 C56.3211667,49.475 56.8611667,49.295 57.5211667,49.295 C57.7311667,49.295 58.0311667,49.325 58.1511667,49.355 L58.1511667,47.93 L57.8839444,47.9038889 C57.6361667,47.8816667 57.2861667,47.855 57.0561667,47.855 C55.0311667,47.855 54.4761667,48.89 54.4761667,50.225 L54.4761667,51.035 L53.0961667,51.035 L53.0961667,52.505 L54.4761667,52.505 L54.4761667,59 Z M62.840525,59.165 C64.775525,59.165 66.725525,57.935 66.725525,55.025 C66.725525,52.085 64.775525,50.885 62.840525,50.885 C60.890525,50.885 58.955525,52.085 58.955525,55.025 C58.955525,57.935 60.905525,59.165 62.840525,59.165 Z M62.840525,57.62 C61.430525,57.62 60.815525,56.54 60.815525,55.025 C60.815525,53.42 61.505525,52.46 62.840525,52.46 C64.235525,52.46 64.865525,53.54 64.865525,55.025 C64.865525,56.66 64.175525,57.62 62.840525,57.62 Z M68.3548833,59 L70.1998833,59 L70.1998833,53.96 C70.7248833,53.105 71.4748833,52.55 72.6598833,52.55 L72.9720033,52.56296 C73.0492833,52.568 73.1188833,52.574 73.1548833,52.58 L73.2148833,50.885 L73.0948833,50.885 C71.5798833,50.885 70.7248833,51.545 70.2298833,52.34 L70.1998833,52.34 L70.1998833,51.035 L68.3548833,51.035 L68.3548833,59 Z M77.8142416,59.165 C79.7342416,59.165 80.6792416,58.1 81.2492416,56.825 L79.7192416,56.27 C79.2842416,57.395 78.6992416,57.65 77.8592416,57.65 C76.6442416,57.65 75.9542416,56.72 75.9542416,55.025 C75.9542416,53.12 76.8392416,52.43 77.8892416,52.43 C78.7742416,52.43 79.3442416,52.865 79.6592416,53.765 L81.2192416,53.21 C80.7392416,51.98 79.8992416,50.885 77.9192416,50.885 C76.1492416,50.885 74.0942416,51.98 74.0942416,55.025 C74.0942416,57.935 75.9692416,59.165 77.8142416,59.165 Z M86.1186,59.165 C87.5436,59.165 88.6386,58.64 89.4636,57.725 L88.4886,56.765 C87.8886,57.35 87.2886,57.695 86.2536,57.695 C85.0836,57.695 84.1986,57.065 84.1236,55.625 L89.5686,55.625 L89.5686,55.19 C89.5686,51.95 87.8586,50.885 86.0736,50.885 C84.4236,50.885 82.2786,51.995 82.2786,55.025 C82.2786,57.95 84.1236,59.165 86.1186,59.165 Z M84.1536,54.245 C84.3336,52.895 85.1586,52.385 86.0586,52.385 C87.1686,52.385 87.7686,53.03 87.8736,54.245 L84.1536,54.245 Z M98.4073166,59.165 C100.342317,59.165 102.292317,57.935 102.292317,55.025 C102.292317,52.085 100.342317,50.885 98.4073166,50.885 C96.4573166,50.885 94.5223166,52.085 94.5223166,55.025 C94.5223166,57.935 96.4723166,59.165 98.4073166,59.165 Z M98.4073166,57.62 C96.9973166,57.62 96.3823166,56.54 96.3823166,55.025 C96.3823166,53.42 97.0723166,52.46 98.4073166,52.46 C99.8023166,52.46 100.432317,53.54 100.432317,55.025 C100.432317,56.66 99.7423166,57.62 98.4073166,57.62 Z M103.921675,59 L105.766675,59 L105.766675,53.96 C106.291675,53.105 107.041675,52.55 108.226675,52.55 L108.538795,52.56296 C108.616075,52.568 108.685675,52.574 108.721675,52.58 L108.781675,50.885 L108.661675,50.885 C107.146675,50.885 106.291675,51.545 105.796675,52.34 L105.766675,52.34 L105.766675,51.035 L103.921675,51.035 L103.921675,59 Z M113.111033,62.09 C115.571033,62.09 117.221033,61.295 117.221033,59.66 C117.221033,58.265 116.291033,57.635 113.936033,57.485 L112.526033,57.395 C111.821033,57.335 111.611033,57.23 111.611033,56.915 C111.611033,56.705 111.776033,56.54 112.016033,56.405 C112.406033,56.51 112.676033,56.57 113.126033,56.57 C115.196033,56.57 116.441033,55.4 116.441033,53.735 C116.441033,53.315 116.336033,52.94 116.156033,52.655 C116.681033,52.49 117.191033,52.445 117.551033,52.445 L117.551033,50.945 C116.891033,51.005 116.081033,51.32 115.571033,51.725 C115.031033,51.245 114.221033,50.885 113.126033,50.885 C111.041033,50.885 109.781033,52.1 109.781033,53.735 C109.781033,54.71 110.231033,55.52 111.041033,56.03 C110.441033,56.39 109.961033,56.885 109.961033,57.485 C109.961033,57.92 110.171033,58.25 110.576033,58.46 C109.766033,58.775 109.271033,59.345 109.271033,60.14 C109.271033,61.295 110.366033,62.09 113.111033,62.09 Z M113.156033,55.295 C112.136033,55.295 111.521033,54.77 111.521033,53.795 C111.521033,52.82 112.121033,52.265 113.141033,52.265 C114.191033,52.265 114.761033,52.805 114.761033,53.795 C114.761033,54.77 114.161033,55.295 113.156033,55.295 Z M113.396033,60.755 C111.776033,60.755 110.966033,60.53 110.966033,59.825 C110.966033,59.42 111.176033,59.045 111.701033,58.805 C111.866033,58.835 112.016033,58.85 112.181033,58.85 L113.561033,58.94 C115.181033,59.045 115.586033,59.255 115.586033,59.825 C115.586033,60.395 114.746033,60.755 113.396033,60.755 Z M118.925392,59 L118.925392,57.05 L120.995392,57.05 L120.995392,59 L118.925392,59 Z" id="Inread-writemode,changeswillbesyncedbacktoyourSalesforceorg." fill="#FFFFFF" fill-rule="nonzero"></path>
            </g>
        </g>
    </g>
</svg>