<?xml version="1.0" encoding="UTF-8"?>
<svg width="65px" height="74px" viewBox="0 0 65 74" version="1.1" xmlns="http://www.w3.org/2000/svg" xmlns:xlink="http://www.w3.org/1999/xlink">
    <!-- Generator: Sketch 59.1 (86144) - https://sketch.com -->
    <title>mobile-heroku-connect</title>
    <desc>Created with Sketch.</desc>
    <g id="Page-1" stroke="none" stroke-width="1" fill="none" fill-rule="evenodd">
        <g id="animation-mockup-rev2-copy-2" transform="translate(-155.000000, -158.000000)" fill="#79589F">
            <g id="mobile-heroku-connect" transform="translate(155.000000, 158.300000)">
                <path d="M32.4096283,8.16359851e-07 C33.3905426,0.00271704086 34.3694111,0.195142173 35.1193298,0.575672071 L35.1193298,0.577175862 L48.158601,7.19502663 C49.6747371,7.96630441 50.8888885,9.92365571 50.8888885,11.5781602 L50.8888885,26.823428 C50.8888885,28.4928033 49.6670581,30.4411318 48.158601,31.2063944 L35.1193298,37.8243287 C33.6032799,38.5941027 31.1689375,38.5896749 29.6621197,37.8243287 L16.6382066,31.2049742 C15.1237098,30.4336129 13.9111115,28.4764287 13.9111115,26.8219242 L13.9111115,11.5766564 C13.9111115,9.9072811 15.1313888,7.958869 16.6382066,7.19352284 L29.6621197,0.575672071 C30.4191794,0.190880989 31.4061075,-0.000456091293 32.3923169,8.16359851e-07 L32.4096283,8.16359851e-07 L32.4096283,8.16359851e-07 Z M16.0898789,12.8736414 C16.0600167,12.9330781 16.0444647,12.9986735 16.0444647,13.0651903 L16.0444647,20.2338043 L20.2720956,17.7278665 C20.8837193,17.4142549 21.866854,17.4160588 22.4759689,17.7278665 L27.7418284,20.4246406 C28.3541142,20.7388649 28.8444445,21.5363043 28.8444445,22.2103617 L28.8444445,28.4213967 C28.8444445,29.1015126 28.351013,29.895276 27.7418284,30.2070497 L23.3528953,32.4542463 L30.7176914,36.1244445 C30.9802811,36.2594653 31.3199151,36.3527835 31.6888889,36.4042691 L31.6888889,19.7570922 C30.9356497,19.6861463 30.2151452,19.5001946 29.6320328,19.2000004 L16.6626803,12.6839378 C16.4521203,12.5781482 16.1956684,12.6630814 16.0898789,12.8736414 Z M48.3288686,12.6380955 C48.2624316,12.6380955 48.1969126,12.6536103 48.1375306,12.6834038 L35.1492128,19.2000004 C34.5691103,19.4985436 33.8560183,19.6834438 33.1111111,19.7554389 L33.1111111,36.4018306 C33.4726337,36.3499165 33.805179,36.2574955 34.0635542,36.1244445 L41.4385187,32.4530592 L37.0568823,30.2064711 C36.4452586,29.8922128 35.9555555,29.0948414 35.9555555,28.420784 L35.9555555,22.209749 C35.9555555,21.5296332 36.4483598,20.7358356 37.0568823,20.4240279 L42.3165396,17.7278665 C42.9281633,17.4142549 43.9112979,17.4160588 44.5204129,17.7278665 L48.7555353,20.2353966 L48.7555353,13.0647622 C48.7555353,12.8291207 48.5645101,12.6380955 48.3288686,12.6380955 Z M37.3131312,23.3593482 L37.3131312,27.8561971 C37.3131312,28.4076986 37.7137974,29.0600933 38.2142168,29.3172138 L42.5175727,31.381443 C42.6041158,31.4257878 42.6999187,31.4510783 42.8017783,31.4612513 L42.8017783,26.0201056 C42.3365753,25.9601346 41.8951977,25.831164 41.531905,25.6336121 L37.3131312,23.3593482 Z M27.4868688,23.3573882 L23.2555567,25.6336121 C22.8945272,25.8298665 22.4580775,25.9580459 21.9984921,26.018553 L21.9984921,31.4608654 C22.0978275,31.4501648 22.1914184,31.4249205 22.2762978,31.381443 L26.5847283,29.3176872 C27.0831521,29.0625996 27.4868688,28.4131568 27.4868688,27.8566984 L27.4868688,23.3573882 Z M15.9797977,23.7426948 L15.9797977,26.3780351 C15.9797977,27.6555963 16.6652099,28.8349467 17.7752534,29.4673754 L20.4731288,31.0044446 C20.5596718,31.0487894 20.6554747,31.0968613 20.7573343,31.1446773 L20.7573343,26.0201056 C20.2921313,25.9601346 19.8507538,25.831164 19.487461,25.6336121 L15.9797977,23.7426948 Z M48.8202023,23.7399283 L45.3000007,25.6336121 C44.9389712,25.8298665 44.5025215,25.9580459 44.0429361,26.018553 L44.0429361,31.1414746 C44.1422715,31.0948143 44.2358624,31.0479222 44.3207418,31.0044446 L47.0229356,29.4670123 C48.1339972,28.8348659 48.8202023,27.6549472 48.8202023,26.3766409 L48.8202023,23.7399283 Z M42.5175727,19.1074464 L38.2142168,21.3133966 C38.0107518,21.4176524 37.8230985,21.5877669 37.672313,21.7904785 L42.2715019,24.3516052 C42.8513355,24.6594761 43.9801426,24.6606257 44.5610506,24.3516052 L48.6409775,22.0844954 C48.4769219,21.7576242 48.2150227,21.4662982 47.9180612,21.3138979 L44.3207418,19.1074464 C43.822375,18.852331 43.0179921,18.8508551 42.5175727,19.1074464 Z M20.4731288,19.1074464 L16.8808835,21.3133966 C16.584508,21.4652598 16.3216818,21.7568625 16.1574833,22.0854021 L20.2270579,24.3516052 C20.8068915,24.6594761 21.9356987,24.6606257 22.5166067,24.3516052 L27.1260689,21.7902463 C26.9756278,21.5883405 26.7884268,21.4184357 26.5847283,21.3138979 L22.2762978,19.1074464 C21.7779311,18.852331 20.9735482,18.8508551 20.4731288,19.1074464 Z M23.8666668,5.77680551 C21.3247148,7.0306414 19.1913815,8.09170643 17.466667,8.96000063 C16.7851697,9.3030952 16.51084,10.133691 16.8539346,10.8151884 C16.9894388,11.0843438 17.2092308,11.3018132 17.4798105,11.4344505 L30.7103772,17.9200004 C31.5614088,18.3081087 33.2181783,18.309558 34.0707868,17.9200004 L47.3201797,11.4330762 C48.0049029,11.0978376 48.2882163,10.2709952 47.9529778,9.58627196 C47.8203782,9.31543786 47.6027413,9.09547356 47.333333,8.96000063 C45.5974899,8.08712579 43.4641567,7.02738809 40.9333332,5.78078754 L40.9333332,11.3254478 C40.9333332,12.0302952 40.3694114,12.8529228 39.6732005,13.1760337 L33.6550753,15.9702726 C32.95536,16.2952883 31.8318173,16.2934188 31.136363,15.9702726 L25.1253261,13.175434 C24.4263276,12.8497481 23.8666668,12.0233815 23.8666668,11.3248129 L23.8666668,5.77680551 Z M25.288889,6.37391704 L25.288889,10.5194559 C25.288889,11.0628117 25.755273,11.7055713 26.3377718,11.9588941 L31.3469691,14.317611 C31.4514179,14.3629102 31.5674539,14.4000925 31.6909214,14.4291325 L31.6909214,9.09566156 C31.1592609,9.03569047 30.6548294,8.90671996 30.2396377,8.70916803 L25.288889,6.37391704 Z M39.511111,6.3720854 L34.5460328,8.70916803 C34.1334277,8.90542244 33.634628,9.0336018 33.1093876,9.09410889 L33.1093876,14.4274109 C33.2299048,14.3986572 33.3433611,14.3620651 33.4458961,14.317611 L38.4610004,11.9593606 C39.0411762,11.7080407 39.511111,11.0681903 39.511111,10.5199508 L39.511111,6.3720854 Z M31.3469691,2.1333341 L26.3377718,4.55111183 C26.1169901,4.64686427 25.9122027,4.72904888 25.7432649,4.82441759 L31.0848913,7.42716115 C31.7475583,7.73503197 33.0376236,7.73618164 33.7015184,7.42716115 L39.0539306,4.82473878 C38.8855712,4.72958666 38.6815967,4.64693282 38.4610004,4.55111183 L33.4458961,2.1333341 C32.8657866,1.88198677 31.9294679,1.88053263 31.3469691,2.1333341 Z" id="Combined-Shape"></path>
                <path d="M5.88814272,57.1618601 L7.50740272,57.1618601 L7.50740272,52.8999678 L11.8599736,52.8999678 L11.8599736,57.1618601 L13.4792336,57.1618601 L13.4792336,47.5758409 L11.8599736,47.5758409 L11.8599736,51.3972945 L7.50740272,51.3972945 L7.50740272,47.5758409 L5.88814272,47.5758409 L5.88814272,57.1618601 Z M15.663519,57.1618601 L22.1146509,57.1618601 L22.1146509,55.685095 L17.282779,55.685095 L17.282779,52.8999678 L20.6378858,52.8999678 L20.6378858,51.4620649 L17.282779,51.4620649 L17.282779,49.0785142 L21.8555693,49.0785142 L21.8555693,47.5758409 L15.663519,47.5758409 L15.663519,57.1618601 Z M23.7160027,57.1618601 L25.3093546,57.1618601 L25.3093546,53.3792688 L26.993385,53.3792688 L29.1437622,57.1618601 L30.879609,57.1618601 L28.625599,53.1720035 C29.9598693,52.8481515 30.7500682,51.9802281 30.7500682,50.4516467 C30.7500682,48.4955806 29.428752,47.5758409 27.1488339,47.5758409 L23.7160027,47.5758409 L23.7160027,57.1618601 Z M25.3093546,51.967274 L25.3093546,49.052606 L27.0711094,49.052606 C28.4442419,49.052606 29.1567163,49.3894121 29.1567163,50.4905089 C29.1567163,51.630468 28.4312878,51.967274 27.0840635,51.967274 L25.3093546,51.967274 Z M36.5485419,57.3432172 C38.9709549,57.3432172 40.8622506,55.5944164 40.8622506,52.3688505 C40.8622506,49.1432846 38.9709549,47.3944838 36.5485419,47.3944838 C34.1131749,47.3944838 32.2089251,49.1432846 32.2089251,52.3688505 C32.2089251,55.5944164 34.1131749,57.3432172 36.5485419,57.3432172 Z M36.5485419,55.8794062 C34.9163278,55.8794062 33.8411392,54.6228604 33.8411392,52.3688505 C33.8411392,50.1148406 34.9163278,48.884203 36.5485419,48.884203 C38.1548478,48.884203 39.2300365,50.1148406 39.2300365,52.3688505 C39.2300365,54.6228604 38.1548478,55.8794062 36.5485419,55.8794062 Z M42.5801891,57.1618601 L44.1994491,57.1618601 L44.1994491,54.0140187 L45.5596275,52.5113454 L48.4354333,57.1618601 L50.2878667,57.1618601 L46.6218621,51.2677537 L49.8862902,47.5758409 L47.9690864,47.5758409 L44.1994491,52.0320444 L44.1994491,47.5758409 L42.5801891,47.5758409 L42.5801891,57.1618601 Z M55.2184171,57.3173091 C52.5757848,57.3173091 51.5005962,55.840544 51.5005962,53.6642585 L51.5005962,47.5758409 L53.1198562,47.5758409 L53.1198562,53.5217636 C53.1198562,54.9855747 53.7546061,55.853498 55.2313712,55.853498 C56.6951822,55.853498 57.3299322,55.0114828 57.3299322,53.5347177 L57.3299322,47.5758409 L58.923284,47.5758409 L58.923284,53.6513044 C58.923284,55.8275899 57.6926464,57.3173091 55.2184171,57.3173091 Z" id="HEROKU" fill-rule="nonzero"></path>
                <path d="M4.83187184,72.8885772 C7.04701952,72.8885772 8.2258408,71.6061233 8.69218768,69.7018736 L7.15065216,69.3521134 C6.78793792,70.7900163 6.0884176,71.4118121 4.84482592,71.4118121 C3.22556592,71.4118121 2.25400992,70.1552664 2.25400992,67.8753483 C2.25400992,65.6990628 3.19965776,64.4425171 4.81891776,64.4425171 C6.0884176,64.4425171 6.64544304,65.0902211 7.00815728,66.3597209 L8.5496928,65.9192822 C8.12220816,64.1704814 7.0599736,62.9398438 4.83187184,62.9398438 C2.42241296,62.9398438 0.62179584,64.6756905 0.62179584,67.8883024 C0.62179584,71.1915928 2.37059664,72.8885772 4.83187184,72.8885772 Z M14.257488,72.8885772 C16.679901,72.8885772 18.5711966,71.1397764 18.5711966,67.9142105 C18.5711966,64.6886446 16.679901,62.9398438 14.257488,62.9398438 C11.822121,62.9398438 9.9178712,64.6886446 9.9178712,67.9142105 C9.9178712,71.1397764 11.822121,72.8885772 14.257488,72.8885772 Z M14.257488,71.4247662 C12.6252739,71.4247662 11.5500853,70.1682204 11.5500853,67.9142105 C11.5500853,65.6602006 12.6252739,64.429563 14.257488,64.429563 C15.8637939,64.429563 16.9389826,65.6602006 16.9389826,67.9142105 C16.9389826,70.1682204 15.8637939,71.4247662 14.257488,71.4247662 Z M20.2891352,72.7072201 L21.7918085,72.7072201 L21.7918085,65.724971 L21.8177166,65.724971 L26.5200477,72.7072201 L27.9968128,72.7072201 L27.9968128,63.1212009 L26.4941395,63.1212009 L26.4941395,69.9609552 L26.4682314,69.9609552 L21.9343034,63.1212009 L20.2891352,63.1212009 L20.2891352,72.7072201 Z M30.1810982,72.7072201 L31.6837715,72.7072201 L31.6837715,65.724971 L31.7096797,65.724971 L36.4120107,72.7072201 L37.8887758,72.7072201 L37.8887758,63.1212009 L36.3861026,63.1212009 L36.3861026,69.9609552 L36.3601944,69.9609552 L31.8262664,63.1212009 L30.1810982,63.1212009 L30.1810982,72.7072201 Z M40.0730613,72.7072201 L46.5241931,72.7072201 L46.5241931,71.230455 L41.6923213,71.230455 L41.6923213,68.4453278 L45.047428,68.4453278 L45.047428,67.0074249 L41.6923213,67.0074249 L41.6923213,64.6238742 L46.2651115,64.6238742 L46.2651115,63.1212009 L40.0730613,63.1212009 L40.0730613,72.7072201 Z M51.8692741,72.8885772 C54.0844218,72.8885772 55.263243,71.6061233 55.7295899,69.7018736 L54.1880544,69.3521134 C53.8253402,70.7900163 53.1258198,71.4118121 51.8822282,71.4118121 C50.2629682,71.4118121 49.2914122,70.1552664 49.2914122,67.8753483 C49.2914122,65.6990628 50.23706,64.4425171 51.85632,64.4425171 C53.1258198,64.4425171 53.6828453,65.0902211 54.0455595,66.3597209 L55.587095,65.9192822 C55.1596104,64.1704814 54.0973758,62.9398438 51.8692741,62.9398438 C49.4598152,62.9398438 47.6591981,64.6756905 47.6591981,67.8883024 C47.6591981,71.1915928 49.4079989,72.8885772 51.8692741,72.8885772 Z M59.636768,72.7072201 L59.636768,64.6238742 L56.6832378,64.6238742 L56.6832378,63.1212009 L64.2095582,63.1212009 L64.2095582,64.6238742 L61.256028,64.6238742 L61.256028,72.7072201 L59.636768,72.7072201 Z" id="CONNECT" fill-rule="nonzero"></path>
            </g>
        </g>
    </g>
</svg>