<?xml version="1.0" encoding="UTF-8"?>
<svg width="70px" height="74px" viewBox="0 0 70 74" version="1.1" xmlns="http://www.w3.org/2000/svg" xmlns:xlink="http://www.w3.org/1999/xlink">
    <!-- Generator: Sketch 59.1 (86144) - https://sketch.com -->
    <title>mobile-heroku-postgres</title>
    <desc>Created with Sketch.</desc>
    <g id="Page-1" stroke="none" stroke-width="1" fill="none" fill-rule="evenodd">
        <g id="animation-mockup-rev2-copy-2" transform="translate(-153.000000, -274.000000)">
            <g id="mobile-heroku-postgres" transform="translate(153.000000, 274.700000)">
                <path d="M8.10694272,57.1618601 L9.72620272,57.1618601 L9.72620272,52.8999678 L14.0787736,52.8999678 L14.0787736,57.1618601 L15.6980336,57.1618601 L15.6980336,47.5758409 L14.0787736,47.5758409 L14.0787736,51.3972945 L9.72620272,51.3972945 L9.72620272,47.5758409 L8.10694272,47.5758409 L8.10694272,57.1618601 Z M17.882319,57.1618601 L24.3334509,57.1618601 L24.3334509,55.685095 L19.501579,55.685095 L19.501579,52.8999678 L22.8566858,52.8999678 L22.8566858,51.4620649 L19.501579,51.4620649 L19.501579,49.0785142 L24.0743693,49.0785142 L24.0743693,47.5758409 L17.882319,47.5758409 L17.882319,57.1618601 Z M25.9348027,57.1618601 L27.5281546,57.1618601 L27.5281546,53.3792688 L29.212185,53.3792688 L31.3625622,57.1618601 L33.098409,57.1618601 L30.844399,53.1720035 C32.1786693,52.8481515 32.9688682,51.9802281 32.9688682,50.4516467 C32.9688682,48.4955806 31.647552,47.5758409 29.3676339,47.5758409 L25.9348027,47.5758409 L25.9348027,57.1618601 Z M27.5281546,51.967274 L27.5281546,49.052606 L29.2899094,49.052606 C30.6630419,49.052606 31.3755163,49.3894121 31.3755163,50.4905089 C31.3755163,51.630468 30.6500878,51.967274 29.3028635,51.967274 L27.5281546,51.967274 Z M38.7673419,57.3432172 C41.1897549,57.3432172 43.0810506,55.5944164 43.0810506,52.3688505 C43.0810506,49.1432846 41.1897549,47.3944838 38.7673419,47.3944838 C36.3319749,47.3944838 34.4277251,49.1432846 34.4277251,52.3688505 C34.4277251,55.5944164 36.3319749,57.3432172 38.7673419,57.3432172 Z M38.7673419,55.8794062 C37.1351278,55.8794062 36.0599392,54.6228604 36.0599392,52.3688505 C36.0599392,50.1148406 37.1351278,48.884203 38.7673419,48.884203 C40.3736478,48.884203 41.4488365,50.1148406 41.4488365,52.3688505 C41.4488365,54.6228604 40.3736478,55.8794062 38.7673419,55.8794062 Z M44.7989891,57.1618601 L46.4182491,57.1618601 L46.4182491,54.0140187 L47.7784275,52.5113454 L50.6542333,57.1618601 L52.5066667,57.1618601 L48.8406621,51.2677537 L52.1050902,47.5758409 L50.1878864,47.5758409 L46.4182491,52.0320444 L46.4182491,47.5758409 L44.7989891,47.5758409 L44.7989891,57.1618601 Z M57.4372171,57.3173091 C54.7945848,57.3173091 53.7193962,55.840544 53.7193962,53.6642585 L53.7193962,47.5758409 L55.3386562,47.5758409 L55.3386562,53.5217636 C55.3386562,54.9855747 55.9734061,55.853498 57.4501712,55.853498 C58.9139822,55.853498 59.5487322,55.0114828 59.5487322,53.5347177 L59.5487322,47.5758409 L61.142084,47.5758409 L61.142084,53.6513044 C61.142084,55.8275899 59.9114464,57.3173091 57.4372171,57.3173091 Z" id="HEROKU" fill="#79589F" fill-rule="nonzero"></path>
                <path d="M0.08814272,72.7072201 L1.69444864,72.7072201 L1.69444864,69.0671236 L3.39143312,69.0671236 C5.36045328,69.0671236 7.13516224,68.3805574 7.13516224,66.0617771 C7.13516224,63.8466294 5.51590224,63.1212009 3.44324944,63.1212009 L0.08814272,63.1212009 L0.08814272,72.7072201 Z M1.69444864,67.6551289 L1.69444864,64.597966 L3.45620352,64.597966 C4.8941064,64.597966 5.5418104,65.0513588 5.5418104,66.1135934 C5.5418104,67.2146902 4.8941064,67.6551289 3.4691576,67.6551289 L1.69444864,67.6551289 Z M12.5579677,72.8885772 C14.9803806,72.8885772 16.8716763,71.1397764 16.8716763,67.9142105 C16.8716763,64.6886446 14.9803806,62.9398438 12.5579677,62.9398438 C10.1226006,62.9398438 8.21835088,64.6886446 8.21835088,67.9142105 C8.21835088,71.1397764 10.1226006,72.8885772 12.5579677,72.8885772 Z M12.5579677,71.4247662 C10.9257536,71.4247662 9.85056496,70.1682204 9.85056496,67.9142105 C9.85056496,65.6602006 10.9257536,64.429563 12.5579677,64.429563 C14.1642736,64.429563 15.2394622,65.6602006 15.2394622,67.9142105 C15.2394622,70.1682204 14.1642736,71.4247662 12.5579677,71.4247662 Z M21.9447216,72.8885772 C24.2246397,72.8885772 25.5589099,71.6579396 25.5589099,70.090496 C25.5589099,68.4184944 24.3079159,67.7852646 22.6771559,67.2780915 L21.8704423,67.0335541 C20.6024909,66.6343709 20.0404718,66.3134564 20.0404718,65.5047516 C20.0404718,64.8052313 20.6493136,64.4166089 21.7115482,64.4166089 C22.7478746,64.4166089 23.5639816,64.8570476 24.1339611,65.8156496 L25.3127824,64.9995425 C24.7298488,63.8725376 23.6157979,62.9398438 21.7245022,62.9398438 C19.7813902,62.9398438 18.44712,64.0150324 18.44712,65.6472465 C18.44712,67.3433057 19.7316228,67.9000668 21.3982851,68.4065647 L21.7892726,68.5230523 C23.3696704,68.9893992 23.9655581,69.3780216 23.9655581,70.2070827 C23.9655581,71.075006 23.1753592,71.4506744 22.009492,71.4506744 C20.8177166,71.4506744 19.9368392,70.906603 19.3668597,69.779598 L18.0844058,70.4532102 C18.6932475,71.9040672 20.0404718,72.8885772 21.9447216,72.8885772 Z M29.5438125,72.7072201 L31.1630725,72.7072201 L31.1630725,64.6238742 L34.1166027,64.6238742 L34.1166027,63.1212009 L26.5902822,63.1212009 L26.5902822,64.6238742 L29.5438125,64.6238742 L29.5438125,72.7072201 Z M39.189648,72.8885772 C40.6664131,72.8885772 41.5084283,72.0076998 41.8063722,71.3211336 L41.8322803,71.3211336 L41.8322803,72.7072201 L43.1665506,72.7072201 L43.1665506,67.9660268 L39.681903,67.9660268 L39.681903,69.2743889 L41.612061,69.2743889 C41.5084283,70.6863836 40.640505,71.4377203 39.3710051,71.4377203 C38.0108267,71.4377203 36.7283728,70.5179806 36.7283728,67.836486 C36.7283728,65.1420374 38.1662757,64.4425171 39.3062347,64.4425171 C40.4461938,64.4425171 41.1068518,64.921818 41.5343365,66.3597209 L43.0370098,65.9581444 C42.4670302,63.781859 41.13276,62.9398438 39.3191888,62.9398438 C36.767235,62.9398438 35.0961587,64.8052313 35.0961587,67.8753483 C35.0961587,70.8029704 36.443383,72.8885772 39.189648,72.8885772 Z M45.2212952,72.7072201 L46.814647,72.7072201 L46.814647,68.9246288 L48.4986774,68.9246288 L50.6490547,72.7072201 L52.3849014,72.7072201 L50.1308915,68.7173635 C51.4651618,68.3935115 52.2553606,67.5255881 52.2553606,65.9970067 C52.2553606,64.0409406 50.9340445,63.1212009 48.6541264,63.1212009 L45.2212952,63.1212009 L45.2212952,72.7072201 Z M46.814647,67.512634 L46.814647,64.597966 L48.5764019,64.597966 C49.9495344,64.597966 50.6620088,64.9347721 50.6620088,66.0358689 C50.6620088,67.175828 49.9365803,67.512634 48.589356,67.512634 L46.814647,67.512634 Z M54.1805645,72.7072201 L60.6316963,72.7072201 L60.6316963,71.230455 L55.7998245,71.230455 L55.7998245,68.4453278 L59.1549312,68.4453278 L59.1549312,67.0074249 L55.7998245,67.0074249 L55.7998245,64.6238742 L60.3726147,64.6238742 L60.3726147,63.1212009 L54.1805645,63.1212009 L54.1805645,72.7072201 Z M65.5881549,72.8885772 C63.6839051,72.8885772 62.3366808,71.9040672 61.727839,70.4532102 L63.010293,69.779598 C63.5802725,70.906603 64.4611499,71.4506744 65.6529253,71.4506744 C66.8187925,71.4506744 67.6089914,71.075006 67.6089914,70.2070827 C67.6089914,69.4175007 67.0685037,69.0274095 65.6518216,68.5892005 L65.0417184,68.4065647 C63.3750561,67.9000668 62.0905533,67.3433057 62.0905533,65.6472465 C62.0905533,64.0150324 63.4248235,62.9398438 65.3679355,62.9398438 C67.2592312,62.9398438 68.3732821,63.8725376 68.9562157,64.9995425 L67.7773944,65.8156496 C67.2074149,64.8570476 66.3913078,64.4166089 65.3549814,64.4166089 C64.2927469,64.4166089 63.6839051,64.8052313 63.6839051,65.5047516 C63.6839051,66.3560198 64.3066409,66.6668002 65.7199659,67.097316 L66.3205891,67.2780915 C67.9513492,67.7852646 69.2023432,68.4184944 69.2023432,70.090496 C69.2023432,71.6579396 67.868073,72.8885772 65.5881549,72.8885772 Z" id="POSTGRES" fill="#79589F" fill-rule="nonzero"></path>
                <g id="Group" transform="translate(15.499360, 0.000000)">
                    <path d="M4.48896,7.99999999e-05 C2.01296,7.99999999e-05 0.00016,2.01448 0.00016,4.48888 L0.00016,33.66168 C0.00016,36.13688 2.01296,38.15048 4.48896,38.15048 L33.66176,38.15048 C36.13696,38.15048 38.14976,36.13688 38.14976,33.66168 L38.14976,4.48888 C38.14976,2.01448 36.13696,7.99999999e-05 33.66176,7.99999999e-05 L4.48896,7.99999999e-05 Z" id="Fill-2" fill="#FFFFFF"></path>
                    <path d="M22.1608,19.5048 L22.1608,8.9736 C27.656,9.0872 30.8976,10.0464 30.8976,11.5896 C30.8976,14.14 27.2736,18.8824 22.1608,19.5048 L22.1608,19.5048 Z M21.0392,6.7176 C20.4192,6.7176 19.916,7.22 19.916,7.84 L19.916,28.348 C19.916,29.0312 19.396,29.3 19.2352,29.3656 C19.076,29.432 18.516,29.6112 18.0328,29.1264 C17.5952,28.6888 16.884,28.6888 16.4464,29.1264 C16.008,29.5656 16.008,30.276 16.4464,30.7144 C17.0952,31.3624 17.9304,31.7024 18.792,31.7024 C19.2264,31.7024 19.6672,31.616 20.0936,31.4408 C21.3696,30.912 22.1608,29.7256 22.1608,28.348 L22.1608,21.7624 C28.5,21.1432 33.1416,15.392 33.1416,11.5896 C33.1416,7.2224 26.2344,6.7176 21.0392,6.7176 L21.0392,6.7176 Z M18.2336,7.84 C18.2336,7.22 17.7304,6.7176 17.1112,6.7176 C11.9152,6.7176 5.0096,7.2224 5.0096,11.5896 C5.0096,15.6128 10.2064,21.8176 17.1112,21.8176 C17.7304,21.8176 18.2336,21.3152 18.2336,20.6952 L18.2336,7.84 Z M35.9064,33.6616 C35.9064,34.9 34.8992,35.9064 33.6616,35.9064 L4.4888,35.9064 C3.2504,35.9064 2.244,34.9 2.244,33.6616 L2.244,4.4888 C2.244,3.2512 3.2504,2.2448 4.4888,2.2448 L33.6616,2.2448 C34.8992,2.2448 35.9064,3.2512 35.9064,4.4888 L35.9064,33.6616 Z M4.4888,-3.55271368e-15 C2.0128,-3.55271368e-15 3.23296945e-13,2.0144 3.23296945e-13,4.4888 L3.23296945e-13,33.6616 C3.23296945e-13,36.1368 2.0128,38.1504 4.4888,38.1504 L33.6616,38.1504 C36.1368,38.1504 38.1496,36.1368 38.1496,33.6616 L38.1496,4.4888 C38.1496,2.0144 36.1368,-3.55271368e-15 33.6616,-3.55271368e-15 L4.4888,-3.55271368e-15 Z" id="Fill-3" fill="#79589F"></path>
                </g>
            </g>
        </g>
    </g>
</svg>