<?xml version="1.0" encoding="UTF-8"?>
<svg width="286px" height="142px" viewBox="0 0 286 142" version="1.1" xmlns="http://www.w3.org/2000/svg" xmlns:xlink="http://www.w3.org/1999/xlink">
    <!-- Generator: Sketch 59.1 (86144) - https://sketch.com -->
    <title>mobile-speech-2</title>
    <desc>Created with Sketch.</desc>
    <g id="Page-1" stroke="none" stroke-width="1" fill="none" fill-rule="evenodd">
        <g id="animation-mockup-rev2-copy-2" transform="translate(-44.000000, -116.000000)">
            <g id="mobile-speech-2" transform="translate(44.500000, 116.001667)">
                <g id="Group-8" transform="translate(137.569500, 69.645000)">
                    <line x1="5.2515" y1="1.5" x2="5.2515" y2="67.6652" id="Stroke-4" stroke="#231F20" stroke-width="2.207"></line>
                    <path d="M0.688,67.437 C0.688,69.957 2.732,72 5.251,72 C7.771,72 9.814,69.957 9.814,67.437 C9.814,64.917 7.771,62.875 5.251,62.875 C2.732,62.875 0.688,64.917 0.688,67.437" id="Fill-6" fill="#231F20"></path>
                </g>
                <rect id="Rectangle" fill="#231F20" x="0" y="0" width="285.139" height="76" rx="6"></rect>
                <path d="M19.5704,24.6948795 L21.4604,24.6948795 L21.4604,13.5948795 L19.5704,13.5948795 L19.5704,24.6948795 Z M23.8847583,24.6948795 L25.7447583,24.6948795 L25.7447583,19.1898795 C26.4197583,18.5748795 27.0947583,18.1548795 27.9047583,18.1548795 C28.7147583,18.1548795 29.0897583,18.5598795 29.0897583,19.4448795 L29.0897583,24.6948795 L30.9497583,24.6948795 L30.9497583,18.9798795 C30.9497583,17.4048795 30.0497583,16.5798795 28.6547583,16.5798795 C27.2147583,16.5798795 26.2547583,17.2698795 25.7447583,17.8098795 L25.7447583,16.7298795 L23.8847583,16.7298795 L23.8847583,24.6948795 Z M36.713475,24.6948795 L38.558475,24.6948795 L38.558475,19.6548795 C39.083475,18.7998795 39.833475,18.2448795 41.018475,18.2448795 L41.330595,18.2578395 C41.407875,18.2628795 41.477475,18.2688795 41.513475,18.2748795 L41.573475,16.5798795 L41.453475,16.5798795 C39.938475,16.5798795 39.083475,17.2398795 38.588475,18.0348795 L38.558475,18.0348795 L38.558475,16.7298795 L36.713475,16.7298795 L36.713475,24.6948795 Z M46.2928333,24.8598795 C47.7178333,24.8598795 48.8128333,24.3348795 49.6378333,23.4198795 L48.6628333,22.4598795 C48.0628333,23.0448795 47.4628333,23.3898795 46.4278333,23.3898795 C45.2578333,23.3898795 44.3728333,22.7598795 44.2978333,21.3198795 L49.7428333,21.3198795 L49.7428333,20.8848795 C49.7428333,17.6448795 48.0328333,16.5798795 46.2478333,16.5798795 C44.5978333,16.5798795 42.4528333,17.6898795 42.4528333,20.7198795 C42.4528333,23.6448795 44.2978333,24.8598795 46.2928333,24.8598795 Z M44.3278333,19.9398795 C44.5078333,18.5898795 45.3328333,18.0798795 46.2328333,18.0798795 C47.3428333,18.0798795 47.9428333,18.7248795 48.0478333,19.9398795 L44.3278333,19.9398795 Z M53.1121917,24.8148795 C54.2971917,24.8148795 55.2421917,24.4998795 56.0521917,23.6748795 C56.0521917,24.1248795 56.1271917,24.3648795 56.2321917,24.6948795 L58.0921917,24.6948795 C57.9421917,24.3266976 57.8789685,23.8097555 57.8687131,22.9975466 L57.8671917,19.4598795 C57.8671917,17.5998795 57.1321917,16.5798795 55.0021917,16.5798795 C53.3521917,16.5798795 52.0171917,17.2398795 51.1621917,18.0198795 L52.0621917,19.1748795 C52.7371917,18.6348795 53.6371917,18.0948795 54.7471917,18.0948795 C55.6321917,18.0948795 56.0521917,18.4398795 56.0521917,19.2348795 L56.0521917,19.4748795 C52.3321917,19.8948795 50.8621917,21.0498795 50.8621917,22.7748795 C50.8621917,24.0948795 51.8221917,24.8148795 53.1121917,24.8148795 Z M53.7871917,23.3898795 C53.1121917,23.3898795 52.6771917,23.0598795 52.6771917,22.4298795 C52.6771917,21.5598795 53.8471917,21.0198795 56.0521917,20.7198795 L56.0521917,22.4748795 C55.4671917,23.0298795 54.7321917,23.3898795 53.7871917,23.3898795 Z M62.57155,24.8148795 C63.75655,24.8148795 64.52155,24.2898795 65.10655,23.6148795 C65.10655,24.0198795 65.18155,24.4698795 65.28655,24.6948795 L67.19155,24.6948795 C67.02655,24.3236295 66.9623833,23.8011295 66.9528347,22.9771798 L66.95155,13.5948795 L65.10655,13.5948795 L65.10655,17.5848795 C64.52155,16.9248795 63.68155,16.5798795 62.82655,16.5798795 C60.78655,16.5798795 59.42155,17.9748795 59.42155,20.7348795 C59.42155,23.4948795 60.75655,24.8148795 62.57155,24.8148795 Z M63.17155,23.2998795 C61.98655,23.2998795 61.26655,22.4598795 61.26655,20.7798795 C61.26655,19.0098795 61.83655,18.1098795 63.23155,18.1098795 C63.89155,18.1098795 64.61155,18.4548795 65.10655,19.0998795 L65.10655,22.2948795 C64.67155,22.8198795 63.93655,23.2998795 63.17155,23.2998795 Z M68.8209083,20.6448795 L72.5259083,20.6448795 L72.5259083,19.3248795 L68.8209083,19.3248795 L68.8209083,20.6448795 Z M77.8302666,24.8598795 C79.7652666,24.8598795 81.7152666,23.6298795 81.7152666,20.7198795 C81.7152666,17.7798795 79.7652666,16.5798795 77.8302666,16.5798795 C75.8802666,16.5798795 73.9452666,17.7798795 73.9452666,20.7198795 C73.9452666,23.6298795 75.8952666,24.8598795 77.8302666,24.8598795 Z M77.8302666,23.3148795 C76.4202666,23.3148795 75.8052666,22.2348795 75.8052666,20.7198795 C75.8052666,19.1148795 76.4952666,18.1548795 77.8302666,18.1548795 C79.2252666,18.1548795 79.8552666,19.2348795 79.8552666,20.7198795 C79.8552666,22.3548795 79.1652666,23.3148795 77.8302666,23.3148795 Z M83.344625,24.6948795 L85.204625,24.6948795 L85.204625,19.1898795 C85.879625,18.5748795 86.554625,18.1548795 87.364625,18.1548795 C88.174625,18.1548795 88.549625,18.5598795 88.549625,19.4448795 L88.549625,24.6948795 L90.409625,24.6948795 L90.409625,18.9798795 C90.409625,17.4048795 89.509625,16.5798795 88.114625,16.5798795 C86.674625,16.5798795 85.714625,17.2698795 85.204625,17.8098795 L85.204625,16.7298795 L83.344625,16.7298795 L83.344625,24.6948795 Z M92.4739833,24.6948795 L94.3339833,24.6948795 L94.3339833,13.5948795 L92.4739833,13.5948795 L92.4739833,24.6948795 Z M97.3283416,27.7848795 C98.8348634,27.7848795 99.5316687,27.0300591 100.048868,25.7435825 L103.508342,16.7298795 L101.678342,16.7298795 L99.6383416,22.5348795 L99.6083416,22.5348795 L97.5533416,16.7298795 L95.6333416,16.7298795 L98.6933416,24.7398795 L98.4683416,25.3248795 C98.2133416,25.9698795 97.8683416,26.2248795 97.2083416,26.2248795 C96.5633416,26.2248795 96.0833416,26.1198795 95.8583416,26.0598795 L95.4383416,27.5448795 L95.6481333,27.5991156 C96.024175,27.6911295 96.5408416,27.7848795 97.3283416,27.7848795 Z M108.477058,24.6948795 L110.322058,24.6948795 L110.322058,19.1898795 C111.012058,18.5748795 111.627058,18.1548795 112.362058,18.1548795 C113.232058,18.1548795 113.487058,18.5598795 113.487058,19.4448795 L113.487058,24.6948795 L115.332058,24.6948795 L115.332058,19.1898795 C116.022058,18.5748795 116.622058,18.1548795 117.372058,18.1548795 C118.242058,18.1548795 118.497058,18.5598795 118.497058,19.4448795 L118.497058,24.6948795 L120.342058,24.6948795 L120.342058,18.9798795 C120.342058,17.5548795 119.637058,16.5798795 118.017058,16.5798795 C116.802058,16.5798795 115.857058,17.1948795 115.227058,17.8848795 C114.912058,17.1048795 114.387058,16.5798795 113.052058,16.5798795 C111.837058,16.5798795 110.937058,17.1498795 110.322058,17.8248795 L110.322058,16.7298795 L108.477058,16.7298795 L108.477058,24.6948795 Z M125.781417,24.8598795 C127.716417,24.8598795 129.666417,23.6298795 129.666417,20.7198795 C129.666417,17.7798795 127.716417,16.5798795 125.781417,16.5798795 C123.831417,16.5798795 121.896417,17.7798795 121.896417,20.7198795 C121.896417,23.6298795 123.846417,24.8598795 125.781417,24.8598795 Z M125.781417,23.3148795 C124.371417,23.3148795 123.756417,22.2348795 123.756417,20.7198795 C123.756417,19.1148795 124.446417,18.1548795 125.781417,18.1548795 C127.176417,18.1548795 127.806417,19.2348795 127.806417,20.7198795 C127.806417,22.3548795 127.116417,23.3148795 125.781417,23.3148795 Z M134.010775,24.8148795 C135.195775,24.8148795 135.960775,24.2898795 136.545775,23.6148795 C136.545775,24.0198795 136.620775,24.4698795 136.725775,24.6948795 L138.630775,24.6948795 C138.450775,24.2898795 138.390775,23.7048795 138.390775,22.7448795 L138.390775,13.5948795 L136.545775,13.5948795 L136.545775,17.5848795 C135.960775,16.9248795 135.120775,16.5798795 134.265775,16.5798795 C132.225775,16.5798795 130.860775,17.9748795 130.860775,20.7348795 C130.860775,23.4948795 132.195775,24.8148795 134.010775,24.8148795 Z M134.610775,23.2998795 C133.425775,23.2998795 132.705775,22.4598795 132.705775,20.7798795 C132.705775,19.0098795 133.275775,18.1098795 134.670775,18.1098795 C135.330775,18.1098795 136.050775,18.4548795 136.545775,19.0998795 L136.545775,22.2948795 C136.110775,22.8198795 135.375775,23.2998795 134.610775,23.2998795 Z M143.860133,24.8598795 C145.285133,24.8598795 146.380133,24.3348795 147.205133,23.4198795 L146.230133,22.4598795 C145.630133,23.0448795 145.030133,23.3898795 143.995133,23.3898795 C142.825133,23.3898795 141.940133,22.7598795 141.865133,21.3198795 L147.310133,21.3198795 L147.310133,20.8848795 C147.310133,17.6448795 145.600133,16.5798795 143.815133,16.5798795 C142.165133,16.5798795 140.020133,17.6898795 140.020133,20.7198795 C140.020133,23.6448795 141.865133,24.8598795 143.860133,24.8598795 Z M141.895133,19.9398795 C142.075133,18.5898795 142.900133,18.0798795 143.800133,18.0798795 C144.910133,18.0798795 145.510133,18.7248795 145.615133,19.9398795 L141.895133,19.9398795 Z M149.209492,26.3748795 L150.064492,26.3748795 L151.009492,24.4398795 L151.009492,22.7448795 L148.939492,22.7448795 L148.939492,24.6948795 L149.734492,24.6948795 L149.209492,26.3748795 Z M160.133208,24.8598795 C162.053208,24.8598795 162.998208,23.7948795 163.568208,22.5198795 L162.038208,21.9648795 C161.603208,23.0898795 161.018208,23.3448795 160.178208,23.3448795 C158.963208,23.3448795 158.273208,22.4148795 158.273208,20.7198795 C158.273208,18.8148795 159.158208,18.1248795 160.208208,18.1248795 C161.093208,18.1248795 161.663208,18.5598795 161.978208,19.4598795 L163.538208,18.9048795 C163.058208,17.6748795 162.218208,16.5798795 160.238208,16.5798795 C158.468208,16.5798795 156.413208,17.6748795 156.413208,20.7198795 C156.413208,23.6298795 158.288208,24.8598795 160.133208,24.8598795 Z M165.047567,24.6948795 L166.907567,24.6948795 L166.907567,19.1898795 C167.582567,18.5748795 168.257567,18.1548795 169.067567,18.1548795 C169.877567,18.1548795 170.252567,18.5598795 170.252567,19.4448795 L170.252567,24.6948795 L172.112567,24.6948795 L172.112567,18.9798795 C172.112567,17.4048795 171.212567,16.5798795 169.817567,16.5798795 C168.377567,16.5798795 167.417567,17.2698795 166.907567,17.8098795 L166.907567,13.5948795 L165.047567,13.5948795 L165.047567,24.6948795 Z M175.841925,24.8148795 C177.026925,24.8148795 177.971925,24.4998795 178.781925,23.6748795 C178.781925,24.1248795 178.856925,24.3648795 178.961925,24.6948795 L180.821925,24.6948795 C180.656925,24.2898795 180.596925,23.7048795 180.596925,22.7448795 L180.596925,19.4598795 C180.596925,17.5998795 179.861925,16.5798795 177.731925,16.5798795 C176.081925,16.5798795 174.746925,17.2398795 173.891925,18.0198795 L174.791925,19.1748795 C175.466925,18.6348795 176.366925,18.0948795 177.476925,18.0948795 C178.361925,18.0948795 178.781925,18.4398795 178.781925,19.2348795 L178.781925,19.4748795 C175.061925,19.8948795 173.591925,21.0498795 173.591925,22.7748795 C173.591925,24.0948795 174.551925,24.8148795 175.841925,24.8148795 Z M176.516925,23.3898795 C175.841925,23.3898795 175.406925,23.0598795 175.406925,22.4298795 C175.406925,21.5598795 176.576925,21.0198795 178.781925,20.7198795 L178.781925,22.4748795 C178.196925,23.0298795 177.461925,23.3898795 176.516925,23.3898795 Z M182.586283,24.6948795 L184.446283,24.6948795 L184.446283,19.1898795 C185.121283,18.5748795 185.796283,18.1548795 186.606283,18.1548795 C187.416283,18.1548795 187.791283,18.5598795 187.791283,19.4448795 L187.791283,24.6948795 L189.651283,24.6948795 L189.651283,18.9798795 C189.651283,17.4048795 188.751283,16.5798795 187.356283,16.5798795 C185.916283,16.5798795 184.956283,17.2698795 184.446283,17.8098795 L184.446283,16.7298795 L182.586283,16.7298795 L182.586283,24.6948795 Z M194.640642,27.7848795 C197.100642,27.7848795 198.750642,26.9898795 198.750642,25.3548795 C198.750642,23.9598795 197.820642,23.3298795 195.465642,23.1798795 L194.055642,23.0898795 C193.350642,23.0298795 193.140642,22.9248795 193.140642,22.6098795 C193.140642,22.3998795 193.305642,22.2348795 193.545642,22.0998795 C193.935642,22.2048795 194.205642,22.2648795 194.655642,22.2648795 C196.725642,22.2648795 197.970642,21.0948795 197.970642,19.4298795 C197.970642,19.0098795 197.865642,18.6348795 197.685642,18.3498795 C198.210642,18.1848795 198.720642,18.1398795 199.080642,18.1398795 L199.080642,16.6398795 C198.420642,16.6998795 197.610642,17.0148795 197.100642,17.4198795 C196.560642,16.9398795 195.750642,16.5798795 194.655642,16.5798795 C192.570642,16.5798795 191.310642,17.7948795 191.310642,19.4298795 C191.310642,20.4048795 191.760642,21.2148795 192.570642,21.7248795 C191.970642,22.0848795 191.490642,22.5798795 191.490642,23.1798795 C191.490642,23.6148795 191.700642,23.9448795 192.105642,24.1548795 C191.295642,24.4698795 190.800642,25.0398795 190.800642,25.8348795 C190.800642,26.9898795 191.895642,27.7848795 194.640642,27.7848795 Z M194.685642,20.9898795 C193.665642,20.9898795 193.050642,20.4648795 193.050642,19.4898795 C193.050642,18.5148795 193.650642,17.9598795 194.670642,17.9598795 C195.720642,17.9598795 196.290642,18.4998795 196.290642,19.4898795 C196.290642,20.4648795 195.690642,20.9898795 194.685642,20.9898795 Z M194.925642,26.4498795 C193.305642,26.4498795 192.495642,26.2248795 192.495642,25.5198795 C192.495642,25.1148795 192.705642,24.7398795 193.230642,24.4998795 C193.395642,24.5298795 193.545642,24.5448795 193.710642,24.5448795 L195.090642,24.6348795 L195.486221,24.6648203 C196.778014,24.7791233 197.115642,24.9994447 197.115642,25.5198795 C197.115642,26.0898795 196.275642,26.4498795 194.925642,26.4498795 Z M203.845,24.8598795 C205.27,24.8598795 206.365,24.3348795 207.19,23.4198795 L206.215,22.4598795 C205.615,23.0448795 205.015,23.3898795 203.98,23.3898795 C202.81,23.3898795 201.925,22.7598795 201.85,21.3198795 L207.295,21.3198795 L207.295,20.8848795 C207.295,17.6448795 205.585,16.5798795 203.8,16.5798795 C202.15,16.5798795 200.005,17.6898795 200.005,20.7198795 C200.005,23.6448795 201.85,24.8598795 203.845,24.8598795 Z M201.88,19.9398795 C202.06,18.5898795 202.885,18.0798795 203.785,18.0798795 C204.895,18.0798795 205.495,18.7248795 205.6,19.9398795 L201.88,19.9398795 Z M211.834358,24.8598795 C213.649358,24.8598795 215.164358,24.0798795 215.164358,22.3998795 C215.164358,20.8055938 213.941093,20.3243693 212.731997,20.0304917 L211.808107,19.8206275 C211.013303,19.6327687 210.394358,19.4139971 210.394358,18.8448795 C210.394358,18.3948795 210.724358,18.0348795 211.744358,18.0348795 C212.464358,18.0348795 213.409358,18.4248795 213.994358,18.9048795 L214.879358,17.7048795 C214.054358,17.0148795 213.124358,16.5798795 211.609358,16.5798795 C209.854358,16.5798795 208.654358,17.5248795 208.654358,18.9198795 C208.654358,20.5672009 209.95777,21.0306894 211.208653,21.3353086 L211.985879,21.5188272 C212.793735,21.7169902 213.424358,21.9357618 213.424358,22.5048795 C213.424358,23.1648795 212.824358,23.4198795 211.834358,23.4198795 C210.814358,23.4198795 209.929358,22.9848795 209.329358,22.4748795 L208.324358,23.5998795 C209.044358,24.3348795 210.364358,24.8598795 211.834358,24.8598795 Z M220.553075,24.6948795 L222.398075,24.6948795 L222.398075,19.1898795 C223.088075,18.5748795 223.703075,18.1548795 224.438075,18.1548795 C225.308075,18.1548795 225.563075,18.5598795 225.563075,19.4448795 L225.563075,24.6948795 L227.408075,24.6948795 L227.408075,19.1898795 C228.098075,18.5748795 228.698075,18.1548795 229.448075,18.1548795 C230.318075,18.1548795 230.573075,18.5598795 230.573075,19.4448795 L230.573075,24.6948795 L232.418075,24.6948795 L232.418075,18.9798795 C232.418075,17.5548795 231.713075,16.5798795 230.093075,16.5798795 C228.878075,16.5798795 227.933075,17.1948795 227.303075,17.8848795 C226.988075,17.1048795 226.463075,16.5798795 225.128075,16.5798795 C223.913075,16.5798795 223.013075,17.1498795 222.398075,17.8248795 L222.398075,16.7298795 L220.553075,16.7298795 L220.553075,24.6948795 Z M236.162433,24.8148795 C237.347433,24.8148795 238.292433,24.4998795 239.102433,23.6748795 C239.102433,24.1248795 239.177433,24.3648795 239.282433,24.6948795 L241.142433,24.6948795 C240.992433,24.3266976 240.92921,23.8097555 240.918955,22.9975466 L240.917433,19.4598795 C240.917433,17.5998795 240.182433,16.5798795 238.052433,16.5798795 C236.402433,16.5798795 235.067433,17.2398795 234.212433,18.0198795 L235.112433,19.1748795 C235.787433,18.6348795 236.687433,18.0948795 237.797433,18.0948795 C238.682433,18.0948795 239.102433,18.4398795 239.102433,19.2348795 L239.102433,19.4748795 C235.382433,19.8948795 233.912433,21.0498795 233.912433,22.7748795 C233.912433,24.0948795 234.872433,24.8148795 236.162433,24.8148795 Z M236.837433,23.3898795 C236.162433,23.3898795 235.727433,23.0598795 235.727433,22.4298795 C235.727433,21.5598795 236.897433,21.0198795 239.102433,20.7198795 L239.102433,22.4748795 C238.517433,23.0298795 237.782433,23.3898795 236.837433,23.3898795 Z M245.621792,24.8148795 C246.806792,24.8148795 247.571792,24.2898795 248.156792,23.6148795 C248.156792,24.0198795 248.231792,24.4698795 248.336792,24.6948795 L250.241792,24.6948795 C250.061792,24.2898795 250.001792,23.7048795 250.001792,22.7448795 L250.001792,13.5948795 L248.156792,13.5948795 L248.156792,17.5848795 C247.571792,16.9248795 246.731792,16.5798795 245.876792,16.5798795 C243.836792,16.5798795 242.471792,17.9748795 242.471792,20.7348795 C242.471792,23.4948795 243.806792,24.8148795 245.621792,24.8148795 Z M246.221792,23.2998795 C245.036792,23.2998795 244.316792,22.4598795 244.316792,20.7798795 C244.316792,19.0098795 244.886792,18.1098795 246.281792,18.1098795 C246.941792,18.1098795 247.661792,18.4548795 248.156792,19.0998795 L248.156792,22.2948795 C247.721792,22.8198795 246.986792,23.2998795 246.221792,23.2998795 Z M255.47115,24.8598795 C256.89615,24.8598795 257.99115,24.3348795 258.81615,23.4198795 L257.84115,22.4598795 C257.24115,23.0448795 256.64115,23.3898795 255.60615,23.3898795 C254.43615,23.3898795 253.55115,22.7598795 253.47615,21.3198795 L258.92115,21.3198795 L258.92115,20.8848795 C258.92115,17.6448795 257.21115,16.5798795 255.42615,16.5798795 C253.77615,16.5798795 251.63115,17.6898795 251.63115,20.7198795 C251.63115,23.6448795 253.47615,24.8598795 255.47115,24.8598795 Z M253.50615,19.9398795 C253.68615,18.5898795 254.51115,18.0798795 255.41115,18.0798795 C256.52115,18.0798795 257.12115,18.7248795 257.22615,19.9398795 L253.50615,19.9398795 Z M19.2854,32.3498795 L21.1754,32.3498795 L21.1754,30.7448795 L19.2854,30.7448795 L19.2854,32.3498795 Z M19.3004,41.6948795 L21.1604,41.6948795 L21.1604,33.7298795 L19.3004,33.7298795 L19.3004,41.6948795 Z M23.3147583,41.6948795 L25.1747583,41.6948795 L25.1747583,36.1898795 C25.8497583,35.5748795 26.5247583,35.1548795 27.3347583,35.1548795 C28.1447583,35.1548795 28.5197583,35.5598795 28.5197583,36.4448795 L28.5197583,41.6948795 L30.3797583,41.6948795 L30.3797583,35.9798795 C30.3797583,34.4048795 29.4797583,33.5798795 28.0847583,33.5798795 C26.6447583,33.5798795 25.6847583,34.2698795 25.1747583,34.8098795 L25.1747583,33.7298795 L23.3147583,33.7298795 L23.3147583,41.6948795 Z M36.983475,44.7848795 C38.4899967,44.7848795 39.186802,44.0300591 39.7040018,42.7435825 L43.163475,33.7298795 L41.333475,33.7298795 L39.293475,39.5348795 L39.263475,39.5348795 L37.208475,33.7298795 L35.288475,33.7298795 L38.348475,41.7398795 L38.123475,42.3248795 C37.868475,42.9698795 37.523475,43.2248795 36.863475,43.2248795 C36.218475,43.2248795 35.738475,43.1198795 35.513475,43.0598795 L35.093475,44.5448795 L35.3032667,44.5991156 C35.6793083,44.6911295 36.195975,44.7848795 36.983475,44.7848795 Z M47.7928333,41.8598795 C49.7278333,41.8598795 51.6778333,40.6298795 51.6778333,37.7198795 C51.6778333,34.7798795 49.7278333,33.5798795 47.7928333,33.5798795 C45.8428333,33.5798795 43.9078333,34.7798795 43.9078333,37.7198795 C43.9078333,40.6298795 45.8578333,41.8598795 47.7928333,41.8598795 Z M47.7928333,40.3148795 C46.3828333,40.3148795 45.7678333,39.2348795 45.7678333,37.7198795 C45.7678333,36.1148795 46.4578333,35.1548795 47.7928333,35.1548795 C49.1878333,35.1548795 49.8178333,36.2348795 49.8178333,37.7198795 C49.8178333,39.3548795 49.1278333,40.3148795 47.7928333,40.3148795 Z M55.5121917,41.8448795 C56.9521917,41.8448795 57.9121917,41.1548795 58.4221917,40.6148795 L58.4221917,41.6948795 L60.2821917,41.6948795 L60.2821917,33.7298795 L58.4221917,33.7298795 L58.4221917,39.2648795 C57.7471917,39.8798795 57.0721917,40.2998795 56.2621917,40.2998795 C55.4521917,40.2998795 55.0771917,39.8948795 55.0771917,39.0098795 L55.0771917,33.7298795 L53.2171917,33.7298795 L53.2171917,39.4448795 C53.2171917,41.0198795 54.1171917,41.8448795 55.5121917,41.8448795 Z M62.36155,41.6948795 L64.20655,41.6948795 L64.20655,36.6548795 C64.73155,35.7998795 65.48155,35.2448795 66.66655,35.2448795 L66.97867,35.2578395 C67.05595,35.2628795 67.12555,35.2688795 67.16155,35.2748795 L67.22155,33.5798795 L67.10155,33.5798795 C65.58655,33.5798795 64.73155,34.2398795 64.23655,35.0348795 L64.20655,35.0348795 L64.20655,33.7298795 L62.36155,33.7298795 L62.36155,41.6948795 Z M75.0402666,41.8148795 C76.2252666,41.8148795 76.9902666,41.2898795 77.5752666,40.6148795 C77.5752666,41.0198795 77.6502666,41.4698795 77.7552666,41.6948795 L79.6602666,41.6948795 C79.4952666,41.3236295 79.4311,40.8011295 79.4215514,39.9771798 L79.4202666,30.5948795 L77.5752666,30.5948795 L77.5752666,34.5848795 C76.9902666,33.9248795 76.1502666,33.5798795 75.2952666,33.5798795 C73.2552666,33.5798795 71.8902666,34.9748795 71.8902666,37.7348795 C71.8902666,40.4948795 73.2252666,41.8148795 75.0402666,41.8148795 Z M75.6402666,40.2998795 C74.4552666,40.2998795 73.7352666,39.4598795 73.7352666,37.7798795 C73.7352666,36.0098795 74.3052666,35.1098795 75.7002666,35.1098795 C76.3602666,35.1098795 77.0802666,35.4548795 77.5752666,36.0998795 L77.5752666,39.2948795 C77.1402666,39.8198795 76.4052666,40.2998795 75.6402666,40.2998795 Z M83.239625,41.8148795 C84.424625,41.8148795 85.369625,41.4998795 86.179625,40.6748795 C86.179625,41.1248795 86.254625,41.3648795 86.359625,41.6948795 L88.219625,41.6948795 C88.054625,41.2898795 87.994625,40.7048795 87.994625,39.7448795 L87.994625,36.4598795 C87.994625,34.5998795 87.259625,33.5798795 85.129625,33.5798795 C83.479625,33.5798795 82.144625,34.2398795 81.289625,35.0198795 L82.189625,36.1748795 C82.864625,35.6348795 83.764625,35.0948795 84.874625,35.0948795 C85.759625,35.0948795 86.179625,35.4398795 86.179625,36.2348795 L86.179625,36.4748795 C82.459625,36.8948795 80.989625,38.0498795 80.989625,39.7748795 C80.989625,41.0948795 81.949625,41.8148795 83.239625,41.8148795 Z M83.914625,40.3898795 C83.239625,40.3898795 82.804625,40.0598795 82.804625,39.4298795 C82.804625,38.5598795 83.974625,38.0198795 86.179625,37.7198795 L86.179625,39.4748795 C85.594625,40.0298795 84.859625,40.3898795 83.914625,40.3898795 Z M92.8630506,41.7970123 L93.0739833,41.7998795 C93.5389833,41.7998795 94.2289833,41.7398795 94.4239833,41.6948795 L94.4239833,40.2398795 C94.2439833,40.2998795 93.8989833,40.3448795 93.6289833,40.3448795 C92.7139833,40.3448795 92.4589833,39.9998795 92.4589833,39.1448795 L92.4589833,35.1998795 L94.5139833,35.1998795 L94.5139833,33.7298795 L92.4589833,33.7298795 L92.4589833,30.9548795 L90.6139833,30.9548795 L90.6139833,33.7298795 L89.2339833,33.7298795 L89.2339833,35.1998795 L90.6139833,35.1998795 L90.6139833,39.6098795 C90.6139833,40.9984509 91.0184667,41.7454279 92.8630506,41.7970123 L92.8630506,41.7970123 Z M97.7783416,41.8148795 C98.9633416,41.8148795 99.9083416,41.4998795 100.718342,40.6748795 C100.718342,41.1248795 100.793342,41.3648795 100.898342,41.6948795 L102.758342,41.6948795 C102.608342,41.3266976 102.545118,40.8097555 102.534863,39.9975466 L102.533342,36.4598795 C102.533342,34.5998795 101.798342,33.5798795 99.6683416,33.5798795 C98.0183416,33.5798795 96.6833416,34.2398795 95.8283416,35.0198795 L96.7283416,36.1748795 C97.4033416,35.6348795 98.3033416,35.0948795 99.4133416,35.0948795 C100.298342,35.0948795 100.718342,35.4398795 100.718342,36.2348795 L100.718342,36.4748795 C96.9983416,36.8948795 95.5283416,38.0498795 95.5283416,39.7748795 C95.5283416,41.0948795 96.4883416,41.8148795 97.7783416,41.8148795 Z M98.4533416,40.3898795 C97.7783416,40.3898795 97.3433416,40.0598795 97.3433416,39.4298795 C97.3433416,38.5598795 98.5133416,38.0198795 100.718342,37.7198795 L100.718342,39.4748795 C100.133342,40.0298795 99.3983416,40.3898795 98.4533416,40.3898795 Z M108.6477,41.8148795 C110.6877,41.8148795 112.0527,40.4648795 112.0527,37.7048795 C112.0527,34.9448795 110.7177,33.5798795 108.9027,33.5798795 C107.7177,33.5798795 106.8927,34.1498795 106.3677,34.7798795 L106.3677,30.5948795 L104.5227,30.5948795 L104.5227,41.6948795 L106.3677,41.6948795 L106.3677,40.8098795 C106.9527,41.4698795 107.7927,41.8148795 108.6477,41.8148795 Z M108.2427,40.3448795 C107.5827,40.3448795 106.8627,39.9998795 106.3677,39.3548795 L106.3677,36.1598795 C106.8027,35.6348795 107.5377,35.1548795 108.3027,35.1548795 C109.4877,35.1548795 110.2077,36.0398795 110.2077,37.7198795 C110.2077,39.4898795 109.6377,40.3448795 108.2427,40.3448795 Z M115.437058,41.8148795 C116.622058,41.8148795 117.567058,41.4998795 118.377058,40.6748795 C118.377058,41.1248795 118.452058,41.3648795 118.557058,41.6948795 L120.417058,41.6948795 C120.267058,41.3266976 120.203835,40.8097555 120.19358,39.9975466 L120.192058,36.4598795 C120.192058,34.5998795 119.457058,33.5798795 117.327058,33.5798795 C115.677058,33.5798795 114.342058,34.2398795 113.487058,35.0198795 L114.387058,36.1748795 C115.062058,35.6348795 115.962058,35.0948795 117.072058,35.0948795 C117.957058,35.0948795 118.377058,35.4398795 118.377058,36.2348795 L118.377058,36.4748795 C114.657058,36.8948795 113.187058,38.0498795 113.187058,39.7748795 C113.187058,41.0948795 114.147058,41.8148795 115.437058,41.8148795 Z M116.112058,40.3898795 C115.437058,40.3898795 115.002058,40.0598795 115.002058,39.4298795 C115.002058,38.5598795 116.172058,38.0198795 118.377058,37.7198795 L118.377058,39.4748795 C117.792058,40.0298795 117.057058,40.3898795 116.112058,40.3898795 Z M125.091417,41.8598795 C126.906417,41.8598795 128.421417,41.0798795 128.421417,39.3998795 C128.421417,37.8055938 127.198151,37.3243693 125.989055,37.0304917 L125.065166,36.8206275 C124.270361,36.6327687 123.651417,36.4139971 123.651417,35.8448795 C123.651417,35.3948795 123.981417,35.0348795 125.001417,35.0348795 C125.721417,35.0348795 126.666417,35.4248795 127.251417,35.9048795 L128.136417,34.7048795 C127.311417,34.0148795 126.381417,33.5798795 124.866417,33.5798795 C123.111417,33.5798795 121.911417,34.5248795 121.911417,35.9198795 C121.911417,37.5672009 123.214829,38.0306894 124.465711,38.3353086 L125.242937,38.5188272 C126.050794,38.7169902 126.681417,38.9357618 126.681417,39.5048795 C126.681417,40.1648795 126.081417,40.4198795 125.091417,40.4198795 C124.071417,40.4198795 123.186417,39.9848795 122.586417,39.4748795 L121.581417,40.5998795 C122.301417,41.3348795 123.621417,41.8598795 125.091417,41.8598795 Z M133.425775,41.8598795 C134.850775,41.8598795 135.945775,41.3348795 136.770775,40.4198795 L135.795775,39.4598795 C135.195775,40.0448795 134.595775,40.3898795 133.560775,40.3898795 C132.390775,40.3898795 131.505775,39.7598795 131.430775,38.3198795 L136.875775,38.3198795 L136.875775,37.8848795 C136.875775,34.6448795 135.165775,33.5798795 133.380775,33.5798795 C131.730775,33.5798795 129.585775,34.6898795 129.585775,37.7198795 C129.585775,40.6448795 131.430775,41.8598795 133.425775,41.8598795 Z M131.460775,36.9398795 C131.640775,35.5898795 132.465775,35.0798795 133.365775,35.0798795 C134.475775,35.0798795 135.075775,35.7248795 135.180775,36.9398795 L131.460775,36.9398795 Z M143.794492,41.6948795 L145.504492,41.6948795 L146.944492,36.1598795 L146.974492,36.1598795 L148.414492,41.6948795 L150.139492,41.6948795 L152.509492,33.7298795 L150.829492,33.7298795 L149.929492,37.0898795 L149.7748,37.6338301 C149.609306,38.2361758 149.486158,38.7598795 149.299492,39.5648795 L149.269492,39.5648795 L149.043261,38.5573892 C148.926367,38.0548013 148.813867,37.6130045 148.654492,37.0598795 L147.769492,33.7298795 L146.269492,33.7298795 L145.429492,36.9998795 L145.2748,37.5681511 C145.109306,38.193398 144.986158,38.7248795 144.799492,39.5648795 L144.769492,39.5648795 C144.585742,38.6723795 144.447929,38.0899576 144.255566,37.3553677 L143.299492,33.7298795 L141.424492,33.7298795 L143.794492,41.6948795 Z M153.79385,32.3498795 L155.68385,32.3498795 L155.68385,30.7448795 L153.79385,30.7448795 L153.79385,32.3498795 Z M153.80885,41.6948795 L155.66885,41.6948795 L155.66885,33.7298795 L153.80885,33.7298795 L153.80885,41.6948795 Z M157.898208,41.6948795 L159.758208,41.6948795 L159.758208,30.5948795 L157.898208,30.5948795 L157.898208,41.6948795 Z M161.987567,41.6948795 L163.847567,41.6948795 L163.847567,30.5948795 L161.987567,30.5948795 L161.987567,41.6948795 Z M169.776283,41.6948795 L171.636283,41.6948795 L171.636283,36.1898795 C172.311283,35.5748795 172.986283,35.1548795 173.796283,35.1548795 C174.606283,35.1548795 174.981283,35.5598795 174.981283,36.4448795 L174.981283,41.6948795 L176.841283,41.6948795 L176.841283,35.9798795 C176.841283,34.4048795 175.941283,33.5798795 174.546283,33.5798795 C173.106283,33.5798795 172.146283,34.2698795 171.636283,34.8098795 L171.636283,33.7298795 L169.776283,33.7298795 L169.776283,41.6948795 Z M182.265642,41.8598795 C184.200642,41.8598795 186.150642,40.6298795 186.150642,37.7198795 C186.150642,34.7798795 184.200642,33.5798795 182.265642,33.5798795 C180.315642,33.5798795 178.380642,34.7798795 178.380642,37.7198795 C178.380642,40.6298795 180.330642,41.8598795 182.265642,41.8598795 Z M182.265642,40.3148795 C180.855642,40.3148795 180.240642,39.2348795 180.240642,37.7198795 C180.240642,36.1148795 180.930642,35.1548795 182.265642,35.1548795 C183.660642,35.1548795 184.290642,36.2348795 184.290642,37.7198795 C184.290642,39.3548795 183.600642,40.3148795 182.265642,40.3148795 Z M190.659067,41.7970123 L190.87,41.7998795 C191.335,41.7998795 192.025,41.7398795 192.22,41.6948795 L192.22,40.2398795 C192.04,40.2998795 191.695,40.3448795 191.425,40.3448795 C190.51,40.3448795 190.255,39.9998795 190.255,39.1448795 L190.255,35.1998795 L192.31,35.1998795 L192.31,33.7298795 L190.255,33.7298795 L190.255,30.9548795 L188.41,30.9548795 L188.41,33.7298795 L187.03,33.7298795 L187.03,35.1998795 L188.41,35.1998795 L188.41,39.6098795 C188.41,40.9984509 188.814483,41.7454279 190.659067,41.7970123 L190.659067,41.7970123 Z M201.733717,41.8148795 C203.773717,41.8148795 205.138717,40.4648795 205.138717,37.7048795 C205.138717,34.9448795 203.803717,33.5798795 201.988717,33.5798795 C200.803717,33.5798795 199.978717,34.1498795 199.453717,34.7798795 L199.453717,30.5948795 L197.608717,30.5948795 L197.608717,41.6948795 L199.453717,41.6948795 L199.453717,40.8098795 C200.038717,41.4698795 200.878717,41.8148795 201.733717,41.8148795 Z M201.328717,40.3448795 C200.668717,40.3448795 199.948717,39.9998795 199.453717,39.3548795 L199.453717,36.1598795 C199.888717,35.6348795 200.623717,35.1548795 201.388717,35.1548795 C202.573717,35.1548795 203.293717,36.0398795 203.293717,37.7198795 C203.293717,39.4898795 202.723717,40.3448795 201.328717,40.3448795 Z M210.173075,41.8598795 C211.598075,41.8598795 212.693075,41.3348795 213.518075,40.4198795 L212.543075,39.4598795 C211.943075,40.0448795 211.343075,40.3898795 210.308075,40.3898795 C209.138075,40.3898795 208.253075,39.7598795 208.178075,38.3198795 L213.623075,38.3198795 L213.623075,37.8848795 C213.623075,34.6448795 211.913075,33.5798795 210.128075,33.5798795 C208.478075,33.5798795 206.333075,34.6898795 206.333075,37.7198795 C206.333075,40.6448795 208.178075,41.8598795 210.173075,41.8598795 Z M208.208075,36.9398795 C208.388075,35.5898795 209.213075,35.0798795 210.113075,35.0798795 C211.223075,35.0798795 211.823075,35.7248795 211.928075,36.9398795 L208.208075,36.9398795 Z M22.1354,58.8598795 C23.9504,58.8598795 25.4654,58.0798795 25.4654,56.3998795 C25.4654,54.8055938 24.2421347,54.3243693 23.0330385,54.0304917 L22.1091492,53.8206275 C21.3143446,53.6327687 20.6954,53.4139971 20.6954,52.8448795 C20.6954,52.3948795 21.0254,52.0348795 22.0454,52.0348795 C22.7654,52.0348795 23.7104,52.4248795 24.2954,52.9048795 L25.1804,51.7048795 C24.3554,51.0148795 23.4254,50.5798795 21.9104,50.5798795 C20.1554,50.5798795 18.9554,51.5248795 18.9554,52.9198795 C18.9554,54.5672009 20.258812,55.0306894 21.5096946,55.3353086 L22.2869205,55.5188272 C23.0947772,55.7169902 23.7254,55.9357618 23.7254,56.5048795 C23.7254,57.1648795 23.1254,57.4198795 22.1354,57.4198795 C21.1154,57.4198795 20.2304,56.9848795 19.6304,56.4748795 L18.6254,57.5998795 C19.3454,58.3348795 20.6654,58.8598795 22.1354,58.8598795 Z M27.9197583,61.7848795 C29.4262801,61.7848795 30.1230854,61.0300591 30.6402852,59.7435825 L34.0997583,50.7298795 L32.2697583,50.7298795 L30.2297583,56.5348795 L30.1997583,56.5348795 L28.1447583,50.7298795 L26.2247583,50.7298795 L29.2847583,58.7398795 L29.0597583,59.3248795 C28.8047583,59.9698795 28.4597583,60.2248795 27.7997583,60.2248795 C27.1547583,60.2248795 26.6747583,60.1198795 26.4497583,60.0598795 L26.0297583,61.5448795 L26.23955,61.5991156 C26.6155917,61.6911295 27.1322583,61.7848795 27.9197583,61.7848795 Z M35.2941167,58.6948795 L37.1541167,58.6948795 L37.1541167,53.1898795 C37.8291167,52.5748795 38.5041167,52.1548795 39.3141167,52.1548795 C40.1241167,52.1548795 40.4991167,52.5598795 40.4991167,53.4448795 L40.4991167,58.6948795 L42.3591167,58.6948795 L42.3591167,52.9798795 C42.3591167,51.4048795 41.4591167,50.5798795 40.0641167,50.5798795 C38.6241167,50.5798795 37.6641167,51.2698795 37.1541167,51.8098795 L37.1541167,50.7298795 L35.2941167,50.7298795 L35.2941167,58.6948795 Z M47.618475,58.8598795 C49.538475,58.8598795 50.483475,57.7948795 51.053475,56.5198795 L49.523475,55.9648795 C49.088475,57.0898795 48.503475,57.3448795 47.663475,57.3448795 C46.448475,57.3448795 45.758475,56.4148795 45.758475,54.7198795 C45.758475,52.8148795 46.643475,52.1248795 47.693475,52.1248795 C48.578475,52.1248795 49.148475,52.5598795 49.463475,53.4598795 L51.023475,52.9048795 C50.543475,51.6748795 49.703475,50.5798795 47.723475,50.5798795 C45.953475,50.5798795 43.898475,51.6748795 43.898475,54.7198795 C43.898475,57.6298795 45.773475,58.8598795 47.618475,58.8598795 Z M52.5328333,58.6948795 L54.3928333,58.6948795 L54.3928333,53.1898795 C55.0678333,52.5748795 55.7428333,52.1548795 56.5528333,52.1548795 C57.3628333,52.1548795 57.7378333,52.5598795 57.7378333,53.4448795 L57.7378333,58.6948795 L59.5978333,58.6948795 L59.5978333,52.9798795 C59.5978333,51.4048795 58.6978333,50.5798795 57.3028333,50.5798795 C55.8628333,50.5798795 54.9028333,51.2698795 54.3928333,51.8098795 L54.3928333,47.5948795 L52.5328333,47.5948795 L52.5328333,58.6948795 Z M61.5871917,58.6948795 L63.4321917,58.6948795 L63.4321917,53.6548795 C63.9571917,52.7998795 64.7071917,52.2448795 65.8921917,52.2448795 L66.2043117,52.2578395 C66.2815917,52.2628795 66.3511917,52.2688795 66.3871917,52.2748795 L66.4471917,50.5798795 L66.3271917,50.5798795 C64.8121917,50.5798795 63.9571917,51.2398795 63.4621917,52.0348795 L63.4321917,52.0348795 L63.4321917,50.7298795 L61.5871917,50.7298795 L61.5871917,58.6948795 Z M71.21155,58.8598795 C73.14655,58.8598795 75.09655,57.6298795 75.09655,54.7198795 C75.09655,51.7798795 73.14655,50.5798795 71.21155,50.5798795 C69.26155,50.5798795 67.32655,51.7798795 67.32655,54.7198795 C67.32655,57.6298795 69.27655,58.8598795 71.21155,58.8598795 Z M71.21155,57.3148795 C69.80155,57.3148795 69.18655,56.2348795 69.18655,54.7198795 C69.18655,53.1148795 69.87655,52.1548795 71.21155,52.1548795 C72.60655,52.1548795 73.23655,53.2348795 73.23655,54.7198795 C73.23655,56.3548795 72.54655,57.3148795 71.21155,57.3148795 Z M76.7259083,58.6948795 L78.5859083,58.6948795 L78.5859083,53.1898795 C79.2609083,52.5748795 79.9359083,52.1548795 80.7459083,52.1548795 C81.5559083,52.1548795 81.9309083,52.5598795 81.9309083,53.4448795 L81.9309083,58.6948795 L83.7909083,58.6948795 L83.7909083,52.9798795 C83.7909083,51.4048795 82.8909083,50.5798795 81.4959083,50.5798795 C80.0559083,50.5798795 79.0959083,51.2698795 78.5859083,51.8098795 L78.5859083,50.7298795 L76.7259083,50.7298795 L76.7259083,58.6948795 Z M85.8402666,49.3498795 L87.7302666,49.3498795 L87.7302666,47.7448795 L85.8402666,47.7448795 L85.8402666,49.3498795 Z M85.8552666,58.6948795 L87.7152666,58.6948795 L87.7152666,50.7298795 L85.8552666,50.7298795 L85.8552666,58.6948795 Z M89.344625,58.6948795 L96.154625,58.6948795 L96.154625,57.2698795 L91.639625,57.2698795 L95.899625,51.8398795 L95.899625,50.7298795 L89.659625,50.7298795 L89.659625,52.1998795 L93.589625,52.1998795 L89.344625,57.6298795 L89.344625,58.6948795 Z M101.068983,58.8598795 C102.493983,58.8598795 103.588983,58.3348795 104.413983,57.4198795 L103.438983,56.4598795 C102.838983,57.0448795 102.238983,57.3898795 101.203983,57.3898795 C100.033983,57.3898795 99.1489833,56.7598795 99.0739833,55.3198795 L104.518983,55.3198795 L104.518983,54.8848795 C104.518983,51.6448795 102.808983,50.5798795 101.023983,50.5798795 C99.3739833,50.5798795 97.2289833,51.6898795 97.2289833,54.7198795 C97.2289833,57.6448795 99.0739833,58.8598795 101.068983,58.8598795 Z M99.1039833,53.9398795 C99.2839833,52.5898795 100.108983,52.0798795 101.008983,52.0798795 C102.118983,52.0798795 102.718983,52.7248795 102.823983,53.9398795 L99.1039833,53.9398795 Z M108.863342,58.8148795 C110.048342,58.8148795 110.813342,58.2898795 111.398342,57.6148795 C111.398342,58.0198795 111.473342,58.4698795 111.578342,58.6948795 L113.483342,58.6948795 C113.318342,58.3236295 113.254175,57.8011295 113.244626,56.9771798 L113.243342,47.5948795 L111.398342,47.5948795 L111.398342,51.5848795 C110.813342,50.9248795 109.973342,50.5798795 109.118342,50.5798795 C107.078342,50.5798795 105.713342,51.9748795 105.713342,54.7348795 C105.713342,57.4948795 107.048342,58.8148795 108.863342,58.8148795 Z M109.463342,57.2998795 C108.278342,57.2998795 107.558342,56.4598795 107.558342,54.7798795 C107.558342,53.0098795 108.128342,52.1098795 109.523342,52.1098795 C110.183342,52.1098795 110.903342,52.4548795 111.398342,53.0998795 L111.398342,56.2948795 C110.963342,56.8198795 110.228342,57.2998795 109.463342,57.2998795 Z M123.222058,58.8148795 C125.262058,58.8148795 126.627058,57.4648795 126.627058,54.7048795 C126.627058,51.9448795 125.292058,50.5798795 123.477058,50.5798795 C122.292058,50.5798795 121.467058,51.1498795 120.942058,51.7798795 L120.942058,47.5948795 L119.097058,47.5948795 L119.097058,58.6948795 L120.942058,58.6948795 L120.942058,57.8098795 C121.527058,58.4698795 122.367058,58.8148795 123.222058,58.8148795 Z M122.817058,57.3448795 C122.157058,57.3448795 121.437058,56.9998795 120.942058,56.3548795 L120.942058,53.1598795 C121.377058,52.6348795 122.112058,52.1548795 122.877058,52.1548795 C124.062058,52.1548795 124.782058,53.0398795 124.782058,54.7198795 C124.782058,56.4898795 124.212058,57.3448795 122.817058,57.3448795 Z M130.011417,58.8148795 C131.196417,58.8148795 132.141417,58.4998795 132.951417,57.6748795 C132.951417,58.1248795 133.026417,58.3648795 133.131417,58.6948795 L134.991417,58.6948795 C134.841417,58.3266976 134.778193,57.8097555 134.767938,56.9975466 L134.766417,53.4598795 C134.766417,51.5998795 134.031417,50.5798795 131.901417,50.5798795 C130.251417,50.5798795 128.916417,51.2398795 128.061417,52.0198795 L128.961417,53.1748795 C129.636417,52.6348795 130.536417,52.0948795 131.646417,52.0948795 C132.531417,52.0948795 132.951417,52.4398795 132.951417,53.2348795 L132.951417,53.4748795 C129.231417,53.8948795 127.761417,55.0498795 127.761417,56.7748795 C127.761417,58.0948795 128.721417,58.8148795 130.011417,58.8148795 Z M130.686417,57.3898795 C130.011417,57.3898795 129.576417,57.0598795 129.576417,56.4298795 C129.576417,55.5598795 130.746417,55.0198795 132.951417,54.7198795 L132.951417,56.4748795 C132.366417,57.0298795 131.631417,57.3898795 130.686417,57.3898795 Z M140.025775,58.8598795 C141.945775,58.8598795 142.890775,57.7948795 143.460775,56.5198795 L141.930775,55.9648795 C141.495775,57.0898795 140.910775,57.3448795 140.070775,57.3448795 C138.855775,57.3448795 138.165775,56.4148795 138.165775,54.7198795 C138.165775,52.8148795 139.050775,52.1248795 140.100775,52.1248795 C140.985775,52.1248795 141.555775,52.5598795 141.870775,53.4598795 L143.430775,52.9048795 C142.950775,51.6748795 142.110775,50.5798795 140.130775,50.5798795 C138.360775,50.5798795 136.305775,51.6748795 136.305775,54.7198795 C136.305775,57.6298795 138.180775,58.8598795 140.025775,58.8598795 Z M144.940133,58.6948795 L146.785133,58.6948795 L146.785133,56.3998795 L148.060133,55.0048795 L150.115133,58.6948795 L152.050133,58.6948795 L149.230133,53.6398795 L151.825133,50.7298795 L149.800133,50.7298795 L146.785133,54.2098795 L146.785133,47.5948795 L144.940133,47.5948795 L144.940133,58.6948795 Z M160.047917,58.7970123 L160.25885,58.7998795 C160.72385,58.7998795 161.41385,58.7398795 161.60885,58.6948795 L161.60885,57.2398795 C161.42885,57.2998795 161.08385,57.3448795 160.81385,57.3448795 C159.89885,57.3448795 159.64385,56.9998795 159.64385,56.1448795 L159.64385,52.1998795 L161.69885,52.1998795 L161.69885,50.7298795 L159.64385,50.7298795 L159.64385,47.9548795 L157.79885,47.9548795 L157.79885,50.7298795 L156.41885,50.7298795 L156.41885,52.1998795 L157.79885,52.1998795 L157.79885,56.6098795 C157.79885,57.9984509 158.203333,58.7454279 160.047917,58.7970123 L160.047917,58.7970123 Z M166.658208,58.8598795 C168.593208,58.8598795 170.543208,57.6298795 170.543208,54.7198795 C170.543208,51.7798795 168.593208,50.5798795 166.658208,50.5798795 C164.708208,50.5798795 162.773208,51.7798795 162.773208,54.7198795 C162.773208,57.6298795 164.723208,58.8598795 166.658208,58.8598795 Z M166.658208,57.3148795 C165.248208,57.3148795 164.633208,56.2348795 164.633208,54.7198795 C164.633208,53.1148795 165.323208,52.1548795 166.658208,52.1548795 C168.053208,52.1548795 168.683208,53.2348795 168.683208,54.7198795 C168.683208,56.3548795 167.993208,57.3148795 166.658208,57.3148795 Z M180.056925,58.9048795 C182.696925,58.9048795 184.241925,57.4798795 184.241925,55.6648795 C184.241925,53.6493795 182.672058,52.9374295 180.670478,52.3366784 L180.461925,52.2748795 C178.646925,51.7348795 177.851925,51.3898795 177.851925,50.3548795 C177.851925,49.5448795 178.556925,49.0948795 179.786925,49.0948795 C180.986925,49.0948795 181.931925,49.6048795 182.591925,50.7148795 L183.956925,49.7698795 C183.281925,48.4648795 181.991925,47.3848795 179.801925,47.3848795 C177.551925,47.3848795 176.006925,48.6298795 176.006925,50.5198795 C176.006925,52.4938795 177.509592,53.1350795 179.453912,53.7240128 L179.876925,53.8498795 C181.706925,54.3898795 182.396925,54.8398795 182.396925,55.7998795 C182.396925,56.8048795 181.481925,57.2398795 180.131925,57.2398795 C178.751925,57.2398795 177.731925,56.6098795 177.071925,55.3048795 L175.586925,56.0848795 C176.291925,57.7648795 177.851925,58.9048795 180.056925,58.9048795 Z M187.806283,58.8148795 C188.991283,58.8148795 189.936283,58.4998795 190.746283,57.6748795 C190.746283,58.1248795 190.821283,58.3648795 190.926283,58.6948795 L192.786283,58.6948795 C192.636283,58.3266976 192.57306,57.8097555 192.562805,56.9975466 L192.561283,53.4598795 C192.561283,51.5998795 191.826283,50.5798795 189.696283,50.5798795 C188.046283,50.5798795 186.711283,51.2398795 185.856283,52.0198795 L186.756283,53.1748795 C187.431283,52.6348795 188.331283,52.0948795 189.441283,52.0948795 C190.326283,52.0948795 190.746283,52.4398795 190.746283,53.2348795 L190.746283,53.4748795 C187.026283,53.8948795 185.556283,55.0498795 185.556283,56.7748795 C185.556283,58.0948795 186.516283,58.8148795 187.806283,58.8148795 Z M188.481283,57.3898795 C187.806283,57.3898795 187.371283,57.0598795 187.371283,56.4298795 C187.371283,55.5598795 188.541283,55.0198795 190.746283,54.7198795 L190.746283,56.4748795 C190.161283,57.0298795 189.426283,57.3898795 188.481283,57.3898795 Z M194.625642,58.6948795 L196.485642,58.6948795 L196.485642,47.5948795 L194.625642,47.5948795 L194.625642,58.6948795 Z M202.03,58.8598795 C203.455,58.8598795 204.55,58.3348795 205.375,57.4198795 L204.4,56.4598795 C203.8,57.0448795 203.2,57.3898795 202.165,57.3898795 C200.995,57.3898795 200.11,56.7598795 200.035,55.3198795 L205.48,55.3198795 L205.48,54.8848795 C205.48,51.6448795 203.77,50.5798795 201.985,50.5798795 C200.335,50.5798795 198.19,51.6898795 198.19,54.7198795 C198.19,57.6448795 200.035,58.8598795 202.03,58.8598795 Z M200.065,53.9398795 C200.245,52.5898795 201.07,52.0798795 201.97,52.0798795 C203.08,52.0798795 203.68,52.7248795 203.785,53.9398795 L200.065,53.9398795 Z M210.019358,58.8598795 C211.834358,58.8598795 213.349358,58.0798795 213.349358,56.3998795 C213.349358,54.8055938 212.126093,54.3243693 210.916997,54.0304917 L209.993107,53.8206275 C209.198303,53.6327687 208.579358,53.4139971 208.579358,52.8448795 C208.579358,52.3948795 208.909358,52.0348795 209.929358,52.0348795 C210.649358,52.0348795 211.594358,52.4248795 212.179358,52.9048795 L213.064358,51.7048795 C212.239358,51.0148795 211.309358,50.5798795 209.794358,50.5798795 C208.039358,50.5798795 206.839358,51.5248795 206.839358,52.9198795 C206.839358,54.5672009 208.14277,55.0306894 209.393653,55.3353086 L210.170879,55.5188272 C210.978735,55.7169902 211.609358,55.9357618 211.609358,56.5048795 C211.609358,57.1648795 211.009358,57.4198795 210.019358,57.4198795 C208.999358,57.4198795 208.114358,56.9848795 207.514358,56.4748795 L206.509358,57.5998795 C207.229358,58.3348795 208.549358,58.8598795 210.019358,58.8598795 Z M215.653717,58.6948795 L217.498717,58.6948795 L217.498717,52.1998795 L219.238717,52.1998795 L219.238717,50.7298795 L217.498717,50.7298795 L217.498717,50.0248795 C217.498717,49.1698795 218.038717,48.9898795 218.698717,48.9898795 L218.928717,48.9987684 C219.088717,49.0098795 219.248717,49.0298795 219.328717,49.0498795 L219.328717,47.6248795 L218.930116,47.5874309 C218.700383,47.568398 218.425383,47.5498795 218.233717,47.5498795 C216.208717,47.5498795 215.653717,48.5848795 215.653717,49.9198795 L215.653717,50.7298795 L214.273717,50.7298795 L214.273717,52.1998795 L215.653717,52.1998795 L215.653717,58.6948795 Z M224.018075,58.8598795 C225.953075,58.8598795 227.903075,57.6298795 227.903075,54.7198795 C227.903075,51.7798795 225.953075,50.5798795 224.018075,50.5798795 C222.068075,50.5798795 220.133075,51.7798795 220.133075,54.7198795 C220.133075,57.6298795 222.083075,58.8598795 224.018075,58.8598795 Z M224.018075,57.3148795 C222.608075,57.3148795 221.993075,56.2348795 221.993075,54.7198795 C221.993075,53.1148795 222.683075,52.1548795 224.018075,52.1548795 C225.413075,52.1548795 226.043075,53.2348795 226.043075,54.7198795 C226.043075,56.3548795 225.353075,57.3148795 224.018075,57.3148795 Z M229.532433,58.6948795 L231.377433,58.6948795 L231.377433,53.6548795 C231.902433,52.7998795 232.652433,52.2448795 233.837433,52.2448795 L234.149553,52.2578395 C234.226833,52.2628795 234.296433,52.2688795 234.332433,52.2748795 L234.392433,50.5798795 L234.272433,50.5798795 C232.757433,50.5798795 231.902433,51.2398795 231.407433,52.0348795 L231.377433,52.0348795 L231.377433,50.7298795 L229.532433,50.7298795 L229.532433,58.6948795 Z M238.991792,58.8598795 C240.911792,58.8598795 241.856792,57.7948795 242.426792,56.5198795 L240.896792,55.9648795 C240.461792,57.0898795 239.876792,57.3448795 239.036792,57.3448795 C237.821792,57.3448795 237.131792,56.4148795 237.131792,54.7198795 C237.131792,52.8148795 238.016792,52.1248795 239.066792,52.1248795 C239.951792,52.1248795 240.521792,52.5598795 240.836792,53.4598795 L242.396792,52.9048795 C241.916792,51.6748795 241.076792,50.5798795 239.096792,50.5798795 C237.326792,50.5798795 235.271792,51.6748795 235.271792,54.7198795 C235.271792,57.6298795 237.146792,58.8598795 238.991792,58.8598795 Z M247.29615,58.8598795 C248.72115,58.8598795 249.81615,58.3348795 250.64115,57.4198795 L249.66615,56.4598795 C249.06615,57.0448795 248.46615,57.3898795 247.43115,57.3898795 C246.26115,57.3898795 245.37615,56.7598795 245.30115,55.3198795 L250.74615,55.3198795 L250.74615,54.8848795 C250.74615,51.6448795 249.03615,50.5798795 247.25115,50.5798795 C245.60115,50.5798795 243.45615,51.6898795 243.45615,54.7198795 C243.45615,57.6448795 245.30115,58.8598795 247.29615,58.8598795 Z M245.33115,53.9398795 C245.51115,52.5898795 246.33615,52.0798795 247.23615,52.0798795 C248.34615,52.0798795 248.94615,52.7248795 249.05115,53.9398795 L245.33115,53.9398795 Z M252.375508,58.6948795 L252.375508,56.7448795 L254.445508,56.7448795 L254.445508,58.6948795 L252.375508,58.6948795 Z" id="Inread-onlymode,changesmadeinyourdatabasewillnotbesynchronizedbacktoSalesforce." fill="#FFFFFF" fill-rule="nonzero"></path>
            </g>
        </g>
    </g>
</svg>