<?xml version="1.0" encoding="UTF-8"?>
<svg width="259px" height="122px" viewBox="0 0 259 122" version="1.1" xmlns="http://www.w3.org/2000/svg" xmlns:xlink="http://www.w3.org/1999/xlink">
    <!-- Generator: Sketch 59.1 (86144) - https://sketch.com -->
    <title>mobile-speech-1</title>
    <desc>Created with Sketch.</desc>
    <g id="Page-1" stroke="none" stroke-width="1" fill="none" fill-rule="evenodd">
        <g id="animation-mockup-rev2-copy-2" transform="translate(-58.000000, -231.000000)">
            <g id="mobile-speech-1" transform="translate(58.000000, 231.001667)">
                <g id="Group-8" transform="translate(129.500000, 28.694879) scale(1, -1) translate(-129.500000, -28.694879) translate(124.500000, 0.694879)">
                    <line x1="5.2515" y1="0.5522" x2="5.2515" y2="51.6652" id="Stroke-4" stroke="#231F20" stroke-width="2.207"></line>
                    <path d="M0.688,51.437 C0.688,53.957 2.732,56 5.251,56 C7.771,56 9.814,53.957 9.814,51.437 C9.814,48.917 7.771,46.875 5.251,46.875 C2.732,46.875 0.688,48.917 0.688,51.437" id="Fill-6" fill="#231F20"></path>
                </g>
                <rect id="Rectangle" fill="#231F20" x="0" y="46" width="259" height="76" rx="6"></rect>
                <path d="M15.3114,70.6948795 L17.1864,70.6948795 L17.1864,65.7598795 L22.2264,65.7598795 L22.2264,70.6948795 L24.1014,70.6948795 L24.1014,59.5948795 L22.2264,59.5948795 L22.2264,64.0198795 L17.1864,64.0198795 L17.1864,59.5948795 L15.3114,59.5948795 L15.3114,70.6948795 Z M29.7957583,70.8598795 C31.2207583,70.8598795 32.3157583,70.3348795 33.1407583,69.4198795 L32.1657583,68.4598795 C31.5657583,69.0448795 30.9657583,69.3898795 29.9307583,69.3898795 C28.7607583,69.3898795 27.8757583,68.7598795 27.8007583,67.3198795 L33.2457583,67.3198795 L33.2457583,66.8848795 C33.2457583,63.6448795 31.5357583,62.5798795 29.7507583,62.5798795 C28.1007583,62.5798795 25.9557583,63.6898795 25.9557583,66.7198795 C25.9557583,69.6448795 27.8007583,70.8598795 29.7957583,70.8598795 Z M27.8307583,65.9398795 C28.0107583,64.5898795 28.8357583,64.0798795 29.7357583,64.0798795 C30.8457583,64.0798795 31.4457583,64.7248795 31.5507583,65.9398795 L27.8307583,65.9398795 Z M34.8751167,70.6948795 L36.7201167,70.6948795 L36.7201167,65.6548795 C37.2451167,64.7998795 37.9951167,64.2448795 39.1801167,64.2448795 L39.4922367,64.2578395 C39.5695167,64.2628795 39.6391167,64.2688795 39.6751167,64.2748795 L39.7351167,62.5798795 L39.6151167,62.5798795 C38.1001167,62.5798795 37.2451167,63.2398795 36.7501167,64.0348795 L36.7201167,64.0348795 L36.7201167,62.7298795 L34.8751167,62.7298795 L34.8751167,70.6948795 Z M44.499475,70.8598795 C46.434475,70.8598795 48.384475,69.6298795 48.384475,66.7198795 C48.384475,63.7798795 46.434475,62.5798795 44.499475,62.5798795 C42.549475,62.5798795 40.614475,63.7798795 40.614475,66.7198795 C40.614475,69.6298795 42.564475,70.8598795 44.499475,70.8598795 Z M44.499475,69.3148795 C43.089475,69.3148795 42.474475,68.2348795 42.474475,66.7198795 C42.474475,65.1148795 43.164475,64.1548795 44.499475,64.1548795 C45.894475,64.1548795 46.524475,65.2348795 46.524475,66.7198795 C46.524475,68.3548795 45.834475,69.3148795 44.499475,69.3148795 Z M50.0138333,70.6948795 L51.8588333,70.6948795 L51.8588333,68.3998795 L53.1338333,67.0048795 L55.1888333,70.6948795 L57.1238333,70.6948795 L54.3038333,65.6398795 L56.8988333,62.7298795 L54.8738333,62.7298795 L51.8588333,66.2098795 L51.8588333,59.5948795 L50.0138333,59.5948795 L50.0138333,70.6948795 Z M60.6731917,70.8448795 C62.1131917,70.8448795 63.0731917,70.1548795 63.5831917,69.6148795 L63.5831917,70.6948795 L65.4431917,70.6948795 L65.4431917,62.7298795 L63.5831917,62.7298795 L63.5831917,68.2648795 C62.9081917,68.8798795 62.2331917,69.2998795 61.4231917,69.2998795 C60.6131917,69.2998795 60.2381917,68.8948795 60.2381917,68.0098795 L60.2381917,62.7298795 L58.3781917,62.7298795 L58.3781917,68.4448795 C58.3781917,70.0198795 59.2781917,70.8448795 60.6731917,70.8448795 Z M75.8569083,70.9048795 C78.4219083,70.9048795 79.7869083,69.4198795 80.3269083,67.2148795 L78.5419083,66.8098795 C78.1219083,68.4748795 77.3119083,69.1948795 75.8719083,69.1948795 C73.9969083,69.1948795 72.8719083,67.7398795 72.8719083,65.0998795 C72.8719083,62.5798795 73.9669083,61.1248795 75.8419083,61.1248795 C77.3119083,61.1248795 77.9569083,61.8748795 78.3769083,63.3448795 L80.1619083,62.8348795 C79.6669083,60.8098795 78.4369083,59.3848795 75.8569083,59.3848795 C73.0669083,59.3848795 70.9819083,61.3948795 70.9819083,65.1148795 C70.9819083,68.9398795 73.0069083,70.9048795 75.8569083,70.9048795 Z M85.4962666,70.8598795 C87.4312666,70.8598795 89.3812666,69.6298795 89.3812666,66.7198795 C89.3812666,63.7798795 87.4312666,62.5798795 85.4962666,62.5798795 C83.5462666,62.5798795 81.6112666,63.7798795 81.6112666,66.7198795 C81.6112666,69.6298795 83.5612666,70.8598795 85.4962666,70.8598795 Z M85.4962666,69.3148795 C84.0862666,69.3148795 83.4712666,68.2348795 83.4712666,66.7198795 C83.4712666,65.1148795 84.1612666,64.1548795 85.4962666,64.1548795 C86.8912666,64.1548795 87.5212666,65.2348795 87.5212666,66.7198795 C87.5212666,68.3548795 86.8312666,69.3148795 85.4962666,69.3148795 Z M91.010625,70.6948795 L92.870625,70.6948795 L92.870625,65.1898795 C93.545625,64.5748795 94.220625,64.1548795 95.030625,64.1548795 C95.840625,64.1548795 96.215625,64.5598795 96.215625,65.4448795 L96.215625,70.6948795 L98.075625,70.6948795 L98.075625,64.9798795 C98.075625,63.4048795 97.175625,62.5798795 95.780625,62.5798795 C94.340625,62.5798795 93.380625,63.2698795 92.870625,63.8098795 L92.870625,62.7298795 L91.010625,62.7298795 L91.010625,70.6948795 Z M100.064983,70.6948795 L101.924983,70.6948795 L101.924983,65.1898795 C102.599983,64.5748795 103.274983,64.1548795 104.084983,64.1548795 C104.894983,64.1548795 105.269983,64.5598795 105.269983,65.4448795 L105.269983,70.6948795 L107.129983,70.6948795 L107.129983,64.9798795 C107.129983,63.4048795 106.229983,62.5798795 104.834983,62.5798795 C103.394983,62.5798795 102.434983,63.2698795 101.924983,63.8098795 L101.924983,62.7298795 L100.064983,62.7298795 L100.064983,70.6948795 Z M112.509342,70.8598795 C113.934342,70.8598795 115.029342,70.3348795 115.854342,69.4198795 L114.879342,68.4598795 C114.279342,69.0448795 113.679342,69.3898795 112.644342,69.3898795 C111.474342,69.3898795 110.589342,68.7598795 110.514342,67.3198795 L115.959342,67.3198795 L115.959342,66.8848795 C115.959342,63.6448795 114.249342,62.5798795 112.464342,62.5798795 C110.814342,62.5798795 108.669342,63.6898795 108.669342,66.7198795 C108.669342,69.6448795 110.514342,70.8598795 112.509342,70.8598795 Z M110.544342,65.9398795 C110.724342,64.5898795 111.549342,64.0798795 112.449342,64.0798795 C113.559342,64.0798795 114.159342,64.7248795 114.264342,65.9398795 L110.544342,65.9398795 Z M120.8587,70.8598795 C122.7787,70.8598795 123.7237,69.7948795 124.2937,68.5198795 L122.7637,67.9648795 C122.3287,69.0898795 121.7437,69.3448795 120.9037,69.3448795 C119.6887,69.3448795 118.9987,68.4148795 118.9987,66.7198795 C118.9987,64.8148795 119.8837,64.1248795 120.9337,64.1248795 C121.8187,64.1248795 122.3887,64.5598795 122.7037,65.4598795 L124.2637,64.9048795 C123.7837,63.6748795 122.9437,62.5798795 120.9637,62.5798795 C119.1937,62.5798795 117.1387,63.6748795 117.1387,66.7198795 C117.1387,69.6298795 119.0137,70.8598795 120.8587,70.8598795 Z M128.652126,70.7970123 L128.863058,70.7998795 C129.328058,70.7998795 130.018058,70.7398795 130.213058,70.6948795 L130.213058,69.2398795 C130.033058,69.2998795 129.688058,69.3448795 129.418058,69.3448795 C128.503058,69.3448795 128.248058,68.9998795 128.248058,68.1448795 L128.248058,64.1998795 L130.303058,64.1998795 L130.303058,62.7298795 L128.248058,62.7298795 L128.248058,59.9548795 L126.403058,59.9548795 L126.403058,62.7298795 L125.023058,62.7298795 L125.023058,64.1998795 L126.403058,64.1998795 L126.403058,68.6098795 C126.403058,69.9984509 126.807542,70.7454279 128.652126,70.7970123 L128.652126,70.7970123 Z M137.116775,70.6948795 L138.826775,70.6948795 L140.266775,65.1598795 L140.296775,65.1598795 L141.736775,70.6948795 L143.461775,70.6948795 L145.831775,62.7298795 L144.151775,62.7298795 L143.251775,66.0898795 C142.996775,66.9598795 142.861775,67.5298795 142.621775,68.5648795 L142.591775,68.5648795 L142.365544,67.5573892 C142.24865,67.0548013 142.13615,66.6130045 141.976775,66.0598795 L141.091775,62.7298795 L139.591775,62.7298795 L138.751775,65.9998795 L138.597084,66.5681511 C138.43159,67.193398 138.308442,67.7248795 138.121775,68.5648795 L138.091775,68.5648795 L137.943181,67.8650357 C137.848494,67.4347232 137.759431,67.0625357 137.657244,66.6622232 L136.621775,62.7298795 L134.746775,62.7298795 L137.116775,70.6948795 Z M147.116133,61.3498795 L149.006133,61.3498795 L149.006133,59.7448795 L147.116133,59.7448795 L147.116133,61.3498795 Z M147.131133,70.6948795 L148.991133,70.6948795 L148.991133,62.7298795 L147.131133,62.7298795 L147.131133,70.6948795 Z M151.220492,70.6948795 L153.080492,70.6948795 L153.080492,59.5948795 L151.220492,59.5948795 L151.220492,70.6948795 Z M155.30985,70.6948795 L157.16985,70.6948795 L157.16985,59.5948795 L155.30985,59.5948795 L155.30985,70.6948795 Z M163.098567,73.6948795 L164.943567,73.6948795 L164.943567,69.8098795 C165.528567,70.4698795 166.368567,70.8148795 167.223567,70.8148795 C169.263567,70.8148795 170.628567,69.4648795 170.628567,66.7048795 C170.628567,63.9448795 169.293567,62.5798795 167.478567,62.5798795 C166.293567,62.5798795 165.468567,63.1498795 164.943567,63.7798795 L164.943567,62.7298795 L163.098567,62.7298795 L163.098567,73.6948795 Z M166.818567,69.3448795 C166.158567,69.3448795 165.438567,68.9998795 164.943567,68.3548795 L164.943567,65.1598795 C165.378567,64.6348795 166.113567,64.1548795 166.878567,64.1548795 C168.063567,64.1548795 168.783567,65.0398795 168.783567,66.7198795 C168.783567,68.4898795 168.213567,69.3448795 166.818567,69.3448795 Z M175.707925,70.8598795 C177.642925,70.8598795 179.592925,69.6298795 179.592925,66.7198795 C179.592925,63.7798795 177.642925,62.5798795 175.707925,62.5798795 C173.757925,62.5798795 171.822925,63.7798795 171.822925,66.7198795 C171.822925,69.6298795 173.772925,70.8598795 175.707925,70.8598795 Z M175.707925,69.3148795 C174.297925,69.3148795 173.682925,68.2348795 173.682925,66.7198795 C173.682925,65.1148795 174.372925,64.1548795 175.707925,64.1548795 C177.102925,64.1548795 177.732925,65.2348795 177.732925,66.7198795 C177.732925,68.3548795 177.042925,69.3148795 175.707925,69.3148795 Z M181.297283,70.6948795 L183.157283,70.6948795 L183.157283,59.5948795 L181.297283,59.5948795 L181.297283,70.6948795 Z M185.386642,70.6948795 L187.246642,70.6948795 L187.246642,59.5948795 L185.386642,59.5948795 L185.386642,70.6948795 Z M194.015358,73.7848795 C195.52188,73.7848795 196.218685,73.0300591 196.735885,71.7435825 L200.195358,62.7298795 L198.365358,62.7298795 L196.325358,68.5348795 L196.295358,68.5348795 L194.240358,62.7298795 L192.320358,62.7298795 L195.380358,70.7398795 L195.155358,71.3248795 C194.900358,71.9698795 194.555358,72.2248795 193.895358,72.2248795 C193.250358,72.2248795 192.770358,72.1198795 192.545358,72.0598795 L192.125358,73.5448795 L192.33515,73.5991156 C192.711192,73.6911295 193.227858,73.7848795 194.015358,73.7848795 Z M204.824717,70.8598795 C206.759717,70.8598795 208.709717,69.6298795 208.709717,66.7198795 C208.709717,63.7798795 206.759717,62.5798795 204.824717,62.5798795 C202.874717,62.5798795 200.939717,63.7798795 200.939717,66.7198795 C200.939717,69.6298795 202.889717,70.8598795 204.824717,70.8598795 Z M204.824717,69.3148795 C203.414717,69.3148795 202.799717,68.2348795 202.799717,66.7198795 C202.799717,65.1148795 203.489717,64.1548795 204.824717,64.1548795 C206.219717,64.1548795 206.849717,65.2348795 206.849717,66.7198795 C206.849717,68.3548795 206.159717,69.3148795 204.824717,69.3148795 Z M212.544075,70.8448795 C213.984075,70.8448795 214.944075,70.1548795 215.454075,69.6148795 L215.454075,70.6948795 L217.314075,70.6948795 L217.314075,62.7298795 L215.454075,62.7298795 L215.454075,68.2648795 C214.779075,68.8798795 214.104075,69.2998795 213.294075,69.2998795 C212.484075,69.2998795 212.109075,68.8948795 212.109075,68.0098795 L212.109075,62.7298795 L210.249075,62.7298795 L210.249075,68.4448795 C210.249075,70.0198795 211.149075,70.8448795 212.544075,70.8448795 Z M219.393433,70.6948795 L221.238433,70.6948795 L221.238433,65.6548795 C221.763433,64.7998795 222.513433,64.2448795 223.698433,64.2448795 L224.010553,64.2578395 C224.087833,64.2628795 224.157433,64.2688795 224.193433,64.2748795 L224.253433,62.5798795 L224.133433,62.5798795 C222.618433,62.5798795 221.763433,63.2398795 221.268433,64.0348795 L221.238433,64.0348795 L221.238433,62.7298795 L219.393433,62.7298795 L219.393433,70.6948795 Z M19.1964,87.9048795 C21.8364,87.9048795 23.3814,86.4798795 23.3814,84.6648795 C23.3814,82.6493795 21.8115333,81.9374295 19.8099533,81.3366784 L19.6014,81.2748795 C17.7864,80.7348795 16.9914,80.3898795 16.9914,79.3548795 C16.9914,78.5448795 17.6964,78.0948795 18.9264,78.0948795 C20.1264,78.0948795 21.0714,78.6048795 21.7314,79.7148795 L23.0964,78.7698795 C22.4214,77.4648795 21.1314,76.3848795 18.9414,76.3848795 C16.6914,76.3848795 15.1464,77.6298795 15.1464,79.5198795 C15.1464,81.4233795 16.54365,82.0875795 18.386805,82.6606545 L19.0164,82.8498795 C20.8464,83.3898795 21.5364,83.8398795 21.5364,84.7998795 C21.5364,85.8048795 20.6214,86.2398795 19.2714,86.2398795 C17.8914,86.2398795 16.8714,85.6098795 16.2114,84.3048795 L14.7264,85.0848795 C15.4314,86.7648795 16.9914,87.9048795 19.1964,87.9048795 Z M26.9457583,87.8148795 C28.1307583,87.8148795 29.0757583,87.4998795 29.8857583,86.6748795 C29.8857583,87.1248795 29.9607583,87.3648795 30.0657583,87.6948795 L31.9257583,87.6948795 C31.7607583,87.2898795 31.7007583,86.7048795 31.7007583,85.7448795 L31.7007583,82.4598795 C31.7007583,80.5998795 30.9657583,79.5798795 28.8357583,79.5798795 C27.1857583,79.5798795 25.8507583,80.2398795 24.9957583,81.0198795 L25.8957583,82.1748795 C26.5707583,81.6348795 27.4707583,81.0948795 28.5807583,81.0948795 C29.4657583,81.0948795 29.8857583,81.4398795 29.8857583,82.2348795 L29.8857583,82.4748795 C26.1657583,82.8948795 24.6957583,84.0498795 24.6957583,85.7748795 C24.6957583,87.0948795 25.6557583,87.8148795 26.9457583,87.8148795 Z M27.6207583,86.3898795 C26.9457583,86.3898795 26.5107583,86.0598795 26.5107583,85.4298795 C26.5107583,84.5598795 27.6807583,84.0198795 29.8857583,83.7198795 L29.8857583,85.4748795 C29.3007583,86.0298795 28.5657583,86.3898795 27.6207583,86.3898795 Z M33.7651167,87.6948795 L35.6251167,87.6948795 L35.6251167,76.5948795 L33.7651167,76.5948795 L33.7651167,87.6948795 Z M41.169475,87.8598795 C42.594475,87.8598795 43.689475,87.3348795 44.514475,86.4198795 L43.539475,85.4598795 C42.939475,86.0448795 42.339475,86.3898795 41.304475,86.3898795 C40.134475,86.3898795 39.249475,85.7598795 39.174475,84.3198795 L44.619475,84.3198795 L44.619475,83.8848795 C44.619475,80.6448795 42.909475,79.5798795 41.124475,79.5798795 C39.474475,79.5798795 37.329475,80.6898795 37.329475,83.7198795 C37.329475,86.6448795 39.174475,87.8598795 41.169475,87.8598795 Z M39.204475,82.9398795 C39.384475,81.5898795 40.209475,81.0798795 41.109475,81.0798795 C42.219475,81.0798795 42.819475,81.7248795 42.924475,82.9398795 L39.204475,82.9398795 Z M49.1588333,87.8598795 C50.9738333,87.8598795 52.4888333,87.0798795 52.4888333,85.3998795 C52.4888333,83.8055938 51.265568,83.3243693 50.0564718,83.0304917 L49.1325826,82.8206275 C48.337778,82.6327687 47.7188333,82.4139971 47.7188333,81.8448795 C47.7188333,81.3948795 48.0488333,81.0348795 49.0688333,81.0348795 C49.7888333,81.0348795 50.7338333,81.4248795 51.3188333,81.9048795 L52.2038333,80.7048795 C51.3788333,80.0148795 50.4488333,79.5798795 48.9338333,79.5798795 C47.1788333,79.5798795 45.9788333,80.5248795 45.9788333,81.9198795 C45.9788333,83.6330938 47.3886037,84.0658744 48.6828949,84.3711659 L49.3103538,84.5188272 C50.1182105,84.7169902 50.7488333,84.9357618 50.7488333,85.5048795 C50.7488333,86.1648795 50.1488333,86.4198795 49.1588333,86.4198795 C48.1388333,86.4198795 47.2538333,85.9848795 46.6538333,85.4748795 L45.6488333,86.5998795 C46.3688333,87.3348795 47.6888333,87.8598795 49.1588333,87.8598795 Z M54.7931917,87.6948795 L56.6381917,87.6948795 L56.6381917,81.1998795 L58.3781917,81.1998795 L58.3781917,79.7298795 L56.6381917,79.7298795 L56.6381917,79.0248795 C56.6381917,78.1698795 57.1781917,77.9898795 57.8381917,77.9898795 L58.0681917,77.9987684 C58.2281917,78.0098795 58.3881917,78.0298795 58.4681917,78.0498795 L58.4681917,76.6248795 L58.0695908,76.5874309 C57.8398583,76.568398 57.5648583,76.5498795 57.3731917,76.5498795 C55.3481917,76.5498795 54.7931917,77.5848795 54.7931917,78.9198795 L54.7931917,79.7298795 L53.4131917,79.7298795 L53.4131917,81.1998795 L54.7931917,81.1998795 L54.7931917,87.6948795 Z M63.15755,87.8598795 C65.09255,87.8598795 67.04255,86.6298795 67.04255,83.7198795 C67.04255,80.7798795 65.09255,79.5798795 63.15755,79.5798795 C61.20755,79.5798795 59.27255,80.7798795 59.27255,83.7198795 C59.27255,86.6298795 61.22255,87.8598795 63.15755,87.8598795 Z M63.15755,86.3148795 C61.74755,86.3148795 61.13255,85.2348795 61.13255,83.7198795 C61.13255,82.1148795 61.82255,81.1548795 63.15755,81.1548795 C64.55255,81.1548795 65.18255,82.2348795 65.18255,83.7198795 C65.18255,85.3548795 64.49255,86.3148795 63.15755,86.3148795 Z M68.6719083,87.6948795 L70.5169083,87.6948795 L70.5169083,82.6548795 C71.0419083,81.7998795 71.7919083,81.2448795 72.9769083,81.2448795 L73.2890283,81.2578395 C73.3663083,81.2628795 73.4359083,81.2688795 73.4719083,81.2748795 L73.5319083,79.5798795 L73.4119083,79.5798795 C71.8969083,79.5798795 71.0419083,80.2398795 70.5469083,81.0348795 L70.5169083,81.0348795 L70.5169083,79.7298795 L68.6719083,79.7298795 L68.6719083,87.6948795 Z M78.1312666,87.8598795 C80.0512666,87.8598795 80.9962666,86.7948795 81.5662666,85.5198795 L80.0362666,84.9648795 C79.6012666,86.0898795 79.0162666,86.3448795 78.1762666,86.3448795 C76.9612666,86.3448795 76.2712666,85.4148795 76.2712666,83.7198795 C76.2712666,81.8148795 77.1562666,81.1248795 78.2062666,81.1248795 C79.0912666,81.1248795 79.6612666,81.5598795 79.9762666,82.4598795 L81.5362666,81.9048795 C81.0562666,80.6748795 80.2162666,79.5798795 78.2362666,79.5798795 C76.4662666,79.5798795 74.4112666,80.6748795 74.4112666,83.7198795 C74.4112666,86.6298795 76.2862666,87.8598795 78.1312666,87.8598795 Z M86.435625,87.8598795 C87.860625,87.8598795 88.955625,87.3348795 89.780625,86.4198795 L88.805625,85.4598795 C88.205625,86.0448795 87.605625,86.3898795 86.570625,86.3898795 C85.400625,86.3898795 84.515625,85.7598795 84.440625,84.3198795 L89.885625,84.3198795 L89.885625,83.8848795 C89.885625,80.6448795 88.175625,79.5798795 86.390625,79.5798795 C84.740625,79.5798795 82.595625,80.6898795 82.595625,83.7198795 C82.595625,86.6448795 84.440625,87.8598795 86.435625,87.8598795 Z M84.470625,82.9398795 C84.650625,81.5898795 85.475625,81.0798795 86.375625,81.0798795 C87.485625,81.0798795 88.085625,81.7248795 88.190625,82.9398795 L84.470625,82.9398795 Z M98.7243416,87.8598795 C100.659342,87.8598795 102.609342,86.6298795 102.609342,83.7198795 C102.609342,80.7798795 100.659342,79.5798795 98.7243416,79.5798795 C96.7743416,79.5798795 94.8393416,80.7798795 94.8393416,83.7198795 C94.8393416,86.6298795 96.7893416,87.8598795 98.7243416,87.8598795 Z M98.7243416,86.3148795 C97.3143416,86.3148795 96.6993416,85.2348795 96.6993416,83.7198795 C96.6993416,82.1148795 97.3893416,81.1548795 98.7243416,81.1548795 C100.119342,81.1548795 100.749342,82.2348795 100.749342,83.7198795 C100.749342,85.3548795 100.059342,86.3148795 98.7243416,86.3148795 Z M104.2387,87.6948795 L106.0837,87.6948795 L106.0837,82.6548795 C106.6087,81.7998795 107.3587,81.2448795 108.5437,81.2448795 L108.85582,81.2578395 C108.9331,81.2628795 109.0027,81.2688795 109.0387,81.2748795 L109.0987,79.5798795 L108.9787,79.5798795 C107.4637,79.5798795 106.6087,80.2398795 106.1137,81.0348795 L106.0837,81.0348795 L106.0837,79.7298795 L104.2387,79.7298795 L104.2387,87.6948795 Z M113.428058,90.7848795 C115.888058,90.7848795 117.538058,89.9898795 117.538058,88.3548795 C117.538058,86.9598795 116.608058,86.3298795 114.253058,86.1798795 L112.843058,86.0898795 C112.138058,86.0298795 111.928058,85.9248795 111.928058,85.6098795 C111.928058,85.3998795 112.093058,85.2348795 112.333058,85.0998795 C112.723058,85.2048795 112.993058,85.2648795 113.443058,85.2648795 C115.513058,85.2648795 116.758058,84.0948795 116.758058,82.4298795 C116.758058,82.0098795 116.653058,81.6348795 116.473058,81.3498795 C116.998058,81.1848795 117.508058,81.1398795 117.868058,81.1398795 L117.868058,79.6398795 C117.208058,79.6998795 116.398058,80.0148795 115.888058,80.4198795 C115.348058,79.9398795 114.538058,79.5798795 113.443058,79.5798795 C111.358058,79.5798795 110.098058,80.7948795 110.098058,82.4298795 C110.098058,83.4048795 110.548058,84.2148795 111.358058,84.7248795 C110.758058,85.0848795 110.278058,85.5798795 110.278058,86.1798795 C110.278058,86.6148795 110.488058,86.9448795 110.893058,87.1548795 C110.083058,87.4698795 109.588058,88.0398795 109.588058,88.8348795 C109.588058,89.9898795 110.683058,90.7848795 113.428058,90.7848795 Z M113.473058,83.9898795 C112.453058,83.9898795 111.838058,83.4648795 111.838058,82.4898795 C111.838058,81.5148795 112.438058,80.9598795 113.458058,80.9598795 C114.508058,80.9598795 115.078058,81.4998795 115.078058,82.4898795 C115.078058,83.4648795 114.478058,83.9898795 113.473058,83.9898795 Z M113.713058,89.4498795 C112.093058,89.4498795 111.283058,89.2248795 111.283058,88.5198795 C111.283058,88.1148795 111.493058,87.7398795 112.018058,87.4998795 C112.183058,87.5298795 112.333058,87.5448795 112.498058,87.5448795 L113.878058,87.6348795 L114.273638,87.6648203 C115.565431,87.7791233 115.903058,87.9994447 115.903058,88.5198795 C115.903058,89.0898795 115.063058,89.4498795 113.713058,89.4498795 Z M123.706775,87.6948795 L125.551775,87.6948795 L125.551775,81.1998795 L127.291775,81.1998795 L127.291775,79.7298795 L125.551775,79.7298795 L125.551775,79.0248795 C125.551775,78.1698795 126.091775,77.9898795 126.751775,77.9898795 L126.981775,77.9987684 C127.141775,78.0098795 127.301775,78.0298795 127.381775,78.0498795 L127.381775,76.6248795 L126.983174,76.5874309 C126.753442,76.568398 126.478442,76.5498795 126.286775,76.5498795 C124.261775,76.5498795 123.706775,77.5848795 123.706775,78.9198795 L123.706775,79.7298795 L122.326775,79.7298795 L122.326775,81.1998795 L123.706775,81.1998795 L123.706775,87.6948795 Z M132.071133,87.8598795 C134.006133,87.8598795 135.956133,86.6298795 135.956133,83.7198795 C135.956133,80.7798795 134.006133,79.5798795 132.071133,79.5798795 C130.121133,79.5798795 128.186133,80.7798795 128.186133,83.7198795 C128.186133,86.6298795 130.136133,87.8598795 132.071133,87.8598795 Z M132.071133,86.3148795 C130.661133,86.3148795 130.046133,85.2348795 130.046133,83.7198795 C130.046133,82.1148795 130.736133,81.1548795 132.071133,81.1548795 C133.466133,81.1548795 134.096133,82.2348795 134.096133,83.7198795 C134.096133,85.3548795 133.406133,86.3148795 132.071133,86.3148795 Z M137.585492,87.6948795 L139.430492,87.6948795 L139.430492,82.6548795 C139.955492,81.7998795 140.705492,81.2448795 141.890492,81.2448795 L142.202612,81.2578395 C142.279892,81.2628795 142.349492,81.2688795 142.385492,81.2748795 L142.445492,79.5798795 L142.325492,79.5798795 C140.810492,79.5798795 139.955492,80.2398795 139.460492,81.0348795 L139.430492,81.0348795 L139.430492,79.7298795 L137.585492,79.7298795 L137.585492,87.6948795 Z M150.819208,87.8598795 C152.739208,87.8598795 153.684208,86.7948795 154.254208,85.5198795 L152.724208,84.9648795 C152.289208,86.0898795 151.704208,86.3448795 150.864208,86.3448795 C149.649208,86.3448795 148.959208,85.4148795 148.959208,83.7198795 C148.959208,81.8148795 149.844208,81.1248795 150.894208,81.1248795 C151.779208,81.1248795 152.349208,81.5598795 152.664208,82.4598795 L154.224208,81.9048795 C153.744208,80.6748795 152.904208,79.5798795 150.924208,79.5798795 C149.154208,79.5798795 147.099208,80.6748795 147.099208,83.7198795 C147.099208,86.6298795 148.974208,87.8598795 150.819208,87.8598795 Z M155.733567,87.6948795 L157.593567,87.6948795 L157.593567,82.1898795 C158.268567,81.5748795 158.943567,81.1548795 159.753567,81.1548795 C160.563567,81.1548795 160.938567,81.5598795 160.938567,82.4448795 L160.938567,87.6948795 L162.798567,87.6948795 L162.798567,81.9798795 C162.798567,80.4048795 161.898567,79.5798795 160.503567,79.5798795 C159.063567,79.5798795 158.103567,80.2698795 157.593567,80.8098795 L157.593567,76.5948795 L155.733567,76.5948795 L155.733567,87.6948795 Z M166.527925,87.8148795 C167.712925,87.8148795 168.657925,87.4998795 169.467925,86.6748795 C169.467925,87.1248795 169.542925,87.3648795 169.647925,87.6948795 L171.507925,87.6948795 C171.342925,87.2898795 171.282925,86.7048795 171.282925,85.7448795 L171.282925,82.4598795 C171.282925,80.5998795 170.547925,79.5798795 168.417925,79.5798795 C166.767925,79.5798795 165.432925,80.2398795 164.577925,81.0198795 L165.477925,82.1748795 C166.152925,81.6348795 167.052925,81.0948795 168.162925,81.0948795 C169.047925,81.0948795 169.467925,81.4398795 169.467925,82.2348795 L169.467925,82.4748795 C165.747925,82.8948795 164.277925,84.0498795 164.277925,85.7748795 C164.277925,87.0948795 165.237925,87.8148795 166.527925,87.8148795 Z M167.202925,86.3898795 C166.527925,86.3898795 166.092925,86.0598795 166.092925,85.4298795 C166.092925,84.5598795 167.262925,84.0198795 169.467925,83.7198795 L169.467925,85.4748795 C168.882925,86.0298795 168.147925,86.3898795 167.202925,86.3898795 Z M173.272283,87.6948795 L175.132283,87.6948795 L175.132283,82.1898795 C175.807283,81.5748795 176.482283,81.1548795 177.292283,81.1548795 C178.102283,81.1548795 178.477283,81.5598795 178.477283,82.4448795 L178.477283,87.6948795 L180.337283,87.6948795 L180.337283,81.9798795 C180.337283,80.4048795 179.437283,79.5798795 178.042283,79.5798795 C176.602283,79.5798795 175.642283,80.2698795 175.132283,80.8098795 L175.132283,79.7298795 L173.272283,79.7298795 L173.272283,87.6948795 Z M185.326642,90.7848795 C187.786642,90.7848795 189.436642,89.9898795 189.436642,88.3548795 C189.436642,86.9598795 188.506642,86.3298795 186.151642,86.1798795 L184.741642,86.0898795 C184.036642,86.0298795 183.826642,85.9248795 183.826642,85.6098795 C183.826642,85.3998795 183.991642,85.2348795 184.231642,85.0998795 C184.621642,85.2048795 184.891642,85.2648795 185.341642,85.2648795 C187.411642,85.2648795 188.656642,84.0948795 188.656642,82.4298795 C188.656642,82.0098795 188.551642,81.6348795 188.371642,81.3498795 C188.896642,81.1848795 189.406642,81.1398795 189.766642,81.1398795 L189.766642,79.6398795 C189.106642,79.6998795 188.296642,80.0148795 187.786642,80.4198795 C187.246642,79.9398795 186.436642,79.5798795 185.341642,79.5798795 C183.256642,79.5798795 181.996642,80.7948795 181.996642,82.4298795 C181.996642,83.4048795 182.446642,84.2148795 183.256642,84.7248795 C182.656642,85.0848795 182.176642,85.5798795 182.176642,86.1798795 C182.176642,86.6148795 182.386642,86.9448795 182.791642,87.1548795 C181.981642,87.4698795 181.486642,88.0398795 181.486642,88.8348795 C181.486642,89.9898795 182.581642,90.7848795 185.326642,90.7848795 Z M185.371642,83.9898795 C184.351642,83.9898795 183.736642,83.4648795 183.736642,82.4898795 C183.736642,81.5148795 184.336642,80.9598795 185.356642,80.9598795 C186.406642,80.9598795 186.976642,81.4998795 186.976642,82.4898795 C186.976642,83.4648795 186.376642,83.9898795 185.371642,83.9898795 Z M185.611642,89.4498795 C183.991642,89.4498795 183.181642,89.2248795 183.181642,88.5198795 C183.181642,88.1148795 183.391642,87.7398795 183.916642,87.4998795 C184.081642,87.5298795 184.231642,87.5448795 184.396642,87.5448795 L185.776642,87.6348795 L186.172221,87.6648203 C187.464014,87.7791233 187.801642,87.9994447 187.801642,88.5198795 C187.801642,89.0898795 186.961642,89.4498795 185.611642,89.4498795 Z M194.531,87.8598795 C195.956,87.8598795 197.051,87.3348795 197.876,86.4198795 L196.901,85.4598795 C196.301,86.0448795 195.701,86.3898795 194.666,86.3898795 C193.496,86.3898795 192.611,85.7598795 192.536,84.3198795 L197.981,84.3198795 L197.981,83.8848795 C197.981,80.6448795 196.271,79.5798795 194.486,79.5798795 C192.836,79.5798795 190.691,80.6898795 190.691,83.7198795 C190.691,86.6448795 192.536,87.8598795 194.531,87.8598795 Z M192.566,82.9398795 C192.746,81.5898795 193.571,81.0798795 194.471,81.0798795 C195.581,81.0798795 196.181,81.7248795 196.286,82.9398795 L192.566,82.9398795 Z M202.520358,87.8598795 C204.335358,87.8598795 205.850358,87.0798795 205.850358,85.3998795 C205.850358,83.8055938 204.627093,83.3243693 203.417997,83.0304917 L202.494107,82.8206275 C201.699303,82.6327687 201.080358,82.4139971 201.080358,81.8448795 C201.080358,81.3948795 201.410358,81.0348795 202.430358,81.0348795 C203.150358,81.0348795 204.095358,81.4248795 204.680358,81.9048795 L205.565358,80.7048795 C204.740358,80.0148795 203.810358,79.5798795 202.295358,79.5798795 C200.540358,79.5798795 199.340358,80.5248795 199.340358,81.9198795 C199.340358,83.5672009 200.64377,84.0306894 201.894653,84.3353086 L202.671879,84.5188272 C203.479735,84.7169902 204.110358,84.9357618 204.110358,85.5048795 C204.110358,86.1648795 203.510358,86.4198795 202.520358,86.4198795 C201.500358,86.4198795 200.615358,85.9848795 200.015358,85.4748795 L199.010358,86.5998795 C199.730358,87.3348795 201.050358,87.8598795 202.520358,87.8598795 Z M212.979075,87.8148795 C214.164075,87.8148795 215.109075,87.4998795 215.919075,86.6748795 C215.919075,87.1248795 215.994075,87.3648795 216.099075,87.6948795 L217.959075,87.6948795 C217.809075,87.3266976 217.745852,86.8097555 217.735596,85.9975466 L217.734075,82.4598795 C217.734075,80.5998795 216.999075,79.5798795 214.869075,79.5798795 C213.219075,79.5798795 211.884075,80.2398795 211.029075,81.0198795 L211.929075,82.1748795 C212.604075,81.6348795 213.504075,81.0948795 214.614075,81.0948795 C215.499075,81.0948795 215.919075,81.4398795 215.919075,82.2348795 L215.919075,82.4748795 C212.199075,82.8948795 210.729075,84.0498795 210.729075,85.7748795 C210.729075,87.0948795 211.689075,87.8148795 212.979075,87.8148795 Z M213.654075,86.3898795 C212.979075,86.3898795 212.544075,86.0598795 212.544075,85.4298795 C212.544075,84.5598795 213.714075,84.0198795 215.919075,83.7198795 L215.919075,85.4748795 C215.334075,86.0298795 214.599075,86.3898795 213.654075,86.3898795 Z M219.723433,87.6948795 L221.583433,87.6948795 L221.583433,82.1898795 C222.258433,81.5748795 222.933433,81.1548795 223.743433,81.1548795 C224.553433,81.1548795 224.928433,81.5598795 224.928433,82.4448795 L224.928433,87.6948795 L226.788433,87.6948795 L226.788433,81.9798795 C226.788433,80.4048795 225.888433,79.5798795 224.493433,79.5798795 C223.053433,79.5798795 222.093433,80.2698795 221.583433,80.8098795 L221.583433,79.7298795 L219.723433,79.7298795 L219.723433,87.6948795 Z M231.492792,87.8148795 C232.677792,87.8148795 233.442792,87.2898795 234.027792,86.6148795 C234.027792,87.0198795 234.102792,87.4698795 234.207792,87.6948795 L236.112792,87.6948795 C235.932792,87.2898795 235.872792,86.7048795 235.872792,85.7448795 L235.872792,76.5948795 L234.027792,76.5948795 L234.027792,80.5848795 C233.442792,79.9248795 232.602792,79.5798795 231.747792,79.5798795 C229.707792,79.5798795 228.342792,80.9748795 228.342792,83.7348795 C228.342792,86.4948795 229.677792,87.8148795 231.492792,87.8148795 Z M232.092792,86.2998795 C230.907792,86.2998795 230.187792,85.4598795 230.187792,83.7798795 C230.187792,82.0098795 230.757792,81.1098795 232.152792,81.1098795 C232.812792,81.1098795 233.532792,81.4548795 234.027792,82.0998795 L234.027792,85.2948795 C233.592792,85.8198795 232.857792,86.2998795 232.092792,86.2998795 Z M17.9964,104.859879 C19.8114,104.859879 21.3264,104.079879 21.3264,102.399879 C21.3264,100.805594 20.1031347,100.324369 18.8940385,100.030492 L17.9701492,99.8206275 C17.1753446,99.6327687 16.5564,99.4139971 16.5564,98.8448795 C16.5564,98.3948795 16.8864,98.0348795 17.9064,98.0348795 C18.6264,98.0348795 19.5714,98.4248795 20.1564,98.9048795 L21.0414,97.7048795 C20.2164,97.0148795 19.2864,96.5798795 17.7714,96.5798795 C16.0164,96.5798795 14.8164,97.5248795 14.8164,98.9198795 C14.8164,100.567201 16.119812,101.030689 17.3706946,101.335309 L18.1479205,101.518827 C18.9557772,101.71699 19.5864,101.935762 19.5864,102.504879 C19.5864,103.164879 18.9864,103.419879 17.9964,103.419879 C16.9764,103.419879 16.0914,102.984879 15.4914,102.474879 L14.4864,103.599879 C15.2064,104.334879 16.5264,104.859879 17.9964,104.859879 Z M23.7807583,107.784879 C25.2872801,107.784879 25.9840854,107.030059 26.5012852,105.743583 L29.9607583,96.7298795 L28.1307583,96.7298795 L26.0907583,102.534879 L26.0607583,102.534879 L24.0057583,96.7298795 L22.0857583,96.7298795 L25.1457583,104.739879 L24.9207583,105.324879 C24.6657583,105.969879 24.3207583,106.224879 23.6607583,106.224879 C23.0157583,106.224879 22.5357583,106.119879 22.3107583,106.059879 L21.8907583,107.544879 L22.10055,107.599116 C22.4765917,107.691129 22.9932583,107.784879 23.7807583,107.784879 Z M31.1551167,104.694879 L33.0151167,104.694879 L33.0151167,99.1898795 C33.6901167,98.5748795 34.3651167,98.1548795 35.1751167,98.1548795 C35.9851167,98.1548795 36.3601167,98.5598795 36.3601167,99.4448795 L36.3601167,104.694879 L38.2201167,104.694879 L38.2201167,98.9798795 C38.2201167,97.4048795 37.3201167,96.5798795 35.9251167,96.5798795 C34.4851167,96.5798795 33.5251167,97.2698795 33.0151167,97.8098795 L33.0151167,96.7298795 L31.1551167,96.7298795 L31.1551167,104.694879 Z M43.479475,104.859879 C45.399475,104.859879 46.344475,103.794879 46.914475,102.519879 L45.384475,101.964879 C44.949475,103.089879 44.364475,103.344879 43.524475,103.344879 C42.309475,103.344879 41.619475,102.414879 41.619475,100.719879 C41.619475,98.8148795 42.504475,98.1248795 43.554475,98.1248795 C44.439475,98.1248795 45.009475,98.5598795 45.324475,99.4598795 L46.884475,98.9048795 C46.404475,97.6748795 45.564475,96.5798795 43.584475,96.5798795 C41.814475,96.5798795 39.759475,97.6748795 39.759475,100.719879 C39.759475,103.629879 41.634475,104.859879 43.479475,104.859879 Z M55.0472589,104.797012 L55.2581917,104.799879 C55.7231917,104.799879 56.4131917,104.739879 56.6081917,104.694879 L56.6081917,103.239879 C56.4281917,103.299879 56.0831917,103.344879 55.8131917,103.344879 C54.8981917,103.344879 54.6431917,102.999879 54.6431917,102.144879 L54.6431917,98.1998795 L56.6981917,98.1998795 L56.6981917,96.7298795 L54.6431917,96.7298795 L54.6431917,93.9548795 L52.7981917,93.9548795 L52.7981917,96.7298795 L51.4181917,96.7298795 L51.4181917,98.1998795 L52.7981917,98.1998795 L52.7981917,102.609879 C52.7981917,103.998451 53.2026751,104.745428 55.0472589,104.797012 L55.0472589,104.797012 Z M58.22255,104.694879 L60.08255,104.694879 L60.08255,99.1898795 C60.75755,98.5748795 61.43255,98.1548795 62.24255,98.1548795 C63.05255,98.1548795 63.42755,98.5598795 63.42755,99.4448795 L63.42755,104.694879 L65.28755,104.694879 L65.28755,98.9798795 C65.28755,97.4048795 64.38755,96.5798795 62.99255,96.5798795 C61.55255,96.5798795 60.59255,97.2698795 60.08255,97.8098795 L60.08255,93.5948795 L58.22255,93.5948795 L58.22255,104.694879 Z M70.6669083,104.859879 C72.0919083,104.859879 73.1869083,104.334879 74.0119083,103.419879 L73.0369083,102.459879 C72.4369083,103.044879 71.8369083,103.389879 70.8019083,103.389879 C69.6319083,103.389879 68.7469083,102.759879 68.6719083,101.319879 L74.1169083,101.319879 L74.1169083,100.884879 C74.1169083,97.6448795 72.4069083,96.5798795 70.6219083,96.5798795 C68.9719083,96.5798795 66.8269083,97.6898795 66.8269083,100.719879 C66.8269083,103.644879 68.6719083,104.859879 70.6669083,104.859879 Z M68.7019083,99.9398795 C68.8819083,98.5898795 69.7069083,98.0798795 70.6069083,98.0798795 C71.7169083,98.0798795 72.3169083,98.7248795 72.4219083,99.9398795 L68.7019083,99.9398795 Z M75.7462666,104.694879 L77.5912666,104.694879 L77.5912666,99.1898795 C78.2812666,98.5748795 78.8962666,98.1548795 79.6312666,98.1548795 C80.5012666,98.1548795 80.7562666,98.5598795 80.7562666,99.4448795 L80.7562666,104.694879 L82.6012666,104.694879 L82.6012666,99.1898795 C83.2912666,98.5748795 83.8912666,98.1548795 84.6412666,98.1548795 C85.5112666,98.1548795 85.7662666,98.5598795 85.7662666,99.4448795 L85.7662666,104.694879 L87.6112666,104.694879 L87.6112666,98.9798795 C87.6112666,97.5548795 86.9062666,96.5798795 85.2862666,96.5798795 C84.0712666,96.5798795 83.1262666,97.1948795 82.4962666,97.8848795 C82.1812666,97.1048795 81.6562666,96.5798795 80.3212666,96.5798795 C79.1062666,96.5798795 78.2062666,97.1498795 77.5912666,97.8248795 L77.5912666,96.7298795 L75.7462666,96.7298795 L75.7462666,104.694879 Z M96.2690506,104.797012 L96.4799833,104.799879 C96.9449833,104.799879 97.6349833,104.739879 97.8299833,104.694879 L97.8299833,103.239879 C97.6499833,103.299879 97.3049833,103.344879 97.0349833,103.344879 C96.1199833,103.344879 95.8649833,102.999879 95.8649833,102.144879 L95.8649833,98.1998795 L97.9199833,98.1998795 L97.9199833,96.7298795 L95.8649833,96.7298795 L95.8649833,93.9548795 L94.0199833,93.9548795 L94.0199833,96.7298795 L92.6399833,96.7298795 L92.6399833,98.1998795 L94.0199833,98.1998795 L94.0199833,102.609879 C94.0199833,103.998451 94.4244667,104.745428 96.2690506,104.797012 L96.2690506,104.797012 Z M102.879342,104.859879 C104.814342,104.859879 106.764342,103.629879 106.764342,100.719879 C106.764342,97.7798795 104.814342,96.5798795 102.879342,96.5798795 C100.929342,96.5798795 98.9943416,97.7798795 98.9943416,100.719879 C98.9943416,103.629879 100.944342,104.859879 102.879342,104.859879 Z M102.879342,103.314879 C101.469342,103.314879 100.854342,102.234879 100.854342,100.719879 C100.854342,99.1148795 101.544342,98.1548795 102.879342,98.1548795 C104.274342,98.1548795 104.904342,99.2348795 104.904342,100.719879 C104.904342,102.354879 104.214342,103.314879 102.879342,103.314879 Z M113.008058,107.784879 C114.51458,107.784879 115.211385,107.030059 115.728585,105.743583 L119.188058,96.7298795 L117.358058,96.7298795 L115.318058,102.534879 L115.288058,102.534879 L113.233058,96.7298795 L111.313058,96.7298795 L114.373058,104.739879 L114.148058,105.324879 C113.893058,105.969879 113.548058,106.224879 112.888058,106.224879 C112.243058,106.224879 111.763058,106.119879 111.538058,106.059879 L111.118058,107.544879 L111.32785,107.599116 C111.703892,107.691129 112.220558,107.784879 113.008058,107.784879 Z M123.817417,104.859879 C125.752417,104.859879 127.702417,103.629879 127.702417,100.719879 C127.702417,97.7798795 125.752417,96.5798795 123.817417,96.5798795 C121.867417,96.5798795 119.932417,97.7798795 119.932417,100.719879 C119.932417,103.629879 121.882417,104.859879 123.817417,104.859879 Z M123.817417,103.314879 C122.407417,103.314879 121.792417,102.234879 121.792417,100.719879 C121.792417,99.1148795 122.482417,98.1548795 123.817417,98.1548795 C125.212417,98.1548795 125.842417,99.2348795 125.842417,100.719879 C125.842417,102.354879 125.152417,103.314879 123.817417,103.314879 Z M131.536775,104.844879 C132.976775,104.844879 133.936775,104.154879 134.446775,103.614879 L134.446775,104.694879 L136.306775,104.694879 L136.306775,96.7298795 L134.446775,96.7298795 L134.446775,102.264879 C133.771775,102.879879 133.096775,103.299879 132.286775,103.299879 C131.476775,103.299879 131.101775,102.894879 131.101775,102.009879 L131.101775,96.7298795 L129.241775,96.7298795 L129.241775,102.444879 C129.241775,104.019879 130.141775,104.844879 131.536775,104.844879 Z M138.386133,104.694879 L140.231133,104.694879 L140.231133,99.6548795 C140.756133,98.7998795 141.506133,98.2448795 142.691133,98.2448795 L143.003253,98.2578395 C143.080533,98.2628795 143.150133,98.2688795 143.186133,98.2748795 L143.246133,96.5798795 L143.126133,96.5798795 C141.611133,96.5798795 140.756133,97.2398795 140.261133,98.0348795 L140.231133,98.0348795 L140.231133,96.7298795 L138.386133,96.7298795 L138.386133,104.694879 Z M151.06485,104.814879 C152.24985,104.814879 153.01485,104.289879 153.59985,103.614879 C153.59985,104.019879 153.67485,104.469879 153.77985,104.694879 L155.68485,104.694879 C155.50485,104.289879 155.44485,103.704879 155.44485,102.744879 L155.44485,93.5948795 L153.59985,93.5948795 L153.59985,97.5848795 C153.01485,96.9248795 152.17485,96.5798795 151.31985,96.5798795 C149.27985,96.5798795 147.91485,97.9748795 147.91485,100.734879 C147.91485,103.494879 149.24985,104.814879 151.06485,104.814879 Z M151.66485,103.299879 C150.47985,103.299879 149.75985,102.459879 149.75985,100.779879 C149.75985,99.0098795 150.32985,98.1098795 151.72485,98.1098795 C152.38485,98.1098795 153.10485,98.4548795 153.59985,99.0998795 L153.59985,102.294879 C153.16485,102.819879 152.42985,103.299879 151.66485,103.299879 Z M159.264208,104.814879 C160.449208,104.814879 161.394208,104.499879 162.204208,103.674879 C162.204208,104.124879 162.279208,104.364879 162.384208,104.694879 L164.244208,104.694879 C164.094208,104.326698 164.030985,103.809755 164.02073,102.997547 L164.019208,99.4598795 C164.019208,97.5998795 163.284208,96.5798795 161.154208,96.5798795 C159.504208,96.5798795 158.169208,97.2398795 157.314208,98.0198795 L158.214208,99.1748795 C158.889208,98.6348795 159.789208,98.0948795 160.899208,98.0948795 C161.784208,98.0948795 162.204208,98.4398795 162.204208,99.2348795 L162.204208,99.4748795 C158.484208,99.8948795 157.014208,101.049879 157.014208,102.774879 C157.014208,104.094879 157.974208,104.814879 159.264208,104.814879 Z M159.939208,103.389879 C159.264208,103.389879 158.829208,103.059879 158.829208,102.429879 C158.829208,101.559879 159.999208,101.019879 162.204208,100.719879 L162.204208,102.474879 C161.619208,103.029879 160.884208,103.389879 159.939208,103.389879 Z M168.887634,104.797012 L169.098567,104.799879 C169.563567,104.799879 170.253567,104.739879 170.448567,104.694879 L170.448567,103.239879 C170.268567,103.299879 169.923567,103.344879 169.653567,103.344879 C168.738567,103.344879 168.483567,102.999879 168.483567,102.144879 L168.483567,98.1998795 L170.538567,98.1998795 L170.538567,96.7298795 L168.483567,96.7298795 L168.483567,93.9548795 L166.638567,93.9548795 L166.638567,96.7298795 L165.258567,96.7298795 L165.258567,98.1998795 L166.638567,98.1998795 L166.638567,102.609879 C166.638567,103.998451 167.04305,104.745428 168.887634,104.797012 L168.887634,104.797012 Z M173.802925,104.814879 C174.987925,104.814879 175.932925,104.499879 176.742925,103.674879 C176.742925,104.124879 176.817925,104.364879 176.922925,104.694879 L178.782925,104.694879 C178.617925,104.289879 178.557925,103.704879 178.557925,102.744879 L178.557925,99.4598795 C178.557925,97.5998795 177.822925,96.5798795 175.692925,96.5798795 C174.042925,96.5798795 172.707925,97.2398795 171.852925,98.0198795 L172.752925,99.1748795 C173.427925,98.6348795 174.327925,98.0948795 175.437925,98.0948795 C176.322925,98.0948795 176.742925,98.4398795 176.742925,99.2348795 L176.742925,99.4748795 C173.022925,99.8948795 171.552925,101.049879 171.552925,102.774879 C171.552925,104.094879 172.512925,104.814879 173.802925,104.814879 Z M174.477925,103.389879 C173.802925,103.389879 173.367925,103.059879 173.367925,102.429879 C173.367925,101.559879 174.537925,101.019879 176.742925,100.719879 L176.742925,102.474879 C176.157925,103.029879 175.422925,103.389879 174.477925,103.389879 Z M184.672283,104.814879 C186.712283,104.814879 188.077283,103.464879 188.077283,100.704879 C188.077283,97.9448795 186.742283,96.5798795 184.927283,96.5798795 C183.742283,96.5798795 182.917283,97.1498795 182.392283,97.7798795 L182.392283,93.5948795 L180.547283,93.5948795 L180.547283,104.694879 L182.392283,104.694879 L182.392283,103.809879 C182.977283,104.469879 183.817283,104.814879 184.672283,104.814879 Z M184.267283,103.344879 C183.607283,103.344879 182.887283,102.999879 182.392283,102.354879 L182.392283,99.1598795 C182.827283,98.6348795 183.562283,98.1548795 184.327283,98.1548795 C185.512283,98.1548795 186.232283,99.0398795 186.232283,100.719879 C186.232283,102.489879 185.662283,103.344879 184.267283,103.344879 Z M191.461642,104.814879 C192.646642,104.814879 193.591642,104.499879 194.401642,103.674879 C194.401642,104.124879 194.476642,104.364879 194.581642,104.694879 L196.441642,104.694879 C196.276642,104.289879 196.216642,103.704879 196.216642,102.744879 L196.216642,99.4598795 C196.216642,97.5998795 195.481642,96.5798795 193.351642,96.5798795 C191.701642,96.5798795 190.366642,97.2398795 189.511642,98.0198795 L190.411642,99.1748795 C191.086642,98.6348795 191.986642,98.0948795 193.096642,98.0948795 C193.981642,98.0948795 194.401642,98.4398795 194.401642,99.2348795 L194.401642,99.4748795 C190.681642,99.8948795 189.211642,101.049879 189.211642,102.774879 C189.211642,104.094879 190.171642,104.814879 191.461642,104.814879 Z M192.136642,103.389879 C191.461642,103.389879 191.026642,103.059879 191.026642,102.429879 C191.026642,101.559879 192.196642,101.019879 194.401642,100.719879 L194.401642,102.474879 C193.816642,103.029879 193.081642,103.389879 192.136642,103.389879 Z M201.116,104.859879 C202.931,104.859879 204.446,104.079879 204.446,102.399879 C204.446,100.805594 203.222735,100.324369 202.013638,100.030492 L201.089749,99.8206275 C200.294945,99.6327687 199.676,99.4139971 199.676,98.8448795 C199.676,98.3948795 200.006,98.0348795 201.026,98.0348795 C201.746,98.0348795 202.691,98.4248795 203.276,98.9048795 L204.161,97.7048795 C203.336,97.0148795 202.406,96.5798795 200.891,96.5798795 C199.136,96.5798795 197.936,97.5248795 197.936,98.9198795 C197.936,100.567201 199.239412,101.030689 200.490295,101.335309 L201.26752,101.518827 C202.075377,101.71699 202.706,101.935762 202.706,102.504879 C202.706,103.164879 202.106,103.419879 201.116,103.419879 C200.096,103.419879 199.211,102.984879 198.611,102.474879 L197.606,103.599879 C198.326,104.334879 199.646,104.859879 201.116,104.859879 Z M209.450358,104.859879 C210.875358,104.859879 211.970358,104.334879 212.795358,103.419879 L211.820358,102.459879 C211.220358,103.044879 210.620358,103.389879 209.585358,103.389879 C208.415358,103.389879 207.530358,102.759879 207.455358,101.319879 L212.900358,101.319879 L212.900358,100.884879 C212.900358,97.6448795 211.190358,96.5798795 209.405358,96.5798795 C207.755358,96.5798795 205.610358,97.6898795 205.610358,100.719879 C205.610358,103.644879 207.455358,104.859879 209.450358,104.859879 Z M207.485358,99.9398795 C207.665358,98.5898795 208.490358,98.0798795 209.390358,98.0798795 C210.500358,98.0798795 211.100358,98.7248795 211.205358,99.9398795 L207.485358,99.9398795 Z M214.529717,104.694879 L214.529717,102.744879 L216.599717,102.744879 L216.599717,104.694879 L214.529717,104.694879 Z" id="HerokuConnectwillpollyourSalesforceorgforchangesandsyncthemtoyourdatabase." fill="#FFFFFF" fill-rule="nonzero"></path>
            </g>
        </g>
    </g>
</svg>