<?xml version="1.0" encoding="UTF-8"?>
<svg width="54px" height="73px" viewBox="0 0 54 73" version="1.1" xmlns="http://www.w3.org/2000/svg" xmlns:xlink="http://www.w3.org/1999/xlink">
    <!-- Generator: Sketch 59.1 (86144) - https://sketch.com -->
    <title>mobile-heroku-app</title>
    <desc>Created with Sketch.</desc>
    <g id="Page-1" stroke="none" stroke-width="1" fill="none" fill-rule="evenodd">
        <g id="animation-mockup-rev2-copy-2" transform="translate(-160.000000, -386.000000)" fill="#79589F">
            <g id="mobile-heroku-app" transform="translate(160.500000, 386.100000)">
                <path d="M23.746012,0.749247105 C25.5135576,-0.249749035 27.6886574,-0.249749035 29.4562029,0.749247105 L41.4701965,7.55110778 C43.235527,8.55227565 44.3230769,10.3982468 44.3230769,12.3984108 L44.3230769,26.0021321 C44.3230769,28.0001244 43.235527,29.8482673 41.4701965,30.8494352 L29.4562029,37.6491241 C27.6886574,38.650292 25.5135576,38.650292 23.746012,37.6491241 L11.7320185,30.8494352 C9.96447301,29.8482673 8.87692308,28.0001244 8.87692308,26.0021321 L8.87692308,12.3984108 C8.87692308,10.3982468 9.96447301,8.55227565 11.7320185,7.55110778 L23.746012,0.749247105 Z" id="Hexagon"></path>
                <path d="M0.08814272,57.1618601 L1.70740272,57.1618601 L1.70740272,52.8999678 L6.0599736,52.8999678 L6.0599736,57.1618601 L7.6792336,57.1618601 L7.6792336,47.5758409 L6.0599736,47.5758409 L6.0599736,51.3972945 L1.70740272,51.3972945 L1.70740272,47.5758409 L0.08814272,47.5758409 L0.08814272,57.1618601 Z M9.86351904,57.1618601 L16.3146509,57.1618601 L16.3146509,55.685095 L11.482779,55.685095 L11.482779,52.8999678 L14.8378858,52.8999678 L14.8378858,51.4620649 L11.482779,51.4620649 L11.482779,49.0785142 L16.0555693,49.0785142 L16.0555693,47.5758409 L9.86351904,47.5758409 L9.86351904,57.1618601 Z M17.9160027,57.1618601 L19.5093546,57.1618601 L19.5093546,53.3792688 L21.193385,53.3792688 L23.3437622,57.1618601 L25.079609,57.1618601 L22.825599,53.1720035 C24.1598693,52.8481515 24.9500682,51.9802281 24.9500682,50.4516467 C24.9500682,48.4955806 23.628752,47.5758409 21.3488339,47.5758409 L17.9160027,47.5758409 L17.9160027,57.1618601 Z M19.5093546,51.967274 L19.5093546,49.052606 L21.2711094,49.052606 C22.6442419,49.052606 23.3567163,49.3894121 23.3567163,50.4905089 C23.3567163,51.630468 22.6312878,51.967274 21.2840635,51.967274 L19.5093546,51.967274 Z M30.7485419,57.3432172 C33.1709549,57.3432172 35.0622506,55.5944164 35.0622506,52.3688505 C35.0622506,49.1432846 33.1709549,47.3944838 30.7485419,47.3944838 C28.3131749,47.3944838 26.4089251,49.1432846 26.4089251,52.3688505 C26.4089251,55.5944164 28.3131749,57.3432172 30.7485419,57.3432172 Z M30.7485419,55.8794062 C29.1163278,55.8794062 28.0411392,54.6228604 28.0411392,52.3688505 C28.0411392,50.1148406 29.1163278,48.884203 30.7485419,48.884203 C32.3548478,48.884203 33.4300365,50.1148406 33.4300365,52.3688505 C33.4300365,54.6228604 32.3548478,55.8794062 30.7485419,55.8794062 Z M36.7801891,57.1618601 L38.3994491,57.1618601 L38.3994491,54.0140187 L39.7596275,52.5113454 L42.6354333,57.1618601 L44.4878667,57.1618601 L40.8218621,51.2677537 L44.0862902,47.5758409 L42.1690864,47.5758409 L38.3994491,52.0320444 L38.3994491,47.5758409 L36.7801891,47.5758409 L36.7801891,57.1618601 Z M49.4184171,57.3173091 C46.7757848,57.3173091 45.7005962,55.840544 45.7005962,53.6642585 L45.7005962,47.5758409 L47.3198562,47.5758409 L47.3198562,53.5217636 C47.3198562,54.9855747 47.9546061,55.853498 49.4313712,55.853498 C50.8951822,55.853498 51.5299322,55.0114828 51.5299322,53.5347177 L51.5299322,47.5758409 L53.123284,47.5758409 L53.123284,53.6513044 C53.123284,55.8275899 51.8926464,57.3173091 49.4184171,57.3173091 Z" id="HEROKU" fill-rule="nonzero"></path>
                <path d="M13.723852,72.7072201 L15.2394794,72.7072201 L16.0296782,70.427302 L19.6697747,70.427302 L20.4470195,72.7072201 L22.1051418,72.7072201 L18.7111728,63.0823387 L17.117821,63.0823387 L13.723852,72.7072201 Z M16.5219333,69.0023532 L17.8562035,65.1161292 L17.8821117,65.1161292 L19.1904738,69.0023532 L16.5219333,69.0023532 Z M23.5251365,72.7072201 L25.1314424,72.7072201 L25.1314424,69.0671236 L26.8284269,69.0671236 C28.797447,69.0671236 30.572156,68.3805574 30.572156,66.0617771 C30.572156,63.8466294 28.952896,63.1212009 26.8802432,63.1212009 L23.5251365,63.1212009 L23.5251365,72.7072201 Z M25.1314424,67.6551289 L25.1314424,64.597966 L26.8931973,64.597966 C28.3311002,64.597966 28.9788042,65.0513588 28.9788042,66.1135934 C28.9788042,67.2146902 28.3311002,67.6551289 26.9061514,67.6551289 L25.1314424,67.6551289 Z M32.1216915,72.7072201 L33.7279974,72.7072201 L33.7279974,69.0671236 L35.4249819,69.0671236 C37.3940021,69.0671236 39.168711,68.3805574 39.168711,66.0617771 C39.168711,63.8466294 37.549451,63.1212009 35.4767982,63.1212009 L32.1216915,63.1212009 L32.1216915,72.7072201 Z M33.7279974,67.6551289 L33.7279974,64.597966 L35.4897523,64.597966 C36.9276552,64.597966 37.5753592,65.0513588 37.5753592,66.1135934 C37.5753592,67.2146902 36.9276552,67.6551289 35.5027064,67.6551289 L33.7279974,67.6551289 Z" id="APP" fill-rule="nonzero"></path>
            </g>
        </g>
    </g>
</svg>