<?xml version="1.0" encoding="UTF-8"?>
<svg width="41px" height="45px" viewBox="0 0 41 45" version="1.1" xmlns="http://www.w3.org/2000/svg" xmlns:xlink="http://www.w3.org/1999/xlink">
    <!-- Generator: Sketch 59.1 (86144) - https://sketch.com -->
    <title>mobile-arrow-2</title>
    <desc>Created with Sketch.</desc>
    <g id="Page-1" stroke="none" stroke-width="1" fill="none" fill-rule="evenodd">
        <g id="animation-mockup-rev2-copy-2" transform="translate(-166.000000, -230.000000)" fill="#DBCDE5" fill-rule="nonzero">
            <g id="mobile-arrow-2" transform="translate(173.579834, 232.501667)">
                <path id="Line-2" d="M-0.371575537,-1.24026124 C0.0107285332,-1.91991292 0.989271467,-1.91991292 1.37157554,-1.24026124 L1.37157554,-1.24026124 L8.12157554,10.7597388 C8.39233934,11.2410966 8.22161912,11.8508117 7.74026124,12.1215755 C7.25890336,12.3923393 6.64918827,12.2216191 6.37842446,11.7402612 L6.37842446,11.7402612 L1.5,3.067 L1.5,40 C1.5,40.5128358 1.11395981,40.9355072 0.616621125,40.9932723 L0.5,41 C-0.0522847498,41 -0.5,40.5522847 -0.5,40 L-0.5,40 L-0.5,3.067 L-5.37842446,11.7402612 C-5.629848,12.1872364 -6.17353055,12.3663659 -6.63531877,12.1728866 L-6.74026124,12.1215755 C-7.22161912,11.8508117 -7.39233934,11.2410966 -7.12157554,10.7597388 L-7.12157554,10.7597388 Z"></path>
                <path id="Line-2" d="M25.5,-1 C26.0522847,-1 26.5,-0.55228475 26.5,0 L26.5,0 L26.5,36.932 L31.3784245,28.2597388 C31.629848,27.8127636 32.1735305,27.6336341 32.6353188,27.8271134 L32.7402612,27.8784245 C33.2216191,28.1491883 33.3923393,28.7589034 33.1215755,29.2402612 L33.1215755,29.2402612 L26.3715755,41.2402612 C25.9892715,41.9199129 25.0107285,41.9199129 24.6284245,41.2402612 L24.6284245,41.2402612 L17.8784245,29.2402612 C17.6076607,28.7589034 17.7783809,28.1491883 18.2597388,27.8784245 C18.7410966,27.6076607 19.3508117,27.7783809 19.6215755,28.2597388 L19.6215755,28.2597388 L24.5,36.932 L24.5,0 C24.5,-0.512835839 24.8860402,-0.935507161 25.3833789,-0.993272269 Z"></path>
            </g>
        </g>
    </g>
</svg>