<?xml version="1.0" encoding="UTF-8"?>
<svg width="286px" height="124px" viewBox="0 0 286 124" version="1.1" xmlns="http://www.w3.org/2000/svg" xmlns:xlink="http://www.w3.org/1999/xlink">
    <!-- Generator: Sketch 59.1 (86144) - https://sketch.com -->
    <title>mobile-speech-4</title>
    <desc>Created with Sketch.</desc>
    <g id="Page-1" stroke="none" stroke-width="1" fill="none" fill-rule="evenodd">
        <g id="animation-mockup-rev2-copy-2" transform="translate(-44.000000, -349.000000)">
            <g id="mobile-speech-4" transform="translate(44.500000, 349.200000)">
                <g id="Group-8" transform="translate(142.569500, 28.000000) scale(1, -1) translate(-142.569500, -28.000000) translate(137.569500, 0.000000)">
                    <line x1="5.2515" y1="0.5522" x2="5.2515" y2="51.6652" id="Stroke-4" stroke="#231F20" stroke-width="2.207"></line>
                    <path d="M0.688,51.437 C0.688,53.957 2.732,56 5.251,56 C7.771,56 9.814,53.957 9.814,51.437 C9.814,48.917 7.771,46.875 5.251,46.875 C2.732,46.875 0.688,48.917 0.688,51.437" id="Fill-6" fill="#231F20"></path>
                </g>
                <rect id="Rectangle" fill="#231F20" x="0" y="47" width="285.139" height="76" rx="6"></rect>
                <path d="M23.3354,71.9048795 C25.9754,71.9048795 27.5204,70.4798795 27.5204,68.6648795 C27.5204,66.6493795 25.9505333,65.9374295 23.9489533,65.3366784 L23.7404,65.2748795 C21.9254,64.7348795 21.1304,64.3898795 21.1304,63.3548795 C21.1304,62.5448795 21.8354,62.0948795 23.0654,62.0948795 C24.2654,62.0948795 25.2104,62.6048795 25.8704,63.7148795 L27.2354,62.7698795 C26.5604,61.4648795 25.2704,60.3848795 23.0804,60.3848795 C20.8304,60.3848795 19.2854,61.6298795 19.2854,63.5198795 C19.2854,65.4233795 20.68265,66.0875795 22.525805,66.6606545 L23.1554,66.8498795 C24.9854,67.3898795 25.6754,67.8398795 25.6754,68.7998795 C25.6754,69.8048795 24.7604,70.2398795 23.4104,70.2398795 C22.0304,70.2398795 21.0104,69.6098795 20.3504,68.3048795 L18.8654,69.0848795 C19.5704,70.7648795 21.1304,71.9048795 23.3354,71.9048795 Z M31.0847583,71.8148795 C32.2697583,71.8148795 33.2147583,71.4998795 34.0247583,70.6748795 C34.0247583,71.1248795 34.0997583,71.3648795 34.2047583,71.6948795 L36.0647583,71.6948795 C35.8997583,71.2898795 35.8397583,70.7048795 35.8397583,69.7448795 L35.8397583,66.4598795 C35.8397583,64.5998795 35.1047583,63.5798795 32.9747583,63.5798795 C31.3247583,63.5798795 29.9897583,64.2398795 29.1347583,65.0198795 L30.0347583,66.1748795 C30.7097583,65.6348795 31.6097583,65.0948795 32.7197583,65.0948795 C33.6047583,65.0948795 34.0247583,65.4398795 34.0247583,66.2348795 L34.0247583,66.4748795 C30.3047583,66.8948795 28.8347583,68.0498795 28.8347583,69.7748795 C28.8347583,71.0948795 29.7947583,71.8148795 31.0847583,71.8148795 Z M31.7597583,70.3898795 C31.0847583,70.3898795 30.6497583,70.0598795 30.6497583,69.4298795 C30.6497583,68.5598795 31.8197583,68.0198795 34.0247583,67.7198795 L34.0247583,69.4748795 C33.4397583,70.0298795 32.7047583,70.3898795 31.7597583,70.3898795 Z M37.9041167,71.6948795 L39.7641167,71.6948795 L39.7641167,60.5948795 L37.9041167,60.5948795 L37.9041167,71.6948795 Z M45.308475,71.8598795 C46.733475,71.8598795 47.828475,71.3348795 48.653475,70.4198795 L47.678475,69.4598795 C47.078475,70.0448795 46.478475,70.3898795 45.443475,70.3898795 C44.273475,70.3898795 43.388475,69.7598795 43.313475,68.3198795 L48.758475,68.3198795 L48.758475,67.8848795 C48.758475,64.6448795 47.048475,63.5798795 45.263475,63.5798795 C43.613475,63.5798795 41.468475,64.6898795 41.468475,67.7198795 C41.468475,70.6448795 43.313475,71.8598795 45.308475,71.8598795 Z M43.343475,66.9398795 C43.523475,65.5898795 44.348475,65.0798795 45.248475,65.0798795 C46.358475,65.0798795 46.958475,65.7248795 47.063475,66.9398795 L43.343475,66.9398795 Z M53.2978333,71.8598795 C55.1128333,71.8598795 56.6278333,71.0798795 56.6278333,69.3998795 C56.6278333,67.8055938 55.404568,67.3243693 54.1954718,67.0304917 L53.2715826,66.8206275 C52.476778,66.6327687 51.8578333,66.4139971 51.8578333,65.8448795 C51.8578333,65.3948795 52.1878333,65.0348795 53.2078333,65.0348795 C53.9278333,65.0348795 54.8728333,65.4248795 55.4578333,65.9048795 L56.3428333,64.7048795 C55.5178333,64.0148795 54.5878333,63.5798795 53.0728333,63.5798795 C51.3178333,63.5798795 50.1178333,64.5248795 50.1178333,65.9198795 C50.1178333,67.6330938 51.5276037,68.0658744 52.8218949,68.3711659 L53.4493538,68.5188272 C54.2572105,68.7169902 54.8878333,68.9357618 54.8878333,69.5048795 C54.8878333,70.1648795 54.2878333,70.4198795 53.2978333,70.4198795 C52.2778333,70.4198795 51.3928333,69.9848795 50.7928333,69.4748795 L49.7878333,70.5998795 C50.5078333,71.3348795 51.8278333,71.8598795 53.2978333,71.8598795 Z M58.9321917,71.6948795 L60.7771917,71.6948795 L60.7771917,65.1998795 L62.5171917,65.1998795 L62.5171917,63.7298795 L60.7771917,63.7298795 L60.7771917,63.0248795 C60.7771917,62.1698795 61.3171917,61.9898795 61.9771917,61.9898795 L62.2071917,61.9987684 C62.3671917,62.0098795 62.5271917,62.0298795 62.6071917,62.0498795 L62.6071917,60.6248795 L62.2085908,60.5874309 C61.9788583,60.568398 61.7038583,60.5498795 61.5121917,60.5498795 C59.4871917,60.5498795 58.9321917,61.5848795 58.9321917,62.9198795 L58.9321917,63.7298795 L57.5521917,63.7298795 L57.5521917,65.1998795 L58.9321917,65.1998795 L58.9321917,71.6948795 Z M67.29655,71.8598795 C69.23155,71.8598795 71.18155,70.6298795 71.18155,67.7198795 C71.18155,64.7798795 69.23155,63.5798795 67.29655,63.5798795 C65.34655,63.5798795 63.41155,64.7798795 63.41155,67.7198795 C63.41155,70.6298795 65.36155,71.8598795 67.29655,71.8598795 Z M67.29655,70.3148795 C65.88655,70.3148795 65.27155,69.2348795 65.27155,67.7198795 C65.27155,66.1148795 65.96155,65.1548795 67.29655,65.1548795 C68.69155,65.1548795 69.32155,66.2348795 69.32155,67.7198795 C69.32155,69.3548795 68.63155,70.3148795 67.29655,70.3148795 Z M72.8109083,71.6948795 L74.6559083,71.6948795 L74.6559083,66.6548795 C75.1809083,65.7998795 75.9309083,65.2448795 77.1159083,65.2448795 L77.4280283,65.2578395 C77.5053083,65.2628795 77.5749083,65.2688795 77.6109083,65.2748795 L77.6709083,63.5798795 L77.5509083,63.5798795 C76.0359083,63.5798795 75.1809083,64.2398795 74.6859083,65.0348795 L74.6559083,65.0348795 L74.6559083,63.7298795 L72.8109083,63.7298795 L72.8109083,71.6948795 Z M82.2702666,71.8598795 C84.1902666,71.8598795 85.1352666,70.7948795 85.7052666,69.5198795 L84.1752666,68.9648795 C83.7402666,70.0898795 83.1552666,70.3448795 82.3152666,70.3448795 C81.1002666,70.3448795 80.4102666,69.4148795 80.4102666,67.7198795 C80.4102666,65.8148795 81.2952666,65.1248795 82.3452666,65.1248795 C83.2302666,65.1248795 83.8002666,65.5598795 84.1152666,66.4598795 L85.6752666,65.9048795 C85.1952666,64.6748795 84.3552666,63.5798795 82.3752666,63.5798795 C80.6052666,63.5798795 78.5502666,64.6748795 78.5502666,67.7198795 C78.5502666,70.6298795 80.4252666,71.8598795 82.2702666,71.8598795 Z M90.574625,71.8598795 C91.999625,71.8598795 93.094625,71.3348795 93.919625,70.4198795 L92.944625,69.4598795 C92.344625,70.0448795 91.744625,70.3898795 90.709625,70.3898795 C89.539625,70.3898795 88.654625,69.7598795 88.579625,68.3198795 L94.024625,68.3198795 L94.024625,67.8848795 C94.024625,64.6448795 92.314625,63.5798795 90.529625,63.5798795 C88.879625,63.5798795 86.734625,64.6898795 86.734625,67.7198795 C86.734625,70.6448795 88.579625,71.8598795 90.574625,71.8598795 Z M88.609625,66.9398795 C88.789625,65.5898795 89.614625,65.0798795 90.514625,65.0798795 C91.624625,65.0798795 92.224625,65.7248795 92.329625,66.9398795 L88.609625,66.9398795 Z M102.863342,71.8598795 C104.798342,71.8598795 106.748342,70.6298795 106.748342,67.7198795 C106.748342,64.7798795 104.798342,63.5798795 102.863342,63.5798795 C100.913342,63.5798795 98.9783416,64.7798795 98.9783416,67.7198795 C98.9783416,70.6298795 100.928342,71.8598795 102.863342,71.8598795 Z M102.863342,70.3148795 C101.453342,70.3148795 100.838342,69.2348795 100.838342,67.7198795 C100.838342,66.1148795 101.528342,65.1548795 102.863342,65.1548795 C104.258342,65.1548795 104.888342,66.2348795 104.888342,67.7198795 C104.888342,69.3548795 104.198342,70.3148795 102.863342,70.3148795 Z M112.5027,71.8148795 C114.5427,71.8148795 115.9077,70.4648795 115.9077,67.7048795 C115.9077,64.9448795 114.5727,63.5798795 112.7577,63.5798795 C111.5727,63.5798795 110.7477,64.1498795 110.2227,64.7798795 L110.2227,60.5948795 L108.3777,60.5948795 L108.3777,71.6948795 L110.2227,71.6948795 L110.2227,70.8098795 C110.8077,71.4698795 111.6477,71.8148795 112.5027,71.8148795 Z M112.0977,70.3448795 C111.4377,70.3448795 110.7177,69.9998795 110.2227,69.3548795 L110.2227,66.1598795 C110.6577,65.6348795 111.3927,65.1548795 112.1577,65.1548795 C113.3427,65.1548795 114.0627,66.0398795 114.0627,67.7198795 C114.0627,69.4898795 113.4927,70.3448795 112.0977,70.3448795 Z M117.612058,62.3498795 L119.502058,62.3498795 L119.502058,60.7448795 L117.612058,60.7448795 L117.612058,62.3498795 Z M117.267058,74.7248795 C119.112058,74.7248795 119.487058,73.7798795 119.487058,72.6848795 L119.487058,63.7298795 L117.627058,63.7298795 L117.627058,72.3998795 C117.627058,73.1198795 117.327058,73.4048795 116.742058,73.4048795 C116.532058,73.4048795 116.277058,73.3748795 116.142058,73.3448795 L116.142058,74.6348795 C116.262058,74.6648795 116.922058,74.7248795 117.267058,74.7248795 Z M125.031417,71.8598795 C126.456417,71.8598795 127.551417,71.3348795 128.376417,70.4198795 L127.401417,69.4598795 C126.801417,70.0448795 126.201417,70.3898795 125.166417,70.3898795 C123.996417,70.3898795 123.111417,69.7598795 123.036417,68.3198795 L128.481417,68.3198795 L128.481417,67.8848795 C128.481417,64.6448795 126.771417,63.5798795 124.986417,63.5798795 C123.336417,63.5798795 121.191417,64.6898795 121.191417,67.7198795 C121.191417,70.6448795 123.036417,71.8598795 125.031417,71.8598795 Z M123.066417,66.9398795 C123.246417,65.5898795 124.071417,65.0798795 124.971417,65.0798795 C126.081417,65.0798795 126.681417,65.7248795 126.786417,66.9398795 L123.066417,66.9398795 Z M133.380775,71.8598795 C135.300775,71.8598795 136.245775,70.7948795 136.815775,69.5198795 L135.285775,68.9648795 C134.850775,70.0898795 134.265775,70.3448795 133.425775,70.3448795 C132.210775,70.3448795 131.520775,69.4148795 131.520775,67.7198795 C131.520775,65.8148795 132.405775,65.1248795 133.455775,65.1248795 C134.340775,65.1248795 134.910775,65.5598795 135.225775,66.4598795 L136.785775,65.9048795 C136.305775,64.6748795 135.465775,63.5798795 133.485775,63.5798795 C131.715775,63.5798795 129.660775,64.6748795 129.660775,67.7198795 C129.660775,70.6298795 131.535775,71.8598795 133.380775,71.8598795 Z M141.174201,71.7970123 L141.385133,71.7998795 C141.850133,71.7998795 142.540133,71.7398795 142.735133,71.6948795 L142.735133,70.2398795 C142.555133,70.2998795 142.210133,70.3448795 141.940133,70.3448795 C141.025133,70.3448795 140.770133,69.9998795 140.770133,69.1448795 L140.770133,65.1998795 L142.825133,65.1998795 L142.825133,63.7298795 L140.770133,63.7298795 L140.770133,60.9548795 L138.925133,60.9548795 L138.925133,63.7298795 L137.545133,63.7298795 L137.545133,65.1998795 L138.925133,65.1998795 L138.925133,69.6098795 C138.925133,70.9984509 139.329617,71.7454279 141.174201,71.7970123 L141.174201,71.7970123 Z M147.259492,71.8598795 C149.074492,71.8598795 150.589492,71.0798795 150.589492,69.3998795 C150.589492,67.8055938 149.366226,67.3243693 148.15713,67.0304917 L147.233241,66.8206275 C146.438436,66.6327687 145.819492,66.4139971 145.819492,65.8448795 C145.819492,65.3948795 146.149492,65.0348795 147.169492,65.0348795 C147.889492,65.0348795 148.834492,65.4248795 149.419492,65.9048795 L150.304492,64.7048795 C149.479492,64.0148795 148.549492,63.5798795 147.034492,63.5798795 C145.279492,63.5798795 144.079492,64.5248795 144.079492,65.9198795 C144.079492,67.5672009 145.382904,68.0306894 146.633786,68.3353086 L147.411012,68.5188272 C148.218869,68.7169902 148.849492,68.9357618 148.849492,69.5048795 C148.849492,70.1648795 148.249492,70.4198795 147.259492,70.4198795 C146.239492,70.4198795 145.354492,69.9848795 144.754492,69.4748795 L143.749492,70.5998795 C144.469492,71.3348795 145.789492,71.8598795 147.259492,71.8598795 Z M157.718208,71.8148795 C158.903208,71.8148795 159.848208,71.4998795 160.658208,70.6748795 C160.658208,71.1248795 160.733208,71.3648795 160.838208,71.6948795 L162.698208,71.6948795 C162.548208,71.3266976 162.484985,70.8097555 162.47473,69.9975466 L162.473208,66.4598795 C162.473208,64.5998795 161.738208,63.5798795 159.608208,63.5798795 C157.958208,63.5798795 156.623208,64.2398795 155.768208,65.0198795 L156.668208,66.1748795 C157.343208,65.6348795 158.243208,65.0948795 159.353208,65.0948795 C160.238208,65.0948795 160.658208,65.4398795 160.658208,66.2348795 L160.658208,66.4748795 C156.938208,66.8948795 155.468208,68.0498795 155.468208,69.7748795 C155.468208,71.0948795 156.428208,71.8148795 157.718208,71.8148795 Z M158.393208,70.3898795 C157.718208,70.3898795 157.283208,70.0598795 157.283208,69.4298795 C157.283208,68.5598795 158.453208,68.0198795 160.658208,67.7198795 L160.658208,69.4748795 C160.073208,70.0298795 159.338208,70.3898795 158.393208,70.3898795 Z M164.462567,71.6948795 L166.307567,71.6948795 L166.307567,66.6548795 C166.832567,65.7998795 167.582567,65.2448795 168.767567,65.2448795 L169.079687,65.2578395 C169.156967,65.2628795 169.226567,65.2688795 169.262567,65.2748795 L169.322567,63.5798795 L169.202567,63.5798795 C167.687567,63.5798795 166.832567,64.2398795 166.337567,65.0348795 L166.307567,65.0348795 L166.307567,63.7298795 L164.462567,63.7298795 L164.462567,71.6948795 Z M174.041925,71.8598795 C175.466925,71.8598795 176.561925,71.3348795 177.386925,70.4198795 L176.411925,69.4598795 C175.811925,70.0448795 175.211925,70.3898795 174.176925,70.3898795 C173.006925,70.3898795 172.121925,69.7598795 172.046925,68.3198795 L177.491925,68.3198795 L177.491925,67.8848795 C177.491925,64.6448795 175.781925,63.5798795 173.996925,63.5798795 C172.346925,63.5798795 170.201925,64.6898795 170.201925,67.7198795 C170.201925,70.6448795 172.046925,71.8598795 174.041925,71.8598795 Z M172.076925,66.9398795 C172.256925,65.5898795 173.081925,65.0798795 173.981925,65.0798795 C175.091925,65.0798795 175.691925,65.7248795 175.796925,66.9398795 L172.076925,66.9398795 Z M182.895642,71.6948795 L184.740642,71.6948795 L184.740642,66.1898795 C185.430642,65.5748795 186.045642,65.1548795 186.780642,65.1548795 C187.650642,65.1548795 187.905642,65.5598795 187.905642,66.4448795 L187.905642,71.6948795 L189.750642,71.6948795 L189.750642,66.1898795 C190.440642,65.5748795 191.040642,65.1548795 191.790642,65.1548795 C192.660642,65.1548795 192.915642,65.5598795 192.915642,66.4448795 L192.915642,71.6948795 L194.760642,71.6948795 L194.760642,65.9798795 C194.760642,64.5548795 194.055642,63.5798795 192.435642,63.5798795 C191.220642,63.5798795 190.275642,64.1948795 189.645642,64.8848795 C189.330642,64.1048795 188.805642,63.5798795 187.470642,63.5798795 C186.255642,63.5798795 185.355642,64.1498795 184.740642,64.8248795 L184.740642,63.7298795 L182.895642,63.7298795 L182.895642,71.6948795 Z M198.505,71.8148795 C199.69,71.8148795 200.635,71.4998795 201.445,70.6748795 C201.445,71.1248795 201.52,71.3648795 201.625,71.6948795 L203.485,71.6948795 C203.32,71.2898795 203.26,70.7048795 203.26,69.7448795 L203.26,66.4598795 C203.26,64.5998795 202.525,63.5798795 200.395,63.5798795 C198.745,63.5798795 197.41,64.2398795 196.555,65.0198795 L197.455,66.1748795 C198.13,65.6348795 199.03,65.0948795 200.14,65.0948795 C201.025,65.0948795 201.445,65.4398795 201.445,66.2348795 L201.445,66.4748795 C197.725,66.8948795 196.255,68.0498795 196.255,69.7748795 C196.255,71.0948795 197.215,71.8148795 198.505,71.8148795 Z M199.18,70.3898795 C198.505,70.3898795 198.07,70.0598795 198.07,69.4298795 C198.07,68.5598795 199.24,68.0198795 201.445,67.7198795 L201.445,69.4748795 C200.86,70.0298795 200.125,70.3898795 199.18,70.3898795 Z M205.249358,74.6948795 L207.094358,74.6948795 L207.094358,70.8098795 C207.679358,71.4698795 208.519358,71.8148795 209.374358,71.8148795 C211.414358,71.8148795 212.779358,70.4648795 212.779358,67.7048795 C212.779358,64.9448795 211.444358,63.5798795 209.629358,63.5798795 C208.444358,63.5798795 207.619358,64.1498795 207.094358,64.7798795 L207.094358,63.7298795 L205.249358,63.7298795 L205.249358,74.6948795 Z M208.969358,70.3448795 C208.309358,70.3448795 207.589358,69.9998795 207.094358,69.3548795 L207.094358,66.1598795 C207.529358,65.6348795 208.264358,65.1548795 209.029358,65.1548795 C210.214358,65.1548795 210.934358,66.0398795 210.934358,67.7198795 C210.934358,69.4898795 210.364358,70.3448795 208.969358,70.3448795 Z M214.423717,74.6948795 L216.268717,74.6948795 L216.268717,70.8098795 C216.853717,71.4698795 217.693717,71.8148795 218.548717,71.8148795 C220.588717,71.8148795 221.953717,70.4648795 221.953717,67.7048795 C221.953717,64.9448795 220.618717,63.5798795 218.803717,63.5798795 C217.618717,63.5798795 216.793717,64.1498795 216.268717,64.7798795 L216.268717,63.7298795 L214.423717,63.7298795 L214.423717,74.6948795 Z M218.143717,70.3448795 C217.483717,70.3448795 216.763717,69.9998795 216.268717,69.3548795 L216.268717,66.1598795 C216.703717,65.6348795 217.438717,65.1548795 218.203717,65.1548795 C219.388717,65.1548795 220.108717,66.0398795 220.108717,67.7198795 C220.108717,69.4898795 219.538717,70.3448795 218.143717,70.3448795 Z M226.988075,71.8598795 C228.413075,71.8598795 229.508075,71.3348795 230.333075,70.4198795 L229.358075,69.4598795 C228.758075,70.0448795 228.158075,70.3898795 227.123075,70.3898795 C225.953075,70.3898795 225.068075,69.7598795 224.993075,68.3198795 L230.438075,68.3198795 L230.438075,67.8848795 C230.438075,64.6448795 228.728075,63.5798795 226.943075,63.5798795 C225.293075,63.5798795 223.148075,64.6898795 223.148075,67.7198795 C223.148075,70.6448795 224.993075,71.8598795 226.988075,71.8598795 Z M225.023075,66.9398795 C225.203075,65.5898795 226.028075,65.0798795 226.928075,65.0798795 C228.038075,65.0798795 228.638075,65.7248795 228.743075,66.9398795 L225.023075,66.9398795 Z M234.782433,71.8148795 C235.967433,71.8148795 236.732433,71.2898795 237.317433,70.6148795 C237.317433,71.0198795 237.392433,71.4698795 237.497433,71.6948795 L239.402433,71.6948795 C239.237433,71.3236295 239.173267,70.8011295 239.163718,69.9771798 L239.162433,60.5948795 L237.317433,60.5948795 L237.317433,64.5848795 C236.732433,63.9248795 235.892433,63.5798795 235.037433,63.5798795 C232.997433,63.5798795 231.632433,64.9748795 231.632433,67.7348795 C231.632433,70.4948795 232.967433,71.8148795 234.782433,71.8148795 Z M235.382433,70.2998795 C234.197433,70.2998795 233.477433,69.4598795 233.477433,67.7798795 C233.477433,66.0098795 234.047433,65.1098795 235.442433,65.1098795 C236.102433,65.1098795 236.822433,65.4548795 237.317433,66.0998795 L237.317433,69.2948795 C236.882433,69.8198795 236.147433,70.2998795 235.382433,70.2998795 Z M248.45115,71.8598795 C250.38615,71.8598795 252.33615,70.6298795 252.33615,67.7198795 C252.33615,64.7798795 250.38615,63.5798795 248.45115,63.5798795 C246.50115,63.5798795 244.56615,64.7798795 244.56615,67.7198795 C244.56615,70.6298795 246.51615,71.8598795 248.45115,71.8598795 Z M248.45115,70.3148795 C247.04115,70.3148795 246.42615,69.2348795 246.42615,67.7198795 C246.42615,66.1148795 247.11615,65.1548795 248.45115,65.1548795 C249.84615,65.1548795 250.47615,66.2348795 250.47615,67.7198795 C250.47615,69.3548795 249.78615,70.3148795 248.45115,70.3148795 Z M253.965508,71.6948795 L255.825508,71.6948795 L255.825508,66.1898795 C256.500508,65.5748795 257.175508,65.1548795 257.985508,65.1548795 C258.795508,65.1548795 259.170508,65.5598795 259.170508,66.4448795 L259.170508,71.6948795 L261.030508,71.6948795 L261.030508,65.9798795 C261.030508,64.4048795 260.130508,63.5798795 258.735508,63.5798795 C257.295508,63.5798795 256.335508,64.2698795 255.825508,64.8098795 L255.825508,63.7298795 L253.965508,63.7298795 L253.965508,71.6948795 Z M19.4504,88.6948795 L21.3254,88.6948795 L21.3254,83.7598795 L26.3654,83.7598795 L26.3654,88.6948795 L28.2404,88.6948795 L28.2404,77.5948795 L26.3654,77.5948795 L26.3654,82.0198795 L21.3254,82.0198795 L21.3254,77.5948795 L19.4504,77.5948795 L19.4504,88.6948795 Z M33.9347583,88.8598795 C35.3597583,88.8598795 36.4547583,88.3348795 37.2797583,87.4198795 L36.3047583,86.4598795 C35.7047583,87.0448795 35.1047583,87.3898795 34.0697583,87.3898795 C32.8997583,87.3898795 32.0147583,86.7598795 31.9397583,85.3198795 L37.3847583,85.3198795 L37.3847583,84.8848795 C37.3847583,81.6448795 35.6747583,80.5798795 33.8897583,80.5798795 C32.2397583,80.5798795 30.0947583,81.6898795 30.0947583,84.7198795 C30.0947583,87.6448795 31.9397583,88.8598795 33.9347583,88.8598795 Z M31.9697583,83.9398795 C32.1497583,82.5898795 32.9747583,82.0798795 33.8747583,82.0798795 C34.9847583,82.0798795 35.5847583,82.7248795 35.6897583,83.9398795 L31.9697583,83.9398795 Z M39.0141167,88.6948795 L40.8591167,88.6948795 L40.8591167,83.6548795 C41.3841167,82.7998795 42.1341167,82.2448795 43.3191167,82.2448795 L43.6312367,82.2578395 C43.7085167,82.2628795 43.7781167,82.2688795 43.8141167,82.2748795 L43.8741167,80.5798795 L43.7541167,80.5798795 C42.2391167,80.5798795 41.3841167,81.2398795 40.8891167,82.0348795 L40.8591167,82.0348795 L40.8591167,80.7298795 L39.0141167,80.7298795 L39.0141167,88.6948795 Z M48.638475,88.8598795 C50.573475,88.8598795 52.523475,87.6298795 52.523475,84.7198795 C52.523475,81.7798795 50.573475,80.5798795 48.638475,80.5798795 C46.688475,80.5798795 44.753475,81.7798795 44.753475,84.7198795 C44.753475,87.6298795 46.703475,88.8598795 48.638475,88.8598795 Z M48.638475,87.3148795 C47.228475,87.3148795 46.613475,86.2348795 46.613475,84.7198795 C46.613475,83.1148795 47.303475,82.1548795 48.638475,82.1548795 C50.033475,82.1548795 50.663475,83.2348795 50.663475,84.7198795 C50.663475,86.3548795 49.973475,87.3148795 48.638475,87.3148795 Z M54.1528333,88.6948795 L55.9978333,88.6948795 L55.9978333,86.3998795 L57.2728333,85.0048795 L59.3278333,88.6948795 L61.2628333,88.6948795 L58.4428333,83.6398795 L61.0378333,80.7298795 L59.0128333,80.7298795 L55.9978333,84.2098795 L55.9978333,77.5948795 L54.1528333,77.5948795 L54.1528333,88.6948795 Z M64.8121917,88.8448795 C66.2521917,88.8448795 67.2121917,88.1548795 67.7221917,87.6148795 L67.7221917,88.6948795 L69.5821917,88.6948795 L69.5821917,80.7298795 L67.7221917,80.7298795 L67.7221917,86.2648795 C67.0471917,86.8798795 66.3721917,87.2998795 65.5621917,87.2998795 C64.7521917,87.2998795 64.3771917,86.8948795 64.3771917,86.0098795 L64.3771917,80.7298795 L62.5171917,80.7298795 L62.5171917,86.4448795 C62.5171917,88.0198795 63.4171917,88.8448795 64.8121917,88.8448795 Z M75.6609083,88.6948795 L77.5209083,88.6948795 L77.5209083,84.4798795 L79.4859083,84.4798795 C81.7659083,84.4798795 83.8209083,83.6848795 83.8209083,80.9998795 C83.8209083,78.4348795 81.9459083,77.5948795 79.5459083,77.5948795 L75.6609083,77.5948795 L75.6609083,88.6948795 Z M77.5209083,82.8448795 L77.5209083,79.3048795 L79.5609083,79.3048795 C81.2259083,79.3048795 81.9759083,79.8298795 81.9759083,81.0598795 C81.9759083,82.3348795 81.2259083,82.8448795 79.5759083,82.8448795 L77.5209083,82.8448795 Z M88.8252666,88.8598795 C90.7602666,88.8598795 92.7102666,87.6298795 92.7102666,84.7198795 C92.7102666,81.7798795 90.7602666,80.5798795 88.8252666,80.5798795 C86.8752666,80.5798795 84.9402666,81.7798795 84.9402666,84.7198795 C84.9402666,87.6298795 86.8902666,88.8598795 88.8252666,88.8598795 Z M88.8252666,87.3148795 C87.4152666,87.3148795 86.8002666,86.2348795 86.8002666,84.7198795 C86.8002666,83.1148795 87.4902666,82.1548795 88.8252666,82.1548795 C90.2202666,82.1548795 90.8502666,83.2348795 90.8502666,84.7198795 C90.8502666,86.3548795 90.1602666,87.3148795 88.8252666,87.3148795 Z M97.249625,88.8598795 C99.064625,88.8598795 100.579625,88.0798795 100.579625,86.3998795 C100.579625,84.8055938 99.3563597,84.3243693 98.1472635,84.0304917 L97.2233742,83.8206275 C96.4285696,83.6327687 95.809625,83.4139971 95.809625,82.8448795 C95.809625,82.3948795 96.139625,82.0348795 97.159625,82.0348795 C97.879625,82.0348795 98.824625,82.4248795 99.409625,82.9048795 L100.294625,81.7048795 C99.469625,81.0148795 98.539625,80.5798795 97.024625,80.5798795 C95.269625,80.5798795 94.069625,81.5248795 94.069625,82.9198795 C94.069625,84.5672009 95.373037,85.0306894 96.6239196,85.3353086 L97.4011454,85.5188272 C98.2090021,85.7169902 98.839625,85.9357618 98.839625,86.5048795 C98.839625,87.1648795 98.239625,87.4198795 97.249625,87.4198795 C96.229625,87.4198795 95.344625,86.9848795 94.744625,86.4748795 L93.739625,87.5998795 C94.459625,88.3348795 95.779625,88.8598795 97.249625,88.8598795 Z M105.073051,88.7970123 L105.283983,88.7998795 C105.748983,88.7998795 106.438983,88.7398795 106.633983,88.6948795 L106.633983,87.2398795 C106.453983,87.2998795 106.108983,87.3448795 105.838983,87.3448795 C104.923983,87.3448795 104.668983,86.9998795 104.668983,86.1448795 L104.668983,82.1998795 L106.723983,82.1998795 L106.723983,80.7298795 L104.668983,80.7298795 L104.668983,77.9548795 L102.823983,77.9548795 L102.823983,80.7298795 L101.443983,80.7298795 L101.443983,82.1998795 L102.823983,82.1998795 L102.823983,86.6098795 C102.823983,87.9984509 103.228467,88.7454279 105.073051,88.7970123 L105.073051,88.7970123 Z M111.248342,91.7848795 C113.708342,91.7848795 115.358342,90.9898795 115.358342,89.3548795 C115.358342,87.9598795 114.428342,87.3298795 112.073342,87.1798795 L110.663342,87.0898795 C109.958342,87.0298795 109.748342,86.9248795 109.748342,86.6098795 C109.748342,86.3998795 109.913342,86.2348795 110.153342,86.0998795 C110.543342,86.2048795 110.813342,86.2648795 111.263342,86.2648795 C113.333342,86.2648795 114.578342,85.0948795 114.578342,83.4298795 C114.578342,83.0098795 114.473342,82.6348795 114.293342,82.3498795 C114.818342,82.1848795 115.328342,82.1398795 115.688342,82.1398795 L115.688342,80.6398795 C115.028342,80.6998795 114.218342,81.0148795 113.708342,81.4198795 C113.168342,80.9398795 112.358342,80.5798795 111.263342,80.5798795 C109.178342,80.5798795 107.918342,81.7948795 107.918342,83.4298795 C107.918342,84.4048795 108.368342,85.2148795 109.178342,85.7248795 C108.578342,86.0848795 108.098342,86.5798795 108.098342,87.1798795 C108.098342,87.6148795 108.308342,87.9448795 108.713342,88.1548795 C107.903342,88.4698795 107.408342,89.0398795 107.408342,89.8348795 C107.408342,90.9898795 108.503342,91.7848795 111.248342,91.7848795 Z M111.293342,84.9898795 C110.273342,84.9898795 109.658342,84.4648795 109.658342,83.4898795 C109.658342,82.5148795 110.258342,81.9598795 111.278342,81.9598795 C112.328342,81.9598795 112.898342,82.4998795 112.898342,83.4898795 C112.898342,84.4648795 112.298342,84.9898795 111.293342,84.9898795 Z M111.533342,90.4498795 C109.913342,90.4498795 109.103342,90.2248795 109.103342,89.5198795 C109.103342,89.1148795 109.313342,88.7398795 109.838342,88.4998795 C110.003342,88.5298795 110.153342,88.5448795 110.318342,88.5448795 L111.698342,88.6348795 L112.093921,88.6648203 C113.385714,88.7791233 113.723342,88.9994447 113.723342,89.5198795 C113.723342,90.0898795 112.883342,90.4498795 111.533342,90.4498795 Z M117.0627,88.6948795 L118.9077,88.6948795 L118.9077,83.6548795 C119.4327,82.7998795 120.1827,82.2448795 121.3677,82.2448795 L121.67982,82.2578395 C121.7571,82.2628795 121.8267,82.2688795 121.8627,82.2748795 L121.9227,80.5798795 L121.8027,80.5798795 C120.2877,80.5798795 119.4327,81.2398795 118.9377,82.0348795 L118.9077,82.0348795 L118.9077,80.7298795 L117.0627,80.7298795 L117.0627,88.6948795 Z M126.642058,88.8598795 C128.067058,88.8598795 129.162058,88.3348795 129.987058,87.4198795 L129.012058,86.4598795 C128.412058,87.0448795 127.812058,87.3898795 126.777058,87.3898795 C125.607058,87.3898795 124.722058,86.7598795 124.647058,85.3198795 L130.092058,85.3198795 L130.092058,84.8848795 C130.092058,81.6448795 128.382058,80.5798795 126.597058,80.5798795 C124.947058,80.5798795 122.802058,81.6898795 122.802058,84.7198795 C122.802058,87.6448795 124.647058,88.8598795 126.642058,88.8598795 Z M124.677058,83.9398795 C124.857058,82.5898795 125.682058,82.0798795 126.582058,82.0798795 C127.692058,82.0798795 128.292058,82.7248795 128.397058,83.9398795 L124.677058,83.9398795 Z M134.631417,88.8598795 C136.446417,88.8598795 137.961417,88.0798795 137.961417,86.3998795 C137.961417,84.8055938 136.738151,84.3243693 135.529055,84.0304917 L134.605166,83.8206275 C133.810361,83.6327687 133.191417,83.4139971 133.191417,82.8448795 C133.191417,82.3948795 133.521417,82.0348795 134.541417,82.0348795 C135.261417,82.0348795 136.206417,82.4248795 136.791417,82.9048795 L137.676417,81.7048795 C136.851417,81.0148795 135.921417,80.5798795 134.406417,80.5798795 C132.651417,80.5798795 131.451417,81.5248795 131.451417,82.9198795 C131.451417,84.5672009 132.754829,85.0306894 134.005711,85.3353086 L134.782937,85.5188272 C135.590794,85.7169902 136.221417,85.9357618 136.221417,86.5048795 C136.221417,87.1648795 135.621417,87.4198795 134.631417,87.4198795 C133.611417,87.4198795 132.726417,86.9848795 132.126417,86.4748795 L131.121417,87.5998795 C131.841417,88.3348795 133.161417,88.8598795 134.631417,88.8598795 Z M145.555133,88.8448795 C146.995133,88.8448795 147.955133,88.1548795 148.465133,87.6148795 L148.465133,88.6948795 L150.325133,88.6948795 L150.325133,80.7298795 L148.465133,80.7298795 L148.465133,86.2648795 C147.790133,86.8798795 147.115133,87.2998795 146.305133,87.2998795 C145.495133,87.2998795 145.120133,86.8948795 145.120133,86.0098795 L145.120133,80.7298795 L143.260133,80.7298795 L143.260133,86.4448795 C143.260133,88.0198795 144.160133,88.8448795 145.555133,88.8448795 Z M155.314492,88.8598795 C157.129492,88.8598795 158.644492,88.0798795 158.644492,86.3998795 C158.644492,84.8055938 157.421226,84.3243693 156.21213,84.0304917 L155.288241,83.8206275 C154.493436,83.6327687 153.874492,83.4139971 153.874492,82.8448795 C153.874492,82.3948795 154.204492,82.0348795 155.224492,82.0348795 C155.944492,82.0348795 156.889492,82.4248795 157.474492,82.9048795 L158.359492,81.7048795 C157.534492,81.0148795 156.604492,80.5798795 155.089492,80.5798795 C153.334492,80.5798795 152.134492,81.5248795 152.134492,82.9198795 C152.134492,84.5672009 153.437904,85.0306894 154.688786,85.3353086 L155.466012,85.5188272 C156.273869,85.7169902 156.904492,85.9357618 156.904492,86.5048795 C156.904492,87.1648795 156.304492,87.4198795 155.314492,87.4198795 C154.294492,87.4198795 153.409492,86.9848795 152.809492,86.4748795 L151.804492,87.5998795 C152.524492,88.3348795 153.844492,88.8598795 155.314492,88.8598795 Z M160.31885,79.3498795 L162.20885,79.3498795 L162.20885,77.7448795 L160.31885,77.7448795 L160.31885,79.3498795 Z M160.33385,88.6948795 L162.19385,88.6948795 L162.19385,80.7298795 L160.33385,80.7298795 L160.33385,88.6948795 Z M164.348208,88.6948795 L166.208208,88.6948795 L166.208208,83.1898795 C166.883208,82.5748795 167.558208,82.1548795 168.368208,82.1548795 C169.178208,82.1548795 169.553208,82.5598795 169.553208,83.4448795 L169.553208,88.6948795 L171.413208,88.6948795 L171.413208,82.9798795 C171.413208,81.4048795 170.513208,80.5798795 169.118208,80.5798795 C167.678208,80.5798795 166.718208,81.2698795 166.208208,81.8098795 L166.208208,80.7298795 L164.348208,80.7298795 L164.348208,88.6948795 Z M176.402567,91.7848795 C178.862567,91.7848795 180.512567,90.9898795 180.512567,89.3548795 C180.512567,87.9598795 179.582567,87.3298795 177.227567,87.1798795 L175.817567,87.0898795 C175.112567,87.0298795 174.902567,86.9248795 174.902567,86.6098795 C174.902567,86.3998795 175.067567,86.2348795 175.307567,86.0998795 C175.697567,86.2048795 175.967567,86.2648795 176.417567,86.2648795 C178.487567,86.2648795 179.732567,85.0948795 179.732567,83.4298795 C179.732567,83.0098795 179.627567,82.6348795 179.447567,82.3498795 C179.972567,82.1848795 180.482567,82.1398795 180.842567,82.1398795 L180.842567,80.6398795 C180.182567,80.6998795 179.372567,81.0148795 178.862567,81.4198795 C178.322567,80.9398795 177.512567,80.5798795 176.417567,80.5798795 C174.332567,80.5798795 173.072567,81.7948795 173.072567,83.4298795 C173.072567,84.4048795 173.522567,85.2148795 174.332567,85.7248795 C173.732567,86.0848795 173.252567,86.5798795 173.252567,87.1798795 C173.252567,87.6148795 173.462567,87.9448795 173.867567,88.1548795 C173.057567,88.4698795 172.562567,89.0398795 172.562567,89.8348795 C172.562567,90.9898795 173.657567,91.7848795 176.402567,91.7848795 Z M176.447567,84.9898795 C175.427567,84.9898795 174.812567,84.4648795 174.812567,83.4898795 C174.812567,82.5148795 175.412567,81.9598795 176.432567,81.9598795 C177.482567,81.9598795 178.052567,82.4998795 178.052567,83.4898795 C178.052567,84.4648795 177.452567,84.9898795 176.447567,84.9898795 Z M176.687567,90.4498795 C175.067567,90.4498795 174.257567,90.2248795 174.257567,89.5198795 C174.257567,89.1148795 174.467567,88.7398795 174.992567,88.4998795 C175.157567,88.5298795 175.307567,88.5448795 175.472567,88.5448795 L176.852567,88.6348795 L177.248146,88.6648203 C178.539939,88.7791233 178.877567,88.9994447 178.877567,89.5198795 C178.877567,90.0898795 178.037567,90.4498795 176.687567,90.4498795 Z M187.731283,88.8148795 C188.916283,88.8148795 189.861283,88.4998795 190.671283,87.6748795 C190.671283,88.1248795 190.746283,88.3648795 190.851283,88.6948795 L192.711283,88.6948795 C192.561283,88.3266976 192.49806,87.8097555 192.487805,86.9975466 L192.486283,83.4598795 C192.486283,81.5998795 191.751283,80.5798795 189.621283,80.5798795 C187.971283,80.5798795 186.636283,81.2398795 185.781283,82.0198795 L186.681283,83.1748795 C187.356283,82.6348795 188.256283,82.0948795 189.366283,82.0948795 C190.251283,82.0948795 190.671283,82.4398795 190.671283,83.2348795 L190.671283,83.4748795 C186.951283,83.8948795 185.481283,85.0498795 185.481283,86.7748795 C185.481283,88.0948795 186.441283,88.8148795 187.731283,88.8148795 Z M188.406283,87.3898795 C187.731283,87.3898795 187.296283,87.0598795 187.296283,86.4298795 C187.296283,85.5598795 188.466283,85.0198795 190.671283,84.7198795 L190.671283,86.4748795 C190.086283,87.0298795 189.351283,87.3898795 188.406283,87.3898795 Z M194.475642,88.6948795 L196.335642,88.6948795 L196.335642,83.1898795 C197.010642,82.5748795 197.685642,82.1548795 198.495642,82.1548795 C199.305642,82.1548795 199.680642,82.5598795 199.680642,83.4448795 L199.680642,88.6948795 L201.540642,88.6948795 L201.540642,82.9798795 C201.540642,81.4048795 200.640642,80.5798795 199.245642,80.5798795 C197.805642,80.5798795 196.845642,81.2698795 196.335642,81.8098795 L196.335642,80.7298795 L194.475642,80.7298795 L194.475642,88.6948795 Z M210.694358,88.8598795 C212.119358,88.8598795 213.214358,88.3348795 214.039358,87.4198795 L213.064358,86.4598795 C212.464358,87.0448795 211.864358,87.3898795 210.829358,87.3898795 C209.659358,87.3898795 208.774358,86.7598795 208.699358,85.3198795 L214.144358,85.3198795 L214.144358,84.8848795 C214.144358,81.6448795 212.434358,80.5798795 210.649358,80.5798795 C208.999358,80.5798795 206.854358,81.6898795 206.854358,84.7198795 C206.854358,87.6448795 208.699358,88.8598795 210.694358,88.8598795 Z M208.729358,83.9398795 C208.909358,82.5898795 209.734358,82.0798795 210.634358,82.0798795 C211.744358,82.0798795 212.344358,82.7248795 212.449358,83.9398795 L208.729358,83.9398795 Z M217.513717,88.8148795 C218.698717,88.8148795 219.643717,88.4998795 220.453717,87.6748795 C220.453717,88.1248795 220.528717,88.3648795 220.633717,88.6948795 L222.493717,88.6948795 C222.328717,88.2898795 222.268717,87.7048795 222.268717,86.7448795 L222.268717,83.4598795 C222.268717,81.5998795 221.533717,80.5798795 219.403717,80.5798795 C217.753717,80.5798795 216.418717,81.2398795 215.563717,82.0198795 L216.463717,83.1748795 C217.138717,82.6348795 218.038717,82.0948795 219.148717,82.0948795 C220.033717,82.0948795 220.453717,82.4398795 220.453717,83.2348795 L220.453717,83.4748795 C216.733717,83.8948795 215.263717,85.0498795 215.263717,86.7748795 C215.263717,88.0948795 216.223717,88.8148795 217.513717,88.8148795 Z M218.188717,87.3898795 C217.513717,87.3898795 217.078717,87.0598795 217.078717,86.4298795 C217.078717,85.5598795 218.248717,85.0198795 220.453717,84.7198795 L220.453717,86.4748795 C219.868717,87.0298795 219.133717,87.3898795 218.188717,87.3898795 Z M227.168075,88.8598795 C228.983075,88.8598795 230.498075,88.0798795 230.498075,86.3998795 C230.498075,84.8055938 229.27481,84.3243693 228.065713,84.0304917 L227.141824,83.8206275 C226.34702,83.6327687 225.728075,83.4139971 225.728075,82.8448795 C225.728075,82.3948795 226.058075,82.0348795 227.078075,82.0348795 C227.798075,82.0348795 228.743075,82.4248795 229.328075,82.9048795 L230.213075,81.7048795 C229.388075,81.0148795 228.458075,80.5798795 226.943075,80.5798795 C225.188075,80.5798795 223.988075,81.5248795 223.988075,82.9198795 C223.988075,84.5672009 225.291487,85.0306894 226.54237,85.3353086 L227.319595,85.5188272 C228.127452,85.7169902 228.758075,85.9357618 228.758075,86.5048795 C228.758075,87.1648795 228.158075,87.4198795 227.168075,87.4198795 C226.148075,87.4198795 225.263075,86.9848795 224.663075,86.4748795 L223.658075,87.5998795 C224.378075,88.3348795 225.698075,88.8598795 227.168075,88.8598795 Z M232.952433,91.7848795 C234.458955,91.7848795 235.15576,91.0300591 235.67296,89.7435825 L239.132433,80.7298795 L237.302433,80.7298795 L235.262433,86.5348795 L235.232433,86.5348795 L233.177433,80.7298795 L231.257433,80.7298795 L234.317433,88.7398795 L234.092433,89.3248795 C233.837433,89.9698795 233.492433,90.2248795 232.832433,90.2248795 C232.187433,90.2248795 231.707433,90.1198795 231.482433,90.0598795 L231.062433,91.5448795 L231.272225,91.5991156 C231.648267,91.6911295 232.164933,91.7848795 232.952433,91.7848795 Z M246.980217,88.7970123 L247.19115,88.7998795 C247.65615,88.7998795 248.34615,88.7398795 248.54115,88.6948795 L248.54115,87.2398795 C248.36115,87.2998795 248.01615,87.3448795 247.74615,87.3448795 C246.83115,87.3448795 246.57615,86.9998795 246.57615,86.1448795 L246.57615,82.1998795 L248.63115,82.1998795 L248.63115,80.7298795 L246.57615,80.7298795 L246.57615,77.9548795 L244.73115,77.9548795 L244.73115,80.7298795 L243.35115,80.7298795 L243.35115,82.1998795 L244.73115,82.1998795 L244.73115,86.6098795 C244.73115,87.9984509 245.135633,88.7454279 246.980217,88.7970123 L246.980217,88.7970123 Z M253.590508,88.8598795 C255.525508,88.8598795 257.475508,87.6298795 257.475508,84.7198795 C257.475508,81.7798795 255.525508,80.5798795 253.590508,80.5798795 C251.640508,80.5798795 249.705508,81.7798795 249.705508,84.7198795 C249.705508,87.6298795 251.655508,88.8598795 253.590508,88.8598795 Z M253.590508,87.3148795 C252.180508,87.3148795 251.565508,86.2348795 251.565508,84.7198795 C251.565508,83.1148795 252.255508,82.1548795 253.590508,82.1548795 C254.985508,82.1548795 255.615508,83.2348795 255.615508,84.7198795 C255.615508,86.3548795 254.925508,87.3148795 253.590508,87.3148795 Z M21.4304,105.844879 C22.8704,105.844879 23.8304,105.154879 24.3404,104.614879 L24.3404,105.694879 L26.2004,105.694879 L26.2004,97.7298795 L24.3404,97.7298795 L24.3404,103.264879 C23.6654,103.879879 22.9904,104.299879 22.1804,104.299879 C21.3704,104.299879 20.9954,103.894879 20.9954,103.009879 L20.9954,97.7298795 L19.1354,97.7298795 L19.1354,103.444879 C19.1354,105.019879 20.0354,105.844879 21.4304,105.844879 Z M31.1897583,105.859879 C33.0047583,105.859879 34.5197583,105.079879 34.5197583,103.399879 C34.5197583,101.805594 33.296493,101.324369 32.0873968,101.030492 L31.1635076,100.820627 C30.368703,100.632769 29.7497583,100.413997 29.7497583,99.8448795 C29.7497583,99.3948795 30.0797583,99.0348795 31.0997583,99.0348795 C31.8197583,99.0348795 32.7647583,99.4248795 33.3497583,99.9048795 L34.2347583,98.7048795 C33.4097583,98.0148795 32.4797583,97.5798795 30.9647583,97.5798795 C29.2097583,97.5798795 28.0097583,98.5248795 28.0097583,99.9198795 C28.0097583,101.633094 29.4195287,102.065874 30.7138199,102.371166 L31.3412788,102.518827 C32.1491355,102.71699 32.7797583,102.935762 32.7797583,103.504879 C32.7797583,104.164879 32.1797583,104.419879 31.1897583,104.419879 C30.1697583,104.419879 29.2847583,103.984879 28.6847583,103.474879 L27.6797583,104.599879 C28.3997583,105.334879 29.7197583,105.859879 31.1897583,105.859879 Z M39.5241167,105.859879 C40.9491167,105.859879 42.0441167,105.334879 42.8691167,104.419879 L41.8941167,103.459879 C41.2941167,104.044879 40.6941167,104.389879 39.6591167,104.389879 C38.4891167,104.389879 37.6041167,103.759879 37.5291167,102.319879 L42.9741167,102.319879 L42.9741167,101.884879 C42.9741167,98.6448795 41.2641167,97.5798795 39.4791167,97.5798795 C37.8291167,97.5798795 35.6841167,98.6898795 35.6841167,101.719879 C35.6841167,104.644879 37.5291167,105.859879 39.5241167,105.859879 Z M37.5591167,100.939879 C37.7391167,99.5898795 38.5641167,99.0798795 39.4641167,99.0798795 C40.5741167,99.0798795 41.1741167,99.7248795 41.2791167,100.939879 L37.5591167,100.939879 Z M52.8028333,105.904879 C54.5128333,105.904879 55.4878333,104.884879 55.8328333,104.089879 L55.8628333,104.089879 L55.8628333,105.694879 L57.4078333,105.694879 L57.4078333,100.204879 L53.3728333,100.204879 L53.3728333,101.719879 L55.6078333,101.719879 C55.4878333,103.354879 54.4828333,104.224879 53.0128333,104.224879 C51.4378333,104.224879 49.9528333,103.159879 49.9528333,100.054879 C49.9528333,96.9348795 51.6178333,96.1248795 52.9378333,96.1248795 C54.2578333,96.1248795 55.0228333,96.6798795 55.5178333,98.3448795 L57.2578333,97.8798795 C56.5978333,95.3598795 55.0528333,94.3848795 52.9528333,94.3848795 C49.9978333,94.3848795 48.0628333,96.5448795 48.0628333,100.099879 C48.0628333,103.489879 49.6228333,105.904879 52.8028333,105.904879 Z M63.9421917,105.874879 C66.8071917,105.874879 68.2321917,104.149879 68.2321917,101.629879 L68.2321917,94.5948795 L66.3871917,94.5948795 L66.3871917,101.494879 C66.3871917,103.204879 65.6521917,104.179879 63.9571917,104.179879 C62.2471917,104.179879 61.5121917,103.174879 61.5121917,101.479879 L61.5121917,94.5948795 L59.6371917,94.5948795 L59.6371917,101.644879 C59.6371917,104.164879 60.8821917,105.874879 63.9421917,105.874879 Z M70.73155,105.694879 L72.62155,105.694879 L72.62155,94.5948795 L70.73155,94.5948795 L70.73155,105.694879 Z M75.0459083,105.694879 L75.0459083,103.744879 L77.1159083,103.744879 L77.1159083,105.694879 L75.0459083,105.694879 Z" id="SalesforceobjectsaremappedonHerokuPostgresusinganeasytouseGUI." fill="#FFFFFF" fill-rule="nonzero"></path>
            </g>
        </g>
    </g>
</svg>