<?xml version="1.0" encoding="UTF-8"?>
<svg width="17px" height="76px" viewBox="0 0 17 76" version="1.1" xmlns="http://www.w3.org/2000/svg" xmlns:xlink="http://www.w3.org/1999/xlink">
    <!-- Generator: Sketch 59.1 (86144) - https://sketch.com -->
    <title>mobile-arrow-1</title>
    <desc>Created with Sketch.</desc>
    <g id="Page-1" stroke="none" stroke-width="1" fill="none" fill-rule="evenodd">
        <g id="animation-mockup-rev2-copy-2" transform="translate(-179.000000, -83.000000)" fill="#DBCDE5" fill-rule="nonzero">
            <path id="mobile-arrow-1" d="M186.628424,84.2597388 C187.010729,83.5800871 187.989271,83.5800871 188.371576,84.2597388 L188.371576,84.2597388 L195.121576,96.2597388 C195.392339,96.7410966 195.221619,97.3508117 194.740261,97.6215755 C194.258903,97.8923393 193.649188,97.7216191 193.378424,97.2402612 L193.378424,97.2402612 L188.5,88.567 L188.5,153.432 L193.378424,144.759739 C193.629848,144.312764 194.173531,144.133634 194.635319,144.327113 L194.740261,144.378424 C195.221619,144.649188 195.392339,145.258903 195.121576,145.740261 L195.121576,145.740261 L188.371576,157.740261 C187.989271,158.419913 187.010729,158.419913 186.628424,157.740261 L186.628424,157.740261 L179.878424,145.740261 C179.607661,145.258903 179.778381,144.649188 180.259739,144.378424 C180.741097,144.107661 181.350812,144.278381 181.621576,144.759739 L181.621576,144.759739 L186.5,153.432 L186.5,88.567 L181.621576,97.2402612 C181.370152,97.6872364 180.826469,97.8663659 180.364681,97.6728866 L180.259739,97.6215755 C179.778381,97.3508117 179.607661,96.7410966 179.878424,96.2597388 L179.878424,96.2597388 Z"></path>
        </g>
    </g>
</svg>