<?xml version="1.0" encoding="UTF-8"?>
<svg width="125px" height="87px" viewBox="0 0 125 87" version="1.1" xmlns="http://www.w3.org/2000/svg" xmlns:xlink="http://www.w3.org/1999/xlink">
    <!-- Generator: Sketch 59.1 (86144) - https://sketch.com -->
    <title>salesforce</title>
    <desc>Created with Sketch.</desc>
    <defs>
        <polygon id="path-1" points="0 0.0069047619 124.285714 0.0069047619 124.285714 86.9792857 0 86.9792857"></polygon>
    </defs>
    <g id="Page-1" stroke="none" stroke-width="1" fill="none" fill-rule="evenodd">
        <g id="animation-mockup-rev2-copy" transform="translate(-31.000000, -136.000000)">
            <g id="salesforce" transform="translate(31.000000, 136.000000)">
                <g id="Group-3">
                    <mask id="mask-2" fill="white">
                        <use xlink:href="#path-1"></use>
                    </mask>
                    <g id="Clip-2"></g>
                    <path d="M51.720119,9.49508333 C55.7283333,5.31942857 61.3087619,2.72807143 67.4812738,2.72807143 C75.6848214,2.72807143 82.8433333,7.30282143 86.6540714,14.0946905 C89.9680119,12.6143095 93.6344405,11.7905714 97.4917857,11.7905714 C112.289381,11.7905714 124.285714,23.8918571 124.285714,38.8199524 C124.285714,53.7480476 112.289381,65.8493333 97.4917857,65.8493333 C95.6851548,65.8493333 93.9202976,65.6680833 92.2134405,65.3235357 C88.857381,71.3099643 82.4597738,75.3554643 75.1182857,75.3554643 C72.0453214,75.3554643 69.1380714,74.646 66.5494762,73.383119 C63.1468095,81.3878095 55.2177262,87.0003452 45.9791548,87.0003452 C36.3563333,87.0003452 28.1545119,80.9120714 25.0080119,72.3729524 C23.6318929,72.6639881 22.2057143,72.8172738 20.7439762,72.8172738 C9.28725,72.8172738 0,63.4330119 0,51.8571786 C0,44.0982976 4.17220238,37.3250714 10.3730238,33.7011071 C9.09633333,30.7627857 8.38721429,27.5216905 8.38721429,24.1141905 C8.38721429,10.8000833 19.1945476,0.0069047619 32.5266071,0.0069047619 C40.3538452,0.0069047619 47.3097024,3.72822619 51.720119,9.49508333" id="Fill-1" fill="#0095C8" mask="url(#mask-2)"></path>
                </g>
                <path d="M18.0014048,45.1195119 C17.9230357,45.3235476 18.029369,45.3660119 18.0545714,45.4019167 C18.2876071,45.5710833 18.525131,45.6929524 18.764381,45.8303571 C20.0314048,46.5015 21.2290357,46.6982857 22.4801786,46.6982857 C25.0297619,46.6982857 26.6137143,45.342881 26.6137143,43.1602857 L26.6137143,43.117131 C26.6137143,41.098869 24.8260714,40.3655833 23.150631,39.8363333 L22.9314048,39.7652143 C21.6681786,39.3550714 20.576881,39.0008571 20.576881,38.1681429 L20.576881,38.1249881 C20.576881,37.4127619 21.2152262,36.8886905 22.2026071,36.8886905 C23.3011548,36.8886905 24.6027024,37.2539524 25.4419762,37.7172619 C25.4419762,37.7172619 25.6891667,37.8771071 25.7792738,37.6378571 C25.8279524,37.5094286 26.2529405,36.3666905 26.2974762,36.24275 C26.3458095,36.1084524 26.260881,36.0083333 26.173881,35.9555119 C25.2151548,35.3724048 23.8915119,34.9746905 22.5212619,34.9746905 L22.2668214,34.9757262 C19.9333571,34.9757262 18.3038333,36.386369 18.3038333,38.4060119 L18.3038333,38.4491667 C18.3038333,40.5775595 20.1007976,41.2694167 21.7852143,41.7506786 L22.0555357,41.833881 C23.2818214,42.2101905 24.3403214,42.5350595 24.3403214,43.3981548 L24.3403214,43.4413095 C24.3403214,44.2312143 23.6522619,44.8177738 22.5440476,44.8177738 C22.113881,44.8177738 20.7425952,44.8105238 19.2604881,43.8728571 C19.080619,43.7685952 18.9777381,43.6933333 18.8396429,43.60875 C18.7667976,43.563869 18.5841667,43.4844643 18.5047619,43.7237143 L18.0014048,45.1195119" id="Fill-4" fill="#FFFFFE"></path>
                <path d="M55.3240595,45.1195119 C55.2460357,45.3235476 55.352369,45.3660119 55.3775714,45.4019167 C55.6106071,45.5710833 55.848131,45.6929524 56.0870357,45.8303571 C57.3544048,46.5015 58.5520357,46.6982857 59.8031786,46.6982857 C62.3527619,46.6982857 63.936369,45.342881 63.936369,43.1602857 L63.936369,43.117131 C63.936369,41.098869 62.1490714,40.3655833 60.4732857,39.8363333 L60.2544048,39.7652143 C58.9911786,39.3550714 57.899881,39.0008571 57.899881,38.1681429 L57.899881,38.1249881 C57.899881,37.4127619 58.5382262,36.8886905 59.5256071,36.8886905 C60.6241548,36.8886905 61.9253571,37.2539524 62.7649762,37.7172619 C62.7649762,37.7172619 63.0121667,37.8771071 63.1022738,37.6378571 C63.1509524,37.5094286 63.5755952,36.3666905 63.6204762,36.24275 C63.6688095,36.1084524 63.583881,36.0083333 63.496881,35.9555119 C62.5381548,35.3724048 61.2141667,34.9746905 59.8442619,34.9746905 L59.5894762,34.9757262 C57.2563571,34.9757262 55.6268333,36.386369 55.6268333,38.4060119 L55.6268333,38.4491667 C55.6268333,40.5775595 57.4237976,41.2694167 59.107869,41.7506786 L59.3785357,41.833881 C60.6044762,42.2101905 61.6633214,42.5350595 61.6633214,43.3981548 L61.6633214,43.4413095 C61.6633214,44.2312143 60.9752619,44.8177738 59.8670476,44.8177738 C59.436881,44.8177738 58.06525,44.8105238 56.5831429,43.8728571 C56.403619,43.7685952 56.2986667,43.6964405 56.1626429,43.60875 C56.116381,43.5790595 55.9012976,43.4955119 55.8277619,43.7237143 L55.3240595,45.1195119" id="Fill-5" fill="#FFFFFE"></path>
                <path d="M80.8036667,40.8433929 C80.8036667,42.0769286 80.5737381,43.0501548 80.1207857,43.7361429 C79.671631,44.4169524 78.9939286,44.7476905 78.0479762,44.7476905 C77.1020238,44.7476905 76.4274286,44.4172976 75.985869,43.7368333 C75.5398214,43.0505 75.313,42.0769286 75.313,40.8433929 C75.313,39.6108929 75.5394762,38.641119 75.9855238,37.9613452 C76.4274286,37.2877857 77.1020238,36.9608452 78.0479762,36.9608452 C78.9939286,36.9608452 79.671631,37.288131 80.121131,37.962381 C80.5740833,38.641119 80.8036667,39.6108929 80.8036667,40.8433929 M82.9324048,38.5565357 C82.7225,37.8494881 82.3969405,37.227369 81.9636667,36.7077857 C81.5293571,36.1871667 80.9797381,35.7690833 80.3293095,35.465619 C79.6792262,35.1618095 78.9114167,35.0081786 78.0479762,35.0081786 C77.1845357,35.0081786 76.4167262,35.1618095 75.7662976,35.465619 C75.115869,35.7690833 74.5659048,36.1871667 74.1315952,36.7084762 C73.6983214,37.2290952 73.3720714,37.850869 73.1632024,38.5565357 C72.9557143,39.25875 72.8504167,40.0279405 72.8504167,40.8433929 C72.8504167,41.6595357 72.9557143,42.4290714 73.1632024,43.13025 C73.3720714,43.8362619 73.697631,44.4580357 74.1319405,44.9793452 C74.5665952,45.5006548 75.11725,45.915631 75.7673333,46.2115 C76.4181071,46.5077143 77.1852262,46.6578929 78.0479762,46.6578929 C78.9107262,46.6578929 79.6775,46.5077143 80.3282738,46.2115 C80.9787024,45.915631 81.5286667,45.5006548 81.9636667,44.9793452 C82.3969405,44.4597619 82.7225,43.8376429 82.9324048,43.13025 C83.1398929,42.4276905 83.2451905,41.6585 83.2451905,40.8433929 C83.2451905,40.0289762 83.1398929,39.2594405 82.9324048,38.5565357" id="Fill-6" fill="#FFFFFE"></path>
                <path d="M100.407321,44.4179881 C100.337238,44.2108452 100.135964,44.2892143 100.135964,44.2892143 C99.8259405,44.407631 99.4972738,44.5167262 99.1461667,44.571619 C98.7912619,44.6272024 98.3994167,44.6551667 97.9796071,44.6551667 C96.9504524,44.6551667 96.1312024,44.3485952 95.5460238,43.7437381 C94.9587738,43.1375 94.6280357,42.1584048 94.6314881,40.8340714 C94.6352857,39.6295357 94.9266667,38.7232857 95.4486667,38.0314286 C95.9672143,37.34475 96.7574643,36.9926071 97.8094048,36.9926071 C98.6876905,36.9926071 99.3574524,37.0941071 100.059321,37.314369 C100.059321,37.314369 100.226071,37.3875595 100.305821,37.1669524 C100.492595,36.6504762 100.63069,36.2817619 100.829548,35.7131548 C100.886167,35.5515833 100.747381,35.4821905 100.696976,35.4625119 C100.421131,35.3551429 99.7693214,35.1790714 99.2777024,35.1045 C98.8171548,35.0347619 98.2799643,34.997131 97.6809762,34.997131 C96.7871548,34.997131 95.9896548,35.1504167 95.3085,35.4535357 C94.6287262,35.7566548 94.0518333,36.1747381 93.5950833,36.6953571 C93.1379881,37.2159762 92.7899881,37.8380952 92.5597143,38.5437619 C92.3290952,39.2466667 92.2124048,40.0175833 92.2124048,40.8344167 C92.2124048,42.6003095 92.6888333,44.0257976 93.627881,45.0704881 C94.5707262,46.1193214 95.9844762,46.6516786 97.830119,46.6516786 C98.9200357,46.6516786 100.038607,46.4310714 100.843702,46.1141429 C100.843702,46.1141429 100.997333,46.0402619 100.930357,45.8610833 L100.407321,44.4179881" id="Fill-7" fill="#FFFFFE"></path>
                <path d="M104.130714,39.6612976 C104.23256,38.9756548 104.420714,38.4063571 104.712786,37.9613452 C105.15469,37.2877857 105.826524,36.9166548 106.772476,36.9166548 C107.718429,36.9166548 108.341929,37.288131 108.791429,37.962381 C109.087988,38.4070476 109.217798,39.0001667 109.268893,39.6623333 L104.130714,39.6612976 Z M111.295095,38.1557143 C111.114536,37.4731786 110.667107,36.7844286 110.374,36.468881 C109.91,35.9700119 109.456702,35.6202857 109.005821,35.4269524 C108.418571,35.1749286 107.713595,35.0081786 106.943024,35.0081786 C106.043333,35.0081786 105.226845,35.1597381 104.563988,35.4704524 C103.900786,35.7815119 103.343226,36.2075357 102.905464,36.7360952 C102.468048,37.2643095 102.140071,37.8933333 101.929821,38.6065952 C101.720262,39.3157143 101.613929,40.0893929 101.613929,40.9051905 C101.613929,41.7361786 101.723714,42.5105476 101.940869,43.2058571 C102.159405,43.9077262 102.510857,44.5239762 102.984524,45.0366548 C103.45819,45.5510595 104.067881,45.9549881 104.796333,46.2363571 C105.520988,46.5170357 106.401,46.6627262 107.410821,46.6596677 C109.491917,46.6530595 110.587012,46.1887143 111.039274,45.9387619 C111.119024,45.8945714 111.194631,45.8172381 111.100381,45.5945595 L110.628786,44.27575 C110.556631,44.078619 110.357774,44.1504286 110.357774,44.1504286 C109.841643,44.3427262 109.110083,44.6865833 107.400119,44.683131 C106.283619,44.6810595 105.455738,44.3510119 104.935464,43.8355714 C104.403798,43.3083929 104.142452,42.5336786 104.097917,41.439619 L111.300619,41.4451429 C111.300619,41.4451429 111.4905,41.4430714 111.509833,41.2576786 C111.518119,41.181381 111.757714,39.7779881 111.295095,38.1557143 L111.295095,38.1557143 Z" id="Fill-8" fill="#FFFFFE"></path>
                <path d="M46.4372857,39.6612976 C46.539131,38.9756548 46.7272857,38.4063571 47.0190119,37.9613452 C47.4612619,37.2877857 48.1330952,36.9166548 49.0790476,36.9166548 C50.025,36.9166548 50.6488452,37.288131 51.0983452,37.962381 C51.3945595,38.4070476 51.524369,39.0001667 51.5754643,39.6623333 L46.4372857,39.6612976 Z M53.6016667,38.1557143 C53.4207619,37.4731786 52.9736786,36.7844286 52.6805714,36.468881 C52.2169167,35.9700119 51.7632738,35.6202857 51.3123929,35.4269524 C50.7251429,35.1749286 50.0201667,35.0081786 49.24925,35.0081786 C48.35025,35.0081786 47.5334167,35.1597381 46.8705595,35.4704524 C46.2073571,35.7815119 45.6497976,36.2075357 45.2120357,36.7360952 C44.7742738,37.2643095 44.4462976,37.8933333 44.2363929,38.6065952 C44.0268333,39.3157143 43.9205,40.0893929 43.9205,40.9051905 C43.9205,41.7361786 44.0302857,42.5105476 44.2474405,43.2058571 C44.4663214,43.9077262 44.8174286,44.5239762 45.2910952,45.0366548 C45.7651071,45.5510595 46.3741071,45.9549881 47.1029048,46.2363571 C47.8279048,46.5170357 48.7075714,46.6627262 49.7177381,46.6596677 C51.7988333,46.6530595 52.8935833,46.1887143 53.3458452,45.9387619 C53.4255952,45.8945714 53.5012024,45.8172381 53.4066071,45.5945595 L52.9357024,44.27575 C52.8635476,44.078619 52.6643452,44.1504286 52.6643452,44.1504286 C52.1482143,44.3427262 51.417,44.6865833 49.7066905,44.683131 C48.5905357,44.6810595 47.7623095,44.3510119 47.242381,43.8355714 C46.7107143,43.3083929 46.4490238,42.5336786 46.4048333,41.439619 L53.6071905,41.4451429 C53.6071905,41.4451429 53.7970714,41.4430714 53.8164048,41.2576786 C53.8246905,41.181381 54.0642857,39.7779881 53.6016667,38.1557143 L53.6016667,38.1557143 Z" id="Fill-9" fill="#FFFFFE"></path>
                <path d="M30.8660119,44.378631 C30.5839524,44.1531905 30.5449405,44.0972619 30.4506905,43.9512262 C30.3077619,43.730619 30.2349167,43.4157619 30.2349167,43.01425 C30.2349167,42.3817738 30.4448214,41.9260595 30.87775,41.6194881 C30.8736071,41.6212143 31.4991786,41.0805714 32.967131,41.0992143 C33.9993929,41.1126786 34.92325,41.265619 34.92325,41.265619 L34.92325,44.5405476 L34.9235952,44.5405476 C34.9235952,44.5405476 34.0080238,44.7373333 32.9778333,44.799131 C31.5122976,44.8875119 30.861869,44.37725 30.8660119,44.378631 Z M33.732869,39.3160595 C33.4401071,39.2946548 33.0617262,39.2839524 32.6080833,39.2839524 C31.9911429,39.2839524 31.3942262,39.3605952 30.83425,39.5114643 C30.2715119,39.6630238 29.7653929,39.898131 29.3300476,40.2091905 C28.8922857,40.5233571 28.5404881,40.9224524 28.2853571,41.3968095 C28.0295357,41.8722024 27.8997262,42.4307976 27.8997262,43.0570595 C27.8997262,43.69575 28.0108929,44.2495119 28.230119,44.7017738 C28.4500357,45.1564524 28.7662738,45.535869 29.1695119,45.8293214 C29.5699881,46.1207024 30.0636786,46.33475 30.6367738,46.4649048 C31.2022738,46.5940238 31.8440714,46.659619 32.5442143,46.659619 C33.2837143,46.659619 34.0197619,46.5978214 34.7323333,46.4773333 C35.4397262,46.3568452 36.3062738,46.1804286 36.5465595,46.1248452 C36.7868452,46.0696071 37.0516429,45.9971071 37.0516429,45.9971071 C37.230131,45.951881 37.2159762,45.7609643 37.2159762,45.7609643 L37.2125238,39.1734762 C37.2125238,37.7279643 36.8272381,36.6584167 36.0677143,35.9931429 C35.3116429,35.3320119 34.1989405,34.997131 32.7592976,34.997131 C32.2179643,34.997131 31.3496905,35.0706667 30.8280357,35.1749286 C30.8280357,35.1749286 29.2558214,35.4797738 28.6074643,35.9872738 C28.6074643,35.9872738 28.4655714,36.0753095 28.54325,36.2738214 L29.0531667,37.6440714 C29.1166905,37.8211786 29.2893095,37.7607619 29.2893095,37.7607619 C29.2893095,37.7607619 29.3438571,37.7390119 29.4077262,37.701381 C30.7935119,36.9484167 32.546631,36.9705119 32.546631,36.9705119 C33.3251429,36.9705119 33.924131,37.12725 34.3266786,37.4362381 C34.72025,37.7379762 34.9197976,38.1923095 34.9197976,39.1520714 L34.9197976,39.4569167 C34.3014762,39.3675 33.732869,39.3160595 33.732869,39.3160595 L33.732869,39.3160595 Z" id="Fill-10" fill="#FFFFFE"></path>
                <path d="M91.8354048,35.60475 C91.8906429,35.4421429 91.7746429,35.3637738 91.7276905,35.3454762 C91.6047857,35.2985238 90.9919881,35.1690595 90.5200476,35.1400595 C89.6148333,35.0844762 89.1125119,35.2367262 88.6623214,35.4390357 C88.2155833,35.6403095 87.7208571,35.9655238 87.4453571,36.337 L87.4446667,35.4587143 C87.4446667,35.3382262 87.3587024,35.2405238 87.237869,35.2405238 L85.3911905,35.2405238 C85.2707024,35.2405238 85.1847381,35.3382262 85.1847381,35.4587143 L85.1847381,46.2052857 C85.1847381,46.3254286 85.2820952,46.423131 85.4029286,46.423131 L87.295869,46.423131 C87.4163571,46.423131 87.5140595,46.3254286 87.5140595,46.2052857 L87.5140595,40.8364881 C87.5140595,40.115631 87.5941548,39.3975357 87.7522738,38.945619 C87.9086667,38.4985357 88.1206429,38.14225 88.3837143,37.8857381 C88.6464405,37.6309524 88.9461071,37.4514286 89.2733929,37.3513095 C89.608619,37.2487738 89.9787143,37.2152857 90.2400595,37.2152857 C90.6167143,37.2152857 91.0313452,37.3116071 91.0313452,37.3116071 C91.1704762,37.3271429 91.2474643,37.2422143 91.2940714,37.1172381 C91.4180119,36.787881 91.7687738,35.8008452 91.8354048,35.60475" id="Fill-11" fill="#FFFFFE"></path>
                <path d="M74.0704881,30.6250357 C73.8405595,30.5535714 73.6316905,30.5062738 73.3582619,30.4555238 C73.0817262,30.4054643 72.752369,30.3795714 72.3791667,30.3795714 C71.0769286,30.3795714 70.0498452,30.748631 69.3282976,31.4750119 C68.6122738,32.1969048 68.1251429,33.2961429 67.8810595,34.7423452 L67.7926786,35.2298214 L66.1572857,35.2298214 C66.1572857,35.2298214 65.9577381,35.2229167 65.9159643,35.4397262 L65.647369,36.9377143 C65.6287262,37.0809881 65.6898333,37.1704048 65.8824762,37.1700595 L67.4736786,37.1700595 L65.8586548,46.1859524 C65.7322976,46.9116429 65.5879881,47.5089048 65.4274524,47.9611667 C65.2689881,48.4079048 65.1146667,48.7427857 64.9247857,48.9858333 C64.7407738,49.2209405 64.5664286,49.39425 64.265381,49.4950595 C64.0171548,49.5782619 63.7312976,49.6165833 63.4178214,49.6165833 C63.2434762,49.6165833 63.0114762,49.5875833 62.8405833,49.55375 C62.6693452,49.5195714 62.5802738,49.48125 62.4518452,49.4273929 C62.4518452,49.4273929 62.2650714,49.3562738 62.1915357,49.5430476 C62.1314643,49.6959881 61.7075119,50.8632381 61.6567619,51.0072024 C61.6063571,51.1497857 61.6778214,51.2623333 61.7679286,51.2944405 C61.9795595,51.3700476 62.1373333,51.4190714 62.4259524,51.4870833 C62.8267738,51.5816786 63.1647619,51.5872024 63.4813452,51.5872024 C64.1442024,51.5872024 64.7487143,51.4939881 65.2493095,51.3130833 C65.7537024,51.1307976 66.1925,50.813869 66.5805476,50.3843929 C67.0000119,49.9200476 67.264119,49.4353333 67.5168333,48.7728214 C67.7667857,48.1165238 67.9797976,47.3021071 68.15,46.3527024 L69.7729643,37.1700595 L72.1457857,37.1700595 C72.1457857,37.1700595 72.3453333,37.1769643 72.3871071,36.9601548 L72.6553571,35.4621667 C72.6743452,35.3188929 72.6128929,35.2294762 72.4205952,35.2298214 L70.1175119,35.2298214 C70.12925,35.1776905 70.2338571,34.3681071 70.4979643,33.6054762 C70.6105119,33.2799167 70.8228333,33.0171905 71.0030476,32.836631 C71.1801548,32.6595238 71.3835,32.5331667 71.6061786,32.4613571 C71.8347262,32.3874762 72.0950357,32.3505357 72.3791667,32.3505357 C72.5963214,32.3505357 72.8093333,32.3753929 72.9709048,32.4099167 C73.194619,32.4575595 73.281619,32.4824167 73.339619,32.5000238 C73.574381,32.5714881 73.6057976,32.5020952 73.6520595,32.3888571 L74.2030595,30.8756786 C74.2596786,30.7141071 74.1208929,30.6447143 74.0704881,30.6250357" id="Fill-12" fill="#FFFFFE"></path>
                <path d="M41.8880833,46.2052857 C41.8880833,46.3254286 41.802119,46.423131 41.681631,46.423131 L39.7710833,46.423131 C39.6505952,46.423131 39.564631,46.3254286 39.564631,46.2052857 L39.564631,30.8304524 C39.564631,30.7099643 39.6505952,30.6122619 39.7710833,30.6122619 L41.681631,30.6122619 C41.802119,30.6122619 41.8880833,30.7099643 41.8880833,30.8304524 L41.8880833,46.2052857" id="Fill-13" fill="#FFFFFE"></path>
            </g>
        </g>
    </g>
</svg>