<?xml version="1.0" encoding="UTF-8"?>
<svg width="230px" height="186px" viewBox="0 0 230 186" version="1.1" xmlns="http://www.w3.org/2000/svg" xmlns:xlink="http://www.w3.org/1999/xlink">
    <!-- Generator: Sketch 59.1 (86144) - https://sketch.com -->
    <title>speech-3</title>
    <desc>Created with Sketch.</desc>
    <g id="Page-1" stroke="none" stroke-width="1" fill="none" fill-rule="evenodd">
        <g id="animation-mockup-rev2-copy" transform="translate(-206.000000, -191.000000)">
            <g id="speech-3" transform="translate(206.190400, 190.000000)">
                <g id="Group-8" transform="translate(208.424775, 62.000000) scale(1, -1) translate(-208.424775, -62.000000) translate(203.424775, 0.000000)">
                    <path d="M0.688,118.437 C0.688,120.957 2.732,123 5.251,123 C7.771,123 9.814,120.957 9.814,118.437 C9.814,115.917 7.771,113.875 5.251,113.875 C2.732,113.875 0.688,115.917 0.688,118.437" id="Fill-6" fill="#231F20"></path>
                    <line x1="5.2515" y1="0.5522" x2="5.2515" y2="120.5" id="Stroke-4" stroke="#231F20" stroke-width="2.207"></line>
                </g>
                <rect id="Rectangle" fill="#231F20" x="0" y="111" width="229" height="76" rx="6"></rect>
                <path d="M15.114375,136 L17.004375,136 L17.004375,124.9 L15.114375,124.9 L15.114375,136 Z M19.4287333,136 L21.2887333,136 L21.2887333,130.495 C21.9637333,129.88 22.6387333,129.46 23.4487333,129.46 C24.2587333,129.46 24.6337333,129.865 24.6337333,130.75 L24.6337333,136 L26.4937333,136 L26.4937333,130.285 C26.4937333,128.71 25.5937333,127.885 24.1987333,127.885 C22.7587333,127.885 21.7987333,128.575 21.2887333,129.115 L21.2887333,128.035 L19.4287333,128.035 L19.4287333,136 Z M32.25745,136 L34.10245,136 L34.10245,130.96 C34.62745,130.105 35.37745,129.55 36.56245,129.55 C36.66745,129.55 36.96745,129.565 37.05745,129.58 L37.11745,127.885 L36.99745,127.885 C35.48245,127.885 34.62745,128.545 34.13245,129.34 L34.10245,129.34 L34.10245,128.035 L32.25745,128.035 L32.25745,136 Z M41.8368083,136.165 C43.2618083,136.165 44.3568083,135.64 45.1818083,134.725 L44.2068083,133.765 C43.6068083,134.35 43.0068083,134.695 41.9718083,134.695 C40.8018083,134.695 39.9168083,134.065 39.8418083,132.625 L45.2868083,132.625 L45.2868083,132.19 C45.2868083,128.95 43.5768083,127.885 41.7918083,127.885 C40.1418083,127.885 37.9968083,128.995 37.9968083,132.025 C37.9968083,134.95 39.8418083,136.165 41.8368083,136.165 Z M39.8718083,131.245 C40.0518083,129.895 40.8768083,129.385 41.7768083,129.385 C42.8868083,129.385 43.4868083,130.03 43.5918083,131.245 L39.8718083,131.245 Z M48.6561667,136.12 C49.8411667,136.12 50.7861667,135.805 51.5961667,134.98 C51.5961667,135.43 51.6711667,135.67 51.7761667,136 L53.6361667,136 C53.4861667,135.631818 53.4229435,135.114876 53.4126881,134.302667 L53.4111667,130.765 C53.4111667,128.905 52.6761667,127.885 50.5461667,127.885 C48.8961667,127.885 47.5611667,128.545 46.7061667,129.325 L47.6061667,130.48 C48.2811667,129.94 49.1811667,129.4 50.2911667,129.4 C51.1761667,129.4 51.5961667,129.745 51.5961667,130.54 L51.5961667,130.78 C47.8761667,131.2 46.4061667,132.355 46.4061667,134.08 C46.4061667,135.4 47.3661667,136.12 48.6561667,136.12 Z M49.3311667,134.695 C48.6561667,134.695 48.2211667,134.365 48.2211667,133.735 C48.2211667,132.865 49.3911667,132.325 51.5961667,132.025 L51.5961667,133.78 C51.0111667,134.335 50.2761667,134.695 49.3311667,134.695 Z M58.115525,136.12 C59.300525,136.12 60.065525,135.595 60.650525,134.92 C60.650525,135.325 60.725525,135.775 60.830525,136 L62.735525,136 C62.570525,135.62875 62.5063583,135.10625 62.4968097,134.2823 L62.495525,124.9 L60.650525,124.9 L60.650525,128.89 C60.065525,128.23 59.225525,127.885 58.370525,127.885 C56.330525,127.885 54.965525,129.28 54.965525,132.04 C54.965525,134.8 56.300525,136.12 58.115525,136.12 Z M58.715525,134.605 C57.530525,134.605 56.810525,133.765 56.810525,132.085 C56.810525,130.315 57.380525,129.415 58.775525,129.415 C59.435525,129.415 60.155525,129.76 60.650525,130.405 L60.650525,133.6 C60.215525,134.125 59.480525,134.605 58.715525,134.605 Z M64.3648833,131.95 L68.0698833,131.95 L68.0698833,130.63 L64.3648833,130.63 L64.3648833,131.95 Z M71.4542416,136 L73.1642416,136 L74.6042416,130.465 L74.6342416,130.465 L76.0742416,136 L77.7992416,136 L80.1692416,128.035 L78.4892416,128.035 L77.5892416,131.395 L77.4345503,131.938951 C77.2690565,132.541296 77.1459083,133.065 76.9592416,133.87 L76.9292416,133.87 L76.7740854,133.172734 C76.6292416,132.532187 76.5054916,132.02875 76.3142416,131.365 L75.4292416,128.035 L73.9292416,128.035 L73.0892416,131.305 L72.9345503,131.873272 C72.7690565,132.498519 72.6459083,133.03 72.4592416,133.87 L72.4292416,133.87 C72.2454916,132.9775 72.1076791,132.395078 71.9153159,131.660488 L70.9592416,128.035 L69.0842416,128.035 L71.4542416,136 Z M81.3936,136 L83.2386,136 L83.2386,130.96 C83.7636,130.105 84.5136,129.55 85.6986,129.55 C85.8036,129.55 86.1036,129.565 86.1936,129.58 L86.2536,127.885 L86.1336,127.885 C84.6186,127.885 83.7636,128.545 83.2686,129.34 L83.2386,129.34 L83.2386,128.035 L81.3936,128.035 L81.3936,136 Z M87.6429583,126.655 L89.5329583,126.655 L89.5329583,125.05 L87.6429583,125.05 L87.6429583,126.655 Z M87.6579583,136 L89.5179583,136 L89.5179583,128.035 L87.6579583,128.035 L87.6579583,136 Z M94.7623166,136.105 L95.0625566,136.0984 C95.4835166,136.0816 95.9563166,136.036 96.1123166,136 L96.1123166,134.545 C95.9323166,134.605 95.5873166,134.65 95.3173166,134.65 C94.4023166,134.65 94.1473166,134.305 94.1473166,133.45 L94.1473166,129.505 L96.2023166,129.505 L96.2023166,128.035 L94.1473166,128.035 L94.1473166,125.26 L92.3023166,125.26 L92.3023166,128.035 L90.9223166,128.035 L90.9223166,129.505 L92.3023166,129.505 L92.3023166,133.915 C92.3023166,135.355 92.7373166,136.105 94.7623166,136.105 Z M101.116675,136.165 C102.541675,136.165 103.636675,135.64 104.461675,134.725 L103.486675,133.765 C102.886675,134.35 102.286675,134.695 101.251675,134.695 C100.081675,134.695 99.196675,134.065 99.121675,132.625 L104.566675,132.625 L104.566675,132.19 C104.566675,128.95 102.856675,127.885 101.071675,127.885 C99.421675,127.885 97.276675,128.995 97.276675,132.025 C97.276675,134.95 99.121675,136.165 101.116675,136.165 Z M99.151675,131.245 C99.331675,129.895 100.156675,129.385 101.056675,129.385 C102.166675,129.385 102.766675,130.03 102.871675,131.245 L99.151675,131.245 Z M109.970392,136 L111.815392,136 L111.815392,130.495 C112.505392,129.88 113.120392,129.46 113.855392,129.46 C114.725392,129.46 114.980392,129.865 114.980392,130.75 L114.980392,136 L116.825392,136 L116.825392,130.495 C117.515392,129.88 118.115392,129.46 118.865392,129.46 C119.735392,129.46 119.990392,129.865 119.990392,130.75 L119.990392,136 L121.835392,136 L121.835392,130.285 C121.835392,128.86 121.130392,127.885 119.510392,127.885 C118.295392,127.885 117.350392,128.5 116.720392,129.19 C116.405392,128.41 115.880392,127.885 114.545392,127.885 C113.330392,127.885 112.430392,128.455 111.815392,129.13 L111.815392,128.035 L109.970392,128.035 L109.970392,136 Z M127.27475,136.165 C129.20975,136.165 131.15975,134.935 131.15975,132.025 C131.15975,129.085 129.20975,127.885 127.27475,127.885 C125.32475,127.885 123.38975,129.085 123.38975,132.025 C123.38975,134.935 125.33975,136.165 127.27475,136.165 Z M127.27475,134.62 C125.86475,134.62 125.24975,133.54 125.24975,132.025 C125.24975,130.42 125.93975,129.46 127.27475,129.46 C128.66975,129.46 129.29975,130.54 129.29975,132.025 C129.29975,133.66 128.60975,134.62 127.27475,134.62 Z M135.504108,136.12 C136.689108,136.12 137.454108,135.595 138.039108,134.92 C138.039108,135.325 138.114108,135.775 138.219108,136 L140.124108,136 C139.959108,135.62875 139.894942,135.10625 139.885393,134.2823 L139.884108,124.9 L138.039108,124.9 L138.039108,128.89 C137.454108,128.23 136.614108,127.885 135.759108,127.885 C133.719108,127.885 132.354108,129.28 132.354108,132.04 C132.354108,134.8 133.689108,136.12 135.504108,136.12 Z M136.104108,134.605 C134.919108,134.605 134.199108,133.765 134.199108,132.085 C134.199108,130.315 134.769108,129.415 136.164108,129.415 C136.824108,129.415 137.544108,129.76 138.039108,130.405 L138.039108,133.6 C137.604108,134.125 136.869108,134.605 136.104108,134.605 Z M145.353467,136.165 C146.778467,136.165 147.873467,135.64 148.698467,134.725 L147.723467,133.765 C147.123467,134.35 146.523467,134.695 145.488467,134.695 C144.318467,134.695 143.433467,134.065 143.358467,132.625 L148.803467,132.625 L148.803467,132.19 C148.803467,128.95 147.093467,127.885 145.308467,127.885 C143.658467,127.885 141.513467,128.995 141.513467,132.025 C141.513467,134.95 143.358467,136.165 145.353467,136.165 Z M143.388467,131.245 C143.568467,129.895 144.393467,129.385 145.293467,129.385 C146.403467,129.385 147.003467,130.03 147.108467,131.245 L143.388467,131.245 Z M150.702825,137.68 L151.557825,137.68 L152.502825,135.745 L152.502825,134.05 L150.432825,134.05 L150.432825,136 L151.227825,136 L150.702825,137.68 Z M161.626542,136.165 C163.546542,136.165 164.491542,135.1 165.061542,133.825 L163.531542,133.27 C163.096542,134.395 162.511542,134.65 161.671542,134.65 C160.456542,134.65 159.766542,133.72 159.766542,132.025 C159.766542,130.12 160.651542,129.43 161.701542,129.43 C162.586542,129.43 163.156542,129.865 163.471542,130.765 L165.031542,130.21 C164.551542,128.98 163.711542,127.885 161.731542,127.885 C159.961542,127.885 157.906542,128.98 157.906542,132.025 C157.906542,134.935 159.781542,136.165 161.626542,136.165 Z M166.5409,136 L168.4009,136 L168.4009,130.495 C169.0759,129.88 169.7509,129.46 170.5609,129.46 C171.3709,129.46 171.7459,129.865 171.7459,130.75 L171.7459,136 L173.6059,136 L173.6059,130.285 C173.6059,128.71 172.7059,127.885 171.3109,127.885 C169.8709,127.885 168.9109,128.575 168.4009,129.115 L168.4009,124.9 L166.5409,124.9 L166.5409,136 Z M177.335258,136.12 C178.520258,136.12 179.465258,135.805 180.275258,134.98 C180.275258,135.43 180.350258,135.67 180.455258,136 L182.315258,136 C182.165258,135.631818 182.102035,135.114876 182.09178,134.302667 L182.090258,130.765 C182.090258,128.905 181.355258,127.885 179.225258,127.885 C177.575258,127.885 176.240258,128.545 175.385258,129.325 L176.285258,130.48 C176.960258,129.94 177.860258,129.4 178.970258,129.4 C179.855258,129.4 180.275258,129.745 180.275258,130.54 L180.275258,130.78 C176.555258,131.2 175.085258,132.355 175.085258,134.08 C175.085258,135.4 176.045258,136.12 177.335258,136.12 Z M178.010258,134.695 C177.335258,134.695 176.900258,134.365 176.900258,133.735 C176.900258,132.865 178.070258,132.325 180.275258,132.025 L180.275258,133.78 C179.690258,134.335 178.955258,134.695 178.010258,134.695 Z M184.079617,136 L185.939617,136 L185.939617,130.495 C186.614617,129.88 187.289617,129.46 188.099617,129.46 C188.909617,129.46 189.284617,129.865 189.284617,130.75 L189.284617,136 L191.144617,136 L191.144617,130.285 C191.144617,128.71 190.244617,127.885 188.849617,127.885 C187.409617,127.885 186.449617,128.575 185.939617,129.115 L185.939617,128.035 L184.079617,128.035 L184.079617,136 Z M196.133975,139.09 C198.593975,139.09 200.243975,138.295 200.243975,136.66 C200.243975,135.314821 199.379217,134.680976 197.205866,134.502921 L195.548975,134.395 C194.843975,134.335 194.633975,134.23 194.633975,133.915 C194.633975,133.705 194.798975,133.54 195.038975,133.405 C195.428975,133.51 195.698975,133.57 196.148975,133.57 C198.218975,133.57 199.463975,132.4 199.463975,130.735 C199.463975,130.315 199.358975,129.94 199.178975,129.655 C199.703975,129.49 200.213975,129.445 200.573975,129.445 L200.573975,127.945 C199.913975,128.005 199.103975,128.32 198.593975,128.725 C198.053975,128.245 197.243975,127.885 196.148975,127.885 C194.063975,127.885 192.803975,129.1 192.803975,130.735 C192.803975,131.71 193.253975,132.52 194.063975,133.03 C193.463975,133.39 192.983975,133.885 192.983975,134.485 C192.983975,134.92 193.193975,135.25 193.598975,135.46 C192.788975,135.775 192.293975,136.345 192.293975,137.14 C192.293975,138.295 193.388975,139.09 196.133975,139.09 Z M196.178975,132.295 C195.158975,132.295 194.543975,131.77 194.543975,130.795 C194.543975,129.82 195.143975,129.265 196.163975,129.265 C197.213975,129.265 197.783975,129.805 197.783975,130.795 C197.783975,131.77 197.183975,132.295 196.178975,132.295 Z M196.418975,137.755 C194.798975,137.755 193.988975,137.53 193.988975,136.825 C193.988975,136.42 194.198975,136.045 194.723975,135.805 C194.888975,135.835 195.038975,135.85 195.203975,135.85 L196.583975,135.94 C198.203975,136.045 198.608975,136.255 198.608975,136.825 C198.608975,137.395 197.768975,137.755 196.418975,137.755 Z M205.338333,136.165 C206.763333,136.165 207.858333,135.64 208.683333,134.725 L207.708333,133.765 C207.108333,134.35 206.508333,134.695 205.473333,134.695 C204.303333,134.695 203.418333,134.065 203.343333,132.625 L208.788333,132.625 L208.788333,132.19 C208.788333,128.95 207.078333,127.885 205.293333,127.885 C203.643333,127.885 201.498333,128.995 201.498333,132.025 C201.498333,134.95 203.343333,136.165 205.338333,136.165 Z M203.373333,131.245 C203.553333,129.895 204.378333,129.385 205.278333,129.385 C206.388333,129.385 206.988333,130.03 207.093333,131.245 L203.373333,131.245 Z M213.327692,136.165 C215.142692,136.165 216.657692,135.385 216.657692,133.705 C216.657692,132.110714 215.434426,131.62949 214.22533,131.335612 L213.301441,131.125748 C212.506636,130.937889 211.887692,130.719118 211.887692,130.15 C211.887692,129.7 212.217692,129.34 213.237692,129.34 C213.957692,129.34 214.902692,129.73 215.487692,130.21 L216.372692,129.01 C215.547692,128.32 214.617692,127.885 213.102692,127.885 C211.347692,127.885 210.147692,128.83 210.147692,130.225 C210.147692,131.806429 211.348916,132.296837 212.551715,132.603047 L213.479212,132.823948 C214.287069,133.022111 214.917692,133.240882 214.917692,133.81 C214.917692,134.47 214.317692,134.725 213.327692,134.725 C212.307692,134.725 211.422692,134.29 210.822692,133.78 L209.817692,134.905 C210.537692,135.64 211.857692,136.165 213.327692,136.165 Z M16.284375,153 L17.994375,153 L19.434375,147.465 L19.464375,147.465 L20.904375,153 L22.629375,153 L24.999375,145.035 L23.319375,145.035 L22.419375,148.395 L22.2646836,148.938951 C22.0991898,149.541296 21.9760417,150.065 21.789375,150.87 L21.759375,150.87 L21.6042187,150.172734 C21.459375,149.532187 21.335625,149.02875 21.144375,148.365 L20.259375,145.035 L18.759375,145.035 L17.919375,148.305 L17.7646836,148.873272 C17.5991898,149.498519 17.4760417,150.03 17.289375,150.87 L17.259375,150.87 C17.075625,149.9775 16.9378125,149.395078 16.7454492,148.660488 L15.789375,145.035 L13.914375,145.035 L16.284375,153 Z M26.2837333,143.655 L28.1737333,143.655 L28.1737333,142.05 L26.2837333,142.05 L26.2837333,143.655 Z M26.2987333,153 L28.1587333,153 L28.1587333,145.035 L26.2987333,145.035 L26.2987333,153 Z M30.3880917,153 L32.2480917,153 L32.2480917,141.9 L30.3880917,141.9 L30.3880917,153 Z M34.47745,153 L36.33745,153 L36.33745,141.9 L34.47745,141.9 L34.47745,153 Z M46.3911667,153.12 C48.4311667,153.12 49.7961667,151.77 49.7961667,149.01 C49.7961667,146.25 48.4611667,144.885 46.6461667,144.885 C45.4611667,144.885 44.6361667,145.455 44.1111667,146.085 L44.1111667,141.9 L42.2661667,141.9 L42.2661667,153 L44.1111667,153 L44.1111667,152.115 C44.6961667,152.775 45.5361667,153.12 46.3911667,153.12 Z M45.9861667,151.65 C45.3261667,151.65 44.6061667,151.305 44.1111667,150.66 L44.1111667,147.465 C44.5461667,146.94 45.2811667,146.46 46.0461667,146.46 C47.2311667,146.46 47.9511667,147.345 47.9511667,149.025 C47.9511667,150.795 47.3811667,151.65 45.9861667,151.65 Z M54.830525,153.165 C56.255525,153.165 57.350525,152.64 58.175525,151.725 L57.200525,150.765 C56.600525,151.35 56.000525,151.695 54.965525,151.695 C53.795525,151.695 52.910525,151.065 52.835525,149.625 L58.280525,149.625 L58.280525,149.19 C58.280525,145.95 56.570525,144.885 54.785525,144.885 C53.135525,144.885 50.990525,145.995 50.990525,149.025 C50.990525,151.95 52.835525,153.165 54.830525,153.165 Z M52.865525,148.245 C53.045525,146.895 53.870525,146.385 54.770525,146.385 C55.880525,146.385 56.480525,147.03 56.585525,148.245 L52.865525,148.245 Z M66.5942416,153.165 C68.4092416,153.165 69.9242416,152.385 69.9242416,150.705 C69.9242416,149.110714 68.7009763,148.62949 67.4918801,148.335612 L66.5679909,148.125748 C65.7731863,147.937889 65.1542416,147.719118 65.1542416,147.15 C65.1542416,146.7 65.4842416,146.34 66.5042416,146.34 C67.2242416,146.34 68.1692416,146.73 68.7542416,147.21 L69.6392416,146.01 C68.8142416,145.32 67.8842416,144.885 66.3692416,144.885 C64.6142416,144.885 63.4142416,145.83 63.4142416,147.225 C63.4142416,148.806429 64.6154661,149.296837 65.818265,149.603047 L66.7457621,149.823948 C67.5536188,150.022111 68.1842416,150.240882 68.1842416,150.81 C68.1842416,151.47 67.5842416,151.725 66.5942416,151.725 C65.5742416,151.725 64.6892416,151.29 64.0892416,150.78 L63.0842416,151.905 C63.8042416,152.64 65.1242416,153.165 66.5942416,153.165 Z M72.3786,156.09 C73.8851217,156.09 74.581927,155.33518 75.0991268,154.048703 L78.5586,145.035 L76.7286,145.035 L74.6886,150.84 L74.6586,150.84 L72.6036,145.035 L70.6836,145.035 L73.7436,153.045 L73.5186,153.63 C73.2636,154.275 72.9186,154.53 72.2586,154.53 C71.6136,154.53 71.1336,154.425 70.9086,154.365 L70.4886,155.85 L70.6983916,155.904236 C71.0744333,155.99625 71.5911,156.09 72.3786,156.09 Z M79.7529583,153 L81.6129583,153 L81.6129583,147.495 C82.2879583,146.88 82.9629583,146.46 83.7729583,146.46 C84.5829583,146.46 84.9579583,146.865 84.9579583,147.75 L84.9579583,153 L86.8179583,153 L86.8179583,147.285 C86.8179583,145.71 85.9179583,144.885 84.5229583,144.885 C83.0829583,144.885 82.1229583,145.575 81.6129583,146.115 L81.6129583,145.035 L79.7529583,145.035 L79.7529583,153 Z M92.0773166,153.165 C93.9973166,153.165 94.9423166,152.1 95.5123166,150.825 L93.9823166,150.27 C93.5473166,151.395 92.9623166,151.65 92.1223166,151.65 C90.9073166,151.65 90.2173166,150.72 90.2173166,149.025 C90.2173166,147.12 91.1023166,146.43 92.1523166,146.43 C93.0373166,146.43 93.6073166,146.865 93.9223166,147.765 L95.4823166,147.21 C95.0023166,145.98 94.1623166,144.885 92.1823166,144.885 C90.4123166,144.885 88.3573166,145.98 88.3573166,149.025 C88.3573166,151.935 90.2323166,153.165 92.0773166,153.165 Z M100.381675,153.165 C101.806675,153.165 102.901675,152.64 103.726675,151.725 L102.751675,150.765 C102.151675,151.35 101.551675,151.695 100.516675,151.695 C99.346675,151.695 98.461675,151.065 98.386675,149.625 L103.831675,149.625 L103.831675,149.19 C103.831675,145.95 102.121675,144.885 100.336675,144.885 C98.686675,144.885 96.541675,145.995 96.541675,149.025 C96.541675,151.95 98.386675,153.165 100.381675,153.165 Z M98.416675,148.245 C98.596675,146.895 99.421675,146.385 100.321675,146.385 C101.431675,146.385 102.031675,147.03 102.136675,148.245 L98.416675,148.245 Z M108.176033,153.12 C109.361033,153.12 110.126033,152.595 110.711033,151.92 C110.711033,152.325 110.786033,152.775 110.891033,153 L112.796033,153 C112.631033,152.62875 112.566867,152.10625 112.557318,151.2823 L112.556033,141.9 L110.711033,141.9 L110.711033,145.89 C110.126033,145.23 109.286033,144.885 108.431033,144.885 C106.391033,144.885 105.026033,146.28 105.026033,149.04 C105.026033,151.8 106.361033,153.12 108.176033,153.12 Z M108.776033,151.605 C107.591033,151.605 106.871033,150.765 106.871033,149.085 C106.871033,147.315 107.441033,146.415 108.836033,146.415 C109.496033,146.415 110.216033,146.76 110.711033,147.405 L110.711033,150.6 C110.276033,151.125 109.541033,151.605 108.776033,151.605 Z M122.53475,153.12 C124.57475,153.12 125.93975,151.77 125.93975,149.01 C125.93975,146.25 124.60475,144.885 122.78975,144.885 C121.60475,144.885 120.77975,145.455 120.25475,146.085 L120.25475,141.9 L118.40975,141.9 L118.40975,153 L120.25475,153 L120.25475,152.115 C120.83975,152.775 121.67975,153.12 122.53475,153.12 Z M122.12975,151.65 C121.46975,151.65 120.74975,151.305 120.25475,150.66 L120.25475,147.465 C120.68975,146.94 121.42475,146.46 122.18975,146.46 C123.37475,146.46 124.09475,147.345 124.09475,149.025 C124.09475,150.795 123.52475,151.65 122.12975,151.65 Z M129.324108,153.12 C130.509108,153.12 131.454108,152.805 132.264108,151.98 C132.264108,152.43 132.339108,152.67 132.444108,153 L134.304108,153 C134.154108,152.631818 134.090885,152.114876 134.08063,151.302667 L134.079108,147.765 C134.079108,145.905 133.344108,144.885 131.214108,144.885 C129.564108,144.885 128.229108,145.545 127.374108,146.325 L128.274108,147.48 C128.949108,146.94 129.849108,146.4 130.959108,146.4 C131.844108,146.4 132.264108,146.745 132.264108,147.54 L132.264108,147.78 C128.544108,148.2 127.074108,149.355 127.074108,151.08 C127.074108,152.4 128.034108,153.12 129.324108,153.12 Z M129.999108,151.695 C129.324108,151.695 128.889108,151.365 128.889108,150.735 C128.889108,149.865 130.059108,149.325 132.264108,149.025 L132.264108,150.78 C131.679108,151.335 130.944108,151.695 129.999108,151.695 Z M139.338467,153.165 C141.258467,153.165 142.203467,152.1 142.773467,150.825 L141.243467,150.27 C140.808467,151.395 140.223467,151.65 139.383467,151.65 C138.168467,151.65 137.478467,150.72 137.478467,149.025 C137.478467,147.12 138.363467,146.43 139.413467,146.43 C140.298467,146.43 140.868467,146.865 141.183467,147.765 L142.743467,147.21 C142.263467,145.98 141.423467,144.885 139.443467,144.885 C137.673467,144.885 135.618467,145.98 135.618467,149.025 C135.618467,151.935 137.493467,153.165 139.338467,153.165 Z M144.252825,153 L146.097825,153 L146.097825,150.705 L147.372825,149.31 L149.427825,153 L151.362825,153 L148.542825,147.945 L151.137825,145.035 L149.112825,145.035 L146.097825,148.515 L146.097825,141.9 L144.252825,141.9 L144.252825,153 Z M159.571542,153.105 L159.871782,153.0984 C160.292742,153.0816 160.765542,153.036 160.921542,153 L160.921542,151.545 C160.741542,151.605 160.396542,151.65 160.126542,151.65 C159.211542,151.65 158.956542,151.305 158.956542,150.45 L158.956542,146.505 L161.011542,146.505 L161.011542,145.035 L158.956542,145.035 L158.956542,142.26 L157.111542,142.26 L157.111542,145.035 L155.731542,145.035 L155.731542,146.505 L157.111542,146.505 L157.111542,150.915 C157.111542,152.355 157.546542,153.105 159.571542,153.105 Z M165.9709,153.165 C167.9059,153.165 169.8559,151.935 169.8559,149.025 C169.8559,146.085 167.9059,144.885 165.9709,144.885 C164.0209,144.885 162.0859,146.085 162.0859,149.025 C162.0859,151.935 164.0359,153.165 165.9709,153.165 Z M165.9709,151.62 C164.5609,151.62 163.9459,150.54 163.9459,149.025 C163.9459,147.42 164.6359,146.46 165.9709,146.46 C167.3659,146.46 167.9959,147.54 167.9959,149.025 C167.9959,150.66 167.3059,151.62 165.9709,151.62 Z M176.099617,156.09 C177.606138,156.09 178.302944,155.33518 178.820143,154.048703 L182.279617,145.035 L180.449617,145.035 L178.409617,150.84 L178.379617,150.84 L176.324617,145.035 L174.404617,145.035 L177.464617,153.045 L177.239617,153.63 C176.984617,154.275 176.639617,154.53 175.979617,154.53 C175.334617,154.53 174.854617,154.425 174.629617,154.365 L174.209617,155.85 L174.419408,155.904236 C174.79545,155.99625 175.312117,156.09 176.099617,156.09 Z M186.908975,153.165 C188.843975,153.165 190.793975,151.935 190.793975,149.025 C190.793975,146.085 188.843975,144.885 186.908975,144.885 C184.958975,144.885 183.023975,146.085 183.023975,149.025 C183.023975,151.935 184.973975,153.165 186.908975,153.165 Z M186.908975,151.62 C185.498975,151.62 184.883975,150.54 184.883975,149.025 C184.883975,147.42 185.573975,146.46 186.908975,146.46 C188.303975,146.46 188.933975,147.54 188.933975,149.025 C188.933975,150.66 188.243975,151.62 186.908975,151.62 Z M194.628333,153.15 C196.068333,153.15 197.028333,152.46 197.538333,151.92 L197.538333,153 L199.398333,153 L199.398333,145.035 L197.538333,145.035 L197.538333,150.57 C196.863333,151.185 196.188333,151.605 195.378333,151.605 C194.568333,151.605 194.193333,151.2 194.193333,150.315 L194.193333,145.035 L192.333333,145.035 L192.333333,150.75 C192.333333,152.325 193.233333,153.15 194.628333,153.15 Z M201.477692,153 L203.322692,153 L203.322692,147.96 C203.847692,147.105 204.597692,146.55 205.782692,146.55 C205.887692,146.55 206.187692,146.565 206.277692,146.58 L206.337692,144.885 L206.217692,144.885 C204.702692,144.885 203.847692,145.545 203.352692,146.34 L203.322692,146.34 L203.322692,145.035 L201.477692,145.035 L201.477692,153 Z M18.879375,170.21 C21.519375,170.21 23.064375,168.785 23.064375,166.97 C23.064375,164.9545 21.4945083,164.24255 19.4929283,163.641799 L19.284375,163.58 C17.469375,163.04 16.674375,162.695 16.674375,161.66 C16.674375,160.85 17.379375,160.4 18.609375,160.4 C19.809375,160.4 20.754375,160.91 21.414375,162.02 L22.779375,161.075 C22.104375,159.77 20.814375,158.69 18.624375,158.69 C16.374375,158.69 14.829375,159.935 14.829375,161.825 C14.829375,163.7285 16.226625,164.3927 18.06978,164.965775 L18.699375,165.155 C20.529375,165.695 21.219375,166.145 21.219375,167.105 C21.219375,168.11 20.304375,168.545 18.954375,168.545 C17.574375,168.545 16.554375,167.915 15.894375,166.61 L14.409375,167.39 C15.114375,169.07 16.674375,170.21 18.879375,170.21 Z M26.6287333,170.12 C27.8137333,170.12 28.7587333,169.805 29.5687333,168.98 C29.5687333,169.43 29.6437333,169.67 29.7487333,170 L31.6087333,170 C31.4437333,169.595 31.3837333,169.01 31.3837333,168.05 L31.3837333,164.765 C31.3837333,162.905 30.6487333,161.885 28.5187333,161.885 C26.8687333,161.885 25.5337333,162.545 24.6787333,163.325 L25.5787333,164.48 C26.2537333,163.94 27.1537333,163.4 28.2637333,163.4 C29.1487333,163.4 29.5687333,163.745 29.5687333,164.54 L29.5687333,164.78 C25.8487333,165.2 24.3787333,166.355 24.3787333,168.08 C24.3787333,169.4 25.3387333,170.12 26.6287333,170.12 Z M27.3037333,168.695 C26.6287333,168.695 26.1937333,168.365 26.1937333,167.735 C26.1937333,166.865 27.3637333,166.325 29.5687333,166.025 L29.5687333,167.78 C28.9837333,168.335 28.2487333,168.695 27.3037333,168.695 Z M33.4480917,170 L35.3080917,170 L35.3080917,158.9 L33.4480917,158.9 L33.4480917,170 Z M40.85245,170.165 C42.27745,170.165 43.37245,169.64 44.19745,168.725 L43.22245,167.765 C42.62245,168.35 42.02245,168.695 40.98745,168.695 C39.81745,168.695 38.93245,168.065 38.85745,166.625 L44.30245,166.625 L44.30245,166.19 C44.30245,162.95 42.59245,161.885 40.80745,161.885 C39.15745,161.885 37.01245,162.995 37.01245,166.025 C37.01245,168.95 38.85745,170.165 40.85245,170.165 Z M38.88745,165.245 C39.06745,163.895 39.89245,163.385 40.79245,163.385 C41.90245,163.385 42.50245,164.03 42.60745,165.245 L38.88745,165.245 Z M48.8418083,170.165 C50.6568083,170.165 52.1718083,169.385 52.1718083,167.705 C52.1718083,166.110714 50.948543,165.62949 49.7394468,165.335612 L48.8155576,165.125748 C48.020753,164.937889 47.4018083,164.719118 47.4018083,164.15 C47.4018083,163.7 47.7318083,163.34 48.7518083,163.34 C49.4718083,163.34 50.4168083,163.73 51.0018083,164.21 L51.8868083,163.01 C51.0618083,162.32 50.1318083,161.885 48.6168083,161.885 C46.8618083,161.885 45.6618083,162.83 45.6618083,164.225 C45.6618083,165.806429 46.8630328,166.296837 48.0658316,166.603047 L48.9933288,166.823948 C49.8011855,167.022111 50.4318083,167.240882 50.4318083,167.81 C50.4318083,168.47 49.8318083,168.725 48.8418083,168.725 C47.8218083,168.725 46.9368083,168.29 46.3368083,167.78 L45.3318083,168.905 C46.0518083,169.64 47.3718083,170.165 48.8418083,170.165 Z M54.4761667,170 L56.3211667,170 L56.3211667,163.505 L58.0611667,163.505 L58.0611667,162.035 L56.3211667,162.035 L56.3211667,161.33 C56.3211667,160.475 56.8611667,160.295 57.5211667,160.295 C57.7311667,160.295 58.0311667,160.325 58.1511667,160.355 L58.1511667,158.93 L57.8839444,158.903889 C57.6361667,158.881667 57.2861667,158.855 57.0561667,158.855 C55.0311667,158.855 54.4761667,159.89 54.4761667,161.225 L54.4761667,162.035 L53.0961667,162.035 L53.0961667,163.505 L54.4761667,163.505 L54.4761667,170 Z M62.840525,170.165 C64.775525,170.165 66.725525,168.935 66.725525,166.025 C66.725525,163.085 64.775525,161.885 62.840525,161.885 C60.890525,161.885 58.955525,163.085 58.955525,166.025 C58.955525,168.935 60.905525,170.165 62.840525,170.165 Z M62.840525,168.62 C61.430525,168.62 60.815525,167.54 60.815525,166.025 C60.815525,164.42 61.505525,163.46 62.840525,163.46 C64.235525,163.46 64.865525,164.54 64.865525,166.025 C64.865525,167.66 64.175525,168.62 62.840525,168.62 Z M68.3548833,170 L70.1998833,170 L70.1998833,164.96 C70.7248833,164.105 71.4748833,163.55 72.6598833,163.55 C72.7648833,163.55 73.0648833,163.565 73.1548833,163.58 L73.2148833,161.885 L73.0948833,161.885 C71.5798833,161.885 70.7248833,162.545 70.2298833,163.34 L70.1998833,163.34 L70.1998833,162.035 L68.3548833,162.035 L68.3548833,170 Z M77.8142416,170.165 C79.7342416,170.165 80.6792416,169.1 81.2492416,167.825 L79.7192416,167.27 C79.2842416,168.395 78.6992416,168.65 77.8592416,168.65 C76.6442416,168.65 75.9542416,167.72 75.9542416,166.025 C75.9542416,164.12 76.8392416,163.43 77.8892416,163.43 C78.7742416,163.43 79.3442416,163.865 79.6592416,164.765 L81.2192416,164.21 C80.7392416,162.98 79.8992416,161.885 77.9192416,161.885 C76.1492416,161.885 74.0942416,162.98 74.0942416,166.025 C74.0942416,168.935 75.9692416,170.165 77.8142416,170.165 Z M86.1186,170.165 C87.5436,170.165 88.6386,169.64 89.4636,168.725 L88.4886,167.765 C87.8886,168.35 87.2886,168.695 86.2536,168.695 C85.0836,168.695 84.1986,168.065 84.1236,166.625 L89.5686,166.625 L89.5686,166.19 C89.5686,162.95 87.8586,161.885 86.0736,161.885 C84.4236,161.885 82.2786,162.995 82.2786,166.025 C82.2786,168.95 84.1236,170.165 86.1186,170.165 Z M84.1536,165.245 C84.3336,163.895 85.1586,163.385 86.0586,163.385 C87.1686,163.385 87.7686,164.03 87.8736,165.245 L84.1536,165.245 Z M98.4073166,170.165 C100.342317,170.165 102.292317,168.935 102.292317,166.025 C102.292317,163.085 100.342317,161.885 98.4073166,161.885 C96.4573166,161.885 94.5223166,163.085 94.5223166,166.025 C94.5223166,168.935 96.4723166,170.165 98.4073166,170.165 Z M98.4073166,168.62 C96.9973166,168.62 96.3823166,167.54 96.3823166,166.025 C96.3823166,164.42 97.0723166,163.46 98.4073166,163.46 C99.8023166,163.46 100.432317,164.54 100.432317,166.025 C100.432317,167.66 99.7423166,168.62 98.4073166,168.62 Z M103.921675,170 L105.766675,170 L105.766675,164.96 C106.291675,164.105 107.041675,163.55 108.226675,163.55 C108.331675,163.55 108.631675,163.565 108.721675,163.58 L108.781675,161.885 L108.661675,161.885 C107.146675,161.885 106.291675,162.545 105.796675,163.34 L105.766675,163.34 L105.766675,162.035 L103.921675,162.035 L103.921675,170 Z M113.111033,173.09 C115.571033,173.09 117.221033,172.295 117.221033,170.66 C117.221033,169.314821 116.356276,168.680976 114.182924,168.502921 L112.526033,168.395 L112.253366,168.36605 C111.765319,168.300714 111.611033,168.185 111.611033,167.915 C111.611033,167.705 111.776033,167.54 112.016033,167.405 C112.406033,167.51 112.676033,167.57 113.126033,167.57 C115.196033,167.57 116.441033,166.4 116.441033,164.735 C116.441033,164.315 116.336033,163.94 116.156033,163.655 C116.681033,163.49 117.191033,163.445 117.551033,163.445 L117.551033,161.945 C116.891033,162.005 116.081033,162.32 115.571033,162.725 C115.031033,162.245 114.221033,161.885 113.126033,161.885 C111.041033,161.885 109.781033,163.1 109.781033,164.735 C109.781033,165.71 110.231033,166.52 111.041033,167.03 C110.441033,167.39 109.961033,167.885 109.961033,168.485 C109.961033,168.92 110.171033,169.25 110.576033,169.46 C109.766033,169.775 109.271033,170.345 109.271033,171.14 C109.271033,172.295 110.366033,173.09 113.111033,173.09 Z M113.156033,166.295 C112.136033,166.295 111.521033,165.77 111.521033,164.795 C111.521033,163.82 112.121033,163.265 113.141033,163.265 C114.191033,163.265 114.761033,163.805 114.761033,164.795 C114.761033,165.77 114.161033,166.295 113.156033,166.295 Z M113.396033,171.755 C111.776033,171.755 110.966033,171.53 110.966033,170.825 C110.966033,170.42 111.176033,170.045 111.701033,169.805 C111.866033,169.835 112.016033,169.85 112.181033,169.85 L113.561033,169.94 C115.181033,170.045 115.586033,170.255 115.586033,170.825 C115.586033,171.395 114.746033,171.755 113.396033,171.755 Z M118.925392,170 L118.925392,168.05 L120.995392,168.05 L120.995392,170 L118.925392,170 Z" id="Inread-writemode,changeswillbesyncedbacktoyourSalesforceorg." fill="#FFFFFF" fill-rule="nonzero"></path>
            </g>
        </g>
    </g>
</svg>