<?xml version="1.0" encoding="UTF-8"?>
<svg width="260px" height="129px" viewBox="0 0 260 129" version="1.1" xmlns="http://www.w3.org/2000/svg" xmlns:xlink="http://www.w3.org/1999/xlink">
    <!-- Generator: Sketch 59.1 (86144) - https://sketch.com -->
    <title>speech-1</title>
    <desc>Created with Sketch.</desc>
    <g id="Page-1" stroke="none" stroke-width="1" fill="none" fill-rule="evenodd">
        <g id="animation-mockup-rev2-copy" transform="translate(-123.000000, -19.000000)">
            <g id="speech-1" transform="translate(123.139000, 19.355000)">
                <g id="Group-8" transform="translate(203.861000, 72.000000)">
                    <line x1="5.2515" y1="0.5522" x2="5.2515" y2="51.6652" id="Stroke-4" stroke="#231F20" stroke-width="2.207"></line>
                    <path d="M0.688,51.437 C0.688,53.957 2.732,56 5.251,56 C7.771,56 9.814,53.957 9.814,51.437 C9.814,48.917 7.771,46.875 5.251,46.875 C2.732,46.875 0.688,48.917 0.688,51.437" id="Fill-6" fill="#231F20"></path>
                </g>
                <rect id="Rectangle" fill="#231F20" x="0" y="0" width="259" height="76" rx="6"></rect>
                <path d="M15.3114,24.6948795 L17.1864,24.6948795 L17.1864,19.7598795 L22.2264,19.7598795 L22.2264,24.6948795 L24.1014,24.6948795 L24.1014,13.5948795 L22.2264,13.5948795 L22.2264,18.0198795 L17.1864,18.0198795 L17.1864,13.5948795 L15.3114,13.5948795 L15.3114,24.6948795 Z M29.7957583,24.8598795 C31.2207583,24.8598795 32.3157583,24.3348795 33.1407583,23.4198795 L32.1657583,22.4598795 C31.5657583,23.0448795 30.9657583,23.3898795 29.9307583,23.3898795 C28.7607583,23.3898795 27.8757583,22.7598795 27.8007583,21.3198795 L33.2457583,21.3198795 L33.2457583,20.8848795 C33.2457583,17.6448795 31.5357583,16.5798795 29.7507583,16.5798795 C28.1007583,16.5798795 25.9557583,17.6898795 25.9557583,20.7198795 C25.9557583,23.6448795 27.8007583,24.8598795 29.7957583,24.8598795 Z M27.8307583,19.9398795 C28.0107583,18.5898795 28.8357583,18.0798795 29.7357583,18.0798795 C30.8457583,18.0798795 31.4457583,18.7248795 31.5507583,19.9398795 L27.8307583,19.9398795 Z M34.8751167,24.6948795 L36.7201167,24.6948795 L36.7201167,19.6548795 C37.2451167,18.7998795 37.9951167,18.2448795 39.1801167,18.2448795 L39.4922367,18.2578395 C39.5695167,18.2628795 39.6391167,18.2688795 39.6751167,18.2748795 L39.7351167,16.5798795 L39.6151167,16.5798795 C38.1001167,16.5798795 37.2451167,17.2398795 36.7501167,18.0348795 L36.7201167,18.0348795 L36.7201167,16.7298795 L34.8751167,16.7298795 L34.8751167,24.6948795 Z M44.499475,24.8598795 C46.434475,24.8598795 48.384475,23.6298795 48.384475,20.7198795 C48.384475,17.7798795 46.434475,16.5798795 44.499475,16.5798795 C42.549475,16.5798795 40.614475,17.7798795 40.614475,20.7198795 C40.614475,23.6298795 42.564475,24.8598795 44.499475,24.8598795 Z M44.499475,23.3148795 C43.089475,23.3148795 42.474475,22.2348795 42.474475,20.7198795 C42.474475,19.1148795 43.164475,18.1548795 44.499475,18.1548795 C45.894475,18.1548795 46.524475,19.2348795 46.524475,20.7198795 C46.524475,22.3548795 45.834475,23.3148795 44.499475,23.3148795 Z M50.0138333,24.6948795 L51.8588333,24.6948795 L51.8588333,22.3998795 L53.1338333,21.0048795 L55.1888333,24.6948795 L57.1238333,24.6948795 L54.3038333,19.6398795 L56.8988333,16.7298795 L54.8738333,16.7298795 L51.8588333,20.2098795 L51.8588333,13.5948795 L50.0138333,13.5948795 L50.0138333,24.6948795 Z M60.6731917,24.8448795 C62.1131917,24.8448795 63.0731917,24.1548795 63.5831917,23.6148795 L63.5831917,24.6948795 L65.4431917,24.6948795 L65.4431917,16.7298795 L63.5831917,16.7298795 L63.5831917,22.2648795 C62.9081917,22.8798795 62.2331917,23.2998795 61.4231917,23.2998795 C60.6131917,23.2998795 60.2381917,22.8948795 60.2381917,22.0098795 L60.2381917,16.7298795 L58.3781917,16.7298795 L58.3781917,22.4448795 C58.3781917,24.0198795 59.2781917,24.8448795 60.6731917,24.8448795 Z M75.8569083,24.9048795 C78.4219083,24.9048795 79.7869083,23.4198795 80.3269083,21.2148795 L78.5419083,20.8098795 C78.1219083,22.4748795 77.3119083,23.1948795 75.8719083,23.1948795 C73.9969083,23.1948795 72.8719083,21.7398795 72.8719083,19.0998795 C72.8719083,16.5798795 73.9669083,15.1248795 75.8419083,15.1248795 C77.3119083,15.1248795 77.9569083,15.8748795 78.3769083,17.3448795 L80.1619083,16.8348795 C79.6669083,14.8098795 78.4369083,13.3848795 75.8569083,13.3848795 C73.0669083,13.3848795 70.9819083,15.3948795 70.9819083,19.1148795 C70.9819083,22.9398795 73.0069083,24.9048795 75.8569083,24.9048795 Z M85.4962666,24.8598795 C87.4312666,24.8598795 89.3812666,23.6298795 89.3812666,20.7198795 C89.3812666,17.7798795 87.4312666,16.5798795 85.4962666,16.5798795 C83.5462666,16.5798795 81.6112666,17.7798795 81.6112666,20.7198795 C81.6112666,23.6298795 83.5612666,24.8598795 85.4962666,24.8598795 Z M85.4962666,23.3148795 C84.0862666,23.3148795 83.4712666,22.2348795 83.4712666,20.7198795 C83.4712666,19.1148795 84.1612666,18.1548795 85.4962666,18.1548795 C86.8912666,18.1548795 87.5212666,19.2348795 87.5212666,20.7198795 C87.5212666,22.3548795 86.8312666,23.3148795 85.4962666,23.3148795 Z M91.010625,24.6948795 L92.870625,24.6948795 L92.870625,19.1898795 C93.545625,18.5748795 94.220625,18.1548795 95.030625,18.1548795 C95.840625,18.1548795 96.215625,18.5598795 96.215625,19.4448795 L96.215625,24.6948795 L98.075625,24.6948795 L98.075625,18.9798795 C98.075625,17.4048795 97.175625,16.5798795 95.780625,16.5798795 C94.340625,16.5798795 93.380625,17.2698795 92.870625,17.8098795 L92.870625,16.7298795 L91.010625,16.7298795 L91.010625,24.6948795 Z M100.064983,24.6948795 L101.924983,24.6948795 L101.924983,19.1898795 C102.599983,18.5748795 103.274983,18.1548795 104.084983,18.1548795 C104.894983,18.1548795 105.269983,18.5598795 105.269983,19.4448795 L105.269983,24.6948795 L107.129983,24.6948795 L107.129983,18.9798795 C107.129983,17.4048795 106.229983,16.5798795 104.834983,16.5798795 C103.394983,16.5798795 102.434983,17.2698795 101.924983,17.8098795 L101.924983,16.7298795 L100.064983,16.7298795 L100.064983,24.6948795 Z M112.509342,24.8598795 C113.934342,24.8598795 115.029342,24.3348795 115.854342,23.4198795 L114.879342,22.4598795 C114.279342,23.0448795 113.679342,23.3898795 112.644342,23.3898795 C111.474342,23.3898795 110.589342,22.7598795 110.514342,21.3198795 L115.959342,21.3198795 L115.959342,20.8848795 C115.959342,17.6448795 114.249342,16.5798795 112.464342,16.5798795 C110.814342,16.5798795 108.669342,17.6898795 108.669342,20.7198795 C108.669342,23.6448795 110.514342,24.8598795 112.509342,24.8598795 Z M110.544342,19.9398795 C110.724342,18.5898795 111.549342,18.0798795 112.449342,18.0798795 C113.559342,18.0798795 114.159342,18.7248795 114.264342,19.9398795 L110.544342,19.9398795 Z M120.8587,24.8598795 C122.7787,24.8598795 123.7237,23.7948795 124.2937,22.5198795 L122.7637,21.9648795 C122.3287,23.0898795 121.7437,23.3448795 120.9037,23.3448795 C119.6887,23.3448795 118.9987,22.4148795 118.9987,20.7198795 C118.9987,18.8148795 119.8837,18.1248795 120.9337,18.1248795 C121.8187,18.1248795 122.3887,18.5598795 122.7037,19.4598795 L124.2637,18.9048795 C123.7837,17.6748795 122.9437,16.5798795 120.9637,16.5798795 C119.1937,16.5798795 117.1387,17.6748795 117.1387,20.7198795 C117.1387,23.6298795 119.0137,24.8598795 120.8587,24.8598795 Z M128.652126,24.7970123 L128.863058,24.7998795 C129.328058,24.7998795 130.018058,24.7398795 130.213058,24.6948795 L130.213058,23.2398795 C130.033058,23.2998795 129.688058,23.3448795 129.418058,23.3448795 C128.503058,23.3448795 128.248058,22.9998795 128.248058,22.1448795 L128.248058,18.1998795 L130.303058,18.1998795 L130.303058,16.7298795 L128.248058,16.7298795 L128.248058,13.9548795 L126.403058,13.9548795 L126.403058,16.7298795 L125.023058,16.7298795 L125.023058,18.1998795 L126.403058,18.1998795 L126.403058,22.6098795 C126.403058,23.9984509 126.807542,24.7454279 128.652126,24.7970123 Z M137.116775,24.6948795 L138.826775,24.6948795 L140.266775,19.1598795 L140.296775,19.1598795 L141.736775,24.6948795 L143.461775,24.6948795 L145.831775,16.7298795 L144.151775,16.7298795 L143.251775,20.0898795 C142.996775,20.9598795 142.861775,21.5298795 142.621775,22.5648795 L142.591775,22.5648795 L142.365544,21.5573892 C142.24865,21.0548013 142.13615,20.6130045 141.976775,20.0598795 L141.091775,16.7298795 L139.591775,16.7298795 L138.751775,19.9998795 L138.597084,20.5681511 C138.43159,21.193398 138.308442,21.7248795 138.121775,22.5648795 L138.091775,22.5648795 L137.943181,21.8650357 C137.848494,21.4347232 137.759431,21.0625357 137.657244,20.6622232 L136.621775,16.7298795 L134.746775,16.7298795 L137.116775,24.6948795 Z M147.116133,15.3498795 L149.006133,15.3498795 L149.006133,13.7448795 L147.116133,13.7448795 L147.116133,15.3498795 Z M147.131133,24.6948795 L148.991133,24.6948795 L148.991133,16.7298795 L147.131133,16.7298795 L147.131133,24.6948795 Z M151.220492,24.6948795 L153.080492,24.6948795 L153.080492,13.5948795 L151.220492,13.5948795 L151.220492,24.6948795 Z M155.30985,24.6948795 L157.16985,24.6948795 L157.16985,13.5948795 L155.30985,13.5948795 L155.30985,24.6948795 Z M163.098567,27.6948795 L164.943567,27.6948795 L164.943567,23.8098795 C165.528567,24.4698795 166.368567,24.8148795 167.223567,24.8148795 C169.263567,24.8148795 170.628567,23.4648795 170.628567,20.7048795 C170.628567,17.9448795 169.293567,16.5798795 167.478567,16.5798795 C166.293567,16.5798795 165.468567,17.1498795 164.943567,17.7798795 L164.943567,16.7298795 L163.098567,16.7298795 L163.098567,27.6948795 Z M166.818567,23.3448795 C166.158567,23.3448795 165.438567,22.9998795 164.943567,22.3548795 L164.943567,19.1598795 C165.378567,18.6348795 166.113567,18.1548795 166.878567,18.1548795 C168.063567,18.1548795 168.783567,19.0398795 168.783567,20.7198795 C168.783567,22.4898795 168.213567,23.3448795 166.818567,23.3448795 Z M175.707925,24.8598795 C177.642925,24.8598795 179.592925,23.6298795 179.592925,20.7198795 C179.592925,17.7798795 177.642925,16.5798795 175.707925,16.5798795 C173.757925,16.5798795 171.822925,17.7798795 171.822925,20.7198795 C171.822925,23.6298795 173.772925,24.8598795 175.707925,24.8598795 Z M175.707925,23.3148795 C174.297925,23.3148795 173.682925,22.2348795 173.682925,20.7198795 C173.682925,19.1148795 174.372925,18.1548795 175.707925,18.1548795 C177.102925,18.1548795 177.732925,19.2348795 177.732925,20.7198795 C177.732925,22.3548795 177.042925,23.3148795 175.707925,23.3148795 Z M181.297283,24.6948795 L183.157283,24.6948795 L183.157283,13.5948795 L181.297283,13.5948795 L181.297283,24.6948795 Z M185.386642,24.6948795 L187.246642,24.6948795 L187.246642,13.5948795 L185.386642,13.5948795 L185.386642,24.6948795 Z M194.015358,27.7848795 C195.52188,27.7848795 196.218685,27.0300591 196.735885,25.7435825 L200.195358,16.7298795 L198.365358,16.7298795 L196.325358,22.5348795 L196.295358,22.5348795 L194.240358,16.7298795 L192.320358,16.7298795 L195.380358,24.7398795 L195.155358,25.3248795 C194.900358,25.9698795 194.555358,26.2248795 193.895358,26.2248795 C193.250358,26.2248795 192.770358,26.1198795 192.545358,26.0598795 L192.125358,27.5448795 L192.33515,27.5991156 C192.711192,27.6911295 193.227858,27.7848795 194.015358,27.7848795 Z M204.824717,24.8598795 C206.759717,24.8598795 208.709717,23.6298795 208.709717,20.7198795 C208.709717,17.7798795 206.759717,16.5798795 204.824717,16.5798795 C202.874717,16.5798795 200.939717,17.7798795 200.939717,20.7198795 C200.939717,23.6298795 202.889717,24.8598795 204.824717,24.8598795 Z M204.824717,23.3148795 C203.414717,23.3148795 202.799717,22.2348795 202.799717,20.7198795 C202.799717,19.1148795 203.489717,18.1548795 204.824717,18.1548795 C206.219717,18.1548795 206.849717,19.2348795 206.849717,20.7198795 C206.849717,22.3548795 206.159717,23.3148795 204.824717,23.3148795 Z M212.544075,24.8448795 C213.984075,24.8448795 214.944075,24.1548795 215.454075,23.6148795 L215.454075,24.6948795 L217.314075,24.6948795 L217.314075,16.7298795 L215.454075,16.7298795 L215.454075,22.2648795 C214.779075,22.8798795 214.104075,23.2998795 213.294075,23.2998795 C212.484075,23.2998795 212.109075,22.8948795 212.109075,22.0098795 L212.109075,16.7298795 L210.249075,16.7298795 L210.249075,22.4448795 C210.249075,24.0198795 211.149075,24.8448795 212.544075,24.8448795 Z M219.393433,24.6948795 L221.238433,24.6948795 L221.238433,19.6548795 C221.763433,18.7998795 222.513433,18.2448795 223.698433,18.2448795 L224.010553,18.2578395 C224.087833,18.2628795 224.157433,18.2688795 224.193433,18.2748795 L224.253433,16.5798795 L224.133433,16.5798795 C222.618433,16.5798795 221.763433,17.2398795 221.268433,18.0348795 L221.238433,18.0348795 L221.238433,16.7298795 L219.393433,16.7298795 L219.393433,24.6948795 Z M19.1964,41.9048795 C21.8364,41.9048795 23.3814,40.4798795 23.3814,38.6648795 C23.3814,36.6493795 21.8115333,35.9374295 19.8099533,35.3366784 L19.6014,35.2748795 C17.7864,34.7348795 16.9914,34.3898795 16.9914,33.3548795 C16.9914,32.5448795 17.6964,32.0948795 18.9264,32.0948795 C20.1264,32.0948795 21.0714,32.6048795 21.7314,33.7148795 L23.0964,32.7698795 C22.4214,31.4648795 21.1314,30.3848795 18.9414,30.3848795 C16.6914,30.3848795 15.1464,31.6298795 15.1464,33.5198795 C15.1464,35.4233795 16.54365,36.0875795 18.386805,36.6606545 L19.0164,36.8498795 C20.8464,37.3898795 21.5364,37.8398795 21.5364,38.7998795 C21.5364,39.8048795 20.6214,40.2398795 19.2714,40.2398795 C17.8914,40.2398795 16.8714,39.6098795 16.2114,38.3048795 L14.7264,39.0848795 C15.4314,40.7648795 16.9914,41.9048795 19.1964,41.9048795 Z M26.9457583,41.8148795 C28.1307583,41.8148795 29.0757583,41.4998795 29.8857583,40.6748795 C29.8857583,41.1248795 29.9607583,41.3648795 30.0657583,41.6948795 L31.9257583,41.6948795 C31.7607583,41.2898795 31.7007583,40.7048795 31.7007583,39.7448795 L31.7007583,36.4598795 C31.7007583,34.5998795 30.9657583,33.5798795 28.8357583,33.5798795 C27.1857583,33.5798795 25.8507583,34.2398795 24.9957583,35.0198795 L25.8957583,36.1748795 C26.5707583,35.6348795 27.4707583,35.0948795 28.5807583,35.0948795 C29.4657583,35.0948795 29.8857583,35.4398795 29.8857583,36.2348795 L29.8857583,36.4748795 C26.1657583,36.8948795 24.6957583,38.0498795 24.6957583,39.7748795 C24.6957583,41.0948795 25.6557583,41.8148795 26.9457583,41.8148795 Z M27.6207583,40.3898795 C26.9457583,40.3898795 26.5107583,40.0598795 26.5107583,39.4298795 C26.5107583,38.5598795 27.6807583,38.0198795 29.8857583,37.7198795 L29.8857583,39.4748795 C29.3007583,40.0298795 28.5657583,40.3898795 27.6207583,40.3898795 Z M33.7651167,41.6948795 L35.6251167,41.6948795 L35.6251167,30.5948795 L33.7651167,30.5948795 L33.7651167,41.6948795 Z M41.169475,41.8598795 C42.594475,41.8598795 43.689475,41.3348795 44.514475,40.4198795 L43.539475,39.4598795 C42.939475,40.0448795 42.339475,40.3898795 41.304475,40.3898795 C40.134475,40.3898795 39.249475,39.7598795 39.174475,38.3198795 L44.619475,38.3198795 L44.619475,37.8848795 C44.619475,34.6448795 42.909475,33.5798795 41.124475,33.5798795 C39.474475,33.5798795 37.329475,34.6898795 37.329475,37.7198795 C37.329475,40.6448795 39.174475,41.8598795 41.169475,41.8598795 Z M39.204475,36.9398795 C39.384475,35.5898795 40.209475,35.0798795 41.109475,35.0798795 C42.219475,35.0798795 42.819475,35.7248795 42.924475,36.9398795 L39.204475,36.9398795 Z M49.1588333,41.8598795 C50.9738333,41.8598795 52.4888333,41.0798795 52.4888333,39.3998795 C52.4888333,37.8055938 51.265568,37.3243693 50.0564718,37.0304917 L49.1325826,36.8206275 C48.337778,36.6327687 47.7188333,36.4139971 47.7188333,35.8448795 C47.7188333,35.3948795 48.0488333,35.0348795 49.0688333,35.0348795 C49.7888333,35.0348795 50.7338333,35.4248795 51.3188333,35.9048795 L52.2038333,34.7048795 C51.3788333,34.0148795 50.4488333,33.5798795 48.9338333,33.5798795 C47.1788333,33.5798795 45.9788333,34.5248795 45.9788333,35.9198795 C45.9788333,37.6330938 47.3886037,38.0658744 48.6828949,38.3711659 L49.3103538,38.5188272 C50.1182105,38.7169902 50.7488333,38.9357618 50.7488333,39.5048795 C50.7488333,40.1648795 50.1488333,40.4198795 49.1588333,40.4198795 C48.1388333,40.4198795 47.2538333,39.9848795 46.6538333,39.4748795 L45.6488333,40.5998795 C46.3688333,41.3348795 47.6888333,41.8598795 49.1588333,41.8598795 Z M54.7931917,41.6948795 L56.6381917,41.6948795 L56.6381917,35.1998795 L58.3781917,35.1998795 L58.3781917,33.7298795 L56.6381917,33.7298795 L56.6381917,33.0248795 C56.6381917,32.1698795 57.1781917,31.9898795 57.8381917,31.9898795 L58.0681917,31.9987684 C58.2281917,32.0098795 58.3881917,32.0298795 58.4681917,32.0498795 L58.4681917,30.6248795 L58.0695908,30.5874309 C57.8398583,30.568398 57.5648583,30.5498795 57.3731917,30.5498795 C55.3481917,30.5498795 54.7931917,31.5848795 54.7931917,32.9198795 L54.7931917,33.7298795 L53.4131917,33.7298795 L53.4131917,35.1998795 L54.7931917,35.1998795 L54.7931917,41.6948795 Z M63.15755,41.8598795 C65.09255,41.8598795 67.04255,40.6298795 67.04255,37.7198795 C67.04255,34.7798795 65.09255,33.5798795 63.15755,33.5798795 C61.20755,33.5798795 59.27255,34.7798795 59.27255,37.7198795 C59.27255,40.6298795 61.22255,41.8598795 63.15755,41.8598795 Z M63.15755,40.3148795 C61.74755,40.3148795 61.13255,39.2348795 61.13255,37.7198795 C61.13255,36.1148795 61.82255,35.1548795 63.15755,35.1548795 C64.55255,35.1548795 65.18255,36.2348795 65.18255,37.7198795 C65.18255,39.3548795 64.49255,40.3148795 63.15755,40.3148795 Z M68.6719083,41.6948795 L70.5169083,41.6948795 L70.5169083,36.6548795 C71.0419083,35.7998795 71.7919083,35.2448795 72.9769083,35.2448795 L73.2890283,35.2578395 C73.3663083,35.2628795 73.4359083,35.2688795 73.4719083,35.2748795 L73.5319083,33.5798795 L73.4119083,33.5798795 C71.8969083,33.5798795 71.0419083,34.2398795 70.5469083,35.0348795 L70.5169083,35.0348795 L70.5169083,33.7298795 L68.6719083,33.7298795 L68.6719083,41.6948795 Z M78.1312666,41.8598795 C80.0512666,41.8598795 80.9962666,40.7948795 81.5662666,39.5198795 L80.0362666,38.9648795 C79.6012666,40.0898795 79.0162666,40.3448795 78.1762666,40.3448795 C76.9612666,40.3448795 76.2712666,39.4148795 76.2712666,37.7198795 C76.2712666,35.8148795 77.1562666,35.1248795 78.2062666,35.1248795 C79.0912666,35.1248795 79.6612666,35.5598795 79.9762666,36.4598795 L81.5362666,35.9048795 C81.0562666,34.6748795 80.2162666,33.5798795 78.2362666,33.5798795 C76.4662666,33.5798795 74.4112666,34.6748795 74.4112666,37.7198795 C74.4112666,40.6298795 76.2862666,41.8598795 78.1312666,41.8598795 Z M86.435625,41.8598795 C87.860625,41.8598795 88.955625,41.3348795 89.780625,40.4198795 L88.805625,39.4598795 C88.205625,40.0448795 87.605625,40.3898795 86.570625,40.3898795 C85.400625,40.3898795 84.515625,39.7598795 84.440625,38.3198795 L89.885625,38.3198795 L89.885625,37.8848795 C89.885625,34.6448795 88.175625,33.5798795 86.390625,33.5798795 C84.740625,33.5798795 82.595625,34.6898795 82.595625,37.7198795 C82.595625,40.6448795 84.440625,41.8598795 86.435625,41.8598795 Z M84.470625,36.9398795 C84.650625,35.5898795 85.475625,35.0798795 86.375625,35.0798795 C87.485625,35.0798795 88.085625,35.7248795 88.190625,36.9398795 L84.470625,36.9398795 Z M98.7243416,41.8598795 C100.659342,41.8598795 102.609342,40.6298795 102.609342,37.7198795 C102.609342,34.7798795 100.659342,33.5798795 98.7243416,33.5798795 C96.7743416,33.5798795 94.8393416,34.7798795 94.8393416,37.7198795 C94.8393416,40.6298795 96.7893416,41.8598795 98.7243416,41.8598795 Z M98.7243416,40.3148795 C97.3143416,40.3148795 96.6993416,39.2348795 96.6993416,37.7198795 C96.6993416,36.1148795 97.3893416,35.1548795 98.7243416,35.1548795 C100.119342,35.1548795 100.749342,36.2348795 100.749342,37.7198795 C100.749342,39.3548795 100.059342,40.3148795 98.7243416,40.3148795 Z M104.2387,41.6948795 L106.0837,41.6948795 L106.0837,36.6548795 C106.6087,35.7998795 107.3587,35.2448795 108.5437,35.2448795 L108.85582,35.2578395 C108.9331,35.2628795 109.0027,35.2688795 109.0387,35.2748795 L109.0987,33.5798795 L108.9787,33.5798795 C107.4637,33.5798795 106.6087,34.2398795 106.1137,35.0348795 L106.0837,35.0348795 L106.0837,33.7298795 L104.2387,33.7298795 L104.2387,41.6948795 Z M113.428058,44.7848795 C115.888058,44.7848795 117.538058,43.9898795 117.538058,42.3548795 C117.538058,40.9598795 116.608058,40.3298795 114.253058,40.1798795 L112.843058,40.0898795 C112.138058,40.0298795 111.928058,39.9248795 111.928058,39.6098795 C111.928058,39.3998795 112.093058,39.2348795 112.333058,39.0998795 C112.723058,39.2048795 112.993058,39.2648795 113.443058,39.2648795 C115.513058,39.2648795 116.758058,38.0948795 116.758058,36.4298795 C116.758058,36.0098795 116.653058,35.6348795 116.473058,35.3498795 C116.998058,35.1848795 117.508058,35.1398795 117.868058,35.1398795 L117.868058,33.6398795 C117.208058,33.6998795 116.398058,34.0148795 115.888058,34.4198795 C115.348058,33.9398795 114.538058,33.5798795 113.443058,33.5798795 C111.358058,33.5798795 110.098058,34.7948795 110.098058,36.4298795 C110.098058,37.4048795 110.548058,38.2148795 111.358058,38.7248795 C110.758058,39.0848795 110.278058,39.5798795 110.278058,40.1798795 C110.278058,40.6148795 110.488058,40.9448795 110.893058,41.1548795 C110.083058,41.4698795 109.588058,42.0398795 109.588058,42.8348795 C109.588058,43.9898795 110.683058,44.7848795 113.428058,44.7848795 Z M113.473058,37.9898795 C112.453058,37.9898795 111.838058,37.4648795 111.838058,36.4898795 C111.838058,35.5148795 112.438058,34.9598795 113.458058,34.9598795 C114.508058,34.9598795 115.078058,35.4998795 115.078058,36.4898795 C115.078058,37.4648795 114.478058,37.9898795 113.473058,37.9898795 Z M113.713058,43.4498795 C112.093058,43.4498795 111.283058,43.2248795 111.283058,42.5198795 C111.283058,42.1148795 111.493058,41.7398795 112.018058,41.4998795 C112.183058,41.5298795 112.333058,41.5448795 112.498058,41.5448795 L113.878058,41.6348795 L114.273638,41.6648203 C115.565431,41.7791233 115.903058,41.9994447 115.903058,42.5198795 C115.903058,43.0898795 115.063058,43.4498795 113.713058,43.4498795 Z M123.706775,41.6948795 L125.551775,41.6948795 L125.551775,35.1998795 L127.291775,35.1998795 L127.291775,33.7298795 L125.551775,33.7298795 L125.551775,33.0248795 C125.551775,32.1698795 126.091775,31.9898795 126.751775,31.9898795 L126.981775,31.9987684 C127.141775,32.0098795 127.301775,32.0298795 127.381775,32.0498795 L127.381775,30.6248795 L126.983174,30.5874309 C126.753442,30.568398 126.478442,30.5498795 126.286775,30.5498795 C124.261775,30.5498795 123.706775,31.5848795 123.706775,32.9198795 L123.706775,33.7298795 L122.326775,33.7298795 L122.326775,35.1998795 L123.706775,35.1998795 L123.706775,41.6948795 Z M132.071133,41.8598795 C134.006133,41.8598795 135.956133,40.6298795 135.956133,37.7198795 C135.956133,34.7798795 134.006133,33.5798795 132.071133,33.5798795 C130.121133,33.5798795 128.186133,34.7798795 128.186133,37.7198795 C128.186133,40.6298795 130.136133,41.8598795 132.071133,41.8598795 Z M132.071133,40.3148795 C130.661133,40.3148795 130.046133,39.2348795 130.046133,37.7198795 C130.046133,36.1148795 130.736133,35.1548795 132.071133,35.1548795 C133.466133,35.1548795 134.096133,36.2348795 134.096133,37.7198795 C134.096133,39.3548795 133.406133,40.3148795 132.071133,40.3148795 Z M137.585492,41.6948795 L139.430492,41.6948795 L139.430492,36.6548795 C139.955492,35.7998795 140.705492,35.2448795 141.890492,35.2448795 L142.202612,35.2578395 C142.279892,35.2628795 142.349492,35.2688795 142.385492,35.2748795 L142.445492,33.5798795 L142.325492,33.5798795 C140.810492,33.5798795 139.955492,34.2398795 139.460492,35.0348795 L139.430492,35.0348795 L139.430492,33.7298795 L137.585492,33.7298795 L137.585492,41.6948795 Z M150.819208,41.8598795 C152.739208,41.8598795 153.684208,40.7948795 154.254208,39.5198795 L152.724208,38.9648795 C152.289208,40.0898795 151.704208,40.3448795 150.864208,40.3448795 C149.649208,40.3448795 148.959208,39.4148795 148.959208,37.7198795 C148.959208,35.8148795 149.844208,35.1248795 150.894208,35.1248795 C151.779208,35.1248795 152.349208,35.5598795 152.664208,36.4598795 L154.224208,35.9048795 C153.744208,34.6748795 152.904208,33.5798795 150.924208,33.5798795 C149.154208,33.5798795 147.099208,34.6748795 147.099208,37.7198795 C147.099208,40.6298795 148.974208,41.8598795 150.819208,41.8598795 Z M155.733567,41.6948795 L157.593567,41.6948795 L157.593567,36.1898795 C158.268567,35.5748795 158.943567,35.1548795 159.753567,35.1548795 C160.563567,35.1548795 160.938567,35.5598795 160.938567,36.4448795 L160.938567,41.6948795 L162.798567,41.6948795 L162.798567,35.9798795 C162.798567,34.4048795 161.898567,33.5798795 160.503567,33.5798795 C159.063567,33.5798795 158.103567,34.2698795 157.593567,34.8098795 L157.593567,30.5948795 L155.733567,30.5948795 L155.733567,41.6948795 Z M166.527925,41.8148795 C167.712925,41.8148795 168.657925,41.4998795 169.467925,40.6748795 C169.467925,41.1248795 169.542925,41.3648795 169.647925,41.6948795 L171.507925,41.6948795 C171.342925,41.2898795 171.282925,40.7048795 171.282925,39.7448795 L171.282925,36.4598795 C171.282925,34.5998795 170.547925,33.5798795 168.417925,33.5798795 C166.767925,33.5798795 165.432925,34.2398795 164.577925,35.0198795 L165.477925,36.1748795 C166.152925,35.6348795 167.052925,35.0948795 168.162925,35.0948795 C169.047925,35.0948795 169.467925,35.4398795 169.467925,36.2348795 L169.467925,36.4748795 C165.747925,36.8948795 164.277925,38.0498795 164.277925,39.7748795 C164.277925,41.0948795 165.237925,41.8148795 166.527925,41.8148795 Z M167.202925,40.3898795 C166.527925,40.3898795 166.092925,40.0598795 166.092925,39.4298795 C166.092925,38.5598795 167.262925,38.0198795 169.467925,37.7198795 L169.467925,39.4748795 C168.882925,40.0298795 168.147925,40.3898795 167.202925,40.3898795 Z M173.272283,41.6948795 L175.132283,41.6948795 L175.132283,36.1898795 C175.807283,35.5748795 176.482283,35.1548795 177.292283,35.1548795 C178.102283,35.1548795 178.477283,35.5598795 178.477283,36.4448795 L178.477283,41.6948795 L180.337283,41.6948795 L180.337283,35.9798795 C180.337283,34.4048795 179.437283,33.5798795 178.042283,33.5798795 C176.602283,33.5798795 175.642283,34.2698795 175.132283,34.8098795 L175.132283,33.7298795 L173.272283,33.7298795 L173.272283,41.6948795 Z M185.326642,44.7848795 C187.786642,44.7848795 189.436642,43.9898795 189.436642,42.3548795 C189.436642,40.9598795 188.506642,40.3298795 186.151642,40.1798795 L184.741642,40.0898795 C184.036642,40.0298795 183.826642,39.9248795 183.826642,39.6098795 C183.826642,39.3998795 183.991642,39.2348795 184.231642,39.0998795 C184.621642,39.2048795 184.891642,39.2648795 185.341642,39.2648795 C187.411642,39.2648795 188.656642,38.0948795 188.656642,36.4298795 C188.656642,36.0098795 188.551642,35.6348795 188.371642,35.3498795 C188.896642,35.1848795 189.406642,35.1398795 189.766642,35.1398795 L189.766642,33.6398795 C189.106642,33.6998795 188.296642,34.0148795 187.786642,34.4198795 C187.246642,33.9398795 186.436642,33.5798795 185.341642,33.5798795 C183.256642,33.5798795 181.996642,34.7948795 181.996642,36.4298795 C181.996642,37.4048795 182.446642,38.2148795 183.256642,38.7248795 C182.656642,39.0848795 182.176642,39.5798795 182.176642,40.1798795 C182.176642,40.6148795 182.386642,40.9448795 182.791642,41.1548795 C181.981642,41.4698795 181.486642,42.0398795 181.486642,42.8348795 C181.486642,43.9898795 182.581642,44.7848795 185.326642,44.7848795 Z M185.371642,37.9898795 C184.351642,37.9898795 183.736642,37.4648795 183.736642,36.4898795 C183.736642,35.5148795 184.336642,34.9598795 185.356642,34.9598795 C186.406642,34.9598795 186.976642,35.4998795 186.976642,36.4898795 C186.976642,37.4648795 186.376642,37.9898795 185.371642,37.9898795 Z M185.611642,43.4498795 C183.991642,43.4498795 183.181642,43.2248795 183.181642,42.5198795 C183.181642,42.1148795 183.391642,41.7398795 183.916642,41.4998795 C184.081642,41.5298795 184.231642,41.5448795 184.396642,41.5448795 L185.776642,41.6348795 L186.172221,41.6648203 C187.464014,41.7791233 187.801642,41.9994447 187.801642,42.5198795 C187.801642,43.0898795 186.961642,43.4498795 185.611642,43.4498795 Z M194.531,41.8598795 C195.956,41.8598795 197.051,41.3348795 197.876,40.4198795 L196.901,39.4598795 C196.301,40.0448795 195.701,40.3898795 194.666,40.3898795 C193.496,40.3898795 192.611,39.7598795 192.536,38.3198795 L197.981,38.3198795 L197.981,37.8848795 C197.981,34.6448795 196.271,33.5798795 194.486,33.5798795 C192.836,33.5798795 190.691,34.6898795 190.691,37.7198795 C190.691,40.6448795 192.536,41.8598795 194.531,41.8598795 Z M192.566,36.9398795 C192.746,35.5898795 193.571,35.0798795 194.471,35.0798795 C195.581,35.0798795 196.181,35.7248795 196.286,36.9398795 L192.566,36.9398795 Z M202.520358,41.8598795 C204.335358,41.8598795 205.850358,41.0798795 205.850358,39.3998795 C205.850358,37.8055938 204.627093,37.3243693 203.417997,37.0304917 L202.494107,36.8206275 C201.699303,36.6327687 201.080358,36.4139971 201.080358,35.8448795 C201.080358,35.3948795 201.410358,35.0348795 202.430358,35.0348795 C203.150358,35.0348795 204.095358,35.4248795 204.680358,35.9048795 L205.565358,34.7048795 C204.740358,34.0148795 203.810358,33.5798795 202.295358,33.5798795 C200.540358,33.5798795 199.340358,34.5248795 199.340358,35.9198795 C199.340358,37.5672009 200.64377,38.0306894 201.894653,38.3353086 L202.671879,38.5188272 C203.479735,38.7169902 204.110358,38.9357618 204.110358,39.5048795 C204.110358,40.1648795 203.510358,40.4198795 202.520358,40.4198795 C201.500358,40.4198795 200.615358,39.9848795 200.015358,39.4748795 L199.010358,40.5998795 C199.730358,41.3348795 201.050358,41.8598795 202.520358,41.8598795 Z M212.979075,41.8148795 C214.164075,41.8148795 215.109075,41.4998795 215.919075,40.6748795 C215.919075,41.1248795 215.994075,41.3648795 216.099075,41.6948795 L217.959075,41.6948795 C217.809075,41.3266976 217.745852,40.8097555 217.735596,39.9975466 L217.734075,36.4598795 C217.734075,34.5998795 216.999075,33.5798795 214.869075,33.5798795 C213.219075,33.5798795 211.884075,34.2398795 211.029075,35.0198795 L211.929075,36.1748795 C212.604075,35.6348795 213.504075,35.0948795 214.614075,35.0948795 C215.499075,35.0948795 215.919075,35.4398795 215.919075,36.2348795 L215.919075,36.4748795 C212.199075,36.8948795 210.729075,38.0498795 210.729075,39.7748795 C210.729075,41.0948795 211.689075,41.8148795 212.979075,41.8148795 Z M213.654075,40.3898795 C212.979075,40.3898795 212.544075,40.0598795 212.544075,39.4298795 C212.544075,38.5598795 213.714075,38.0198795 215.919075,37.7198795 L215.919075,39.4748795 C215.334075,40.0298795 214.599075,40.3898795 213.654075,40.3898795 Z M219.723433,41.6948795 L221.583433,41.6948795 L221.583433,36.1898795 C222.258433,35.5748795 222.933433,35.1548795 223.743433,35.1548795 C224.553433,35.1548795 224.928433,35.5598795 224.928433,36.4448795 L224.928433,41.6948795 L226.788433,41.6948795 L226.788433,35.9798795 C226.788433,34.4048795 225.888433,33.5798795 224.493433,33.5798795 C223.053433,33.5798795 222.093433,34.2698795 221.583433,34.8098795 L221.583433,33.7298795 L219.723433,33.7298795 L219.723433,41.6948795 Z M231.492792,41.8148795 C232.677792,41.8148795 233.442792,41.2898795 234.027792,40.6148795 C234.027792,41.0198795 234.102792,41.4698795 234.207792,41.6948795 L236.112792,41.6948795 C235.932792,41.2898795 235.872792,40.7048795 235.872792,39.7448795 L235.872792,30.5948795 L234.027792,30.5948795 L234.027792,34.5848795 C233.442792,33.9248795 232.602792,33.5798795 231.747792,33.5798795 C229.707792,33.5798795 228.342792,34.9748795 228.342792,37.7348795 C228.342792,40.4948795 229.677792,41.8148795 231.492792,41.8148795 Z M232.092792,40.2998795 C230.907792,40.2998795 230.187792,39.4598795 230.187792,37.7798795 C230.187792,36.0098795 230.757792,35.1098795 232.152792,35.1098795 C232.812792,35.1098795 233.532792,35.4548795 234.027792,36.0998795 L234.027792,39.2948795 C233.592792,39.8198795 232.857792,40.2998795 232.092792,40.2998795 Z M17.9964,58.8598795 C19.8114,58.8598795 21.3264,58.0798795 21.3264,56.3998795 C21.3264,54.8055938 20.1031347,54.3243693 18.8940385,54.0304917 L17.9701492,53.8206275 C17.1753446,53.6327687 16.5564,53.4139971 16.5564,52.8448795 C16.5564,52.3948795 16.8864,52.0348795 17.9064,52.0348795 C18.6264,52.0348795 19.5714,52.4248795 20.1564,52.9048795 L21.0414,51.7048795 C20.2164,51.0148795 19.2864,50.5798795 17.7714,50.5798795 C16.0164,50.5798795 14.8164,51.5248795 14.8164,52.9198795 C14.8164,54.5672009 16.119812,55.0306894 17.3706946,55.3353086 L18.1479205,55.5188272 C18.9557772,55.7169902 19.5864,55.9357618 19.5864,56.5048795 C19.5864,57.1648795 18.9864,57.4198795 17.9964,57.4198795 C16.9764,57.4198795 16.0914,56.9848795 15.4914,56.4748795 L14.4864,57.5998795 C15.2064,58.3348795 16.5264,58.8598795 17.9964,58.8598795 Z M23.7807583,61.7848795 C25.2872801,61.7848795 25.9840854,61.0300591 26.5012852,59.7435825 L29.9607583,50.7298795 L28.1307583,50.7298795 L26.0907583,56.5348795 L26.0607583,56.5348795 L24.0057583,50.7298795 L22.0857583,50.7298795 L25.1457583,58.7398795 L24.9207583,59.3248795 C24.6657583,59.9698795 24.3207583,60.2248795 23.6607583,60.2248795 C23.0157583,60.2248795 22.5357583,60.1198795 22.3107583,60.0598795 L21.8907583,61.5448795 L22.10055,61.5991156 C22.4765917,61.6911295 22.9932583,61.7848795 23.7807583,61.7848795 Z M31.1551167,58.6948795 L33.0151167,58.6948795 L33.0151167,53.1898795 C33.6901167,52.5748795 34.3651167,52.1548795 35.1751167,52.1548795 C35.9851167,52.1548795 36.3601167,52.5598795 36.3601167,53.4448795 L36.3601167,58.6948795 L38.2201167,58.6948795 L38.2201167,52.9798795 C38.2201167,51.4048795 37.3201167,50.5798795 35.9251167,50.5798795 C34.4851167,50.5798795 33.5251167,51.2698795 33.0151167,51.8098795 L33.0151167,50.7298795 L31.1551167,50.7298795 L31.1551167,58.6948795 Z M43.479475,58.8598795 C45.399475,58.8598795 46.344475,57.7948795 46.914475,56.5198795 L45.384475,55.9648795 C44.949475,57.0898795 44.364475,57.3448795 43.524475,57.3448795 C42.309475,57.3448795 41.619475,56.4148795 41.619475,54.7198795 C41.619475,52.8148795 42.504475,52.1248795 43.554475,52.1248795 C44.439475,52.1248795 45.009475,52.5598795 45.324475,53.4598795 L46.884475,52.9048795 C46.404475,51.6748795 45.564475,50.5798795 43.584475,50.5798795 C41.814475,50.5798795 39.759475,51.6748795 39.759475,54.7198795 C39.759475,57.6298795 41.634475,58.8598795 43.479475,58.8598795 Z M55.0472589,58.7970123 L55.2581917,58.7998795 C55.7231917,58.7998795 56.4131917,58.7398795 56.6081917,58.6948795 L56.6081917,57.2398795 C56.4281917,57.2998795 56.0831917,57.3448795 55.8131917,57.3448795 C54.8981917,57.3448795 54.6431917,56.9998795 54.6431917,56.1448795 L54.6431917,52.1998795 L56.6981917,52.1998795 L56.6981917,50.7298795 L54.6431917,50.7298795 L54.6431917,47.9548795 L52.7981917,47.9548795 L52.7981917,50.7298795 L51.4181917,50.7298795 L51.4181917,52.1998795 L52.7981917,52.1998795 L52.7981917,56.6098795 C52.7981917,57.9984509 53.2026751,58.7454279 55.0472589,58.7970123 L55.0472589,58.7970123 Z M58.22255,58.6948795 L60.08255,58.6948795 L60.08255,53.1898795 C60.75755,52.5748795 61.43255,52.1548795 62.24255,52.1548795 C63.05255,52.1548795 63.42755,52.5598795 63.42755,53.4448795 L63.42755,58.6948795 L65.28755,58.6948795 L65.28755,52.9798795 C65.28755,51.4048795 64.38755,50.5798795 62.99255,50.5798795 C61.55255,50.5798795 60.59255,51.2698795 60.08255,51.8098795 L60.08255,47.5948795 L58.22255,47.5948795 L58.22255,58.6948795 Z M70.6669083,58.8598795 C72.0919083,58.8598795 73.1869083,58.3348795 74.0119083,57.4198795 L73.0369083,56.4598795 C72.4369083,57.0448795 71.8369083,57.3898795 70.8019083,57.3898795 C69.6319083,57.3898795 68.7469083,56.7598795 68.6719083,55.3198795 L74.1169083,55.3198795 L74.1169083,54.8848795 C74.1169083,51.6448795 72.4069083,50.5798795 70.6219083,50.5798795 C68.9719083,50.5798795 66.8269083,51.6898795 66.8269083,54.7198795 C66.8269083,57.6448795 68.6719083,58.8598795 70.6669083,58.8598795 Z M68.7019083,53.9398795 C68.8819083,52.5898795 69.7069083,52.0798795 70.6069083,52.0798795 C71.7169083,52.0798795 72.3169083,52.7248795 72.4219083,53.9398795 L68.7019083,53.9398795 Z M75.7462666,58.6948795 L77.5912666,58.6948795 L77.5912666,53.1898795 C78.2812666,52.5748795 78.8962666,52.1548795 79.6312666,52.1548795 C80.5012666,52.1548795 80.7562666,52.5598795 80.7562666,53.4448795 L80.7562666,58.6948795 L82.6012666,58.6948795 L82.6012666,53.1898795 C83.2912666,52.5748795 83.8912666,52.1548795 84.6412666,52.1548795 C85.5112666,52.1548795 85.7662666,52.5598795 85.7662666,53.4448795 L85.7662666,58.6948795 L87.6112666,58.6948795 L87.6112666,52.9798795 C87.6112666,51.5548795 86.9062666,50.5798795 85.2862666,50.5798795 C84.0712666,50.5798795 83.1262666,51.1948795 82.4962666,51.8848795 C82.1812666,51.1048795 81.6562666,50.5798795 80.3212666,50.5798795 C79.1062666,50.5798795 78.2062666,51.1498795 77.5912666,51.8248795 L77.5912666,50.7298795 L75.7462666,50.7298795 L75.7462666,58.6948795 Z M96.2690506,58.7970123 L96.4799833,58.7998795 C96.9449833,58.7998795 97.6349833,58.7398795 97.8299833,58.6948795 L97.8299833,57.2398795 C97.6499833,57.2998795 97.3049833,57.3448795 97.0349833,57.3448795 C96.1199833,57.3448795 95.8649833,56.9998795 95.8649833,56.1448795 L95.8649833,52.1998795 L97.9199833,52.1998795 L97.9199833,50.7298795 L95.8649833,50.7298795 L95.8649833,47.9548795 L94.0199833,47.9548795 L94.0199833,50.7298795 L92.6399833,50.7298795 L92.6399833,52.1998795 L94.0199833,52.1998795 L94.0199833,56.6098795 C94.0199833,57.9984509 94.4244667,58.7454279 96.2690506,58.7970123 L96.2690506,58.7970123 Z M102.879342,58.8598795 C104.814342,58.8598795 106.764342,57.6298795 106.764342,54.7198795 C106.764342,51.7798795 104.814342,50.5798795 102.879342,50.5798795 C100.929342,50.5798795 98.9943416,51.7798795 98.9943416,54.7198795 C98.9943416,57.6298795 100.944342,58.8598795 102.879342,58.8598795 Z M102.879342,57.3148795 C101.469342,57.3148795 100.854342,56.2348795 100.854342,54.7198795 C100.854342,53.1148795 101.544342,52.1548795 102.879342,52.1548795 C104.274342,52.1548795 104.904342,53.2348795 104.904342,54.7198795 C104.904342,56.3548795 104.214342,57.3148795 102.879342,57.3148795 Z M113.008058,61.7848795 C114.51458,61.7848795 115.211385,61.0300591 115.728585,59.7435825 L119.188058,50.7298795 L117.358058,50.7298795 L115.318058,56.5348795 L115.288058,56.5348795 L113.233058,50.7298795 L111.313058,50.7298795 L114.373058,58.7398795 L114.148058,59.3248795 C113.893058,59.9698795 113.548058,60.2248795 112.888058,60.2248795 C112.243058,60.2248795 111.763058,60.1198795 111.538058,60.0598795 L111.118058,61.5448795 L111.32785,61.5991156 C111.703892,61.6911295 112.220558,61.7848795 113.008058,61.7848795 Z M123.817417,58.8598795 C125.752417,58.8598795 127.702417,57.6298795 127.702417,54.7198795 C127.702417,51.7798795 125.752417,50.5798795 123.817417,50.5798795 C121.867417,50.5798795 119.932417,51.7798795 119.932417,54.7198795 C119.932417,57.6298795 121.882417,58.8598795 123.817417,58.8598795 Z M123.817417,57.3148795 C122.407417,57.3148795 121.792417,56.2348795 121.792417,54.7198795 C121.792417,53.1148795 122.482417,52.1548795 123.817417,52.1548795 C125.212417,52.1548795 125.842417,53.2348795 125.842417,54.7198795 C125.842417,56.3548795 125.152417,57.3148795 123.817417,57.3148795 Z M131.536775,58.8448795 C132.976775,58.8448795 133.936775,58.1548795 134.446775,57.6148795 L134.446775,58.6948795 L136.306775,58.6948795 L136.306775,50.7298795 L134.446775,50.7298795 L134.446775,56.2648795 C133.771775,56.8798795 133.096775,57.2998795 132.286775,57.2998795 C131.476775,57.2998795 131.101775,56.8948795 131.101775,56.0098795 L131.101775,50.7298795 L129.241775,50.7298795 L129.241775,56.4448795 C129.241775,58.0198795 130.141775,58.8448795 131.536775,58.8448795 Z M138.386133,58.6948795 L140.231133,58.6948795 L140.231133,53.6548795 C140.756133,52.7998795 141.506133,52.2448795 142.691133,52.2448795 L143.003253,52.2578395 C143.080533,52.2628795 143.150133,52.2688795 143.186133,52.2748795 L143.246133,50.5798795 L143.126133,50.5798795 C141.611133,50.5798795 140.756133,51.2398795 140.261133,52.0348795 L140.231133,52.0348795 L140.231133,50.7298795 L138.386133,50.7298795 L138.386133,58.6948795 Z M151.06485,58.8148795 C152.24985,58.8148795 153.01485,58.2898795 153.59985,57.6148795 C153.59985,58.0198795 153.67485,58.4698795 153.77985,58.6948795 L155.68485,58.6948795 C155.50485,58.2898795 155.44485,57.7048795 155.44485,56.7448795 L155.44485,47.5948795 L153.59985,47.5948795 L153.59985,51.5848795 C153.01485,50.9248795 152.17485,50.5798795 151.31985,50.5798795 C149.27985,50.5798795 147.91485,51.9748795 147.91485,54.7348795 C147.91485,57.4948795 149.24985,58.8148795 151.06485,58.8148795 Z M151.66485,57.2998795 C150.47985,57.2998795 149.75985,56.4598795 149.75985,54.7798795 C149.75985,53.0098795 150.32985,52.1098795 151.72485,52.1098795 C152.38485,52.1098795 153.10485,52.4548795 153.59985,53.0998795 L153.59985,56.2948795 C153.16485,56.8198795 152.42985,57.2998795 151.66485,57.2998795 Z M159.264208,58.8148795 C160.449208,58.8148795 161.394208,58.4998795 162.204208,57.6748795 C162.204208,58.1248795 162.279208,58.3648795 162.384208,58.6948795 L164.244208,58.6948795 C164.094208,58.3266976 164.030985,57.8097555 164.02073,56.9975466 L164.019208,53.4598795 C164.019208,51.5998795 163.284208,50.5798795 161.154208,50.5798795 C159.504208,50.5798795 158.169208,51.2398795 157.314208,52.0198795 L158.214208,53.1748795 C158.889208,52.6348795 159.789208,52.0948795 160.899208,52.0948795 C161.784208,52.0948795 162.204208,52.4398795 162.204208,53.2348795 L162.204208,53.4748795 C158.484208,53.8948795 157.014208,55.0498795 157.014208,56.7748795 C157.014208,58.0948795 157.974208,58.8148795 159.264208,58.8148795 Z M159.939208,57.3898795 C159.264208,57.3898795 158.829208,57.0598795 158.829208,56.4298795 C158.829208,55.5598795 159.999208,55.0198795 162.204208,54.7198795 L162.204208,56.4748795 C161.619208,57.0298795 160.884208,57.3898795 159.939208,57.3898795 Z M168.887634,58.7970123 L169.098567,58.7998795 C169.563567,58.7998795 170.253567,58.7398795 170.448567,58.6948795 L170.448567,57.2398795 C170.268567,57.2998795 169.923567,57.3448795 169.653567,57.3448795 C168.738567,57.3448795 168.483567,56.9998795 168.483567,56.1448795 L168.483567,52.1998795 L170.538567,52.1998795 L170.538567,50.7298795 L168.483567,50.7298795 L168.483567,47.9548795 L166.638567,47.9548795 L166.638567,50.7298795 L165.258567,50.7298795 L165.258567,52.1998795 L166.638567,52.1998795 L166.638567,56.6098795 C166.638567,57.9984509 167.04305,58.7454279 168.887634,58.7970123 L168.887634,58.7970123 Z M173.802925,58.8148795 C174.987925,58.8148795 175.932925,58.4998795 176.742925,57.6748795 C176.742925,58.1248795 176.817925,58.3648795 176.922925,58.6948795 L178.782925,58.6948795 C178.617925,58.2898795 178.557925,57.7048795 178.557925,56.7448795 L178.557925,53.4598795 C178.557925,51.5998795 177.822925,50.5798795 175.692925,50.5798795 C174.042925,50.5798795 172.707925,51.2398795 171.852925,52.0198795 L172.752925,53.1748795 C173.427925,52.6348795 174.327925,52.0948795 175.437925,52.0948795 C176.322925,52.0948795 176.742925,52.4398795 176.742925,53.2348795 L176.742925,53.4748795 C173.022925,53.8948795 171.552925,55.0498795 171.552925,56.7748795 C171.552925,58.0948795 172.512925,58.8148795 173.802925,58.8148795 Z M174.477925,57.3898795 C173.802925,57.3898795 173.367925,57.0598795 173.367925,56.4298795 C173.367925,55.5598795 174.537925,55.0198795 176.742925,54.7198795 L176.742925,56.4748795 C176.157925,57.0298795 175.422925,57.3898795 174.477925,57.3898795 Z M184.672283,58.8148795 C186.712283,58.8148795 188.077283,57.4648795 188.077283,54.7048795 C188.077283,51.9448795 186.742283,50.5798795 184.927283,50.5798795 C183.742283,50.5798795 182.917283,51.1498795 182.392283,51.7798795 L182.392283,47.5948795 L180.547283,47.5948795 L180.547283,58.6948795 L182.392283,58.6948795 L182.392283,57.8098795 C182.977283,58.4698795 183.817283,58.8148795 184.672283,58.8148795 Z M184.267283,57.3448795 C183.607283,57.3448795 182.887283,56.9998795 182.392283,56.3548795 L182.392283,53.1598795 C182.827283,52.6348795 183.562283,52.1548795 184.327283,52.1548795 C185.512283,52.1548795 186.232283,53.0398795 186.232283,54.7198795 C186.232283,56.4898795 185.662283,57.3448795 184.267283,57.3448795 Z M191.461642,58.8148795 C192.646642,58.8148795 193.591642,58.4998795 194.401642,57.6748795 C194.401642,58.1248795 194.476642,58.3648795 194.581642,58.6948795 L196.441642,58.6948795 C196.276642,58.2898795 196.216642,57.7048795 196.216642,56.7448795 L196.216642,53.4598795 C196.216642,51.5998795 195.481642,50.5798795 193.351642,50.5798795 C191.701642,50.5798795 190.366642,51.2398795 189.511642,52.0198795 L190.411642,53.1748795 C191.086642,52.6348795 191.986642,52.0948795 193.096642,52.0948795 C193.981642,52.0948795 194.401642,52.4398795 194.401642,53.2348795 L194.401642,53.4748795 C190.681642,53.8948795 189.211642,55.0498795 189.211642,56.7748795 C189.211642,58.0948795 190.171642,58.8148795 191.461642,58.8148795 Z M192.136642,57.3898795 C191.461642,57.3898795 191.026642,57.0598795 191.026642,56.4298795 C191.026642,55.5598795 192.196642,55.0198795 194.401642,54.7198795 L194.401642,56.4748795 C193.816642,57.0298795 193.081642,57.3898795 192.136642,57.3898795 Z M201.116,58.8598795 C202.931,58.8598795 204.446,58.0798795 204.446,56.3998795 C204.446,54.8055938 203.222735,54.3243693 202.013638,54.0304917 L201.089749,53.8206275 C200.294945,53.6327687 199.676,53.4139971 199.676,52.8448795 C199.676,52.3948795 200.006,52.0348795 201.026,52.0348795 C201.746,52.0348795 202.691,52.4248795 203.276,52.9048795 L204.161,51.7048795 C203.336,51.0148795 202.406,50.5798795 200.891,50.5798795 C199.136,50.5798795 197.936,51.5248795 197.936,52.9198795 C197.936,54.5672009 199.239412,55.0306894 200.490295,55.3353086 L201.26752,55.5188272 C202.075377,55.7169902 202.706,55.9357618 202.706,56.5048795 C202.706,57.1648795 202.106,57.4198795 201.116,57.4198795 C200.096,57.4198795 199.211,56.9848795 198.611,56.4748795 L197.606,57.5998795 C198.326,58.3348795 199.646,58.8598795 201.116,58.8598795 Z M209.450358,58.8598795 C210.875358,58.8598795 211.970358,58.3348795 212.795358,57.4198795 L211.820358,56.4598795 C211.220358,57.0448795 210.620358,57.3898795 209.585358,57.3898795 C208.415358,57.3898795 207.530358,56.7598795 207.455358,55.3198795 L212.900358,55.3198795 L212.900358,54.8848795 C212.900358,51.6448795 211.190358,50.5798795 209.405358,50.5798795 C207.755358,50.5798795 205.610358,51.6898795 205.610358,54.7198795 C205.610358,57.6448795 207.455358,58.8598795 209.450358,58.8598795 Z M207.485358,53.9398795 C207.665358,52.5898795 208.490358,52.0798795 209.390358,52.0798795 C210.500358,52.0798795 211.100358,52.7248795 211.205358,53.9398795 L207.485358,53.9398795 Z M214.529717,58.6948795 L214.529717,56.7448795 L216.599717,56.7448795 L216.599717,58.6948795 L214.529717,58.6948795 Z" id="HerokuConnectwillpollyourSalesforceorgforchangesandsyncthemtoyourdatabase." fill="#FFFFFF" fill-rule="nonzero"></path>
            </g>
        </g>
    </g>
</svg>